<svg width="118" height="100" viewBox="0 0 118 100" fill="none" xmlns="http://www.w3.org/2000/svg">
<path d="M99.6975 40.6978C99.6975 18.2211 81.4765 9.8218e-05 58.9998 9.23231e-05C36.5231 8.64282e-05 18.3022 18.221 18.3022 40.6977L99.6975 40.6978Z" fill="#B1B1B1"/>
<path d="M88.0696 69.7673C104.124 69.7673 117.139 56.7524 117.139 40.6976L88.0696 40.6976L88.0696 69.7673Z" fill="#B1B1B1"/>
<path d="M29.9301 69.7673C13.8753 69.7673 0.860348 56.7524 0.860344 40.6976L29.9301 40.6976L29.9301 69.7673Z" fill="#B1B1B1"/>
<path d="M59 39.5348C59 23.4801 45.985 10.4651 29.9302 10.4651V70.9302C29.9302 86.985 42.9452 100 59 100V39.5348Z" fill="#151515"/>
<path d="M59 39.5348C59 23.4801 72.015 10.4651 88.0698 10.4651V70.9302C88.0698 86.985 75.0548 100 59 100V39.5348Z" fill="#151515"/>
<path d="M0.860352 40.6978C0.860348 24.0008 13.8753 10.4652 29.9301 10.4652C45.9849 10.4652 58.9999 24.0008 58.9999 40.6977L0.860352 40.6978Z" fill="#151515"/>
<path d="M42.7207 74.4187C42.7207 82.7672 50.0091 89.535 58.9998 89.535C67.9905 89.535 75.2788 82.7672 75.2788 74.4187L42.7207 74.4187Z" fill="#F5F5F5"/>
<path d="M117.139 40.6978C117.139 24.0008 104.124 10.4652 88.0696 10.4652C72.0149 10.4652 58.9999 24.0008 58.9999 40.6977L117.139 40.6978Z" fill="#151515"/>
<circle cx="45.0465" cy="54.6512" r="9.30233" fill="#F5F5F5"/>
<circle r="9.30233" transform="matrix(-1 0 0 1 72.9533 54.6512)" fill="#F5F5F5"/>
</svg>
