<svg width="1366" height="333" viewBox="0 0 1366 333" fill="none" xmlns="http://www.w3.org/2000/svg">
<path d="M-277 225.695C-260.785 230.267 -244.986 234.008 -229.187 237.333C-212.557 241.074 -196.758 244.399 -182.622 248.972C-157.26 256.869 -135.225 271.416 -111.942 286.795C-88.6591 301.758 -64.9605 317.553 -37.1042 327.113C3.64063 340.829 33.1599 324.203 61.4318 308.409C71.8259 302.59 82.6357 296.771 93.8613 292.199C99.682 290.12 105.503 287.627 110.492 285.964C128.786 279.729 139.18 281.392 154.147 283.886C157.057 284.301 160.384 284.717 163.71 285.133C166.204 285.548 169.115 285.964 172.025 286.38C180.756 287.627 190.734 288.873 201.96 290.12C228.153 292.614 255.594 294.277 279.708 288.042C296.338 283.47 311.306 275.988 325.026 263.935C337.915 253.128 347.477 239.827 354.545 229.436C357.456 225.28 359.95 221.123 362.861 216.967C377.828 194.106 393.211 170.414 416.494 155.036C440.193 139.657 470.128 143.397 496.321 146.723C510.041 148.385 523.346 150.048 533.74 148.801C552.865 146.307 564.09 139.241 577.395 131.344C595.273 120.537 616.061 108.068 663.874 101.417C669.279 100.586 674.684 99.7547 680.088 99.339C747.858 91.0261 806.896 116.381 850.552 139.241C859.699 143.813 868.43 148.801 877.576 154.204L879.655 155.451C883.813 157.945 887.971 160.023 891.712 162.517C935.368 187.456 980.27 212.81 1034.74 220.707C1080.88 227.358 1110.82 208.238 1142.42 188.703C1156.97 179.559 1171.94 169.999 1188.98 163.348C1250.1 138.825 1336.16 130.928 1411.83 124.278C1439.27 121.784 1465.05 119.706 1488.75 116.38C1519.1 112.64 1556.52 108.068 1582.71 91.0261C1584.37 90.1948 1585.62 88.9478 1586.87 88.1165C1605.16 74.8159 1615.56 57.3587 1625.54 40.7329C1630.52 32.42 1635.51 23.6914 1641.75 15.7942C1645.08 11.6377 1648.4 7.48126 1652.14 3.74048L1652.14 -0.000335693C1647.57 4.57178 1643.41 9.55954 1639.67 14.5473C1633.44 22.8602 1628.45 31.5887 1623.46 39.9016C1613.06 57.3587 1603.08 73.9846 1585.21 86.8696C1583.96 87.7009 1582.3 88.9478 1581.05 89.7791C1555.27 105.989 1518.27 110.561 1488.33 114.302C1464.63 117.212 1438.86 119.706 1411.42 122.199C1335.33 128.85 1248.85 136.747 1187.32 161.27C1170.27 167.92 1155.31 177.48 1140.34 187.04C1109.16 206.576 1080.05 224.864 1035.15 218.629C981.517 211.148 938.694 186.625 893.375 160.855C889.218 158.361 885.06 156.282 881.318 153.789L879.239 152.542C869.677 147.138 860.946 142.151 851.799 137.578C807.728 114.302 747.858 88.9479 679.257 97.2608C673.852 98.0921 668.447 98.5077 662.626 99.339C613.982 105.989 592.362 119.29 575.316 129.681C562.427 137.578 551.617 144.229 532.908 146.723C522.514 147.97 509.625 146.307 496.321 144.644C469.296 141.319 438.53 137.578 414.415 153.373C390.717 168.752 374.918 192.859 359.95 215.72C357.04 219.876 354.545 224.448 351.635 228.189C344.567 238.58 335.42 251.465 322.531 262.272C308.811 273.91 294.675 281.392 278.46 285.548C254.762 291.783 227.737 290.12 201.96 287.627C190.734 286.795 181.172 285.133 172.441 283.886C169.53 283.47 166.62 283.054 164.125 282.639C160.799 282.223 157.473 281.808 154.563 281.392C139.18 278.898 128.37 277.235 109.245 283.886C104.255 285.548 98.019 288.042 92.6141 290.12C81.3884 294.693 70.5785 300.512 60.1844 306.331C31.0809 322.541 3.64063 337.92 -35.8569 324.619C-63.2974 315.475 -86.996 299.68 -109.863 284.717C-133.562 269.338 -155.597 254.791 -181.374 246.893C-195.51 242.321 -211.725 238.996 -228.356 235.255C-244.155 231.93 -260.369 228.189 -277 223.617L-277 225.695Z" fill="white"/>
</svg>
