<svg width="37" height="37" viewBox="0 0 37 37" fill="none" xmlns="http://www.w3.org/2000/svg">
<path d="M9.00157 36.832C4.22983 36.832 0.361572 32.9638 0.361572 28.192L0.361571 9.47203C0.361571 4.70029 4.22983 0.832031 9.00157 0.832031L27.7216 0.83203C32.4933 0.83203 36.3616 4.70029 36.3616 9.47203L36.3616 28.192C36.3616 32.9638 32.4933 36.832 27.7216 36.832L9.00157 36.832Z" fill="#00BC35"/>
<path d="M18.3616 21.832C21.6753 21.832 24.3616 19.1457 24.3616 15.832C24.3616 12.5183 21.6753 9.83203 18.3616 9.83203C15.0479 9.83203 12.3616 12.5183 12.3616 15.832C12.3616 19.1457 15.0479 21.832 18.3616 21.832Z" stroke="white" stroke-linecap="round" stroke-linejoin="round"/>
<path d="M18.3635 21.8354L21.7635 27.7244L23.3616 24.4924L26.9597 24.7244L23.5597 18.8354" stroke="white" stroke-linecap="round" stroke-linejoin="round"/>
<path d="M13.1636 18.8354L9.76357 24.7244L13.3617 24.4924L14.9597 27.7244L18.3597 21.8354" stroke="white" stroke-linecap="round" stroke-linejoin="round"/>
</svg>
