<svg width="36" height="37" viewBox="0 0 36 37" fill="none" xmlns="http://www.w3.org/2000/svg">
<path d="M8.64 36.832C3.86826 36.832 -1.69087e-07 32.9638 -3.77666e-07 28.192L-1.19594e-06 9.47203C-1.40452e-06 4.70029 3.86826 0.832031 8.64 0.832031L27.36 0.83203C32.1317 0.83203 36 4.70029 36 9.47203L36 28.192C36 32.9638 32.1317 36.832 27.36 36.832L8.64 36.832Z" fill="#F01A3C"/>
<path d="M18 21.832C21.3137 21.832 24 19.1457 24 15.832C24 12.5183 21.3137 9.83203 18 9.83203C14.6863 9.83203 12 12.5183 12 15.832C12 19.1457 14.6863 21.832 18 21.832Z" stroke="white" stroke-linecap="round" stroke-linejoin="round"/>
<path d="M18.002 21.8354L21.402 27.7244L23 24.4924L26.5981 24.7244L23.1981 18.8354" stroke="white" stroke-linecap="round" stroke-linejoin="round"/>
<path d="M12.802 18.8354L9.402 24.7244L13.0001 24.4924L14.5982 27.7244L17.9982 21.8354" stroke="white" stroke-linecap="round" stroke-linejoin="round"/>
</svg>
