<svg width="40" height="40" viewBox="0 0 40 40" fill="none" xmlns="http://www.w3.org/2000/svg">
<path d="M6.66705 16.6667H4.44482V34.4445H6.66705C7.88927 34.4445 8.88927 33.4445 8.88927 32.2223V18.8889C8.88927 17.6667 7.88927 16.6667 6.66705 16.6667Z" stroke="black" stroke-miterlimit="10"/>
<path d="M9.44482 20.5558H13.1115C13.6115 20.5558 14.1004 20.7225 14.5004 21.0447L18.8337 24.5113C19.2226 24.8225 19.7226 25.0002 20.2226 25.0002H22.7782C24.0004 25.0002 25.0004 26.0002 25.0004 27.2225" stroke="black" stroke-miterlimit="10" stroke-linecap="round"/>
<path d="M15.0004 27.2221C15.0004 27.2221 25.0004 28.3332 28.3337 27.2221C31.667 26.111 33.8893 23.8887 33.8893 23.8887C33.8893 23.8887 36.1115 21.6665 37.2226 23.8887C38.3337 26.111 32.7782 29.4443 32.7782 29.4443C32.7782 29.4443 25.1115 35.1887 17.7893 33.3443C16.9226 33.1221 16.167 32.6443 15.4782 32.0776C14.667 31.4221 12.9337 30.5554 9.44482 30.5554" stroke="black" stroke-miterlimit="10" stroke-linecap="round"/>
<rect x="14.5" y="4.5" width="19" height="12" rx="2.5" stroke="black"/>
<line x1="15" y1="8.5" x2="33" y2="8.5" stroke="black"/>
</svg>
