<svg width="40" height="40" viewBox="0 0 40 40" fill="none" xmlns="http://www.w3.org/2000/svg">
<path d="M25.8333 12.5L31.6666 6.66668M35 3.33334L31.6666 6.66668L35 3.33334ZM18.9833 19.35C19.8439 20.1991 20.528 21.2101 20.9962 22.3247C21.4645 23.4392 21.7076 24.6355 21.7117 25.8444C21.7157 27.0533 21.4806 28.2511 21.0198 29.3688C20.559 30.4865 19.8817 31.5021 19.0269 32.3569C18.172 33.2118 17.1565 33.8891 16.0388 34.3499C14.9211 34.8106 13.7233 35.0458 12.5144 35.0417C11.3054 35.0377 10.1092 34.7945 8.99462 34.3263C7.88003 33.858 6.86908 33.1739 6.01997 32.3133C4.35019 30.5845 3.42624 28.269 3.44712 25.8655C3.46801 23.462 4.43206 21.1629 6.13163 19.4633C7.83121 17.7638 10.1303 16.7997 12.5338 16.7788C14.9373 16.7579 17.2528 17.6819 18.9816 19.3517L18.9833 19.35ZM18.9833 19.35L25.8333 12.5L18.9833 19.35ZM25.8333 12.5L30.8333 17.5L36.6666 11.6667L31.6666 6.66668L25.8333 12.5Z" stroke="black" stroke-linecap="round" stroke-linejoin="round"/>
</svg>
