<svg width="40" height="40" viewBox="0 0 40 40" fill="none" xmlns="http://www.w3.org/2000/svg">
<path d="M20 10C21.6569 10 23 8.65685 23 7C23 5.34315 21.6569 4 20 4C18.3431 4 17 5.34315 17 7C17 8.65685 18.3431 10 20 10Z" stroke="black" stroke-linecap="round" stroke-linejoin="round"/>
<path d="M20 37C21.6569 37 23 35.6569 23 34C23 32.3431 21.6569 31 20 31C18.3431 31 17 32.3431 17 34C17 35.6569 18.3431 37 20 37Z" stroke="black" stroke-linecap="round" stroke-linejoin="round"/>
<path d="M33 23C34.6569 23 36 21.6569 36 20C36 18.3431 34.6569 17 33 17C31.3431 17 30 18.3431 30 20C30 21.6569 31.3431 23 33 23Z" stroke="black" stroke-linecap="round" stroke-linejoin="round"/>
<path d="M6 23C7.65685 23 9 21.6569 9 20C9 18.3431 7.65685 17 6 17C4.34315 17 3 18.3431 3 20C3 21.6569 4.34315 23 6 23Z" stroke="black" stroke-linecap="round" stroke-linejoin="round"/>
<path d="M19.5 26C22.5376 26 25 23.5376 25 20.5C25 17.4624 22.5376 15 19.5 15C16.4624 15 14 17.4624 14 20.5C14 23.5376 16.4624 26 19.5 26Z" stroke="black" stroke-linecap="round" stroke-linejoin="round"/>
</svg>
