<svg width="40" height="40" viewBox="0 0 40 40" fill="none" xmlns="http://www.w3.org/2000/svg">
<path d="M8.3335 35C11.0949 35 13.3335 32.7614 13.3335 30C13.3335 27.2386 11.0949 25 8.3335 25C5.57207 25 3.3335 27.2386 3.3335 30C3.3335 32.7614 5.57207 35 8.3335 35Z" stroke="black" stroke-linecap="round" stroke-linejoin="round"/>
<path d="M31.6665 6.66666C28.9051 6.66666 26.6665 8.90523 26.6665 11.6667C26.6665 14.4281 28.9051 16.6667 31.6665 16.6667C34.4279 16.6667 36.6665 14.4281 36.6665 11.6667C36.6665 8.90523 34.4279 6.66666 31.6665 6.66666Z" stroke="black" stroke-linecap="round" stroke-linejoin="round"/>
<path d="M13.3335 30L36.6668 30" stroke="black" stroke-linecap="round" stroke-linejoin="round"/>
<path d="M26.6665 11.6667L3.33317 11.6667" stroke="black" stroke-linecap="round" stroke-linejoin="round"/>
</svg>
