<svg width="40" height="40" viewBox="0 0 40 40" fill="none" xmlns="http://www.w3.org/2000/svg">
<path d="M6.6665 11.6667V9.99999C6.6665 9.11593 7.01769 8.26809 7.64281 7.64297C8.26794 7.01785 9.11578 6.66666 9.99984 6.66666H13.3332" stroke="black" stroke-linecap="round" stroke-linejoin="round"/>
<path d="M6.6665 28.3333V30C6.6665 30.8841 7.01769 31.7319 7.64281 32.357C8.26794 32.9822 9.11578 33.3333 9.99984 33.3333H13.3332" stroke="black" stroke-linecap="round" stroke-linejoin="round"/>
<path d="M26.6665 6.66666H29.9998C30.8839 6.66666 31.7317 7.01785 32.3569 7.64297C32.982 8.26809 33.3332 9.11593 33.3332 9.99999V11.6667" stroke="black" stroke-linecap="round" stroke-linejoin="round"/>
<path d="M26.6665 33.3333H29.9998C30.8839 33.3333 31.7317 32.9822 32.3569 32.357C32.982 31.7319 33.3332 30.8841 33.3332 30V28.3333" stroke="black" stroke-linecap="round" stroke-linejoin="round"/>
</svg>
