<svg width="36" height="36" viewBox="0 0 36 36" fill="none" xmlns="http://www.w3.org/2000/svg">
<path d="M18 22.5C23.799 22.5 28.5 17.799 28.5 12C28.5 6.20101 23.799 1.5 18 1.5C12.201 1.5 7.5 6.20101 7.5 12C7.5 17.799 12.201 22.5 18 22.5Z" stroke="black" stroke-linecap="round" stroke-linejoin="round"/>
<path d="M18 6.75L19.6222 10.0365L23.25 10.5667L20.625 13.1235L21.2445 16.7355L18 15.0292L14.7555 16.7355L15.375 13.1235L12.75 10.5667L16.3777 10.0365L18 6.75Z" stroke="black" stroke-linecap="round" stroke-linejoin="round"/>
<path d="M12.315 20.8349L10.5 34.4999L18 29.9999L25.5 34.4999L23.685 20.8199" stroke="black" stroke-linecap="round" stroke-linejoin="round"/>
</svg>
