<svg width="180" height="180" viewBox="0 0 180 180" fill="none" xmlns="http://www.w3.org/2000/svg">
<rect width="180" height="180" rx="20" fill="#151515"/>
<path d="M67.809 83.44C68.113 83.44 68.345 83.528 68.505 83.704C68.681 83.864 68.777 84.104 68.793 84.424L69.465 100H67.065L66.489 85.432H66.009L62.649 97.216C62.505 97.76 62.161 98.032 61.617 98.032H59.529C58.969 98.032 58.617 97.76 58.473 97.216L55.089 85.432H54.633L54.081 100H51.705L52.329 84.424C52.345 84.104 52.433 83.864 52.593 83.704C52.769 83.528 53.009 83.44 53.313 83.44H55.977C56.249 83.44 56.465 83.512 56.625 83.656C56.785 83.784 56.905 83.984 56.985 84.256L59.793 93.952C59.953 94.528 60.137 95.272 60.345 96.184H60.777C60.969 95.336 61.161 94.584 61.353 93.928L64.137 84.256C64.313 83.712 64.665 83.44 65.193 83.44H67.809ZM79.1576 83.128C80.8216 83.128 82.1256 83.4 83.0696 83.944C84.0296 84.472 84.7176 85.352 85.1336 86.584C85.5656 87.816 85.7816 89.528 85.7816 91.72C85.7816 93.912 85.5656 95.624 85.1336 96.856C84.7176 98.088 84.0296 98.976 83.0696 99.52C82.1256 100.048 80.8216 100.312 79.1576 100.312C77.4936 100.312 76.1896 100.048 75.2456 99.52C74.3016 98.976 73.6136 98.088 73.1816 96.856C72.7656 95.624 72.5576 93.912 72.5576 91.72C72.5576 89.528 72.7656 87.816 73.1816 86.584C73.6136 85.352 74.3016 84.472 75.2456 83.944C76.1896 83.4 77.4936 83.128 79.1576 83.128ZM79.1576 85.264C78.1016 85.264 77.2776 85.464 76.6856 85.864C76.1096 86.264 75.6936 86.928 75.4376 87.856C75.1976 88.768 75.0776 90.056 75.0776 91.72C75.0776 93.384 75.1976 94.68 75.4376 95.608C75.6936 96.52 76.1096 97.176 76.6856 97.576C77.2776 97.976 78.1016 98.176 79.1576 98.176C80.2136 98.176 81.0296 97.976 81.6056 97.576C82.1976 97.176 82.6216 96.52 82.8776 95.608C83.1336 94.68 83.2616 93.384 83.2616 91.72C83.2616 90.056 83.1336 88.768 82.8776 87.856C82.6216 86.928 82.1976 86.264 81.6056 85.864C81.0296 85.464 80.2136 85.264 79.1576 85.264ZM96.4642 99.328C96.4002 99.52 96.2802 99.68 96.1042 99.808C95.9442 99.936 95.7602 100 95.5522 100H93.2002C92.9922 100 92.8002 99.936 92.6242 99.808C92.4642 99.68 92.3522 99.52 92.2882 99.328L87.3922 83.44H89.8642L93.6082 96.328C93.6882 96.632 93.8402 97.24 94.0642 98.152H94.7122C94.8082 97.704 94.9602 97.096 95.1682 96.328L98.8882 83.44H101.36L96.4642 99.328ZM113.92 98.008L114.04 99.856C113.08 99.936 112.056 99.984 110.968 100C109.896 100.032 108.552 100.048 106.936 100.048C105.912 100.048 105.104 99.784 104.512 99.256C103.92 98.712 103.616 97.984 103.6 97.072V86.368C103.616 85.456 103.92 84.736 104.512 84.208C105.104 83.664 105.912 83.392 106.936 83.392C108.552 83.392 109.896 83.408 110.968 83.44C112.056 83.456 113.08 83.504 114.04 83.584L113.92 85.456H107.344C106.864 85.456 106.52 85.576 106.312 85.816C106.12 86.04 106.024 86.432 106.024 86.992V90.304H113.008V92.248H106.024V96.472C106.024 97.032 106.12 97.432 106.312 97.672C106.52 97.896 106.864 98.008 107.344 98.008H113.92ZM129.076 100H126.508L125.092 94.84C124.9 94.248 124.636 93.824 124.3 93.568C123.98 93.312 123.548 93.184 123.004 93.184C121.324 93.184 120.188 93.176 119.596 93.16V100H117.22V83.44C118.084 83.344 118.9 83.288 119.668 83.272C120.452 83.24 121.564 83.224 123.004 83.224C124.348 83.224 125.412 83.368 126.196 83.656C126.98 83.944 127.556 84.44 127.924 85.144C128.292 85.832 128.476 86.792 128.476 88.024C128.476 89.352 128.236 90.352 127.756 91.024C127.292 91.696 126.516 92.104 125.428 92.248V92.368C125.892 92.496 126.316 92.76 126.7 93.16C127.084 93.56 127.356 94.096 127.516 94.768L129.076 100ZM122.956 91.12C123.756 91.104 124.372 91.008 124.804 90.832C125.252 90.656 125.572 90.36 125.764 89.944C125.956 89.528 126.052 88.936 126.052 88.168C126.052 87.4 125.956 86.816 125.764 86.416C125.572 86 125.252 85.712 124.804 85.552C124.372 85.376 123.756 85.288 122.956 85.288C121.324 85.288 120.204 85.296 119.596 85.312V91.12H122.956Z" fill="white"/>
</svg>
