<svg width="180" height="180" viewBox="0 0 180 180" fill="none" xmlns="http://www.w3.org/2000/svg">
<rect opacity="0.1" x="0.5" y="0.5" width="179" height="179" rx="19.5" fill="#C4C4C4" stroke="#151515"/>
<path d="M54.728 97.9998V80.8158H59.984C62.608 80.8158 64.712 81.6078 66.296 83.1918C67.896 84.7758 68.696 86.8478 68.696 89.4078C68.696 91.9838 67.896 94.0638 66.296 95.6478C64.712 97.2158 62.608 97.9998 59.984 97.9998H54.728ZM56.936 82.9278V95.8878H59.984C61.984 95.8878 63.56 95.3198 64.712 94.1838C65.864 93.0318 66.44 91.4398 66.44 89.4078C66.44 87.3918 65.864 85.8078 64.712 84.6558C63.56 83.5038 61.984 82.9278 59.984 82.9278H56.936ZM69.9142 92.1198C69.9142 90.3118 70.4822 88.8158 71.6182 87.6318C72.7702 86.4478 74.2182 85.8558 75.9622 85.8558C77.7062 85.8558 79.1462 86.4478 80.2822 87.6318C81.4342 88.8158 82.0102 90.3118 82.0102 92.1198C82.0102 93.9438 81.4342 95.4398 80.2822 96.6078C79.1462 97.7918 77.7062 98.3838 75.9622 98.3838C74.2182 98.3838 72.7702 97.7918 71.6182 96.6078C70.4822 95.4238 69.9142 93.9278 69.9142 92.1198ZM72.1222 92.1198C72.1222 93.3838 72.4902 94.4078 73.2262 95.1918C73.9622 95.9758 74.8742 96.3678 75.9622 96.3678C77.0502 96.3678 77.9622 95.9758 78.6982 95.1918C79.4342 94.4078 79.8022 93.3838 79.8022 92.1198C79.8022 90.8718 79.4342 89.8558 78.6982 89.0718C77.9462 88.2718 77.0342 87.8718 75.9622 87.8718C74.8902 87.8718 73.9782 88.2718 73.2262 89.0718C72.4902 89.8558 72.1222 90.8718 72.1222 92.1198ZM83.3439 92.1198C83.3439 90.3118 83.9119 88.8158 85.0479 87.6318C86.1999 86.4478 87.6479 85.8558 89.3919 85.8558C91.1359 85.8558 92.5759 86.4478 93.7119 87.6318C94.8639 88.8158 95.4399 90.3118 95.4399 92.1198C95.4399 93.9438 94.8639 95.4398 93.7119 96.6078C92.5759 97.7918 91.1359 98.3838 89.3919 98.3838C87.6479 98.3838 86.1999 97.7918 85.0479 96.6078C83.9119 95.4238 83.3439 93.9278 83.3439 92.1198ZM85.5519 92.1198C85.5519 93.3838 85.9199 94.4078 86.6559 95.1918C87.3919 95.9758 88.3039 96.3678 89.3919 96.3678C90.4799 96.3678 91.3919 95.9758 92.1279 95.1918C92.8639 94.4078 93.2319 93.3838 93.2319 92.1198C93.2319 90.8718 92.8639 89.8558 92.1279 89.0718C91.3759 88.2718 90.4639 87.8718 89.3919 87.8718C88.3199 87.8718 87.4079 88.2718 86.6559 89.0718C85.9199 89.8558 85.5519 90.8718 85.5519 92.1198ZM102.726 96.3678C103.814 96.3678 104.702 95.9758 105.39 95.1918C106.11 94.4078 106.47 93.3838 106.47 92.1198C106.47 90.8878 106.11 89.8718 105.39 89.0718C104.686 88.2718 103.798 87.8718 102.726 87.8718C101.67 87.8718 100.782 88.2718 100.062 89.0718C99.3416 89.8718 98.9816 90.8878 98.9816 92.1198C98.9816 93.3678 99.3416 94.3838 100.062 95.1678C100.782 95.9678 101.67 96.3678 102.726 96.3678ZM102.366 98.3838C100.83 98.3838 99.5096 97.7758 98.4056 96.5598C97.3176 95.3278 96.7736 93.8478 96.7736 92.1198C96.7736 90.3918 97.3176 88.9118 98.4056 87.6798C99.5096 86.4638 100.83 85.8558 102.366 85.8558C103.23 85.8558 104.014 86.0398 104.718 86.4078C105.438 86.7758 105.99 87.2638 106.374 87.8718H106.47L106.374 86.2398V80.8158H108.582V97.9998H106.47V96.3678H106.374C105.99 96.9758 105.438 97.4638 104.718 97.8318C104.014 98.1998 103.23 98.3838 102.366 98.3838ZM113.482 80.8158V97.9998H111.274V80.8158H113.482ZM121.335 98.3838C119.607 98.3838 118.183 97.7918 117.063 96.6078C115.943 95.4238 115.383 93.9278 115.383 92.1198C115.383 90.3278 115.927 88.8398 117.015 87.6558C118.103 86.4558 119.495 85.8558 121.191 85.8558C122.935 85.8558 124.319 86.4238 125.343 87.5598C126.383 88.6798 126.903 90.2558 126.903 92.2878L126.879 92.5278H117.639C117.671 93.6798 118.055 94.6078 118.791 95.3118C119.527 96.0158 120.407 96.3678 121.431 96.3678C122.839 96.3678 123.943 95.6638 124.743 94.2558L126.711 95.2158C126.183 96.2078 125.447 96.9838 124.503 97.5438C123.575 98.1038 122.519 98.3838 121.335 98.3838ZM117.807 90.7038H124.551C124.487 89.8878 124.151 89.2158 123.543 88.6878C122.951 88.1438 122.151 87.8718 121.143 87.8718C120.311 87.8718 119.591 88.1278 118.983 88.6398C118.391 89.1518 117.999 89.8398 117.807 90.7038Z" fill="#151515"/>
</svg>
