<svg width="180" height="180" viewBox="0 0 180 180" fill="none" xmlns="http://www.w3.org/2000/svg">
<rect width="180" height="180" rx="20" fill="#506AC4"/>
<path d="M64.984 93.832C65.608 93.832 66.16 93.688 66.64 93.4C67.168 93.096 67.432 92.624 67.432 91.984C67.432 91.664 67.352 91.4 67.192 91.192C67.016 90.952 66.776 90.76 66.472 90.616C66.184 90.456 65.832 90.336 65.416 90.256C65.016 90.176 64.6 90.104 64.168 90.04C63.496 89.944 62.832 89.784 62.176 89.56C61.536 89.336 60.96 89.016 60.448 88.6C59.952 88.184 59.552 87.656 59.248 87.016C58.944 86.408 58.792 85.664 58.792 84.784C58.792 84.736 58.792 84.688 58.792 84.64C58.84 83.84 59.048 83.136 59.416 82.528C59.784 81.904 60.248 81.392 60.808 80.992C61.384 80.576 62.032 80.264 62.752 80.056C63.472 79.848 64.216 79.744 64.984 79.744C66.088 79.744 67.136 79.976 68.128 80.44C69.136 80.904 70 81.672 70.72 82.744L67.816 84.688C67.448 84.128 67.024 83.72 66.544 83.464C66.064 83.208 65.544 83.08 64.984 83.08C64.648 83.08 64.328 83.112 64.024 83.176C63.72 83.24 63.448 83.344 63.208 83.488C62.968 83.616 62.776 83.792 62.632 84.016C62.488 84.224 62.408 84.472 62.392 84.76V84.784C62.392 85.136 62.472 85.416 62.632 85.624C62.808 85.832 63.032 86.008 63.304 86.152C63.576 86.28 63.888 86.384 64.24 86.464C64.592 86.528 64.952 86.6 65.32 86.68C66.056 86.824 66.768 87.008 67.456 87.232C68.16 87.456 68.776 87.784 69.304 88.216C69.848 88.632 70.272 89.168 70.576 89.824C70.848 90.4 70.984 91.104 70.984 91.936C70.984 92.064 70.984 92.192 70.984 92.32C70.904 93.12 70.672 93.824 70.288 94.432C69.904 95.04 69.408 95.552 68.8 95.968C68.208 96.384 67.536 96.704 66.784 96.928C66.048 97.136 65.296 97.24 64.528 97.24C63.424 97.24 62.344 96.976 61.288 96.448C60.232 95.904 59.344 95.088 58.624 94L61.288 91.96C61.672 92.568 62.2 93.032 62.872 93.352C63.544 93.656 64.208 93.816 64.864 93.832C64.912 93.832 64.952 93.832 64.984 93.832ZM76.7046 97.192C76.6086 97.192 76.5126 97.192 76.4166 97.192C75.6966 97.144 75.0726 96.944 74.5446 96.592C74.0166 96.24 73.6006 95.736 73.2966 95.08C73.0086 94.408 72.8646 93.592 72.8646 92.632V81.808H75.9366L76.1766 84.568H78.3846V87.616H76.1766V92.608C76.1766 93.328 76.3766 93.8 76.7766 94.024C77.0166 94.152 77.3286 94.216 77.7126 94.216C78.0006 94.216 78.3446 94.176 78.7446 94.096V96.832C78.0246 97.072 77.3446 97.192 76.7046 97.192ZM85.3527 84.328C85.8167 84.328 86.4007 84.408 87.1047 84.568V87.256C86.8007 87.176 86.4887 87.136 86.1687 87.136C86.1047 87.136 86.0487 87.136 86.0007 87.136C85.6167 87.152 85.2567 87.224 84.9207 87.352C84.6007 87.48 84.3367 87.664 84.1287 87.904C83.9207 88.144 83.8167 88.44 83.8167 88.792V97H80.4807V88.744C80.4807 88.008 80.6247 87.36 80.9127 86.8C81.2167 86.24 81.6007 85.784 82.0647 85.432C82.5287 85.064 83.0487 84.792 83.6247 84.616C84.2167 84.424 84.7927 84.328 85.3527 84.328ZM88.3038 88.768C88.3038 88.032 88.4478 87.392 88.7358 86.848C89.0238 86.288 89.3998 85.824 89.8638 85.456C90.3278 85.088 90.8558 84.808 91.4478 84.616C92.0558 84.424 92.6718 84.328 93.2958 84.328C93.9198 84.328 94.5278 84.424 95.1198 84.616C95.7118 84.808 96.2398 85.088 96.7038 85.456C97.1678 85.824 97.5438 86.288 97.8318 86.848C98.1198 87.392 98.2638 88.032 98.2638 88.768V92.824C98.2638 93.576 98.1198 94.232 97.8318 94.792C97.5438 95.336 97.1678 95.792 96.7038 96.16C96.2398 96.512 95.7118 96.784 95.1198 96.976C94.5278 97.152 93.9198 97.24 93.2958 97.24C92.6718 97.24 92.0558 97.152 91.4478 96.976C90.8558 96.784 90.3278 96.512 89.8638 96.16C89.3998 95.792 89.0238 95.336 88.7358 94.792C88.4478 94.232 88.3038 93.576 88.3038 92.824V88.768ZM93.2958 87.328C92.8958 87.328 92.5198 87.432 92.1678 87.64C91.8158 87.848 91.6398 88.152 91.6398 88.552V92.896C91.6398 93.296 91.8158 93.624 92.1678 93.88C92.5198 94.12 92.8958 94.24 93.2958 94.24C93.6798 94.24 94.0478 94.12 94.3997 93.88C94.7518 93.624 94.9278 93.296 94.9278 92.896V88.552C94.9278 88.152 94.7518 87.848 94.3997 87.64C94.0478 87.432 93.6798 87.328 93.2958 87.328ZM103.835 97H100.499V80.032H103.835V89.272L107.435 84.568H111.323L106.379 90.568C107.163 91.608 107.995 92.688 108.875 93.808C109.755 94.928 110.579 95.992 111.347 97H107.483L104.051 92.464L103.835 92.656V97ZM116.664 97.24C116.04 97.24 115.424 97.152 114.816 96.976C114.224 96.784 113.688 96.504 113.208 96.136C112.744 95.768 112.368 95.312 112.08 94.768C111.792 94.208 111.648 93.56 111.648 92.824V88.72C111.648 87.968 111.792 87.32 112.08 86.776C112.384 86.216 112.768 85.76 113.232 85.408C113.712 85.04 114.256 84.768 114.864 84.592C115.472 84.416 116.088 84.328 116.712 84.328C117.32 84.328 117.912 84.408 118.488 84.568C119.064 84.728 119.576 84.984 120.024 85.336C120.472 85.672 120.832 86.112 121.104 86.656C121.376 87.184 121.512 87.824 121.512 88.576V92.224H115.008V92.776C115.008 93.256 115.2 93.624 115.584 93.88C115.968 94.12 116.4 94.24 116.88 94.24C117.264 94.24 117.632 94.168 117.984 94.024C118.352 93.864 118.632 93.624 118.824 93.304L121.008 94.888C120.768 95.336 120.472 95.712 120.12 96.016C119.784 96.304 119.416 96.544 119.016 96.736C118.632 96.912 118.232 97.04 117.816 97.12C117.416 97.2 117.032 97.24 116.664 97.24ZM118.368 88.624C118.368 88.192 118.2 87.872 117.864 87.664C117.528 87.44 117.152 87.328 116.736 87.328C116.304 87.328 115.904 87.44 115.536 87.664C115.184 87.872 115.008 88.2 115.008 88.648V89.752H118.368V88.624Z" fill="white"/>
</svg>
