<svg width="44" height="44" viewBox="0 0 44 44" fill="none" xmlns="http://www.w3.org/2000/svg">
<path d="M10.56 44C4.72787 44 -2.06662e-07 39.2721 -4.61592e-07 33.44L-1.46171e-06 10.56C-1.71664e-06 4.72787 4.72787 -2.06662e-07 10.56 -4.61592e-07L33.44 -1.46171e-06C39.2721 -1.71664e-06 44 4.72787 44 10.56L44 33.44C44 39.2721 39.2721 44 33.44 44L10.56 44Z" fill="#EE3224"/>
<path opacity="0.9" d="M17.8097 26.1904C13.181 26.1904 9.42871 22.4381 9.42871 17.8095L26.1906 17.8095C30.8193 17.8095 34.5716 21.5618 34.5716 26.1904L17.8097 26.1904Z" fill="white"/>
<path opacity="0.8" d="M34.5715 26.1904C34.5715 21.5618 30.8192 17.8095 26.1905 17.8095C21.5619 17.8095 17.8096 21.5618 17.8096 26.1904L34.5715 26.1904Z" fill="white"/>
<path opacity="0.9" d="M17.8096 34.5714C22.4382 34.5714 26.1905 30.8191 26.1905 26.1904L17.8096 26.1904L17.8096 34.5714Z" fill="white"/>
<path opacity="0.7" d="M26.1904 9.42862C21.5618 9.42862 17.8095 13.1809 17.8095 17.8096L26.1904 17.8096L26.1904 9.42862Z" fill="white"/>
</svg>
