<svg width="44" height="44" viewBox="0 0 44 44" fill="none" xmlns="http://www.w3.org/2000/svg">
<path d="M10.56 44C4.72787 44 -2.06662e-07 39.2721 -4.61592e-07 33.44L-1.46171e-06 10.56C-1.71664e-06 4.72787 4.72787 -2.06662e-07 10.56 -4.61592e-07L33.44 -1.46171e-06C39.2721 -1.71664e-06 44 4.72787 44 10.56L44 33.44C44 39.2721 39.2721 44 33.44 44L10.56 44Z" fill="#EE3224"/>
<path opacity="0.9" d="M17.8097 26.1903C13.181 26.1903 9.42871 22.438 9.42871 17.8094L26.1906 17.8094C30.8193 17.8094 34.5716 21.5616 34.5716 26.1903L17.8097 26.1903Z" fill="white"/>
<path opacity="0.8" d="M34.5716 26.1903C34.5716 21.5616 30.8193 17.8094 26.1906 17.8094C21.562 17.8094 17.8097 21.5616 17.8097 26.1903L34.5716 26.1903Z" fill="white"/>
<path opacity="0.9" d="M17.8097 34.5713C22.4384 34.5713 26.1906 30.819 26.1906 26.1903L17.8097 26.1903L17.8097 34.5713Z" fill="white"/>
<path opacity="0.7" d="M26.1906 9.42856C21.5619 9.42856 17.8096 13.1808 17.8096 17.8095L26.1906 17.8095L26.1906 9.42856Z" fill="white"/>
</svg>
