<svg width="162" height="160" viewBox="0 0 162 160" fill="none" xmlns="http://www.w3.org/2000/svg">
<g opacity="0.5">
<path opacity="0.9" d="M54 106.5C24.6196 106.5 0.770691 82.817 0.502288 53.5L108 53.5C137.38 53.5 161.229 77.183 161.498 106.5L54 106.5Z" stroke="#ABABAB"/>
<path opacity="0.8" d="M108 53.5C137.38 53.5 161.229 77.183 161.498 106.5L54.5023 106.5C54.7707 77.183 78.6196 53.5 108 53.5Z" stroke="#ABABAB"/>
<path opacity="0.9" d="M54.5 159.498L54.5 106.5L107.498 106.5C107.231 135.65 83.6505 159.231 54.5 159.498Z" stroke="#ABABAB"/>
<path opacity="0.7" d="M107.5 0.502289L107.5 53.5L54.5023 53.5C54.7692 24.3495 78.3495 0.769165 107.5 0.502289Z" stroke="#ABABAB"/>
</g>
</svg>
