<svg xmlns="http://www.w3.org/2000/svg" xmlns:xlink="http://www.w3.org/1999/xlink" height="460" width="300" viewBox="-30 -30 300 430"><defs><filter x="-26.1%" y="-16.5%" width="152.1%" height="133.1%" filterUnits="objectBoundingBox" id="a"><feOffset dy="2" in="SourceAlpha" result="shadowOffsetOuter1"/><feGaussianBlur stdDeviation="15" in="shadowOffsetOuter1" result="shadowBlurOuter1"/><feColorMatrix values="0 0 0 0 0 0 0 0 0 0 0 0 0 0 0 0 0 0 0.24 0" in="shadowBlurOuter1" result="shadowMatrixOuter1"/><feMerge><feMergeNode in="shadowMatrixOuter1"/><feMergeNode in="SourceGraphic"/></feMerge></filter><filter x="-1%" y="-1.4%" width="101.9%" height="102.7%" filterUnits="objectBoundingBox" id="g"><feGaussianBlur stdDeviation=".5" in="SourceAlpha" result="shadowBlurInner1"/><feOffset in="shadowBlurInner1" result="shadowOffsetInner1"/><feComposite in="shadowOffsetInner1" in2="SourceAlpha" operator="arithmetic" k2="-1" k3="1" result="shadowInnerInner1"/><feColorMatrix values="0 0 0 0 0 0 0 0 0 0 0 0 0 0 0 0 0 0 1 0" in="shadowInnerInner1"/></filter><path d="M9.08 0h219.84A9.08 9.08 0 01238 9.08v356.3a9.08 9.08 0 01-9.08 9.09H9.08A9.08 9.08 0 010 365.38V9.08A9.08 9.08 0 019.08 0z" id="c"/><path d="M34.35.64l.56 3.1c.46 2.85.26 5.76-.6 8.53h18.34v13.2H34.3a18.8 18.8 0 01.6 8.53l-.56 3.1H18.32l-.08-.08-.48-3.02a18.8 18.8 0 01.6-8.54H.01V12.27h18.33a18.8 18.8 0 01-.6-8.53l.57-3.1h16.03zm-1.06.73H19.38l-.41 2.54c-.47 2.92-.2 5.9.78 8.7a18.83 18.83 0 010 12.5 17.74 17.74 0 00-.78 8.72l.4 2.54H33.3l.41-2.54c.47-2.92.2-5.9-.78-8.71a18.83 18.83 0 010-12.5c.98-2.81 1.25-5.8.78-8.71l-.4-2.54zm.64 12.04a17.75 17.75 0 000 10.91h17.5v-10.9zm-15.2 10.91a17.75 17.75 0 000-10.9H1.24v10.9z" id="f"/><radialGradient cx="44.01%" cy="48.3%" fx="44.01%" fy="48.3%" r="74.92%" gradientTransform="matrix(.50297 -.59738 .37467 .80196 .04 .36)" id="d"><stop stop-color="#4ABB1E" offset="0%"/><stop stop-color="#26900D" offset="48.78%"/><stop stop-color="#30D307" offset="100%"/></radialGradient><linearGradient x1="29.8%" y1="0%" x2="69.06%" y2="100%" id="b"><stop stop-color="#61B72F" offset="0%"/><stop stop-color="#25A624" offset="100%"/></linearGradient></defs><g filter="url(#a)"><path d="M9.08 0h219.84A9.08 9.08 0 01238 9.08v356.3a9.08 9.08 0 01-9.08 9.09H9.08A9.08 9.08 0 010 365.38V9.08A9.08 9.08 0 019.08 0z" fill="url(#b)"/><mask id="e" fill="#fff"><use xlink:href="#c"/></mask><path d="M208.2 354.46l-27.14-84.4 20.85-64.84c2.42-7.49 7.21-18.1 10.3-18.26h.05c1.02 0 1.89 1.62 2.3 2.56l.23.55c.1.2.19.41.26.63l58.48 181.83h-40.42a26.04 26.04 0 01-24.9-18.07zm-29.42-84.28l-27.13 84.48a26.04 26.04 0 01-24.9 18.08H98.39l-.23-.01a5.1 5.1 0 00-.34-.03h-.05v.02a17.62 17.62 0 01-4.3-.68l.02-.03a15.46 15.46 0 01-1.76-.64l-.03.06c-.9-.37-1.77-.81-2.6-1.32l.04-.06c-.7-.44-1.39-.94-2.03-1.48l-.04.05a17.4 17.4 0 01-2.06-2.05l.05-.04-.39-.46c-.3-.37-.53-.7-.75-1.02l-.03.02a17.43 17.43 0 01-1.96-3.85l.03-.01-.02-.05-.13-.31-.08-.17-.01-.05-.55-1.71a5.31 5.31 0 003.07.46c6.42-1.07 11.04-14.49 11.54-16.02l14.49-45.09 6.58-20.5 27.13-84.44a26.04 26.04 0 0124.9-18.09h25.49c7.35 0 13.98 3.67 17.87 9.53h-.06c-2.14.05-4.27 2.43-6.16 5.54-2.29 3.77-4.22 8.67-5.39 11.98a90.22 90.22 0 00-.8 2.34l-18.5 57.6-2.55 7.95zM80.6 355.93l-.22-.22-.28-.3-.22-.25-.23-.29-27.27-84.8 14.5-45.1 6.35-19.75c2.42-7.49 7.21-18.1 10.3-18.26 1.04-.04 1.92 1.6 2.34 2.55.07.2.15.37.23.56.1.2.2.41.26.63l27.96 86.95-6.35 19.75-14.51 45.13c-.18.52-.4 1.16-.69 1.88-1.68 4.34-5.14 11.5-8.75 12.57H84a3.14 3.14 0 01-.9.14l-.2-.02-.3-.04c-.08 0-.14-.04-.21-.05l-.3-.09-.2-.1c-.1-.04-.2-.08-.3-.14l-.2-.13c-.1-.07-.2-.12-.3-.2l-.21-.17-.29-.25zm-30.15-86.07l-.1.32-27.11 84.48a26.02 26.02 0 01-24.88 18.08h-40.42l57.56-179.2a26.33 26.33 0 0125.17-18.3h25.25c7.35 0 13.97 3.67 17.86 9.53h-.06c-2.18.05-4.35 2.52-6.26 5.72-2.16 3.6-3.99 8.2-5.15 11.43a94.11 94.11 0 00-.92 2.7l-19.65 61.23-1.29 4zm166.56-79.8l-.22-.57.02-.01a23.5 23.5 0 00-22.51-16.4h-25.5a28.18 28.18 0 00-26.95 19.56l-26.2 81.5-27.03-84.08a6.6 6.6 0 00-.22-.57l.03-.01a23.5 23.5 0 00-22.52-16.4H40.64a28.5 28.5 0 00-27.24 19.76L-45.11 374.7h43.4c12.36 0 23.2-7.86 26.96-19.57l26.21-81.53 28.13 87.5.01.04.09.27c.03.1.07.17.1.24A19.56 19.56 0 0098 374.7h28.68c12.36 0 23.19-7.86 26.95-19.57l26.21-81.53 26.22 81.54A28.18 28.18 0 00233 374.7h43.37L217 190.07z" fill="url(#d)" mask="url(#e)"/><path d="M140.54 335.78c3.24 0 5.2 1.97 5.2 5.44 0 3.47-1.96 5.4-5.2 5.4-3.25 0-5.2-1.93-5.2-5.4 0-3.47 1.95-5.44 5.2-5.44zm45.3 0c3.23 0 5.19 1.97 5.19 5.44 0 3.47-1.96 5.4-5.2 5.4-3.25 0-5.2-1.93-5.2-5.4 0-3.47 1.95-5.44 5.2-5.44zm-36.14.18v7.95h5.22l-1.38 2.55h-6.59v-10.5h2.75zm10.9 0l5.71 10.5h-2.93s-2.7-4.54-2.77-4.82l-2.77 4.82h-2.95l5.71-10.5zm10.1 0l2.39 5.71c.12.31.2.6.25.8.05-.2.14-.49.25-.8l2.4-5.71h3.07l.4 10.5h-2.76l-.12-5.55v-.48l-2.41 6.03h-1.65l-2.4-6.03v.42l-.13 5.61h-2.77l.4-10.5h3.07zm24.04 0l4.37 5.99-.02-.78v-5.21h2.75v10.5h-2.5l-4.36-5.92.01.82v5.1h-2.75v-10.5h2.5zm16.64 0v2.54h-4.84v1.59h4.13v2.4h-4.13v1.47h4.98v2.5h-7.73v-10.5h7.6zm3.5 0l1.71 3.3c.24.45.46.9.63 1.33.17-.43.38-.88.62-1.33l1.72-3.3h2.88l-3.86 7.2v3.3h-2.73v-3.3l-3.86-7.2h2.88zm-74.34 2.34c-1.53 0-2.42.98-2.42 2.92 0 1.9.89 2.88 2.42 2.88 1.52 0 2.42-.98 2.42-2.88 0-1.94-.9-2.92-2.42-2.92zm45.3 0c-1.54 0-2.43.98-2.43 2.92 0 1.9.9 2.88 2.43 2.88 1.51 0 2.4-.98 2.4-2.88 0-1.94-.89-2.92-2.4-2.92z" fill="#FFF" mask="url(#e)"/><path d="M152.47 86.85V49.61c0-2.11-.8-4.03-2.13-5.43a7.51 7.51 0 00-5.24-2.32h-22.73c-2 0-3.82.84-5.14 2.23a8.3 8.3 0 00-2.23 5.53v37.24c0 2.1.8 4.02 2.14 5.42a7.51 7.51 0 005.24 2.33h22.73c2 0 3.81-.84 5.14-2.23a8.3 8.3 0 002.22-5.53z" stroke="#1F1F1F" stroke-width=".74" fill-opacity=".88" fill="#FFF"/><g opacity=".8"><path d="M152.1 86.18V49.5c0-2.08-.78-3.97-2.07-5.34a7.2 7.2 0 00-5.06-2.3h-22c-1.93 0-3.68.83-4.96 2.2a8.27 8.27 0 00-2.15 5.45v36.69c0 2.08.77 3.96 2.06 5.34a7.2 7.2 0 005.06 2.3h22c1.93 0 3.68-.84 4.96-2.2a8.27 8.27 0 002.15-5.45z" stroke="#1F1F1F" stroke-width=".74" fill-opacity=".5" fill="#FFF"/><g transform="rotate(90 55.68 97.17)"><use fill="#1F1F1F" xlink:href="#f"/><use filter="url(#g)" xlink:href="#f"/></g></g><g><path fill="#FF5F00" d="M38 325h16v29H38z"/><path d="M38.92 339.5c0-5.68 2.6-11.04 7.08-14.55a18.57 18.57 0 00-25.08 2 18.47 18.47 0 000 25.1 18.57 18.57 0 0025.08 2 18.45 18.45 0 01-7.08-14.55z" fill="#EB001B"/><path d="M76 339.5a18.5 18.5 0 01-10.44 16.64 18.58 18.58 0 01-19.56-2.1 18.48 18.48 0 000-29.08 18.58 18.58 0 0119.56-2.1A18.5 18.5 0 0176 339.5zM74.48 351v-.83h.3V350H74v.17h.34v.82h.14zm1.52 0v-1h-.24l-.27.7-.28-.7H75v1h.17v-.75l.26.64h.17l.26-.64v.75H76z" fill="#F79E1B"/></g></g></svg>