<svg width="36" height="36" viewBox="0 0 36 36" fill="none" xmlns="http://www.w3.org/2000/svg">
<path d="M24 4.5H1.5V24H24V4.5Z" stroke="black" stroke-linecap="round" stroke-linejoin="round"/>
<path d="M24 12H30L34.5 16.5V24H24V12Z" stroke="black" stroke-linecap="round" stroke-linejoin="round"/>
<path d="M8.25 31.5C10.3211 31.5 12 29.8211 12 27.75C12 25.6789 10.3211 24 8.25 24C6.17893 24 4.5 25.6789 4.5 27.75C4.5 29.8211 6.17893 31.5 8.25 31.5Z" stroke="black" stroke-linecap="round" stroke-linejoin="round"/>
<path d="M27.75 31.5C29.8211 31.5 31.5 29.8211 31.5 27.75C31.5 25.6789 29.8211 24 27.75 24C25.6789 24 24 25.6789 24 27.75C24 29.8211 25.6789 31.5 27.75 31.5Z" stroke="black" stroke-linecap="round" stroke-linejoin="round"/>
<path d="M7.5 15L10.5 18L16.5 12" stroke="black" stroke-linecap="round" stroke-linejoin="round"/>
</svg>
