<svg width="42" height="42" viewBox="0 0 42 42" fill="none" xmlns="http://www.w3.org/2000/svg">
<path d="M7 35H35" stroke="black" stroke-linecap="round" stroke-linejoin="round"/>
<path d="M7 18H35" stroke="black" stroke-linecap="round" stroke-linejoin="round"/>
<path d="M19.4 28.4286C18.8123 27.9788 18.3782 27.3518 18.1592 26.6363C17.9402 25.9208 17.9473 25.1532 18.1796 24.442C18.4119 23.7309 18.8576 23.1124 19.4535 22.6741C20.0494 22.2358 20.7654 22 21.5 22C22.2346 22 22.9506 22.2358 23.5465 22.6741C24.1424 23.1124 24.5881 23.7309 24.8204 24.442C25.0527 25.1532 25.0598 25.9208 24.8408 26.6363C24.6218 27.3518 24.1877 27.9788 23.6 28.4286C23.3267 28.7046 23.1209 29.0425 22.9993 29.4147C22.8777 29.787 22.8437 30.1833 22.9 30.5714C22.9 30.9503 22.7525 31.3137 22.4899 31.5816C22.2274 31.8495 21.8713 32 21.5 32C21.1287 32 20.7726 31.8495 20.5101 31.5816C20.2475 31.3137 20.1 30.9503 20.1 30.5714C20.1563 30.1833 20.1223 29.787 20.0007 29.4147C19.8791 29.0425 19.6733 28.7046 19.4 28.4286" stroke="black" stroke-width="0.8" stroke-linecap="round" stroke-linejoin="round"/>
<path d="M20 29H23" stroke="black" stroke-width="0.8" stroke-linecap="round" stroke-linejoin="round"/>
<path d="M11 12L21.5 7L32 12" stroke="black" stroke-linecap="round" stroke-linejoin="round"/>
<path d="M9 18V35" stroke="black" stroke-linecap="round" stroke-linejoin="round"/>
<path d="M33 18V35" stroke="black" stroke-linecap="round" stroke-linejoin="round"/>
</svg>
