<svg width="16" height="16" viewBox="0 0 16 16" fill="none" xmlns="http://www.w3.org/2000/svg">
<path fill-rule="evenodd" clip-rule="evenodd" d="M14.816 0H1.18031C0.529231 0 0 0.516308 0 1.15385V14.8455C0 15.4825 0.529231 16 1.18031 16H14.816C15.4683 16 15.9994 15.4825 15.9994 14.8455V1.15385C15.9994 0.516308 15.4683 0 14.816 0ZM2.46154 6.15385H4.92308V13.5385H2.46154V6.15385ZM3.69292 5.16923C2.87508 5.16923 2.21538 4.50769 2.21538 3.69231C2.21538 2.87692 2.87508 2.21538 3.69292 2.21538C4.50769 2.21538 5.16923 2.87692 5.16923 3.69231C5.16923 4.50769 4.50769 5.16923 3.69292 5.16923ZM13.5385 13.5385H11.0769V9.84615C11.0769 8.84615 10.8074 7.896 9.84616 7.896C8.88431 7.896 8.61539 8.86092 8.61539 9.85723V13.5385H6.15385V6.15385H8.61539V7.04185H8.73846C9.05477 6.44185 9.84616 5.93169 10.7871 5.93169C13.0578 5.93169 13.5385 7.42338 13.5385 9.23077V13.5385Z" fill="#151515"/>
</svg>
