<svg width="125" height="465" viewBox="0 0 125 465" fill="none" xmlns="http://www.w3.org/2000/svg">
<path d="M125 250C55.9644 250 -5.18311e-06 194.036 -2.16547e-06 125C8.52171e-07 55.9644 55.9644 -3.01764e-06 125 0L125 250Z" fill="#2B2B2B"/>
<path d="M125 465C55.9644 465 -5.18311e-06 409.036 -2.16547e-06 340C8.52171e-07 270.964 55.9644 215 125 215L125 465Z" fill="#2B2B2B"/>
<path opacity="0.3" d="M125 360C55.9644 360 -5.18311e-06 304.036 -2.16547e-06 235C8.52171e-07 165.964 55.9644 110 125 110L125 360Z" fill="white"/>
</svg>
