<svg width="36" height="36" viewBox="0 0 36 36" fill="none" xmlns="http://www.w3.org/2000/svg">
<path d="M2 13.6389V28C2 29.1046 2.89543 30 4 30H32C33.1046 30 34 29.1046 34 28V13C34 11.8954 33.1046 11 32 11H7.33333H5.19444" stroke="black" stroke-linejoin="round"/>
<path d="M27 11.1064V8C27 6.89543 26.1046 6 25 6H17.1488H5.83104H4C2.89543 6 2 6.89543 2 8V16" stroke="black" stroke-linejoin="round"/>
<path d="M6 11H4C2.89543 11 2 10.1046 2 9V9" stroke="black" stroke-linejoin="round"/>
<path d="M23 20.5C23 19.1193 24.1193 18 25.5 18H34V23H25.5C24.1193 23 23 21.8807 23 20.5V20.5Z" stroke="black"/>
</svg>
