<svg width="36" height="36" viewBox="0 0 36 36" fill="none" xmlns="http://www.w3.org/2000/svg">
<path d="M5 19.9444V30C5 31.1046 5.89543 32 7 32H25C26.1046 32 27 31.1046 27 30V20C27 18.8954 26.1046 18 25 18H9H7.39583" stroke="black" stroke-linejoin="round"/>
<path d="M7.88889 14H7C5.89543 14 5 14.8954 5 16V21.8333M23.5714 14H29C30.1046 14 31 14.8954 31 16V26C31 27.1046 30.1046 28 29 28H27.1481" stroke="black" stroke-linejoin="round"/>
<path d="M12 7.5L12 6C12 4.89543 12.8954 4 14 4H22C23.1046 4 24 4.89543 24 6V18" stroke="black" stroke-linejoin="round"/>
<path d="M8 18V10C8 8.89543 8.89543 8 10 8H18C19.1046 8 20 8.89543 20 10V18" stroke="black" stroke-linejoin="round"/>
<path d="M8 18H7C5.89543 18 5 17.1046 5 16V16" stroke="black" stroke-linejoin="round"/>
<path d="M9 24L10 29L13.5 24" stroke="black" stroke-linecap="round" stroke-linejoin="round"/>
<path d="M12 11V15" stroke="black" stroke-linecap="round"/>
<path d="M16 11V15" stroke="black" stroke-linecap="round"/>
</svg>
