<svg width="40" height="40" viewBox="0 0 40 40" fill="none" xmlns="http://www.w3.org/2000/svg">
<g clip-path="url(#clip0)">
<path d="M7.30904 28C5.93214 25.8202 5.0995 23.2564 5.00858 20.4933C4.73613 12.2135 11.2274 5.28057 19.5071 5.00812C21.8144 4.93219 24.0171 5.38149 26.0002 6.24834" stroke="black" stroke-linecap="round" stroke-linejoin="round"/>
<path d="M31.376 10.2247C36.7747 16.5082 36.0575 25.9786 29.7739 31.3773C24.9644 35.5096 18.2878 36.0588 12.9991 33.2713" stroke="black" stroke-linecap="round" stroke-linejoin="round"/>
<path d="M23.76 16.6667C23.6008 16.196 23.31 15.7858 22.925 15.4888C22.5401 15.1918 22.0786 15.0215 21.6 15H18.4C17.7635 15 17.153 15.2634 16.7029 15.7322C16.2529 16.2011 16 16.837 16 17.5C16 18.163 16.2529 18.7989 16.7029 19.2678C17.153 19.7366 17.7635 20 18.4 20H21.6C22.2365 20 22.847 20.2634 23.2971 20.7322C23.7471 21.2011 24 21.837 24 22.5C24 23.163 23.7471 23.7989 23.2971 24.2678C22.847 24.7366 22.2365 25 21.6 25H18.4C17.9214 24.9785 17.4599 24.8082 17.075 24.5112C16.69 24.2142 16.3992 23.804 16.24 23.3333" stroke="black" stroke-linecap="round" stroke-linejoin="round"/>
<path d="M20 25.3333V28M20 12V14.6667V12Z" stroke="black" stroke-linecap="round" stroke-linejoin="round"/>
</g>
<defs>
<clipPath id="clip0">
<rect width="40" height="40" fill="white"/>
</clipPath>
</defs>
</svg>
