<svg width="36" height="36" viewBox="0 0 36 36" fill="none" xmlns="http://www.w3.org/2000/svg">
<path d="M6 15H4V31H6C7.1 31 8 30.1 8 29V17C8 15.9 7.1 15 6 15Z" stroke="#151515" stroke-miterlimit="10"/>
<path d="M8.5 18.5H11.8C12.25 18.5 12.69 18.65 13.05 18.94L16.95 22.06C17.3 22.34 17.75 22.5 18.2 22.5H20.5C21.6 22.5 22.5 23.4 22.5 24.5" stroke="#151515" stroke-miterlimit="10" stroke-linecap="round"/>
<path d="M13.5 24.4997C13.5 24.4997 22.5 25.4997 25.5 24.4997C28.5 23.4997 30.5 21.4997 30.5 21.4997C30.5 21.4997 32.5 19.4997 33.5 21.4997C34.5 23.4997 29.5 26.4997 29.5 26.4997C29.5 26.4997 22.6 31.6697 16.01 30.0097C15.23 29.8097 14.55 29.3797 13.93 28.8697C13.2 28.2797 11.64 27.4997 8.5 27.4997" stroke="#151515" stroke-miterlimit="10" stroke-linecap="round"/>
<path d="M22.5 18C26.2279 18 29.25 14.9779 29.25 11.25C29.25 7.52208 26.2279 4.5 22.5 4.5C18.7721 4.5 15.75 7.52208 15.75 11.25C15.75 14.9779 18.7721 18 22.5 18Z" stroke="black" stroke-linecap="round" stroke-linejoin="round"/>
<path d="M22.5 13.5C23.7426 13.5 24.75 12.4926 24.75 11.25C24.75 10.0074 23.7426 9 22.5 9C21.2574 9 20.25 10.0074 20.25 11.25C20.25 12.4926 21.2574 13.5 22.5 13.5Z" stroke="black" stroke-linecap="round" stroke-linejoin="round"/>
</svg>
