<svg width="36" height="36" viewBox="0 0 36 36" fill="none" xmlns="http://www.w3.org/2000/svg">
<path d="M18 10C19.6569 10 21 8.65685 21 7C21 5.34315 19.6569 4 18 4C16.3431 4 15 5.34315 15 7C15 8.65685 16.3431 10 18 10Z" stroke="black" stroke-linecap="round" stroke-linejoin="round"/>
<path d="M12.1195 32V27.9957H22.5934L20.8892 32H24.7973C26.2936 30.2849 29.2321 24.676 27.4365 18.803C24.9795 11.1044 14.3639 13.141 9.36321 15.1216L8.16226 12L4.30346 21.1066H2V26.7901H6.86287L9.36321 32H12.1195Z" stroke="black" stroke-linejoin="round"/>
<path d="M28 22.3408C29.5 20.3364 34 19.668 34 22.3408C34 25.6819 26.5 23.6775 32.5 19" stroke="black" stroke-linecap="round" stroke-linejoin="round"/>
</svg>
