<svg width="40" height="40" viewBox="0 0 40 40" fill="none" xmlns="http://www.w3.org/2000/svg">
<path d="M20 28C24.4183 28 28 24.4183 28 20C28 15.5817 24.4183 12 20 12C15.5817 12 12 15.5817 12 20C12 24.4183 15.5817 28 20 28Z" stroke="black" stroke-width="0.8" stroke-linecap="round" stroke-linejoin="round"/>
<path d="M7 10C8.65685 10 10 8.65685 10 7C10 5.34315 8.65685 4 7 4C5.34315 4 4 5.34315 4 7C4 8.65685 5.34315 10 7 10Z" stroke="black" stroke-width="0.8" stroke-linecap="round" stroke-linejoin="round"/>
<path d="M33 36C34.6569 36 36 34.6569 36 33C36 31.3431 34.6569 30 33 30C31.3431 30 30 31.3431 30 33C30 34.6569 31.3431 36 33 36Z" stroke="black" stroke-width="0.8" stroke-linecap="round" stroke-linejoin="round"/>
<path d="M31 31L29 29" stroke="black" stroke-width="0.8" stroke-linecap="round"/>
<path d="M11 11L9 9" stroke="black" stroke-width="0.8" stroke-linecap="round"/>
<path d="M12 20H28" stroke="black" stroke-width="0.8" stroke-linecap="round" stroke-linejoin="round"/>
<path d="M20 12C22.5013 14.1907 23.9228 17.0336 24 20C23.9228 22.9664 22.5013 25.8093 20 28C17.4987 25.8093 16.0772 22.9664 16 20C16.0772 17.0336 17.4987 14.1907 20 12V12Z" stroke="black" stroke-width="0.8" stroke-linecap="round" stroke-linejoin="round"/>
</svg>
