<svg width="40" height="40" viewBox="0 0 40 40" fill="none" xmlns="http://www.w3.org/2000/svg">
<path d="M13.334 30L8.33398 30C7.89195 30 7.46803 29.8244 7.15547 29.5118C6.84291 29.1993 6.66731 28.7754 6.66731 28.3333L6.66731 9.99999C6.66731 9.11594 7.0185 8.26809 7.64362 7.64297C8.26874 7.01785 9.11659 6.66666 10.0006 6.66666C10.8847 6.66666 11.7325 7.01785 12.3577 7.64297C12.9828 8.26809 13.334 9.11594 13.334 9.99999L13.334 31.6667C13.334 32.1087 13.5096 32.5326 13.8221 32.8452C14.1347 33.1577 14.5586 33.3333 15.0006 33.3333L31.6673 33.3333C32.1093 33.3333 32.5333 33.1577 32.8458 32.8452C33.1584 32.5326 33.334 32.1087 33.334 31.6667L33.334 11.6667C33.334 10.3406 32.8072 9.0688 31.8695 8.13112C30.9318 7.19344 29.6601 6.66666 28.334 6.66666L10.0006 6.66666" stroke="black" stroke-linecap="round" stroke-linejoin="round"/>
<path d="M27 18L18 18" stroke="black" stroke-linecap="round" stroke-linejoin="round"/>
<path d="M27 11L18 11" stroke="black" stroke-linecap="round" stroke-linejoin="round"/>
<path d="M31 37C34.3137 37 37 34.3137 37 31C37 27.6863 34.3137 25 31 25C27.6863 25 25 27.6863 25 31C25 34.3137 27.6863 37 31 37Z" fill="white" stroke="black" stroke-width="0.8" stroke-linecap="round" stroke-linejoin="round"/>
<path d="M33.3446 29.3529C33.2603 29.1204 33.1063 28.9177 32.9025 28.7709C32.6987 28.6242 32.4544 28.54 32.201 28.5294H30.5069C30.1699 28.5294 29.8468 28.6596 29.6085 28.8912C29.3702 29.1229 29.2363 29.4371 29.2363 29.7647C29.2363 30.0923 29.3702 30.4065 29.6085 30.6382C29.8468 30.8698 30.1699 31 30.5069 31H32.201C32.538 31 32.8612 31.1301 33.0995 31.3618C33.3378 31.5935 33.4716 31.9077 33.4716 32.2353C33.4716 32.5629 33.3378 32.8771 33.0995 33.1088C32.8612 33.3404 32.538 33.4706 32.201 33.4706H30.5069C30.2535 33.4599 30.0092 33.3758 29.8054 33.2291C29.6016 33.0823 29.4477 32.8796 29.3634 32.6471" stroke="black" stroke-width="0.8" stroke-linecap="round" stroke-linejoin="round"/>
<path d="M31.3535 33.5882V34.8824M31.3535 27.1177V28.4118V27.1177Z" stroke="black" stroke-width="0.8" stroke-linecap="round" stroke-linejoin="round"/>
</svg>
