<svg width="36" height="36" viewBox="0 0 36 36" fill="none" xmlns="http://www.w3.org/2000/svg">
<path d="M22.05 9.45009C21.7752 9.73049 21.6212 10.1075 21.6212 10.5001C21.6212 10.8927 21.7752 11.2697 22.05 11.5501L24.45 13.9501C24.7304 14.2249 25.1074 14.3789 25.5 14.3789C25.8927 14.3789 26.2696 14.2249 26.55 13.9501L32.205 8.29509C32.9593 9.96188 33.1877 11.8189 32.8597 13.6188C32.5318 15.4187 31.6631 17.0759 30.3694 18.3695C29.0758 19.6632 27.4186 20.5318 25.6187 20.8598C23.8189 21.1877 21.9618 20.9593 20.295 20.2051L9.93003 30.5701C9.33329 31.1668 8.52394 31.5021 7.68003 31.5021C6.83611 31.5021 6.02676 31.1668 5.43003 30.5701C4.83329 29.9734 4.49805 29.164 4.49805 28.3201C4.49805 27.4762 4.83329 26.6668 5.43003 26.0701L15.795 15.7051C15.0408 14.0383 14.8124 12.1812 15.1403 10.3814C15.4683 8.58151 16.337 6.92432 17.6306 5.63067C18.9243 4.33702 20.5814 3.46835 22.3813 3.14041C24.1812 2.81247 26.0382 3.04084 27.705 3.79509L22.065 9.43509L22.05 9.45009Z" stroke="black" stroke-linecap="round" stroke-linejoin="round"/>
</svg>
