<svg width="40" height="40" viewBox="0 0 40 40" fill="none" xmlns="http://www.w3.org/2000/svg">
<path d="M14.3333 6.66669H10.6667C9.69421 6.66669 8.76158 7.053 8.07394 7.74063C7.38631 8.42826 7 9.36089 7 10.3334V32.3334C7 33.3058 7.38631 34.2384 8.07394 34.9261C8.76158 35.6137 9.69421 36 10.6667 36H29C29.9725 36 30.9051 35.6137 31.5927 34.9261C32.2804 34.2384 32.6667 33.3058 32.6667 32.3334V10.3334C32.6667 9.36089 32.2804 8.42826 31.5927 7.74063C30.9051 7.053 29.9725 6.66669 29 6.66669H25.3333" stroke="black" stroke-linecap="round" stroke-linejoin="round"/>
<path d="M21.6663 3H17.9997C15.9746 3 14.333 4.64162 14.333 6.66667C14.333 8.69171 15.9746 10.3333 17.9997 10.3333H21.6663C23.6914 10.3333 25.333 8.69171 25.333 6.66667C25.333 4.64162 23.6914 3 21.6663 3Z" stroke="black" stroke-linecap="round" stroke-linejoin="round"/>
</svg>
