<svg width="36" height="36" viewBox="0 0 36 36" fill="none" xmlns="http://www.w3.org/2000/svg">
<path d="M22.5 9H6C4.34315 9 3 10.1513 3 11.5714V24.4286C3 25.8487 4.34315 27 6 27H9M27 9H30C31.6569 9 33 10.1513 33 11.5714V24.4286C33 25.8487 31.6569 27 30 27H13.5" stroke="black" stroke-linecap="round" stroke-linejoin="round"/>
<path d="M18 22.5C20.4853 22.5 22.5 20.4853 22.5 18C22.5 15.5147 20.4853 13.5 18 13.5C15.5147 13.5 13.5 15.5147 13.5 18C13.5 20.4853 15.5147 22.5 18 22.5Z" stroke="black" stroke-linecap="round" stroke-linejoin="round"/>
<path d="M3 33L32.6985 3.30152" stroke="black" stroke-linecap="round" stroke-linejoin="round"/>
</svg>
