<svg width="549" height="382" viewBox="0 0 549 382" fill="none" xmlns="http://www.w3.org/2000/svg">
<path opacity="0.3" d="M52.6392 121.46C57.5962 122.136 64.9568 119.809 72.1671 118.157C69.1628 118.007 66.1585 118.082 62.9289 118.608C59.7743 119.133 56.3945 120.109 52.6392 121.46Z" fill="white"/>
<path d="M72.3167 118.071L72.3918 117.996C72.3167 117.996 72.2416 118.071 72.1665 118.071C72.2416 118.071 72.2416 118.071 72.3167 118.071Z" fill="#D7F5B0"/>
<path d="M543.616 264.596C542.114 265.197 540.387 265.873 538.584 266.548C540.311 266.023 542.039 265.422 543.616 264.596Z" fill="#D7F5B0"/>
<path opacity="0.3" d="M410 120.853L412.403 118.001C413.981 118.751 415.258 119.427 416.159 120.027C417.06 120.628 417.661 121.153 418.112 121.604C419.013 122.505 419.163 123.18 419.313 123.781C419.464 124.381 419.614 124.907 420.365 125.732C420.74 126.108 421.266 126.558 422.092 127.083C422.468 127.309 422.918 127.609 423.519 127.909C423.82 128.059 424.045 128.209 424.346 128.36C424.496 128.435 424.646 128.51 424.796 128.585C424.946 128.66 425.097 128.735 425.172 128.81C428.251 127.759 431.856 130.386 434.26 133.164C434.56 133.539 434.861 133.839 435.086 134.215C435.386 134.515 435.687 134.89 435.912 135.19C436.137 135.491 436.363 135.791 436.588 136.091C436.738 136.241 436.813 136.391 436.964 136.467C437.039 136.617 437.114 136.692 437.264 136.842C437.339 136.992 437.414 137.067 437.564 137.217C437.564 137.217 437.564 137.217 437.64 137.292C437.715 137.292 437.715 137.292 437.79 137.292C437.94 137.292 438.165 137.217 438.466 137.067C438.165 137.292 438.316 137.893 436.888 138.568C438.165 137.968 438.391 138.043 438.391 138.193C438.391 138.418 438.09 138.643 438.466 138.718C439.292 138.643 439.292 138.418 440.043 138.118C440.043 138.118 440.118 138.193 440.268 138.268C440.419 138.343 440.569 138.493 440.719 138.568C440.869 138.718 441.019 138.869 441.17 138.944C441.245 139.094 441.32 139.169 441.32 139.169C440.794 139.469 440.193 139.619 439.592 139.619C439.067 139.619 438.466 139.544 438.391 139.394C438.316 139.469 438.315 139.544 438.315 139.619C438.315 139.619 438.315 139.694 438.24 139.694C438.24 139.694 438.24 139.769 438.165 139.769C438.165 139.769 438.09 139.844 438.09 139.919C438.09 139.919 438.015 139.995 438.015 140.07C437.94 140.145 437.865 140.22 437.865 140.295C437.564 140.595 437.189 140.895 436.813 141.045C436.663 141.045 436.663 141.12 436.513 141.12C436.513 141.12 436.438 141.196 436.513 141.12L436.438 141.196C436.363 141.271 436.288 141.346 436.212 141.346C435.837 141.571 435.537 141.796 435.086 142.021C434.335 142.472 433.358 142.997 432.232 143.523C431.18 144.048 429.903 144.648 428.552 145.174C427.2 145.774 425.622 146.3 423.97 146.825C422.318 147.426 420.515 147.951 418.562 148.477C417.661 148.777 416.534 149.002 415.558 149.227C414.506 149.453 413.53 149.753 412.479 149.978L410.901 150.353L409.324 150.654L406.094 151.329C388.82 154.707 368.841 155.608 350.59 155.683C341.502 155.758 332.94 155.683 325.429 155.608C321.674 155.608 318.219 155.608 315.215 155.608C312.21 155.608 309.506 155.683 307.253 155.758C308.38 156.283 309.957 156.584 311.609 156.809C313.262 157.034 315.215 157.184 317.017 157.334C320.773 157.71 324.378 158.235 326.331 159.886C324.077 160.337 322.124 160.487 320.397 160.562C318.67 160.562 317.092 160.487 315.74 160.412C313.036 160.262 310.934 160.037 308.831 161.012C307.028 158.535 301.996 158.235 296.212 157.935C294.785 157.86 293.358 157.785 291.931 157.71C290.504 157.635 289.002 157.484 287.65 157.259C284.871 156.884 282.393 156.208 280.515 155.007L277.736 157.86L272.704 156.358C270 156.659 267.521 156.884 265.343 157.109C263.165 157.409 261.288 157.635 259.635 157.86C256.33 158.31 253.852 158.61 252.124 158.836C250.322 159.061 249.195 159.286 248.294 159.361C247.468 159.511 246.942 159.511 246.491 159.511C245.515 159.586 244.764 159.436 241.76 159.511C240.258 159.586 238.23 159.661 235.3 159.811C232.371 160.037 228.616 160.412 223.734 160.862C218.101 161.538 213.219 162.739 208.938 163.79C206.76 164.315 204.732 164.841 202.854 165.366C200.976 165.967 199.174 166.492 197.371 167.018C193.916 168.068 190.762 169.044 187.682 169.795C184.603 170.621 181.599 171.296 178.369 171.596C180.247 171.221 185.504 171.822 179.871 173.773C179.12 172.722 175.365 173.923 171.384 175.35C167.403 176.851 163.272 178.352 161.545 177.527C160.869 177.752 159.968 177.977 158.916 178.277C157.865 178.577 156.738 178.878 155.536 179.328C153.133 180.079 150.579 180.979 148.401 181.805C144.045 183.532 141.266 185.108 144.796 185.784C142.994 185.408 138.036 186.534 134.657 187.06C131.277 187.66 129.474 187.735 134.056 185.333C131.277 186.234 128.573 186.985 126.094 187.885C123.616 188.786 121.363 189.762 119.485 190.888C119.485 190.888 121.288 190.438 123.09 189.987C123.991 189.762 124.893 189.537 125.569 189.387C126.245 189.237 126.695 189.086 126.695 189.086C124.442 189.987 122.264 190.888 120.236 191.639C119.185 192.014 118.208 192.389 117.232 192.765C115.955 193.215 114.753 193.665 113.551 194.116C112.875 194.341 112.124 194.641 111.448 194.866C110.697 195.167 110.021 195.467 109.27 195.767C107.843 196.368 106.491 196.968 105.139 197.569C102.436 198.77 99.8819 199.896 97.4034 201.022C94.9248 202.148 92.5214 203.274 90.118 204.399C88.9163 205 87.7897 205.525 86.663 206.051C86.0622 206.351 85.5364 206.651 84.9356 206.877C84.3347 207.177 83.8841 207.477 83.3583 207.852C79.2274 210.48 75.3218 213.182 71.5665 216.185L82.3068 211.531C78.4012 213.858 74.721 216.034 71.1909 218.061C69.3884 219.037 67.736 220.013 66.0085 220.989C65.5579 221.214 65.1824 221.439 64.7317 221.664C64.3562 221.889 63.9806 222.115 63.6051 222.415C62.854 222.865 62.1029 223.316 61.3519 223.766C55.4935 227.294 50.3111 229.846 45.8047 230.972L60.0751 220.013C53.9163 224.216 48.3583 228.045 43.251 231.573C41.9742 232.473 40.6223 233.299 39.6459 234.275C38.5944 235.176 37.5429 236.077 36.4914 236.977C34.4635 238.779 32.5107 240.505 30.5579 242.232C28.6802 243.958 26.7274 245.685 24.8497 247.411L24.1738 248.087C23.9484 248.312 23.7231 248.537 23.5729 248.762L22.5965 250.114C21.9205 251.014 21.2446 251.915 20.5686 252.816C17.9399 256.419 15.236 260.097 12.5321 264L17.2639 258.521C16.3626 259.872 15.236 261.673 13.7338 263.775C13.5836 264 13.3583 264.301 13.2081 264.601C13.0579 264.901 12.9077 265.126 12.7574 265.427C12.457 265.952 12.0815 266.553 11.7811 267.153C11.1802 268.354 10.4291 269.63 9.75315 270.981C7.65015 275.185 5.54715 279.989 3.81968 285.619C2.09221 291.174 0.590066 297.554 0.139423 304.76C-0.311221 311.966 0.289635 319.998 2.54285 327.88C3.66946 331.783 5.17161 335.687 7.1244 339.29C9.00208 342.893 11.2553 346.12 13.5836 348.898C14.7853 350.324 15.9871 351.6 17.2639 352.876C17.8647 353.477 18.5407 354.077 19.1416 354.678C19.8175 355.203 20.4184 355.804 21.0944 356.329C23.7231 358.506 26.3519 360.383 29.0557 362.034C31.7596 363.685 34.4635 365.187 37.3926 366.463C40.0965 367.814 43.1008 368.94 45.8047 369.991C47.2317 370.441 48.6587 370.892 50.0858 371.342C50.7617 371.567 51.4377 371.792 52.1137 371.943C52.7896 372.093 53.5407 372.318 54.2167 372.468C55.5686 372.768 56.9205 373.144 58.1974 373.444C59.4742 373.744 60.8261 373.969 62.0278 374.119C63.2296 374.345 64.4313 374.495 65.4828 374.72C66.6094 374.87 67.736 374.945 68.7124 375.095C69.7639 375.17 70.6652 375.245 71.5665 375.32C72.0171 375.32 72.3927 375.395 72.8433 375.395C73.2188 375.395 73.6695 375.395 74.045 375.395C74.045 375.395 73.8948 375.32 73.6695 375.245C73.4442 375.17 73.0686 374.945 72.6931 374.72C71.942 374.269 70.8905 373.744 69.839 373.219C69.3133 372.918 68.7875 372.693 68.3369 372.393C67.8862 372.168 67.4356 371.867 67.06 371.642C66.309 371.192 65.8583 370.892 65.8583 370.892C65.8583 370.892 67.1351 371.042 69.0128 371.342C71.0407 371.492 73.6695 371.792 76.2982 371.943C79.0021 372.093 81.706 372.168 83.809 372.243C85.912 372.243 87.2639 372.318 87.2639 372.318C86.0622 372.168 82.0064 373.894 78.0257 375.245C74.045 376.672 69.9892 378.023 69.3884 377.347C74.9463 378.398 83.6587 379.749 95.5257 380.5C97.0278 380.575 98.53 380.65 100.107 380.8C101.685 380.875 103.337 380.95 104.989 380.95C108.294 381.1 111.824 381.1 115.504 381.175C122.865 381.175 130.826 381.025 139.238 380.65C143.444 380.5 147.8 380.275 152.157 380.049C154.109 379.974 156.137 379.824 158.165 379.749C159.442 379.674 160.794 379.599 162.146 379.524C167.479 379.224 172.961 378.999 178.519 378.698C189.71 378.173 201.427 377.647 213.144 377.197C236.502 376.296 259.861 375.546 279.088 375.245C298.315 374.87 313.487 374.87 320.472 375.17C331.813 376.446 322.575 379.224 322.425 379.599C336.17 378.473 328.358 376.822 340.075 376.897C343.305 377.347 339.399 378.923 337.672 379.299C342.779 378.923 347.586 379.749 347.961 378.623C341.502 377.722 344.206 374.57 341.502 372.543L356.599 372.693L355.923 374.72C359.303 374.72 364.41 369.165 379.431 370.141C404.818 370.741 432.908 369.465 459.496 367.814C459.346 368.414 457.843 369.015 455.74 369.616C453.637 370.216 450.858 370.817 448.079 371.267C449.882 371.192 452.06 370.967 454.313 370.817C456.567 370.666 458.745 370.666 460.397 370.967C457.092 370.141 459.871 369.616 462.801 369.165C465.73 368.79 468.884 368.339 466.331 368.189C475.869 364.811 487.06 363.535 498.026 361.959C500.805 361.584 503.509 361.133 506.213 360.758C508.916 360.308 511.545 359.782 514.099 359.257C516.652 358.731 519.131 358.131 521.459 357.455C523.788 356.704 526.041 355.954 528.144 355.053C528.294 353.927 529.646 348.222 531.373 340.265C533.101 332.234 535.054 321.95 536.556 311.741C537.307 306.712 537.908 301.457 538.434 296.653C538.959 291.774 539.26 287.27 539.485 283.292C539.71 279.313 539.785 275.936 539.785 273.383C539.785 270.756 539.635 269.03 539.41 268.429C543.466 267.078 547.446 265.802 548.873 265.802C548.122 265.427 545.719 265.727 543.09 266.477C540.386 267.228 537.457 268.354 535.354 269.255L535.429 272.182C530.622 274.134 529.871 273.984 529.195 273.609C528.82 273.458 528.519 273.233 527.618 273.308C526.717 273.308 525.365 273.534 522.886 274.209C522.361 273.158 524.313 271.957 527.318 270.681C528.82 270.005 530.547 269.255 532.425 268.579C533.326 268.204 534.303 267.904 535.279 267.528C536.255 267.153 537.232 266.928 538.133 266.477C537.307 266.778 536.406 266.928 535.504 267.153C534.603 267.378 533.777 267.528 532.876 267.678C531.148 268.054 529.496 268.354 527.994 268.804C526.492 269.255 525.14 269.555 524.013 270.081C522.886 270.606 521.985 271.207 521.384 271.957C517.929 272.408 517.929 271.657 517.779 270.981C517.704 270.606 517.554 270.306 516.953 270.156C516.352 269.93 515.225 270.005 513.122 270.156C510.268 271.131 507.039 272.558 503.659 273.834C500.204 274.96 496.524 275.86 492.919 275.86L492.994 275.41C488.637 275.485 484.882 276.011 481.427 276.686C477.897 277.362 474.667 278.112 471.513 279.013C470.687 279.238 469.936 279.464 469.109 279.614C468.283 279.764 467.457 279.989 466.706 280.139C465.054 280.514 463.401 280.815 461.674 281.04C459.946 281.265 458.219 281.49 456.341 281.64C454.464 281.715 452.511 281.715 450.408 281.565L452.135 280.665C449.206 280.214 444.925 280.74 439.968 281.04C437.489 281.265 434.861 281.415 432.232 281.565C429.528 281.64 426.749 281.565 424.045 281.34C427.124 281.64 429.903 283.217 423.444 283.742C421.867 283.592 420.365 283.592 418.938 283.517C417.511 283.442 416.084 283.442 414.732 283.442C412.028 283.442 409.474 283.517 407.071 283.517C402.189 283.592 397.682 283.592 393.026 282.766L384.088 285.093C381.309 285.093 377.929 285.168 374.174 285.168C370.343 285.243 366.062 285.243 361.406 285.319C352.017 285.469 340.901 285.619 328.809 285.919C304.549 286.445 276.084 287.345 247.618 288.471C219.152 289.597 190.687 291.023 166.427 292.375C163.423 292.525 160.418 292.675 157.564 292.9C156.137 292.975 154.71 293.05 153.283 293.125C153.133 293.125 152.983 293.2 152.833 293.2C152.232 293.275 151.631 293.425 151.03 293.501C149.903 293.651 148.927 293.801 148.176 293.801L148.627 293.425C147.65 293.576 146.448 293.651 145.172 293.651C143.895 293.576 142.468 293.576 141.041 293.05C140.365 292.825 139.689 292.375 139.238 291.774C138.788 291.174 138.637 290.423 138.637 289.672C138.712 288.171 139.689 286.82 140.815 285.769C142.167 284.568 143.669 283.367 145.247 282.241C145.622 281.941 146.073 281.715 146.524 281.415C146.974 281.19 147.35 280.89 147.8 280.59C148.251 280.364 148.702 280.064 149.152 279.839C149.378 279.689 149.528 279.614 150.054 279.388L150.204 279.313C150.279 279.313 150.279 279.238 150.504 279.163L151.481 278.713C152.157 278.413 152.833 278.187 153.509 277.887C154.86 277.362 156.212 276.761 157.489 276.236C158.841 275.71 160.193 275.26 161.545 274.735C164.249 273.759 166.878 272.783 169.506 271.807C172.21 270.906 174.839 270.081 177.393 269.255C178.669 268.804 179.946 268.429 181.223 267.979C182.5 267.603 183.777 267.228 185.054 266.853C187.607 266.102 190.086 265.352 192.564 264.676C195.043 264 197.446 263.4 199.85 262.799C202.253 262.199 204.506 261.523 206.76 260.998C209.013 260.472 211.266 259.947 213.369 259.497C218.476 259.572 224.41 259.271 230.418 258.521C233.423 258.22 236.427 257.995 239.356 257.695C240.783 257.545 242.285 257.47 243.637 257.32C245.064 257.245 246.416 257.17 247.768 257.17C241.835 256.794 243.637 255.068 248.294 254.692C252.35 254.317 255.354 254.092 257.682 253.867C260.011 253.717 261.588 253.566 262.715 253.416C264.968 253.116 265.193 252.891 265.494 252.591C266.094 252.065 266.62 251.164 283.144 250.189C285.547 250.038 288.401 249.888 291.631 249.738C294.936 249.663 298.541 249.588 302.597 249.513C310.708 249.438 320.322 249.513 331.137 249.588C341.953 249.663 354.045 249.738 366.964 249.288C379.882 248.837 393.777 248.012 407.897 246.06C414.957 245.084 422.092 243.883 429.228 242.307C432.758 241.631 436.288 240.655 439.818 239.755C443.273 238.929 446.878 237.878 450.408 236.752C457.543 234.5 464.753 231.723 471.888 228.345C478.949 224.967 485.934 220.839 492.468 216.109C493.369 215.434 494.27 214.758 495.172 214.083C496.073 213.407 496.899 212.657 497.8 211.981C499.528 210.555 501.18 209.053 502.758 207.627C505.912 204.625 508.841 201.547 511.47 198.394C516.728 192.089 520.934 185.633 524.088 179.403C527.243 173.173 529.496 167.168 530.998 161.688C532.5 156.283 533.326 151.404 533.777 147.351C533.777 146.225 533.702 145.174 533.702 144.048C533.702 143.523 533.702 142.922 533.627 142.397C533.552 141.871 533.552 141.271 533.476 140.745C533.251 138.493 533.101 136.241 532.8 133.989C532.5 131.737 532.125 129.41 531.749 127.159C531.223 124.907 530.697 122.58 530.172 120.328C527.768 111.245 524.013 102.237 519.056 93.9052C517.854 91.8034 516.502 89.7766 515.15 87.7499C514.474 86.7741 513.798 85.7232 513.047 84.7473C512.296 83.7715 511.545 82.7957 510.869 81.8949C510.118 80.9191 509.367 80.0183 508.616 79.0425C507.865 78.1417 507.039 77.2409 506.288 76.3402C505.612 75.5895 504.861 74.8389 504.185 74.0132C503.509 73.2625 502.833 72.587 502.157 71.9114C501.481 71.2358 500.805 70.5602 500.129 69.8847C499.453 69.2091 498.777 68.5335 498.101 67.933C496.749 66.732 495.322 65.5309 493.97 64.3299C492.618 63.204 491.191 62.153 489.839 61.1772C488.487 60.1263 487.06 59.2256 485.708 58.3248L488.262 59.3006C487.586 58.7752 486.76 58.1747 485.783 57.4991C485.333 57.1988 484.882 56.8235 484.356 56.4482C483.831 56.0729 483.305 55.6975 482.779 55.3222C481.652 54.5716 480.451 53.7459 479.174 52.8451C477.897 52.0194 476.545 51.1186 475.043 50.1428C474.292 49.6174 473.616 49.242 472.865 48.7916C472.114 48.3413 471.438 47.8909 470.612 47.4405C469.109 46.5397 467.532 45.5639 465.88 44.5881C464.228 43.6122 462.5 42.7115 460.697 41.7356C459.796 41.2102 458.895 40.7598 457.994 40.2343C457.092 39.7089 456.116 39.1834 455.14 38.7331C451.309 36.8565 447.253 34.7547 442.972 32.8781C441.921 32.4277 440.869 31.9022 439.743 31.4518C439.217 31.2267 438.691 31.0015 438.09 30.7012C437.564 30.476 436.964 30.2508 436.438 30.0256C434.26 29.1249 432.006 28.2241 429.678 27.3233C420.59 23.7953 410.976 20.5676 401.288 17.8652C391.674 15.238 382.06 12.9861 372.822 11.1095C363.659 9.38301 354.871 7.95679 346.985 6.90589C343.004 6.38044 339.249 5.93006 335.794 5.55474C332.339 5.17942 329.034 4.87916 326.105 4.57891C320.247 4.12852 315.515 3.82827 312.285 3.7532L315.665 4.50384C312.886 4.50384 310.483 4.50385 308.38 4.42878C306.277 4.35372 304.549 4.35372 302.972 4.20359C299.893 3.97839 297.639 3.60307 295.536 3.07763C293.434 2.55218 291.481 2.02673 289.002 1.42622C286.524 0.825706 283.369 0.37532 279.013 0C280.139 1.8766 275.858 3.15269 270.451 4.05346C267.747 4.42878 264.742 4.87917 261.964 5.17942C259.185 5.47968 256.631 5.6298 254.828 5.70487L255.129 4.87916C249.646 5.10436 240.783 6.38045 231.019 7.58147C226.137 8.25705 221.105 9.00769 216.073 9.68327C213.594 10.0586 211.116 10.2838 208.712 10.584C206.309 10.8843 203.981 11.1845 201.727 11.4097L202.253 9.38301C198.573 10.2087 193.991 10.8843 189.185 11.5599C184.303 12.3105 179.12 12.9861 174.013 13.5115C171.459 13.8118 168.981 14.1871 166.502 14.4874C164.099 14.7876 161.77 15.0879 159.592 15.3881C157.414 15.6884 155.386 15.9136 153.584 16.2138C151.781 16.439 150.204 16.7393 148.852 16.9645C145.772 17.3398 142.543 17.7151 139.088 18.0904C137.36 18.3156 135.633 18.4658 133.755 18.691C131.953 18.9161 130.15 19.1413 128.272 19.4416C124.517 19.967 120.612 20.4925 116.631 21.0179C115.654 21.1681 114.603 21.3182 113.627 21.4683C112.65 21.6185 111.599 21.7686 110.622 21.9938C108.594 22.3691 106.566 22.6694 104.463 23.0447C102.436 23.42 100.333 23.7953 98.2296 24.1706C97.1781 24.3958 96.1266 24.5459 95.0751 24.7711C94.0236 24.9963 92.9721 25.2215 91.9206 25.4467C87.7146 26.3475 83.5085 27.3233 79.3776 28.3742L76.2231 29.1249C75.1716 29.4251 74.1201 29.7254 73.1437 30.0256C71.1158 30.6261 69.0128 31.2267 66.9849 31.9022C64.957 32.5027 62.9291 33.1783 60.9763 33.8539C58.9484 34.5295 56.9957 35.2051 55.118 35.9557C55.118 35.9557 49.56 36.1058 44.0772 36.331C41.2982 36.4061 38.5193 36.4811 36.4163 36.6313C34.3132 36.7814 32.9613 36.8565 32.9613 36.8565L30.1823 38.3577C30.1823 38.3577 29.4313 43.0868 29.206 50.2179C28.9055 57.349 29.1308 66.807 30.7832 76.2651C32.4356 85.7232 35.5901 95.1812 40.9227 102.387C46.2553 109.594 53.6158 114.548 63.9806 115.073V117.175L71.2661 114.698C75.8476 113.872 78.927 112.521 80.9549 111.77C82.9828 111.02 83.809 110.72 83.809 111.77C83.809 111.77 83.0579 111.996 81.9313 112.221C81.3304 112.371 80.6545 112.521 79.9785 112.746C79.3025 112.971 78.4763 113.122 77.7253 113.347C74.721 114.172 71.6416 115.073 71.6416 115.073C80.6545 112.971 74.7961 115.824 71.7167 117.926C75.4721 117.025 79.0772 116.124 82.1566 115.899C83.7339 114.698 80.6545 115.449 79.1523 115.449C83.7339 113.422 89.8927 109.819 95.9763 109.143C105.215 107.041 97.3283 112.146 108.069 109.744C136.384 103.663 164.7 99.9854 193.09 97.7334C221.481 95.4064 250.021 94.9561 279.088 95.5566C280.365 96.3823 278.788 96.3823 277.135 96.6825C279.313 96.6075 281.491 96.6075 283.594 96.5324C285.697 96.5324 287.8 96.6075 289.903 96.6825C294.034 96.8326 298.165 96.9077 302.221 97.1329C310.258 97.6584 318.219 98.0337 326.03 98.409C330.236 99.7602 331.288 101.111 332.414 102.087C331.212 101.186 352.693 102.988 372.296 107.717C382.135 110.044 391.449 113.047 398.133 115.674C398.959 115.974 399.785 116.349 400.536 116.65C401.288 116.95 402.039 117.25 402.715 117.55C404.067 118.151 405.193 118.676 406.17 119.127C408.798 120.103 409.85 120.778 410 120.853Z" fill="white"/>
</svg>
