<svg width="40" height="40" viewBox="0 0 40 40" fill="none" xmlns="http://www.w3.org/2000/svg">
<path d="M31.7333 8.26667L30.45 9.55M3.5 20H5.33333H3.5ZM20 3.5V5.33333V3.5ZM34.6667 20H36.5H34.6667ZM8.26667 8.26667L9.55 9.55L8.26667 8.26667Z" stroke="black" stroke-linecap="round" stroke-linejoin="round"/>
<path d="M14.4997 27.3334C12.9605 26.179 11.8236 24.5697 11.25 22.7332C10.6763 20.8968 10.695 18.9265 11.3034 17.1013C11.9118 15.2761 13.0791 13.6886 14.6398 12.5637C16.2006 11.4387 18.0758 10.8334 19.9997 10.8334C21.9236 10.8334 23.7988 11.4387 25.3595 12.5637C26.9203 13.6886 28.0875 15.2761 28.6959 17.1013C29.3043 18.9265 29.323 20.8968 28.7494 22.7332C28.1757 24.5697 27.0388 26.179 25.4997 27.3334C24.7839 28.0419 24.2449 28.909 23.9264 29.8645C23.6079 30.82 23.5188 31.8371 23.6663 32.8334C23.6663 33.8058 23.28 34.7385 22.5924 35.4261C21.9048 36.1137 20.9721 36.5 19.9997 36.5C19.0272 36.5 18.0946 36.1137 17.407 35.4261C16.7193 34.7385 16.333 33.8058 16.333 32.8334C16.4805 31.8371 16.3914 30.82 16.0729 29.8645C15.7544 28.909 15.2155 28.0419 14.4997 27.3334" stroke="black" stroke-linecap="round" stroke-linejoin="round"/>
<path d="M15.7832 29.1666H24.2165" stroke="black" stroke-linecap="round" stroke-linejoin="round"/>
</svg>
