<svg width="36" height="36" viewBox="0 0 36 36" fill="none" xmlns="http://www.w3.org/2000/svg">
<path d="M6.00098 15H4.00098V31H6.00098C7.10098 31 8.00098 30.1 8.00098 29V17C8.00098 15.9 7.10098 15 6.00098 15Z" stroke="black" stroke-miterlimit="10"/>
<path d="M8.50098 18.5H11.801C12.251 18.5 12.691 18.65 13.051 18.94L16.951 22.06C17.301 22.34 17.751 22.5 18.201 22.5H20.501C21.601 22.5 22.501 23.4 22.501 24.5" stroke="black" stroke-miterlimit="10" stroke-linecap="round"/>
<path d="M13.501 24.4997C13.501 24.4997 22.501 25.4997 25.501 24.4997C28.501 23.4997 30.501 21.4997 30.501 21.4997C30.501 21.4997 32.501 19.4997 33.501 21.4997C34.501 23.4997 29.501 26.4997 29.501 26.4997C29.501 26.4997 22.601 31.6697 16.011 30.0097C15.231 29.8097 14.551 29.3797 13.931 28.8697C13.201 28.2797 11.641 27.4997 8.50098 27.4997" stroke="black" stroke-miterlimit="10" stroke-linecap="round"/>
<path d="M22.5 4.5L18 11.25H24.75L20.25 18" stroke="black" stroke-linecap="round" stroke-linejoin="round"/>
</svg>
