<svg width="36" height="36" viewBox="0 0 36 36" fill="none" xmlns="http://www.w3.org/2000/svg">
<path d="M28 3H8C6.89543 3 6 3.89543 6 5V25.5V33L11.2191 26.4761C11.6195 25.9757 12.3805 25.9757 12.7809 26.4761L17.1657 31.9572C17.5826 32.4783 18.3832 32.4526 18.7658 31.9059L22.5288 26.5303C22.8977 26.0033 23.661 25.9567 24.0913 26.4348L30 33V25.5V5C30 3.89543 29.1046 3 28 3Z" stroke="black" stroke-linejoin="round"/>
<path d="M20.025 12.2248C19.8876 12.365 19.8106 12.5535 19.8106 12.7498C19.8106 12.9461 19.8876 13.1346 20.025 13.2748L21.225 14.4748C21.3652 14.6122 21.5537 14.6892 21.75 14.6892C21.9463 14.6892 22.1348 14.6122 22.275 14.4748L25.1025 11.6473C25.4796 12.4807 25.5938 13.4092 25.4299 14.3092C25.2659 15.2091 24.8315 16.0377 24.1847 16.6845C23.5379 17.3313 22.7093 17.7657 21.8094 17.9296C20.9094 18.0936 19.9809 17.9794 19.1475 17.6023L13.965 22.7848C13.6666 23.0832 13.262 23.2508 12.84 23.2508C12.4181 23.2508 12.0134 23.0832 11.715 22.7848C11.4166 22.4864 11.249 22.0818 11.249 21.6598C11.249 21.2378 11.4166 20.8332 11.715 20.5348L16.8975 15.3523C16.5204 14.5189 16.4062 13.5904 16.5702 12.6904C16.7341 11.7905 17.1685 10.9619 17.8153 10.3151C18.4621 9.66827 19.2907 9.23393 20.1907 9.06996C21.0906 8.90599 22.0191 9.02018 22.8525 9.3973L20.0325 12.2173L20.025 12.2248Z" stroke="black" stroke-linecap="round" stroke-linejoin="round"/>
</svg>
