<svg width="40" height="40" viewBox="0 0 40 40" fill="none" xmlns="http://www.w3.org/2000/svg">
<path d="M6.66754 16.6667H4.44531V34.4445H6.66754C7.88976 34.4445 8.88976 33.4445 8.88976 32.2222V18.8889C8.88976 17.6667 7.88976 16.6667 6.66754 16.6667Z" stroke="black" stroke-miterlimit="10"/>
<path d="M9.44531 20.5558H13.112C13.612 20.5558 14.1009 20.7225 14.5009 21.0447L18.8342 24.5113C19.2231 24.8225 19.7231 25.0002 20.2231 25.0002H22.7786C24.0009 25.0002 25.0009 26.0002 25.0009 27.2225" stroke="black" stroke-miterlimit="10" stroke-linecap="round"/>
<path d="M15.0009 27.222C15.0009 27.222 25.0009 28.3332 28.3342 27.222C31.6675 26.1109 33.8898 23.8887 33.8898 23.8887C33.8898 23.8887 36.112 21.6665 37.2231 23.8887C38.3342 26.1109 32.7786 29.4443 32.7786 29.4443C32.7786 29.4443 25.112 35.1887 17.7898 33.3443C16.9231 33.122 16.1675 32.6443 15.4786 32.0776C14.6675 31.422 12.9342 30.5554 9.44531 30.5554" stroke="black" stroke-miterlimit="10" stroke-linecap="round"/>
<rect x="14.5" y="4.5" width="19" height="12" rx="2.5" stroke="black"/>
<line x1="15" y1="8.5" x2="33" y2="8.5" stroke="black"/>
</svg>
