<svg width="24" height="24" viewBox="0 0 24 24" fill="none" xmlns="http://www.w3.org/2000/svg">
<path fill-rule="evenodd" clip-rule="evenodd" d="M18.816 4H5.18031C4.52923 4 4 4.51631 4 5.15385V18.8455C4 19.4825 4.52923 20 5.18031 20H18.816C19.4683 20 19.9994 19.4825 19.9994 18.8455V5.15385C19.9994 4.51631 19.4683 4 18.816 4ZM6.46154 10.1538H8.92308V17.5385H6.46154V10.1538ZM7.69292 9.16923C6.87508 9.16923 6.21538 8.50769 6.21538 7.69231C6.21538 6.87692 6.87508 6.21538 7.69292 6.21538C8.50769 6.21538 9.16923 6.87692 9.16923 7.69231C9.16923 8.50769 8.50769 9.16923 7.69292 9.16923ZM17.5385 17.5385H15.0769V13.8462C15.0769 12.8462 14.8074 11.896 13.8462 11.896C12.8843 11.896 12.6154 12.8609 12.6154 13.8572V17.5385H10.1538V10.1538H12.6154V11.0418H12.7385C13.0548 10.4418 13.8462 9.93169 14.7871 9.93169C17.0578 9.93169 17.5385 11.4234 17.5385 13.2308V17.5385Z" fill="#2B87BB"/>
</svg>
