<svg width="40" height="40" viewBox="0 0 40 40" fill="none" xmlns="http://www.w3.org/2000/svg">
<path d="M8 17.0001H6V33.0001H8C9.1 33.0001 10 32.1001 10 31.0001V19.0001C10 17.9001 9.1 17.0001 8 17.0001Z" stroke="#151515" stroke-miterlimit="10"/>
<path d="M10.5 20.5001H13.8C14.25 20.5001 14.69 20.6501 15.05 20.9401L18.95 24.0601C19.3 24.3401 19.75 24.5001 20.2 24.5001H22.5C23.6 24.5001 24.5 25.4001 24.5 26.5001" stroke="#151515" stroke-miterlimit="10" stroke-linecap="round"/>
<path d="M15.5 26.4998C15.5 26.4998 24.5 27.4998 27.5 26.4998C30.5 25.4998 32.5 23.4998 32.5 23.4998C32.5 23.4998 34.5 21.4998 35.5 23.4998C36.5 25.4998 31.5 28.4998 31.5 28.4998C31.5 28.4998 24.6 33.6698 18.01 32.0098C17.23 31.8098 16.55 31.3798 15.93 30.8698C15.2 30.2798 13.64 29.4998 10.5 29.4998" stroke="#151515" stroke-miterlimit="10" stroke-linecap="round"/>
<path d="M25.5 20C30.1944 20 34 16.1944 34 11.5C34 6.80558 30.1944 3 25.5 3C20.8056 3 17 6.80558 17 11.5C17 16.1944 20.8056 20 25.5 20Z" stroke="black" stroke-linecap="round" stroke-linejoin="round"/>
<path d="M28.82 9.16667C28.7006 8.83722 28.4825 8.55006 28.1938 8.34215C27.9051 8.13423 27.559 8.01507 27.2 8H24.8C24.3226 8 23.8648 8.18437 23.5272 8.51256C23.1896 8.84075 23 9.28587 23 9.75C23 10.2141 23.1896 10.6592 23.5272 10.9874C23.8648 11.3156 24.3226 11.5 24.8 11.5H27.2C27.6774 11.5 28.1352 11.6844 28.4728 12.0126C28.8104 12.3408 29 12.7859 29 13.25C29 13.7141 28.8104 14.1592 28.4728 14.4874C28.1352 14.8156 27.6774 15 27.2 15H24.8C24.441 14.9849 24.0949 14.8658 23.8062 14.6579C23.5175 14.4499 23.2994 14.1628 23.18 13.8333" stroke="black" stroke-width="0.8" stroke-linecap="round" stroke-linejoin="round"/>
<path d="M26 15.1667V17M26 6V7.83333V6Z" stroke="black" stroke-width="0.8" stroke-linecap="round" stroke-linejoin="round"/>
</svg>
