<svg width="43" height="43" viewBox="0 0 43 43" fill="none" xmlns="http://www.w3.org/2000/svg">
<path d="M21.7321 24.5257C24.6346 24.5257 26.9876 22.1728 26.9876 19.2702C26.9876 16.3677 24.6346 14.0147 21.7321 14.0147C18.8295 14.0147 16.4766 16.3677 16.4766 19.2702C16.4766 22.1728 18.8295 24.5257 21.7321 24.5257Z" stroke="white" stroke-linecap="round" stroke-linejoin="round"/>
<path d="M31.6436 29.1803L24.2105 36.6134C23.5536 37.2697 22.6629 37.6383 21.7343 37.6383C20.8057 37.6383 19.9151 37.2697 19.2581 36.6134L11.8233 29.1803C9.86339 27.2203 8.52869 24.7232 7.98799 22.0046C7.44729 19.286 7.72487 16.4682 8.78563 13.9074C9.84639 11.3466 11.6427 9.15781 13.9474 7.61789C16.2521 6.07797 18.9616 5.25604 21.7334 5.25604C24.5053 5.25604 27.2148 6.07797 29.5195 7.61789C31.8242 9.15781 33.6205 11.3466 34.6813 13.9074C35.742 16.4682 36.0196 19.286 35.4789 22.0046C34.9382 24.7232 33.6035 27.2203 31.6436 29.1803V29.1803Z" stroke="white" stroke-linecap="round" stroke-linejoin="round"/>
</svg>
