<svg width="40" height="40" viewBox="0 0 40 40" fill="none" xmlns="http://www.w3.org/2000/svg">
<path d="M20 23.3333C22.7614 23.3333 25 21.0948 25 18.3333C25 15.5719 22.7614 13.3333 20 13.3333C17.2386 13.3333 15 15.5719 15 18.3333C15 21.0948 17.2386 23.3333 20 23.3333Z" stroke="black" stroke-linecap="round" stroke-linejoin="round"/>
<path d="M29.4287 27.7617L22.357 34.8333C21.732 35.4577 20.8846 35.8085 20.0012 35.8085C19.1177 35.8085 18.2704 35.4577 17.6453 34.8333L10.572 27.7617C8.70737 25.8969 7.43756 23.5212 6.92314 20.9348C6.40873 18.3484 6.67281 15.6675 7.682 13.2312C8.69119 10.7949 10.4002 8.71257 12.5928 7.24751C14.7854 5.78246 17.3633 5.00049 20.0003 5.00049C22.6374 5.00049 25.2152 5.78246 27.4079 7.24751C29.6005 8.71257 31.3095 10.7949 32.3187 13.2312C33.3278 15.6675 33.5919 18.3484 33.0775 20.9348C32.5631 23.5212 31.2933 25.8969 29.4287 27.7617V27.7617Z" stroke="black" stroke-linecap="round" stroke-linejoin="round"/>
</svg>
