<svg width="36" height="36" viewBox="0 0 36 36" fill="none" xmlns="http://www.w3.org/2000/svg">
<path d="M26 16H30C31.1046 16 32 15.1046 32 14V7C32 5.89543 31.1046 5 30 5H6C4.89543 5 4 5.89543 4 7V14C4 15.1046 4.89543 16 6 16H10" stroke="black"/>
<path d="M10 10H7.5C7.22386 10 7 9.77614 7 9.5V9.5C7 9.22386 7.22386 9 7.5 9H27.5C27.7761 9 28 9.22386 28 9.5V9.5C28 9.77614 27.7761 10 27.5 10H26" stroke="black"/>
<path d="M10 9H26V29C26 30.1046 25.1046 31 24 31H12C10.8954 31 10 30.1046 10 29V9Z" stroke="black"/>
<rect x="14" y="9" width="3" height="22" stroke="black"/>
<rect x="20" y="14" width="3" height="3" rx="1.5" stroke="black"/>
</svg>
