<svg width="48" height="48" viewBox="0 0 48 48" fill="none" xmlns="http://www.w3.org/2000/svg">
<path d="M0 10.9091C0 4.88417 4.88417 0 10.9091 0H37.0909C43.1158 0 48 4.88417 48 10.9091V37.0909C48 43.1158 43.1158 48 37.0909 48H10.9091C4.88417 48 0 43.1158 0 37.0909V10.9091Z" fill="#D71A20"/>
<path d="M22.0621 18.543H24.4538L27.6795 26.1265C27.8579 26.5302 28.0152 26.7801 28.1516 26.8762C28.288 26.9627 28.5345 27.0059 28.8911 27.0059V28.3612H23.8244V27.0059L24.1391 26.9915C24.4119 26.9915 24.6059 26.9579 24.7213 26.8906C24.8367 26.8233 24.8944 26.7416 24.8944 26.6455C24.8944 26.559 24.8472 26.386 24.7528 26.1265L24.4381 25.2326H21.1652L20.7718 26.2274C20.6879 26.4388 20.6459 26.5734 20.6459 26.6311C20.6459 26.708 20.6721 26.7801 20.7246 26.8473C20.7875 26.905 20.8872 26.9483 21.0236 26.9771C21.1075 26.9963 21.3488 27.0059 21.7474 27.0059V28.3612H17.5933V27.0059C17.8556 27.0059 18.0496 26.9867 18.1755 26.9483C18.3014 26.9002 18.401 26.8329 18.4745 26.7464C18.5584 26.6599 18.6476 26.5013 18.742 26.2706L22.0621 18.543ZM21.7316 23.8341H23.8716L22.8174 21.1237L21.7316 23.8341Z" fill="white"/>
<path d="M29.532 18.543H35.1966C35.9099 18.543 36.5026 18.6102 36.9747 18.7448C37.4572 18.8794 37.8663 19.0812 38.202 19.3503C38.5482 19.6195 38.8105 19.9414 38.9888 20.3163C39.1776 20.6911 39.272 21.0852 39.272 21.4985C39.272 22.3443 38.9154 23.0508 38.202 23.6179C37.4992 24.1849 36.5289 24.4685 35.291 24.4685H33.4658V26.2995C33.4658 26.5302 33.4815 26.6791 33.513 26.7464C33.5654 26.8329 33.6388 26.9002 33.7333 26.9483C33.8277 26.9867 33.985 27.0059 34.2053 27.0059H34.756V28.3612H29.532V27.0059H29.8939C30.2086 27.0059 30.4184 26.9867 30.5233 26.9483C30.6282 26.9002 30.7016 26.8329 30.7436 26.7464C30.796 26.6503 30.8223 26.4581 30.8223 26.1697V20.7777C30.8223 20.4701 30.8013 20.2682 30.7593 20.1721C30.7174 20.076 30.6492 20.0087 30.5548 19.9703C30.4708 19.9222 30.303 19.8982 30.0512 19.8982H29.532V18.543ZM33.4658 20.1433V22.9402H34.3784C34.9344 22.9402 35.3435 22.8874 35.6057 22.7817C35.868 22.6759 36.0778 22.5125 36.2351 22.2915C36.3925 22.0704 36.4712 21.8109 36.4712 21.5129C36.4712 21.0612 36.2823 20.7056 35.9047 20.4461C35.6215 20.2442 35.2071 20.1433 34.6616 20.1433H33.4658Z" fill="white"/>
<path d="M8.72656 18.543H14.0608V19.8982H13.6517C13.3789 19.8982 13.2058 19.9174 13.1324 19.9559C13.059 19.9943 13.0223 20.0616 13.0223 20.1577C13.0223 20.273 13.1062 20.4557 13.274 20.7056L14.6744 22.8393L16.248 20.6046C16.3843 20.4124 16.4578 20.3067 16.4682 20.2875C16.4892 20.2394 16.4997 20.1865 16.4997 20.1289C16.4997 20.052 16.4682 19.9943 16.4053 19.9559C16.3529 19.9174 16.2165 19.8982 15.9962 19.8982H15.4612V18.543H19.7254V19.8982C19.3583 19.9078 19.096 19.9511 18.9387 20.028C18.7918 20.0952 18.6135 20.273 18.4037 20.5614L15.5399 24.382V26.1265C15.5399 26.434 15.5609 26.6359 15.6028 26.732C15.6448 26.8185 15.7182 26.8858 15.8231 26.9338C15.928 26.9819 16.1378 27.0059 16.4525 27.0059H16.8302V28.3612H11.6061V27.0059H11.8893C12.2565 27.0059 12.4873 26.9819 12.5817 26.9338C12.6866 26.8858 12.7652 26.8137 12.8177 26.7176C12.8806 26.6119 12.9121 26.3956 12.9121 26.0688V24.5406L10.0483 20.5614C9.82802 20.2538 9.63396 20.0568 9.46611 19.9703C9.34023 19.9222 9.09372 19.8982 8.72656 19.8982V18.543Z" fill="white"/>
</svg>
