<svg width="47" height="44" viewBox="0 0 47 44" fill="none" xmlns="http://www.w3.org/2000/svg">
<path fill-rule="evenodd" clip-rule="evenodd" d="M6.20139 0H40.7986C44.249 0 47 2.83262 47 6.27897V37.721C47 41.2146 44.2024 44 40.7986 44H6.20139C2.79762 44 0 41.1674 0 37.721V6.27897C0 2.83262 2.79762 0 6.20139 0Z" fill="#D02127"/>
<path d="M7.60022 17.043H12.0298L13.7084 23.0859L15.4802 17.043H19.9564V18.4121H19.4901C19.2103 18.4121 19.0705 18.4593 18.9306 18.6009C18.8373 18.6953 18.7907 18.9314 18.7907 19.2146V24.8327C18.7907 25.0687 18.7907 25.2104 18.8373 25.3048C18.8839 25.3992 18.9306 25.4464 19.0238 25.4936C19.1171 25.5408 19.257 25.588 19.4435 25.588H20.003V26.9099H15.247V25.5408H15.6201C15.8998 25.5408 16.0863 25.5408 16.1796 25.4936C16.2728 25.4464 16.3195 25.3992 16.3661 25.3048C16.4127 25.2104 16.4127 25.0687 16.4127 24.8327V18.7425L14.0347 26.9099H12.6826L10.3978 18.9786V25.0215C10.3978 25.1631 10.4445 25.2576 10.4911 25.352C10.5377 25.4464 10.631 25.4936 10.7242 25.5408C10.8175 25.588 10.9574 25.588 11.1439 25.588H11.6101V26.9099H7.60022V25.5408H7.97324C8.20637 25.5408 8.39288 25.5408 8.48613 25.4936C8.57939 25.4464 8.62601 25.3992 8.67264 25.3048C8.71927 25.2104 8.71927 25.0215 8.71927 24.7855V19.2146C8.71927 18.9786 8.71927 18.7898 8.67264 18.6953C8.62601 18.6009 8.57939 18.5065 8.48613 18.4593C8.43951 18.4121 8.29962 18.4121 8.11312 18.4121H7.60022V17.043Z" fill="white"/>
<path d="M22.6141 20.9615L21.2153 21.1031C21.1687 20.867 21.1221 20.631 21.1221 20.3949C21.1221 19.734 21.262 19.1203 21.5883 18.6009C21.9147 18.0816 22.381 17.7039 23.0338 17.3735C23.6866 17.043 24.4326 16.9014 25.2252 16.9014C25.9713 16.9014 26.6241 17.043 27.2302 17.3263C27.8364 17.6095 28.3026 17.9872 28.5824 18.4121C28.8621 18.8842 29.0487 19.3563 29.0487 19.8284C29.0487 20.3477 28.9554 20.8198 28.7223 21.2447C28.4891 21.7168 28.1161 22.1889 27.5566 22.661C26.9971 23.1331 25.9246 23.8413 24.2927 24.8799H26.6241C26.9971 24.8799 27.2302 24.8799 27.3701 24.8327C27.4633 24.7855 27.5566 24.6911 27.6498 24.5966C27.7431 24.455 27.7897 24.2662 27.8364 23.9829L27.883 23.6524H29.2352L28.5824 27.2876H27.6498V26.91H21.1687V25.5409C22.1012 24.9271 23.3135 23.9829 24.759 22.7554C25.505 22.1417 26.0179 21.5752 26.251 21.1503C26.4375 20.8198 26.5308 20.4893 26.5308 20.1117C26.5308 19.6868 26.3443 19.3563 26.0179 19.0258C25.6915 18.7426 25.2252 18.6009 24.6191 18.6009C24.1995 18.6009 23.8264 18.6954 23.5 18.837C23.1737 18.9786 22.9405 19.2147 22.754 19.4979C22.5675 19.7812 22.4743 20.1117 22.4743 20.4421C22.5675 20.5838 22.5675 20.7726 22.6141 20.9615Z" fill="white"/>
<path d="M30.5408 17.043H35.7164C36.3691 17.043 36.9287 17.0902 37.3483 17.2318C37.768 17.3734 38.141 17.5623 38.4674 17.8455C38.7937 18.1288 39.0269 18.4593 39.1668 18.837C39.3533 19.2146 39.3999 19.5923 39.3999 20.0172C39.3999 20.867 39.0735 21.5752 38.4207 22.1417C37.768 22.7082 36.882 22.9915 35.763 22.9915H34.0844V24.8327C34.0844 25.0687 34.0844 25.2104 34.131 25.2576C34.1777 25.352 34.2243 25.3992 34.3176 25.4464C34.4108 25.4936 34.5507 25.4936 34.7372 25.4936H35.2501V26.9099H30.5408V25.5408H30.8672C31.1469 25.5408 31.3334 25.5408 31.4267 25.4936C31.5199 25.4464 31.5666 25.3992 31.6132 25.3048C31.7064 25.2104 31.7064 25.0215 31.7064 24.7383V19.2619C31.7064 18.9786 31.7064 18.7425 31.6598 18.6481C31.6132 18.5537 31.5666 18.4593 31.4733 18.4121C31.3801 18.4121 31.2402 18.4121 31.007 18.4121H30.5408V17.043ZM34.131 18.6481V21.4335H34.9703C35.4832 21.4335 35.8562 21.3863 36.0894 21.2919C36.3225 21.1975 36.509 21.0086 36.6489 20.8198C36.7888 20.5837 36.882 20.3477 36.882 20.0172C36.882 19.5451 36.6955 19.2146 36.3691 18.9314C36.136 18.7425 35.7164 18.6481 35.2501 18.6481H34.131Z" fill="white"/>
</svg>
