<svg width="94" height="36" viewBox="0 0 94 36" fill="none" xmlns="http://www.w3.org/2000/svg">
<g opacity="0.8">
<path d="M57.1853 6L51.5622 14.4332L45.9091 6H42L49.9084 17.3221V25.8137H53.2161V17.3221L61.1244 6H57.1853Z" fill="#151515"/>
<path d="M65.9185 26.2514C68.4444 26.2514 70.0982 25.2884 71.1206 24.2671L71.0905 25.8137H74.3681V10.7273H71.1506V12.1863C70.0681 11.1358 68.1737 10.2896 65.9185 10.2896C61.1674 10.2896 57.7996 13.8788 57.7996 18.2851C57.7996 22.6914 61.1674 26.2514 65.9185 26.2514ZM66.159 23.4501C63.2423 23.4501 61.0472 21.1156 61.0472 18.2559C61.0472 15.3962 63.2423 13.0909 66.159 13.0909C69.0457 13.0909 71.3311 14.9877 71.3311 18.2559C71.3311 21.5533 69.0457 23.4501 66.159 23.4501Z" fill="#151515"/>
<path d="M77.4014 32H80.649V24.2088C81.6713 25.2884 83.3252 26.2514 85.8811 26.2514C90.6322 26.2514 94 22.6914 94 18.2851C94 13.8788 90.6322 10.2896 85.8811 10.2896C83.6259 10.2896 81.7315 11.1358 80.649 12.1863V10.7273H77.4014V32ZM85.9413 23.4501C83.0245 23.4501 80.4686 21.5533 80.4686 18.2851C80.4686 14.9877 83.0245 13.0909 85.9413 13.0909C88.858 13.0909 90.8427 15.4254 90.8427 18.2851C90.8427 21.1448 88.858 23.4501 85.9413 23.4501Z" fill="#151515"/>
</g>
<path d="M12 24C5.37258 24 -2.34843e-07 18.6274 -5.24537e-07 12V12L24 12C30.6274 12 36 17.3726 36 24V24L12 24Z" fill="#FF5043"/>
<path d="M36 24C36 17.3726 30.6274 12 24 12C17.3726 12 12 17.3726 12 24L36 24Z" fill="#F01100"/>
<path d="M12 36C18.6274 36 24 30.6274 24 24L12 24L12 36Z" fill="#EE3224"/>
<path d="M24.375 0C17.7476 0 12.375 5.37258 12.375 12L24.375 12L24.375 0Z" fill="#F86C62"/>
</svg>
