<svg width="40" height="40" viewBox="0 0 40 40" fill="none" xmlns="http://www.w3.org/2000/svg">
<path d="M30 5H10C8.89543 5 8 5.89543 8 7V27.5V35L13.2191 28.4761C13.6195 27.9757 14.3805 27.9757 14.7809 28.4761L19.1657 33.9572C19.5826 34.4783 20.3832 34.4526 20.7658 33.9059L24.5288 28.5303C24.8977 28.0033 25.661 27.9567 26.0913 28.4348L32 35V27.5V7C32 5.89543 31.1046 5 30 5Z" stroke="black" stroke-linejoin="round"/>
<path d="M16.5 20C19.5376 20 22 17.5376 22 14.5C22 11.4624 19.5376 9 16.5 9C13.4624 9 11 11.4624 11 14.5C11 17.5376 13.4624 20 16.5 20Z" stroke="black" stroke-width="0.8" stroke-linecap="round" stroke-linejoin="round"/>
<path d="M18.6487 12.9902C18.5714 12.777 18.4303 12.5912 18.2435 12.4567C18.0567 12.3221 17.8327 12.245 17.6005 12.2353H16.0475C15.7386 12.2353 15.4424 12.3546 15.2239 12.5669C15.0055 12.7793 14.8828 13.0673 14.8828 13.3676C14.8828 13.668 15.0055 13.956 15.2239 14.1683C15.4424 14.3807 15.7386 14.5 16.0475 14.5H17.6005C17.9094 14.5 18.2056 14.6193 18.424 14.8317C18.6425 15.044 18.7652 15.332 18.7652 15.6323C18.7652 15.9327 18.6425 16.2207 18.424 16.433C18.2056 16.6454 17.9094 16.7647 17.6005 16.7647H16.0475C15.8153 16.755 15.5913 16.6778 15.4045 16.5433C15.2177 16.4088 15.0766 16.223 14.9993 16.0098" stroke="black" stroke-width="0.8" stroke-linecap="round" stroke-linejoin="round"/>
<path d="M16.8242 16.8725V18.0588M16.8242 10.9412V12.1275V10.9412Z" stroke="black" stroke-width="0.8" stroke-linecap="round" stroke-linejoin="round"/>
<path d="M25.5 17.5L25.5 24" stroke="black" stroke-width="0.8" stroke-linecap="round" stroke-linejoin="round"/>
<path d="M23 22L25.5 24.5L28 22" stroke="black" stroke-width="0.8" stroke-linecap="round" stroke-linejoin="round"/>
</svg>
