<svg width="36" height="36" viewBox="0 0 36 36" fill="none" xmlns="http://www.w3.org/2000/svg">
<path d="M6 30L30 6" stroke="black" stroke-linecap="round" stroke-linejoin="round"/>
<path d="M15 6H30V21" stroke="black" stroke-linecap="round" stroke-linejoin="round"/>
<path d="M11.25 18C13.3211 18 15 16.3211 15 14.25C15 12.1789 13.3211 10.5 11.25 10.5C9.17893 10.5 7.5 12.1789 7.5 14.25C7.5 16.3211 9.17893 18 11.25 18Z" stroke="black" stroke-linecap="round" stroke-linejoin="round"/>
<path d="M21.75 28.5C23.8211 28.5 25.5 26.8211 25.5 24.75C25.5 22.6789 23.8211 21 21.75 21C19.6789 21 18 22.6789 18 24.75C18 26.8211 19.6789 28.5 21.75 28.5Z" stroke="black" stroke-linecap="round" stroke-linejoin="round"/>
</svg>
