<svg width="42" height="42" viewBox="0 0 42 42" fill="none" xmlns="http://www.w3.org/2000/svg">
<path d="M9 21H7V37H9C10.1 37 11 36.1 11 35V23C11 21.9 10.1 21 9 21Z" stroke="black" stroke-miterlimit="10"/>
<path d="M11 24H14.5357C15.0179 24 15.4893 24.15 15.875 24.44L20.0536 27.56C20.4286 27.84 20.9107 28 21.3929 28H23.8571C25.0357 28 26 28.9 26 30" stroke="black" stroke-miterlimit="10" stroke-linecap="round"/>
<path d="M16.1726 29.9978C16.1726 29.9978 25.4834 31.0259 28.587 29.9978C31.6906 28.9698 33.7596 26.9138 33.7596 26.9138C33.7596 26.9138 35.8287 24.8578 36.8632 26.9138C37.8977 28.9698 32.7251 32.0539 32.7251 32.0539C32.7251 32.0539 25.5868 37.3687 18.7693 35.6622C17.9624 35.4566 17.2589 35.0146 16.6175 34.4903C15.8623 33.8838 14.2484 33.0819 11 33.0819" stroke="black" stroke-miterlimit="10" stroke-linecap="round"/>
<path d="M30 5H21C19.8954 5 19 5.89543 19 7V17.75V22L21.4556 18.7888C21.8559 18.2654 22.6441 18.2654 23.0444 18.7888L24.6514 20.8903C25.0677 21.4347 25.8958 21.4085 26.2769 20.839L27.6123 18.8431C27.98 18.2936 28.7703 18.2458 29.2015 18.7471L32 22V17.75V7C32 5.89543 31.1046 5 30 5Z" stroke="black" stroke-linejoin="round"/>
<path d="M22 10H29" stroke="black" stroke-linecap="round" stroke-linejoin="round"/>
<path d="M22 14H27" stroke="black" stroke-linecap="round" stroke-linejoin="round"/>
</svg>
