<svg width="36" height="36" viewBox="0 0 36 36" fill="none" xmlns="http://www.w3.org/2000/svg">
<path d="M12 32C16.4183 32 20 28.4183 20 24C20 19.5817 16.4183 16 12 16C7.58172 16 4 19.5817 4 24C4 28.4183 7.58172 32 12 32Z" stroke="black" stroke-linecap="round" stroke-linejoin="round"/>
<path d="M24 32C28.4183 32 32 28.4183 32 24C32 19.5817 28.4183 16 24 16C19.5817 16 16 19.5817 16 24C16 28.4183 19.5817 32 24 32Z" stroke="black" stroke-linecap="round" stroke-linejoin="round"/>
<path d="M12 8.5L24 8.5" stroke="black" stroke-linecap="round" stroke-linejoin="round"/>
<path d="M20 4L24.5 8.5L20 13" stroke="black" stroke-linecap="round" stroke-linejoin="round"/>
</svg>
