<svg width="40" height="40" viewBox="0 0 40 40" fill="none" xmlns="http://www.w3.org/2000/svg">
<path d="M26.667 9.99999H31.667C32.109 9.99999 32.5329 10.1756 32.8455 10.4881C33.1581 10.8007 33.3337 11.2246 33.3337 11.6667V30C33.3337 30.884 32.9825 31.7319 32.3574 32.357C31.7322 32.9821 30.8844 33.3333 30.0003 33.3333C29.1163 33.3333 28.2684 32.9821 27.6433 32.357C27.0182 31.7319 26.667 30.884 26.667 30V8.33332C26.667 7.8913 26.4914 7.46737 26.1788 7.15481C25.8663 6.84225 25.4424 6.66666 25.0003 6.66666H8.33366C7.89163 6.66666 7.46771 6.84225 7.15515 7.15481C6.84259 7.46737 6.66699 7.8913 6.66699 8.33332V28.3333C6.66699 29.6594 7.19378 30.9312 8.13146 31.8689C9.06914 32.8065 10.3409 33.3333 11.667 33.3333H30.0003" stroke="black" stroke-linecap="round" stroke-linejoin="round"/>
<path d="M12 20L15 23L21 17" stroke="black" stroke-linecap="round" stroke-linejoin="round"/>
</svg>
