<svg width="36" height="36" viewBox="0 0 36 36" fill="none" xmlns="http://www.w3.org/2000/svg">
<path d="M4.5 28.4999C6.55226 27.3151 8.88026 26.6913 11.25 26.6913C13.6197 26.6913 15.9477 27.3151 18 28.4999C20.0523 27.3151 22.3803 26.6913 24.75 26.6913C27.1197 26.6913 29.4477 27.3151 31.5 28.4999" stroke="black" stroke-linecap="round" stroke-linejoin="round"/>
<path d="M4.5 8.99994C6.55226 7.81507 8.88026 7.19128 11.25 7.19128C13.6197 7.19128 15.9477 7.81507 18 8.99994C20.0523 7.81507 22.3803 7.19128 24.75 7.19128C27.1197 7.19128 29.4477 7.81507 31.5 8.99994" stroke="black" stroke-linecap="round" stroke-linejoin="round"/>
<path d="M4.5 9V28.5" stroke="black" stroke-linecap="round" stroke-linejoin="round"/>
<path d="M18 9V28.5" stroke="black" stroke-linecap="round" stroke-linejoin="round"/>
<path d="M31.5 9V28.5" stroke="black" stroke-linecap="round" stroke-linejoin="round"/>
</svg>
