<svg width="40" height="40" viewBox="0 0 40 40" fill="none" xmlns="http://www.w3.org/2000/svg">
<path d="M12.8 22.7474C15.451 22.7474 17.6 21.9556 17.6 20.979C17.6 20.0023 15.451 19.2105 12.8 19.2105C10.149 19.2105 8 20.0023 8 20.979C8 21.9556 10.149 22.7474 12.8 22.7474Z" stroke="black" stroke-linecap="round" stroke-linejoin="round"/>
<path d="M17.6 25.1053C17.6 26.0838 15.4667 26.8737 12.8 26.8737C10.1333 26.8737 8 26.0838 8 25.1053" stroke="black" stroke-linecap="round" stroke-linejoin="round"/>
<path d="M8 20.9791V29.2317C8 30.2102 10.1333 31.0001 12.8 31.0001C15.4667 31.0001 17.6 30.2102 17.6 29.2317V20.9791" stroke="black" stroke-linecap="round" stroke-linejoin="round"/>
<path d="M26.8 19.8C29.451 19.8 31.6 18.7255 31.6 17.4C31.6 16.0745 29.451 15 26.8 15C24.149 15 22 16.0745 22 17.4C22 18.7255 24.149 19.8 26.8 19.8Z" stroke="black" stroke-linecap="round" stroke-linejoin="round"/>
<path d="M31.6 23C31.6 24.328 29.4667 25.4 26.8 25.4C24.1333 25.4 22 24.328 22 23" stroke="black" stroke-linecap="round" stroke-linejoin="round"/>
<path d="M22 17.4001V28.6001C22 29.9281 24.1333 31.0001 26.8 31.0001C29.4667 31.0001 31.6 29.9281 31.6 28.6001V17.4001" stroke="black" stroke-linecap="round" stroke-linejoin="round"/>
<path d="M9.99958 13.6279L24.5927 4.96527" stroke="black" stroke-linecap="round" stroke-linejoin="round"/>
<path d="M17.3252 3.11197L24.5926 4.96526L22.7393 12.2327" stroke="black" stroke-linecap="round" stroke-linejoin="round"/>
</svg>
