<svg width="36" height="36" viewBox="0 0 36 36" fill="none" xmlns="http://www.w3.org/2000/svg">
<path d="M19.5 3H9C8.20435 3 7.44129 3.31607 6.87868 3.87868C6.31607 4.44129 6 5.20435 6 6V30C6 30.7956 6.31607 31.5587 6.87868 32.1213C7.44129 32.6839 8.20435 33 9 33H27C27.7956 33 28.5587 32.6839 29.1213 32.1213C29.6839 31.5587 30 30.7956 30 30V13.5L19.5 3Z" stroke="black" stroke-linecap="round" stroke-linejoin="round"/>
<path d="M19.5 3V13.5H30" stroke="black" stroke-linecap="round" stroke-linejoin="round"/>
<path d="M16.5 17.5L18.045 20.63L21.5 21.135L19 23.57L19.59 27.01L16.5 25.385L13.41 27.01L14 23.57L11.5 21.135L14.955 20.63L16.5 17.5Z" stroke="black" stroke-linecap="round" stroke-linejoin="round"/>
</svg>
