<svg width="40" height="40" viewBox="0 0 40 40" fill="none" xmlns="http://www.w3.org/2000/svg">
<path d="M13.8 24C12.2049 22.7407 11.0266 20.985 10.4321 18.9817C9.83761 16.9783 9.85699 14.8288 10.4875 12.8377C11.118 10.8466 12.3277 9.11478 13.9453 7.88758C15.5628 6.66037 17.5061 6 19.5 6C21.4939 6 23.4372 6.66037 25.0547 7.88758C26.6723 9.11478 27.882 10.8466 28.5125 12.8377C29.143 14.8288 29.1624 16.9783 28.5679 18.9817C27.9734 20.985 26.7951 22.7407 25.2 24C24.4582 24.773 23.8996 25.7189 23.5696 26.7612C23.2395 27.8036 23.1471 28.9131 23.3 30C23.3 31.0609 22.8996 32.0783 22.187 32.8284C21.4744 33.5786 20.5078 34 19.5 34C18.4922 34 17.5256 33.5786 16.813 32.8284C16.1004 32.0783 15.7 31.0609 15.7 30C15.8529 28.9131 15.7605 27.8036 15.4304 26.7612C15.1004 25.7189 14.5418 24.773 13.8 24" stroke="black" stroke-linecap="round" stroke-linejoin="round"/>
<path d="M15 26H24" stroke="black" stroke-linecap="round" stroke-linejoin="round"/>
</svg>
