<svg width="40" height="40" viewBox="0 0 40 40" fill="none" xmlns="http://www.w3.org/2000/svg">
<path d="M20.0003 33.3334C21.8413 33.3334 23.3337 31.841 23.3337 30C23.3337 28.1591 21.8413 26.6667 20.0003 26.6667C18.1594 26.6667 16.667 28.1591 16.667 30C16.667 31.841 18.1594 33.3334 20.0003 33.3334Z" stroke="black" stroke-linecap="round" stroke-linejoin="round"/>
<path d="M11.6663 13.3334C13.5073 13.3334 14.9997 11.841 14.9997 10C14.9997 8.15907 13.5073 6.66669 11.6663 6.66669C9.82539 6.66669 8.33301 8.15907 8.33301 10C8.33301 11.841 9.82539 13.3334 11.6663 13.3334Z" stroke="black" stroke-linecap="round" stroke-linejoin="round"/>
<path d="M28.3333 13.3334C30.1743 13.3334 31.6667 11.841 31.6667 10C31.6667 8.15907 30.1743 6.66669 28.3333 6.66669C26.4924 6.66669 25 8.15907 25 10C25 11.841 26.4924 13.3334 28.3333 13.3334Z" stroke="black" stroke-linecap="round" stroke-linejoin="round"/>
<path d="M11.667 13.3333V16.6666C11.667 17.5507 12.0182 18.3985 12.6433 19.0237C13.2684 19.6488 14.1163 20 15.0003 20H25.0003C25.8844 20 26.7322 19.6488 27.3573 19.0237C27.9825 18.3985 28.3337 17.5507 28.3337 16.6666V13.3333" stroke="black" stroke-linecap="round" stroke-linejoin="round"/>
<path d="M20 20V26.6667" stroke="black" stroke-linecap="round" stroke-linejoin="round"/>
</svg>
