<svg width="302" height="260" viewBox="0 0 302 260" fill="none" xmlns="http://www.w3.org/2000/svg">
<path opacity="0.7" d="M256.406 105.406C256.406 47.192 209.214 1.81406e-05 150.999 1.05022e-05C92.7851 -4.76554e-06 45.5931 47.192 45.5931 105.406L256.406 105.406Z" fill="white"/>
<path opacity="0.7" d="M226.29 180.7C267.872 180.7 301.581 146.992 301.581 105.41L226.29 105.41L226.29 180.7Z" fill="white"/>
<path opacity="0.7" d="M75.7092 180.7C34.1275 180.7 0.418936 146.992 0.418926 105.41L75.7092 105.41L75.7092 180.7Z" fill="white"/>
<path d="M151 102.398C151 60.8159 117.291 27.1074 75.7093 27.1074V183.711C75.7093 225.293 109.418 259.001 151 259.001V102.398Z" fill="white"/>
<path d="M151 102.398C151 60.8159 184.708 27.1074 226.29 27.1074V183.711C226.29 225.293 192.581 259.001 151 259.001V102.398Z" fill="white"/>
<path d="M0.418945 105.406C0.418936 62.1614 34.1275 27.1045 75.7092 27.1045C117.291 27.1045 150.999 62.1614 150.999 105.406L0.418945 105.406Z" fill="white"/>
<path d="M108.837 192.747C108.837 214.37 127.714 231.898 151 231.898C174.286 231.898 193.162 214.37 193.162 192.747L108.837 192.747Z" fill="#151515"/>
<path d="M301.58 105.406C301.58 62.1614 267.872 27.1045 226.29 27.1045C184.708 27.1045 151 62.1614 151 105.406L301.58 105.406Z" fill="white"/>
<circle cx="114.86" cy="141.549" r="24.0929" fill="#151515"/>
<circle r="24.0929" transform="matrix(-1 0 0 1 187.139 141.549)" fill="#151515"/>
</svg>
