<svg width="40" height="40" viewBox="0 0 40 40" fill="none" xmlns="http://www.w3.org/2000/svg">
<path d="M10.6667 34.3333C12.6917 34.3333 14.3333 32.6917 14.3333 30.6667C14.3333 28.6416 12.6917 27 10.6667 27C8.64162 27 7 28.6416 7 30.6667C7 32.6917 8.64162 34.3333 10.6667 34.3333Z" stroke="black" stroke-linecap="round" stroke-linejoin="round"/>
<path d="M10.6667 12.3333C12.6917 12.3333 14.3333 10.6917 14.3333 8.66667C14.3333 6.64162 12.6917 5 10.6667 5C8.64162 5 7 6.64162 7 8.66667C7 10.6917 8.64162 12.3333 10.6667 12.3333Z" stroke="black" stroke-linecap="round" stroke-linejoin="round"/>
<path d="M29.0007 23.3333C31.0257 23.3333 32.6673 21.6917 32.6673 19.6667C32.6673 17.6416 31.0257 16 29.0007 16C26.9756 16 25.334 17.6416 25.334 19.6667C25.334 21.6917 26.9756 23.3333 29.0007 23.3333Z" stroke="black" stroke-linecap="round" stroke-linejoin="round"/>
<path d="M10.668 12.3333V27" stroke="black" stroke-linecap="round" stroke-linejoin="round"/>
<path d="M10.668 12.3333C10.668 14.2782 11.4406 16.1435 12.8159 17.5188C14.1911 18.894 16.0564 19.6666 18.0013 19.6666H25.3346" stroke="black" stroke-linecap="round" stroke-linejoin="round"/>
</svg>
