<svg width="37" height="36" viewBox="0 0 37 36" fill="none" xmlns="http://www.w3.org/2000/svg">
<path d="M32.1281 23.8351C31.1738 26.0918 29.6813 28.0804 27.7809 29.6271C25.8806 31.1737 23.6303 32.2313 21.2268 32.7073C18.8233 33.1833 16.3397 33.0633 13.9933 32.3578C11.6469 31.6523 9.50904 30.3827 7.76663 28.6601C6.02423 26.9375 4.73033 24.8142 3.99806 22.476C3.26579 20.1378 3.11745 17.6558 3.566 15.2471C4.01456 12.8383 5.04635 10.5761 6.57117 8.65816C8.096 6.74026 10.0674 5.22509 12.3131 4.24512" stroke="black" stroke-linecap="round" stroke-linejoin="round"/>
<path d="M33.3125 18C33.3125 16.0302 32.9245 14.0796 32.1707 12.2597C31.4169 10.4399 30.312 8.78628 28.9191 7.3934C27.5262 6.00052 25.8726 4.89563 24.0528 4.14181C22.2329 3.38799 20.2823 3 18.3125 3V18H33.3125Z" stroke="black" stroke-linecap="round" stroke-linejoin="round"/>
</svg>
