<svg width="40" height="40" viewBox="0 0 40 40" fill="none" xmlns="http://www.w3.org/2000/svg">
<path d="M16.5 6.5L4.5 6.5" stroke="black" stroke-width="0.8" stroke-linecap="round" stroke-linejoin="round"/>
<path d="M23 33.5L35 33.5" stroke="black" stroke-width="0.8" stroke-linecap="round" stroke-linejoin="round"/>
<path d="M8.5 2L4 6.5L8.5 11" stroke="black" stroke-width="0.8" stroke-linecap="round" stroke-linejoin="round"/>
<path d="M31 38L35.5 33.5L31 29" stroke="black" stroke-width="0.8" stroke-linecap="round" stroke-linejoin="round"/>
<path d="M19.5 28C23.6421 28 27 24.6421 27 20.5C27 16.3579 23.6421 13 19.5 13C15.3579 13 12 16.3579 12 20.5C12 24.6421 15.3579 28 19.5 28Z" stroke="black" stroke-width="0.8" stroke-linecap="round" stroke-linejoin="round"/>
<path d="M22.4302 18.4412C22.3248 18.1505 22.1324 17.8971 21.8777 17.7137C21.6229 17.5302 21.3175 17.4251 21.0008 17.4118H18.8832C18.4619 17.4118 18.058 17.5745 17.7601 17.864C17.4623 18.1536 17.2949 18.5464 17.2949 18.9559C17.2949 19.3654 17.4623 19.7582 17.7601 20.0477C18.058 20.3373 18.4619 20.5 18.8832 20.5H21.0008C21.422 20.5 21.826 20.6627 22.1239 20.9523C22.4217 21.2418 22.589 21.6346 22.589 22.0441C22.589 22.4537 22.4217 22.8464 22.1239 23.136C21.826 23.4256 21.422 23.5882 21.0008 23.5882H18.8832C18.5664 23.5749 18.2611 23.4698 18.0063 23.2864C17.7516 23.1029 17.5591 22.8495 17.4537 22.5588" stroke="black" stroke-width="0.8" stroke-linecap="round" stroke-linejoin="round"/>
<path d="M19.9414 23.7353V25.3529M19.9414 15.6471V17.2647V15.6471Z" stroke="black" stroke-width="0.8" stroke-linecap="round" stroke-linejoin="round"/>
</svg>
