<svg width="18" height="14" viewBox="0 0 18 14" fill="none" xmlns="http://www.w3.org/2000/svg">
<path fill-rule="evenodd" clip-rule="evenodd" d="M17.5 1.659C16.8729 1.93958 16.2031 2.12917 15.4971 2.21667C16.2175 1.77917 16.772 1.08617 17.0314 0.2625C16.3576 0.667333 15.6123 0.9625 14.8163 1.11942C14.1783 0.429917 13.2705 0 12.2693 0C10.3418 0 8.78213 1.582 8.78213 3.53267C8.78213 3.80975 8.81095 4.07983 8.87204 4.33883C5.97223 4.193 3.39981 2.78542 1.6816 0.645167C1.38245 1.16667 1.20953 1.77567 1.20953 2.42083C1.20953 3.64583 1.82915 4.7285 2.76578 5.36317C2.18939 5.34858 1.64932 5.18817 1.18071 4.92158V4.96592C1.18071 6.67917 2.38421 8.10483 3.97966 8.42917C3.688 8.50908 3.37848 8.55283 3.06147 8.55283C2.83783 8.55283 2.61823 8.53125 2.40554 8.4875C2.84878 9.891 4.13874 10.9118 5.66617 10.941C4.47362 11.8889 2.96752 12.4542 1.3323 12.4542C1.05103 12.4542 0.773785 12.4361 0.5 12.4034C2.03838 13.4167 3.87187 14 5.83851 14C12.2618 14 15.7708 8.61525 15.7708 3.9445C15.7708 3.79167 15.7668 3.63825 15.7599 3.48892C16.4406 2.98958 17.0314 2.37008 17.5 1.659Z" fill="white"/>
</svg>
