<svg width="44" height="44" viewBox="0 0 44 44" fill="none" xmlns="http://www.w3.org/2000/svg">
<path d="M14.6667 29.3333C6.56649 29.3333 -2.8703e-07 22.7668 -6.411e-07 14.6666V14.6666L29.3333 14.6666C37.4335 14.6666 44 21.2331 44 29.3333V29.3333L14.6667 29.3333Z" fill="#FF5043"/>
<path d="M44 29.3333C44 21.2331 37.4335 14.6666 29.3334 14.6666C21.2332 14.6666 14.6667 21.2331 14.6667 29.3333L44 29.3333Z" fill="#F01100"/>
<path d="M14.6667 44C22.7669 44 29.3334 37.4335 29.3334 29.3333L14.6667 29.3333L14.6667 44Z" fill="#EE3224"/>
<path d="M29.7917 2.00272e-05C21.6915 2.00272e-05 15.125 6.56651 15.125 14.6667L29.7917 14.6667L29.7917 2.00272e-05Z" fill="#F86C62"/>
</svg>
