<svg width="237" height="58" viewBox="0 0 237 58" fill="none" xmlns="http://www.w3.org/2000/svg">
<g clip-path="url(#clip0)">
<path d="M71.7693 9.0333L67.836 11.06C67.7091 10.68 67.4553 10.3 67.0747 10.0466C66.8209 9.7933 66.4403 9.53997 66.1865 9.4133C65.8059 9.28664 65.5521 9.15997 65.1715 9.0333C64.7908 8.90664 64.5371 8.90664 64.1564 8.90664C63.9027 8.90664 63.522 8.90664 63.2682 9.0333C62.8876 9.0333 62.6338 9.15997 62.3801 9.28664C62.1263 9.4133 61.8726 9.66664 61.7457 9.91997C61.6188 10.1733 61.4919 10.5533 61.4919 10.9333C61.4919 11.1866 61.6188 11.5666 61.7457 11.9466C61.9994 12.3266 62.2532 12.58 62.7607 12.8333C62.8876 12.8333 62.8876 12.96 63.0145 12.96C63.1414 12.96 63.1414 13.0866 63.2682 13.0866C63.6489 13.34 64.1564 13.5933 64.5371 13.72C64.9177 13.9733 65.4252 14.1 65.8059 14.3533C65.9328 14.3533 66.0596 14.48 66.1865 14.6066C66.3134 14.7333 66.4403 14.7333 66.5672 14.86C66.6941 14.9866 66.9478 14.9866 67.2016 15.1133C67.4553 15.24 67.5822 15.3666 67.836 15.4933C68.4704 15.8733 68.9779 16.2533 69.3586 16.6333C69.7392 17.0133 70.1199 17.52 70.3736 18.0266C70.6274 18.5333 70.7543 19.04 70.8812 19.5466C71.008 20.0533 71.008 20.56 71.008 21.0666C71.008 21.7 70.8812 22.2066 70.7543 22.7133C70.6274 23.22 70.3736 23.7266 69.993 24.2333C69.6123 24.74 69.2317 25.12 68.7242 25.5C68.2166 25.88 67.4553 26.26 66.6941 26.5133C66.5672 26.5133 66.3134 26.64 66.0596 26.64C65.8059 26.64 65.5521 26.7666 65.2984 26.7666C65.0446 26.7666 64.7908 26.7666 64.5371 26.8933C64.2833 26.8933 64.0295 26.8933 63.7758 26.8933C63.522 26.8933 63.2683 26.8933 63.1414 26.8933C63.0145 26.8933 62.8876 26.8933 62.6338 26.8933C62.507 26.8933 62.3801 26.8933 62.2532 26.8933C61.7457 26.8933 61.2381 26.7666 60.7306 26.5133C60.2231 26.3866 59.5887 26.1333 59.0812 25.88C58.5736 25.6266 58.0661 25.2466 57.5586 24.74C57.051 24.36 56.6704 23.7266 56.2898 23.0933C56.2898 22.9666 56.1629 22.84 56.036 22.7133C55.9091 22.5866 55.9091 22.46 55.7822 22.3333L59.5887 20.4333H60.0962C60.2231 20.8133 60.4769 21.1933 60.8575 21.4466C61.1113 21.7 61.4919 21.9533 61.7457 22.08C62.1263 22.2066 62.3801 22.3333 62.7607 22.46C63.1414 22.5866 63.3951 22.5866 63.6489 22.5866C64.0295 22.5866 64.2833 22.5866 64.6639 22.46C65.0446 22.46 65.2984 22.3333 65.5521 22.2066C65.8059 22.08 66.0596 21.8266 66.1865 21.5733C66.3134 21.32 66.4403 20.94 66.4403 20.56C66.4403 19.6733 65.8059 18.9133 64.6639 18.28C64.6639 18.28 64.4102 18.1533 64.2833 18.0266C64.0295 17.9 63.9027 17.7733 63.6489 17.6466C63.3951 17.52 63.1414 17.3933 62.8876 17.2666C62.6338 17.14 62.3801 17.0133 62.1263 16.8866C61.9994 16.8866 61.8726 16.76 61.7457 16.76C61.6188 16.6333 61.4919 16.6333 61.365 16.6333C61.2381 16.5066 60.9844 16.38 60.7306 16.2533C60.4769 16.1266 60.35 16 60.0962 15.8733C59.4618 15.4933 58.9543 15.1133 58.5736 14.7333C58.193 14.3533 57.8123 13.8466 57.5586 13.34C57.3048 12.8333 57.1779 12.3266 57.051 11.82C56.9242 11.3133 56.9242 10.8066 56.9242 10.3C56.9242 10.3 56.9242 10.0466 56.9242 9.7933C56.9242 9.53997 56.9242 9.15997 57.051 9.0333C57.051 9.0333 57.051 8.90664 57.051 8.77997C57.051 8.6533 57.051 8.52664 57.1779 8.39997C57.1779 8.2733 57.3048 8.14664 57.3048 8.01997C57.4317 7.8933 57.4317 7.63997 57.5586 7.5133C57.6855 7.1333 57.9392 6.87997 58.3199 6.49997C58.5736 6.24664 58.9543 5.9933 59.208 5.73997C59.5887 5.48664 59.8424 5.2333 60.2231 5.10664C60.6037 4.97997 60.8575 4.72664 61.2381 4.72664C61.7457 4.59997 62.2532 4.4733 62.7607 4.34664C63.2682 4.21997 63.7758 4.21997 64.2833 4.21997C64.5371 4.21997 64.6639 4.21997 64.9177 4.21997C65.0446 4.21997 65.1715 4.21997 65.4252 4.21997C65.5521 4.21997 65.679 4.21997 65.8059 4.21997C66.3134 4.21997 66.8209 4.34664 67.3285 4.59997C67.836 4.72664 68.4704 4.97997 68.9779 5.35997C69.4855 5.6133 69.993 5.9933 70.5005 6.49997C71.008 6.87997 71.3887 7.5133 71.7693 8.01997C71.7693 8.14664 71.8962 8.2733 71.8962 8.39997C71.6424 8.77997 71.7693 8.90664 71.7693 9.0333Z" fill="#0095D5"/>
<path d="M91.6896 4.34656L81.4121 15.7466L91.6896 27.0199H85.4724L78.367 19.1666V27.0199H73.6724V4.34656H78.367V12.1999L85.4724 4.34656H91.6896Z" fill="#0095D5"/>
<path d="M113.64 4.34656L105.013 18.7866V27.0199H100.318V18.7866L91.6899 4.34656H97.1458L102.729 13.5932L108.311 4.34656H113.64Z" fill="#0095D5"/>
<path d="M128.105 9.03326L124.171 11.0599C124.045 10.6799 123.791 10.2999 123.41 10.0466C123.156 9.79326 122.776 9.53993 122.522 9.41326C122.141 9.28659 121.888 9.15993 121.507 9.03326C121.126 8.90659 120.873 8.90659 120.492 8.90659C120.238 8.90659 119.857 8.90659 119.604 9.03326C119.223 9.03326 118.969 9.15993 118.716 9.2866C118.462 9.41326 118.335 9.53993 118.081 9.79326C117.954 10.0466 117.827 10.4266 117.827 10.8066C117.827 11.0599 117.954 11.4399 118.081 11.8199C118.335 12.1999 118.589 12.4533 119.096 12.7066C119.223 12.7066 119.223 12.8333 119.35 12.8333C119.477 12.8333 119.477 12.9599 119.604 12.9599C119.984 13.2133 120.492 13.4666 120.873 13.5933C121.253 13.8466 121.761 13.9733 122.141 14.2266C122.268 14.2266 122.395 14.3533 122.522 14.4799C122.649 14.6066 122.776 14.6066 122.903 14.7333C123.03 14.8599 123.283 14.8599 123.537 14.9866C123.791 15.1133 123.918 15.2399 124.171 15.3666C124.806 15.7466 125.313 16.1266 125.694 16.5066C126.075 16.8866 126.455 17.3933 126.709 17.8999C126.963 18.4066 127.09 18.9133 127.217 19.4199C127.343 19.9266 127.343 20.4333 127.343 20.9399C127.343 21.5733 127.217 22.0799 127.09 22.5866C126.963 23.0933 126.709 23.5999 126.328 24.1066C125.948 24.6133 125.567 24.9933 125.06 25.3733C124.552 25.7533 123.791 26.1333 123.03 26.3866C122.903 26.3866 122.649 26.5133 122.395 26.5133C122.141 26.5133 121.888 26.6399 121.634 26.6399C121.38 26.6399 121.126 26.6399 120.873 26.7666C120.619 26.7666 120.365 26.7666 120.111 26.7666C119.857 26.7666 119.604 26.7666 119.477 26.7666C119.35 26.7666 119.223 26.7666 118.969 26.7666C118.716 26.7666 118.716 26.7666 118.589 26.7666C118.081 26.7666 117.574 26.6399 117.066 26.3866C116.559 26.2599 115.924 26.0066 115.417 25.7533C114.909 25.4999 114.402 25.1199 113.894 24.6133C113.386 24.2333 113.006 23.5999 112.625 22.9666C112.625 22.8399 112.498 22.7133 112.371 22.5866C112.245 22.4599 112.245 22.3333 112.118 22.2066L115.924 20.3066H116.051C116.178 20.6866 116.432 21.0666 116.812 21.3199C117.066 21.5733 117.447 21.8266 117.7 21.9533C118.081 22.0799 118.335 22.2066 118.716 22.3333C119.096 22.4599 119.35 22.4599 119.604 22.4599C119.984 22.4599 120.238 22.4599 120.619 22.3333C120.999 22.3333 121.253 22.2066 121.507 22.0799C121.761 21.9533 122.014 21.6999 122.141 21.4466C122.268 21.1933 122.395 20.8133 122.395 20.4333C122.395 19.5466 121.761 18.7866 120.619 18.1533C120.619 18.1533 120.365 18.0266 120.238 17.8999C119.984 17.7733 119.857 17.6466 119.604 17.5199C119.35 17.3933 119.096 17.2666 118.842 17.1399C118.589 17.0133 118.335 16.8866 118.081 16.7599C117.954 16.7599 117.827 16.6333 117.7 16.6333C117.574 16.5066 117.447 16.5066 117.32 16.5066C117.193 16.3799 116.939 16.2533 116.685 16.1266C116.432 15.9999 116.305 15.8733 116.051 15.7466C115.417 15.3666 114.909 14.9866 114.528 14.6066C114.148 14.2266 113.767 13.7199 113.513 13.2133C113.26 12.7066 113.133 12.1999 113.006 11.6933C112.879 11.1866 112.879 10.6799 112.879 10.1733C112.879 10.1733 112.879 9.91993 112.879 9.66659C112.879 9.41326 112.879 9.03326 113.006 8.90659C113.006 8.90659 113.006 8.77993 113.006 8.65326C113.006 8.5266 113.006 8.39993 113.133 8.27326C113.133 8.1466 113.26 8.01993 113.26 7.89326C113.386 7.7666 113.386 7.51326 113.513 7.3866C113.64 7.0066 113.894 6.75326 114.275 6.37326C114.528 6.11993 114.909 5.8666 115.163 5.61326C115.543 5.35993 115.797 5.1066 116.178 4.97993C116.559 4.85326 116.812 4.59993 117.193 4.59993C117.7 4.47326 118.208 4.3466 118.716 4.21993C119.223 4.09326 119.731 4.09326 120.238 4.09326C120.492 4.09326 120.619 4.09326 120.873 4.09326C120.999 4.09326 121.126 4.09326 121.38 4.09326C121.507 4.09326 121.634 4.09326 121.761 4.09326C122.268 4.09326 122.776 4.21993 123.283 4.47326C123.791 4.59993 124.425 4.85326 124.933 5.23326C125.44 5.4866 125.948 5.86659 126.455 6.37326C126.963 6.75326 127.343 7.3866 127.724 7.89326C127.724 8.01993 127.851 8.1466 127.851 8.27326C127.978 8.77993 128.105 8.90659 128.105 9.03326Z" fill="#0095D5"/>
<path d="M142.823 27.0199H138.763C138.763 27.0199 138.636 27.0199 138.509 27.0199C138.382 27.0199 138.256 27.0199 138.129 27.0199C137.748 27.0199 137.367 26.8932 136.987 26.8932C136.606 26.8932 136.225 26.7666 135.845 26.5132C134.449 26.0066 133.307 25.3732 132.292 24.4866C131.277 23.7266 130.516 22.8399 129.881 21.8266C129.247 20.8132 128.866 19.7999 128.486 18.7866C128.232 17.7732 128.105 16.7599 128.105 15.7466C128.105 15.4932 128.105 15.2399 128.105 14.6066C128.105 14.0999 128.232 13.5932 128.359 13.0866C128.486 12.4532 128.739 11.9466 128.993 11.1866C129.247 10.5532 129.628 9.79322 130.135 9.15989C130.643 8.52656 131.15 7.89322 131.658 7.25989C132.292 6.62656 132.926 6.11989 133.688 5.73989C134.703 5.10656 135.718 4.72656 136.733 4.59989C136.733 4.59989 136.86 4.59989 136.987 4.59989C137.114 4.59989 137.367 4.47322 137.494 4.47322C137.748 4.47322 137.875 4.34656 138.129 4.34656C138.382 4.34656 138.509 4.34656 138.636 4.34656H142.569V8.90656H138.763C138.763 8.90656 138.636 8.90656 138.382 9.03322C138.129 9.03322 138.002 9.15989 137.875 9.15989C137.494 9.15989 137.114 9.28656 136.606 9.53989C136.225 9.79322 135.718 10.0466 135.337 10.2999C134.957 10.6799 134.449 10.9332 134.195 11.4399C133.815 11.8199 133.561 12.3266 133.434 12.7066C133.434 12.8332 133.307 12.9599 133.307 13.0866C133.18 13.2132 133.18 13.3399 133.18 13.4666C133.053 13.9732 132.926 14.3532 132.926 14.6066C132.926 14.8599 132.926 15.2399 132.926 15.6199C132.926 16.1266 133.053 16.7599 133.18 17.3932C133.307 18.0266 133.561 18.5332 133.942 19.1666C134.322 19.6732 134.703 20.1799 135.21 20.6866C135.718 21.1932 136.352 21.5732 137.114 21.9532C137.24 21.9532 137.367 22.0799 137.494 22.0799C137.621 22.0799 137.875 22.2066 138.129 22.2066C138.382 22.2066 138.509 22.3332 138.763 22.3332C138.89 22.3332 139.144 22.3332 139.271 22.3332H142.95V27.0199H142.823Z" fill="#0095D5"/>
<path d="M161.475 27.1466H156.4L152.466 18.4066H150.055V27.0199H145.361V4.34656H153.735C153.862 4.34656 153.989 4.34656 154.243 4.34656C154.496 4.34656 154.623 4.47322 154.877 4.47322C155.131 4.47322 155.258 4.59989 155.511 4.59989C155.638 4.59989 155.892 4.72656 155.892 4.72656C156.4 4.97989 156.78 5.10656 157.288 5.48656C157.795 5.73989 158.176 6.11989 158.557 6.62656C159.064 7.13322 159.445 7.76656 159.698 8.27322C159.952 8.90656 160.206 9.41322 160.333 9.91989C160.46 10.4266 160.46 10.8066 160.46 11.3132C160.46 12.3266 160.206 13.3399 159.698 14.4799C159.191 15.4932 158.303 16.5066 157.161 17.2666L161.475 27.1466ZM155.638 11.4399C155.638 11.0599 155.511 10.5532 155.258 10.1732C155.004 9.79322 154.623 9.41323 154.116 9.15989C153.989 9.15989 153.862 9.03322 153.735 9.03322C153.608 9.03322 153.481 9.03322 153.481 9.03322H149.929V13.8466H153.481C153.481 13.8466 153.608 13.8466 153.735 13.8466C153.862 13.8466 153.989 13.7199 154.116 13.7199C154.75 13.4666 155.131 13.2132 155.258 12.7066C155.638 12.1999 155.638 11.8199 155.638 11.4399Z" fill="#0095D5"/>
<path d="M172.387 4.34656L161.602 27.1466H166.677L172.387 15.3666L177.842 27.1466H183.045L172.387 4.34656Z" fill="#0095D5"/>
<path d="M199.92 12.0732C199.92 12.9599 199.793 13.8466 199.539 14.7332C199.286 15.4932 198.905 16.2532 198.27 16.8866C197.763 17.5199 197.129 18.0266 196.494 18.5332C195.86 19.0399 195.098 19.2932 194.337 19.5466C194.21 19.5466 193.83 19.6732 193.576 19.6732C193.195 19.7999 192.941 19.7999 192.688 19.7999H189.008V27.1466H184.313V4.34656H192.688C192.815 4.34656 193.068 4.34656 193.195 4.34656C193.449 4.34656 193.576 4.47322 193.83 4.47322C194.083 4.47322 194.21 4.59989 194.464 4.59989C194.591 4.59989 194.845 4.72656 194.845 4.72656C195.479 4.97989 195.987 5.23322 196.494 5.48656C197.002 5.73989 197.509 6.24656 198.017 6.87989C198.397 7.25989 198.778 7.76656 199.032 8.27322C199.286 8.77989 199.539 9.28656 199.666 9.79322C199.793 10.1732 199.793 10.5532 199.92 10.8066C199.92 11.3132 199.92 11.6932 199.92 12.0732ZM195.352 12.0732C195.352 11.8199 195.352 11.4399 195.225 11.1866C195.098 10.9332 194.972 10.5532 194.845 10.2999C194.591 10.0466 194.464 9.79322 194.083 9.53989C193.83 9.28656 193.449 9.15989 193.068 9.03322C192.941 9.03322 192.815 8.90656 192.688 8.90656C192.561 8.90656 192.434 8.90656 192.434 8.90656H189.008V15.1132H192.434C192.434 15.1132 192.561 15.1132 192.688 15.1132C192.815 15.1132 192.941 15.1132 193.068 14.9866C193.83 14.7332 194.464 14.3532 194.845 13.7199C195.225 13.2132 195.352 12.5799 195.352 12.0732Z" fill="#0095D5"/>
<path d="M217.81 27.0199H201.696V4.34656H217.81V8.90656H206.264V13.3399H211.974V17.8999H206.264V22.3332H217.81V27.0199Z" fill="#0095D5"/>
<path d="M236.462 27.1466H231.386L227.453 18.4066H225.042V27.0199H220.348V4.34656H228.722C228.849 4.34656 228.976 4.34656 229.229 4.34656C229.483 4.34656 229.61 4.47322 229.864 4.47322C230.118 4.47322 230.244 4.59989 230.498 4.59989C230.625 4.59989 230.879 4.72656 230.879 4.72656C231.386 4.97989 231.767 5.10656 232.275 5.48656C232.782 5.73989 233.163 6.11989 233.543 6.62656C234.051 7.13322 234.432 7.76656 234.685 8.27322C234.939 8.90656 235.193 9.41322 235.32 9.91989C235.447 10.4266 235.447 10.8066 235.447 11.3132C235.447 12.3266 235.193 13.3399 234.685 14.4799C234.178 15.4932 233.29 16.5066 232.148 17.2666L236.462 27.1466ZM230.752 11.4399C230.752 11.0599 230.625 10.5532 230.371 10.1732C230.118 9.79322 229.737 9.41323 229.229 9.15989C229.102 9.15989 228.976 9.03322 228.849 9.03322C228.722 9.03322 228.595 9.03322 228.595 9.03322H225.042V13.8466H228.595C228.595 13.8466 228.722 13.8466 228.849 13.8466C228.976 13.8466 229.102 13.7199 229.229 13.7199C229.864 13.4666 230.244 13.2132 230.371 12.7066C230.625 12.1999 230.752 11.8199 230.752 11.4399Z" fill="#0095D5"/>
<path d="M70.6275 53.8733H66.5672C66.5672 53.8733 66.4404 53.8733 66.3135 53.8733C66.1866 53.8733 66.0597 53.8733 65.9328 53.8733C65.5522 53.8733 65.1715 53.7466 64.7909 53.7466C64.4103 53.7466 64.0296 53.62 63.649 53.3666C62.2533 52.86 61.1113 52.2266 60.0963 51.3399C59.0812 50.5799 58.3199 49.6933 57.6855 48.68C57.0511 47.6666 56.6705 46.6533 56.2898 45.6399C56.0361 44.6266 55.9092 43.6133 55.9092 42.6C55.9092 42.3466 55.9092 42.0933 55.9092 41.4599C55.9092 40.9533 56.0361 40.4466 56.1629 39.94C56.2898 39.3066 56.5436 38.8 56.7974 38.04C57.0511 37.4066 57.4318 36.6466 57.9393 36.0133C58.4468 35.38 58.9543 34.7466 59.4619 34.1133C60.0963 33.48 60.7307 32.9733 61.492 32.5933C62.507 31.9599 63.5221 31.5799 64.5371 31.4533C64.5371 31.4533 64.664 31.4533 64.7909 31.4533C64.9178 31.4533 65.1715 31.3266 65.2984 31.3266C65.5522 31.3266 65.6791 31.2 65.9328 31.2C66.1866 31.2 66.3135 31.2 66.4404 31.2H70.3737V35.7599H66.5672C66.5672 35.7599 66.4404 35.7599 66.1866 35.8866C65.9328 35.8866 65.806 36.0133 65.6791 36.0133C65.2984 36.0133 64.9178 36.1399 64.4103 36.3933C64.0296 36.6466 63.5221 36.8999 63.1414 37.1533C62.7608 37.5333 62.2533 37.7866 61.9995 38.2933C61.6189 38.6733 61.3651 39.1799 61.2382 39.5599C61.2382 39.6866 61.1113 39.8133 61.1113 39.94C60.9844 40.0666 60.9844 40.1933 60.9844 40.3199C60.8576 40.8266 60.7307 41.2066 60.7307 41.4599C60.7307 41.7133 60.7307 42.0933 60.7307 42.4733C60.7307 42.9799 60.8576 43.6133 60.9844 44.2466C61.1113 44.8799 61.3651 45.3866 61.7457 46.02C62.1264 46.5266 62.507 47.0333 63.0146 47.5399C63.5221 48.0466 64.1565 48.4266 64.9178 48.8066C65.0447 48.8066 65.1715 48.9333 65.2984 48.9333C65.4253 48.9333 65.6791 49.0599 65.9328 49.0599C66.1866 49.0599 66.3135 49.1866 66.5672 49.1866C66.6941 49.1866 66.9479 49.1866 67.0748 49.1866H70.7543V53.8733H70.6275Z" fill="#99CC54"/>
<path d="M77.7327 53.8733H73.0381V31.2H77.7327V53.8733Z" fill="#99CC54"/>
<path d="M99.0491 35.7599H91.6899V53.8733H86.9953V35.8866H79.5093V31.2H99.0491V35.7599Z" fill="#99CC54"/>
<path d="M121.38 31.2L112.752 45.6399V53.8733H108.058V45.6399L99.4297 31.2H104.886L110.468 40.4466L116.051 31.2H121.38Z" fill="#99CC54"/>
<path d="M4.64893 38.9266V25.2466L15.4339 19.7999V22.0799L6.55215 27.0199V41.5866C6.55215 41.5866 5.41022 40.0666 4.64893 38.9266Z" fill="#99CC54"/>
<path d="M10.3585 29.9334L8.83594 30.6934V27.78L10.3585 27.02V29.9334Z" fill="#99CC54"/>
<path d="M13.0231 28.7933L11.5005 29.5533V26.64L13.0231 25.88V28.7933Z" fill="#99CC54"/>
<path d="M10.3585 34.3667L8.83594 35.1267V32.2134L10.3585 31.4534V34.3667Z" fill="#99CC54"/>
<path d="M10.3585 39.0533L8.83594 39.8134V36.9L10.3585 36.14V39.0533Z" fill="#99CC54"/>
<path d="M13.0231 33.2267L11.5005 33.9867V31.0734L13.0231 30.3134V33.2267Z" fill="#99CC54"/>
<path d="M20.7628 14.86L19.2402 15.4933V12.58L20.7628 11.9467V14.86Z" fill="#0095D5"/>
<path d="M23.4274 13.72L21.9048 14.48V11.5666L23.4274 10.8066V13.72Z" fill="#0095D5"/>
<path d="M20.7628 19.2933L19.2402 20.0533V17.14L20.7628 16.38V19.2933Z" fill="#0095D5"/>
<path d="M20.7628 23.98L19.2402 24.74V21.8266L20.7628 21.0667V23.98Z" fill="#0095D5"/>
<path d="M23.4274 18.1533L21.9048 18.9133V16L23.4274 15.24V18.1533Z" fill="#0095D5"/>
<path d="M28.3759 0.674016C25.077 0.294016 22.2856 0.674016 22.2856 0.674016C9.97804 2.19402 0.461914 12.5807 0.461914 25.1207C0.461914 30.1874 1.98449 35.0007 4.64901 38.9273V33.354C3.63396 30.8207 3.12643 28.034 3.12643 25.2474C3.12643 14.1007 11.5006 4.85402 22.2856 3.33402C22.2856 3.33402 25.077 2.82735 28.3759 3.33402" fill="#0095D5"/>
<path d="M28.3757 3.33322C39.1607 4.85322 47.408 14.0999 47.408 25.1199C47.408 33.6065 42.5865 41.0799 35.4811 44.7532V10.4266L25.4575 4.85322L15.8145 10.6799V57.5466L25.2037 49.6932V49.8199C38.9069 49.8199 49.9456 38.7999 49.9456 25.1199C49.9456 12.5799 40.4295 2.19322 28.2489 0.673218L28.3757 3.33322ZM32.1822 13.0865L33.7048 13.8465V16.7599L32.1822 15.9999V13.0865ZM32.1822 17.5199L33.7048 18.2799V21.1932L32.1822 20.4332V17.5199ZM29.6446 11.6932L31.1671 12.4532V15.3666L29.6446 14.6066V11.6932ZM29.6446 16.1266L31.1671 16.8865V19.7999L29.6446 19.0399V16.1266ZM26.98 10.5532L28.5026 11.3132V14.2266L26.98 13.4665V10.5532ZM26.98 14.9866L28.5026 15.7466V18.6599L26.98 17.8999V14.9866ZM17.5908 53.9999V11.6932L25.3306 7.25988V47.2866V47.6666L17.5908 53.9999Z" fill="#0095D5"/>
<path d="M35.4814 23.7267V47.6667C40.5567 45.5134 43.6019 41.84 43.6019 41.84V28.7934L35.4814 23.7267ZM37.5116 35L35.989 34.24V31.3267L37.5116 32.0867V35ZM37.5116 30.5667L35.989 29.8067V26.8934L37.5116 27.6534V30.5667ZM40.1761 36.14L38.6535 35.38V32.4667L40.1761 33.2267V36.14ZM40.1761 31.58L38.6535 30.9467V28.0334L40.1761 28.7934V31.58ZM42.7137 37.5334L41.1911 36.7734V33.86L42.7137 34.62V37.5334ZM42.7137 32.9734L41.1911 32.2134V29.3L42.7137 30.06V32.9734Z" fill="#99CC54"/>
</g>
<defs>
<clipPath id="clip0">
<rect width="236" height="57" fill="white" transform="translate(0.461914 0.546631)"/>
</clipPath>
</defs>
</svg>
