<svg width="224" height="47" viewBox="0 0 224 47" fill="none" xmlns="http://www.w3.org/2000/svg">
<path d="M27.2806 0.415269L47.6159 45.0218H33.3155L31.1508 39.118H17.2441L15.0794 45.0218H0.779053L21.1144 0.415269H27.2806ZM24.1975 20.2258L20.852 29.2783H27.5429L24.1975 20.2258Z" fill="black"/>
<path d="M67.492 0.0872803C70.0722 0.0872803 72.6086 0.415269 75.1013 1.07125C77.6378 1.68349 79.6713 2.5144 81.2019 3.56396V15.4372C79.3214 14.3439 77.4628 13.4036 75.6261 12.6165C73.7894 11.7855 71.6246 11.3701 69.1319 11.3701C67.6888 11.3701 66.4424 11.5888 65.3929 12.0261C64.3433 12.4634 63.8185 13.185 63.8185 14.1908C63.8185 15.2841 64.4526 16.115 65.7208 16.6835C66.9891 17.2083 68.5415 17.8205 70.3783 18.5203L75.1013 20.2914C78.2937 21.5159 80.5459 23.1777 81.8579 25.2768C83.2136 27.376 83.8914 29.4751 83.8914 31.5742C83.8914 34.373 83.0824 36.8658 81.4643 39.0524C79.8462 41.1952 77.6596 42.9008 74.9045 44.169C72.1494 45.3935 69.0663 46.0057 65.6552 46.0057C63.0313 46.0057 60.4293 45.5465 57.8491 44.6282C55.2689 43.7098 53.0167 42.5728 51.0925 41.2171V29.3439C53.1917 30.9182 55.4439 32.2083 57.8491 33.2142C60.2981 34.22 62.7471 34.7229 65.1961 34.7229C66.7267 34.7229 67.9512 34.548 68.8695 34.1981C69.8316 33.8045 70.3127 33.1486 70.3127 32.2302C70.3127 31.5742 69.9628 31.0057 69.2631 30.5246C68.5634 30.0436 67.6232 29.6281 66.4424 29.2783L60.2106 27.3104C57.7616 26.5232 55.8593 25.4518 54.5036 24.0961C53.1479 22.7404 52.2077 21.2316 51.6829 19.5698C51.1581 17.8643 50.8957 16.1369 50.8957 14.3876C50.8957 11.2826 51.6829 8.68059 53.2573 6.58146C54.8316 4.4386 56.887 2.82052 59.4235 1.72722C61.9599 0.633928 64.6494 0.0872803 67.492 0.0872803Z" fill="black"/>
<path d="M121.479 18.1923V27.376H104.03V34.5261H123.775V45.0218H91.7632V1.07125H123.775V11.2389H104.03V18.1923H121.479Z" fill="black"/>
<path d="M156.18 0.415269L176.515 45.0218H162.215L160.05 39.118H146.144L143.979 45.0218H129.679L150.014 0.415269H156.18ZM153.097 20.2258L149.752 29.2783H156.443L153.097 20.2258Z" fill="black"/>
<path d="M223.221 1.07125V45.6777H218.892L195.342 23.4401V45.0218H183.075V0.415269H187.405L210.954 23.0465V1.07125H223.221Z" fill="black"/>
</svg>
