<svg width="197" height="63" viewBox="0 0 197 63" fill="none" xmlns="http://www.w3.org/2000/svg">
<rect x="0.492188" y="0.853149" width="196.092" height="61.9484" rx="7" fill="black"/>
<g clip-path="url(#clip0)">
<path d="M29.2569 34.6338L31.0099 34.3578V18.1448L29.0449 17.8898L29.1509 16.1478H41.3909L41.0939 21.0538L38.6509 20.9898L38.5029 17.9108H34.7149V25.2008H36.3649L36.7469 23.5228L38.4619 23.5648V28.5988H36.7679L36.3639 26.8788H34.7149V34.6128H38.5239L38.8849 31.2578L41.4549 31.3428L41.6459 36.4608H29.1729L29.2569 34.6338Z" fill="white"/>
<path d="M42.7671 36.4608L42.8311 34.9528L44.2071 34.6768V24.4548L42.5981 24.3058V22.7768L46.6231 22.2038L46.9261 23.0748V23.6478C47.9031 22.6278 49.0711 22.0338 50.5581 22.0338C52.7461 22.0338 54.3601 23.3508 54.3601 25.9848V34.6778L55.8201 34.9538L55.7351 36.4618H50.9881V26.7168C50.9881 25.3148 50.4731 24.5288 49.2191 24.5288C48.7941 24.5288 48.4911 24.6138 48.1521 24.7198C47.9391 24.8898 47.7481 25.1448 47.5781 25.3788V34.6768L49.0221 34.9528L48.9161 36.4608H42.7671Z" fill="white"/>
<path d="M119.56 36.4608L119.624 34.9528L121 34.6768V24.4548L119.391 24.3058V22.7768L123.416 22.2038L123.718 23.0748V23.6478C124.695 22.6278 125.863 22.0338 127.35 22.0338C129.538 22.0338 131.152 23.3508 131.152 25.9848V34.6778L132.612 34.9538L132.527 36.4618H127.78V26.7168C127.78 25.3148 127.264 24.5288 126.011 24.5288C125.587 24.5288 125.284 24.6138 124.944 24.7198C124.732 24.8898 124.54 25.1448 124.371 25.3788V34.6768L125.815 34.9528L125.709 36.4608H119.56Z" fill="white"/>
<path d="M63.409 36.1788C62.857 36.4128 61.859 36.6668 60.563 36.6668C58.864 36.6668 57.282 35.9028 57.282 33.4168V24.4478L55.668 24.1928L55.732 22.4088L57.559 22.3238L58.345 19.6048L60.671 19.4978V22.4078H63.199L63.024 24.1918L60.716 24.4478V33.3958C60.716 34.1388 61.12 34.6278 61.884 34.6278H63.259L63.409 36.1788Z" fill="white"/>
<path d="M158.545 36.4608L158.609 34.9948L159.905 34.6978V24.4558L158.376 24.3068V22.7768L162.533 22.2038L162.809 23.2018V23.5208C163.893 22.7138 165.379 22.1828 167.143 22.1828L167.759 22.7138L167.334 26.5588L165.04 26.4738L164.807 24.4138C164.276 24.4988 163.766 24.6478 163.341 24.9448V34.6988L164.786 34.9958L164.68 36.4618H158.545V36.4608Z" fill="white"/>
<path d="M98.6729 36.4608L98.7369 34.9948L100.033 34.6978V24.4558L98.5029 24.3068V22.7768L102.66 22.2038L102.936 23.2018V23.5208C104.02 22.7138 105.506 22.1828 107.27 22.1828L107.886 22.7138L107.461 26.5588L105.167 26.4738L104.934 24.4138C104.403 24.4988 103.893 24.6478 103.468 24.9448V34.6988L104.913 34.9958L104.807 36.4618H98.6729V36.4608Z" fill="white"/>
<path d="M64.422 36.4608L64.486 34.9948L65.782 34.6978V24.4558L64.252 24.3068V22.7768L68.41 22.2038L68.686 23.2018V23.5208C69.769 22.7138 71.256 22.1828 73.019 22.1828L73.635 22.7138L73.21 26.5588L70.916 26.4738L70.682 24.4138C70.151 24.4988 69.641 24.6478 69.216 24.9448V34.6988L70.661 34.9958L70.555 36.4618H64.422V36.4608Z" fill="white"/>
<path d="M77.6001 30.2318C77.6001 32.6738 78.6561 34.5648 80.7731 34.5648C81.8561 34.5648 82.7271 34.3308 83.7471 33.8638L84.3211 35.2018C83.2801 36.0298 81.7661 36.6668 79.8541 36.6668C76.1531 36.6668 74.0151 33.4598 74.0151 29.3388C74.0151 25.8338 75.5551 21.9988 79.8141 21.9988C83.5131 21.9988 84.9171 25.4308 84.9171 29.2538L84.5561 30.1668L77.6001 30.2318ZM77.5361 28.5958L81.8111 28.4048C81.7261 26.7048 81.3741 23.9958 79.7011 23.9958C79.3041 23.9958 79.0181 24.0598 78.5081 24.3358C77.8201 25.5038 77.5271 27.6148 77.5361 28.5958Z" fill="white"/>
<path d="M136.664 30.2318C136.664 32.6738 137.72 34.5648 139.837 34.5648C140.921 34.5648 141.791 34.3308 142.811 33.8638L143.384 35.2018C142.344 36.0298 140.829 36.6668 138.917 36.6668C135.216 36.6668 133.078 33.4598 133.078 29.3388C133.078 25.8338 134.617 21.9988 138.877 21.9988C142.576 21.9988 143.98 25.4308 143.98 29.2538L143.619 30.1668L136.664 30.2318ZM136.6 28.5958L140.875 28.4048C140.79 26.7048 140.438 23.9958 138.765 23.9958C138.368 23.9958 138.082 24.0598 137.572 24.3358C136.884 25.5038 136.592 27.6148 136.6 28.5958Z" fill="white"/>
<path d="M111.85 30.2318C111.85 32.6738 112.906 34.5648 115.023 34.5648C116.107 34.5648 116.977 34.3308 117.997 33.8638L118.57 35.2018C117.53 36.0298 116.015 36.6668 114.103 36.6668C110.402 36.6668 108.264 33.4598 108.264 29.3388C108.264 25.8338 109.803 21.9988 114.062 21.9988C117.761 21.9988 119.165 25.4308 119.165 29.2538L118.804 30.1668L111.85 30.2318ZM111.786 28.5958L116.061 28.4048C115.976 26.7048 115.624 23.9958 113.951 23.9958C113.554 23.9958 113.268 24.0598 112.758 24.3358C112.07 25.5038 111.778 27.6148 111.786 28.5958Z" fill="white"/>
<path d="M153.589 36.4608L153.228 35.2498C152.293 36.1418 151.38 36.6728 149.957 36.6728C147.769 36.6728 145.81 35.5688 145.81 32.5518V24.0898L144.201 23.9408V22.6028L148.82 22.0718L149.181 23.2828V32.1278C149.181 33.6788 149.806 34.4858 151.061 34.4858C151.418 34.4858 151.869 34.4428 152.272 34.2738C152.505 34.0398 152.718 33.7638 152.909 33.4878V24.0898L151.252 23.9408V22.6028L155.919 22.0718L156.28 23.2828V34.6768L157.719 34.9528L157.549 36.4608H153.589Z" fill="white"/>
<path d="M91.8348 34.6338C91.0918 34.6338 90.5178 34.5058 90.0508 34.2518V25.2668C90.2418 24.9698 90.4758 24.6938 90.7098 24.4388C91.1348 24.2898 91.5348 24.2268 91.9808 24.2268C93.8908 24.2268 94.2068 26.1618 94.2068 29.6248C94.2068 32.9598 93.7108 33.8778 93.5778 34.2528C93.0668 34.5068 92.5148 34.6338 91.8348 34.6338ZM97.5318 28.9968C97.5318 24.7078 96.2578 22.0128 93.0968 22.0128C90.9948 22.0128 89.9958 23.2258 89.5838 23.7378V23.2708L89.2228 22.0598L85.0708 22.6338V24.0978L86.6798 24.3098V41.6348L85.3198 41.9108L85.2558 43.3558H91.3888L91.4948 41.9108L90.0508 41.6348V36.1408C90.6248 36.4598 91.4468 36.6718 92.3398 36.6718C97.4848 36.6738 97.5318 31.4108 97.5318 28.9968Z" fill="white"/>
<path d="M166.886 34.4728C167.585 34.4728 168.031 34.8868 168.031 35.4688C168.031 36.0558 167.573 36.4648 166.886 36.4648C166.21 36.4648 165.74 36.0558 165.74 35.4688C165.74 34.8808 166.204 34.4728 166.886 34.4728ZM166.886 36.1528C167.362 36.1528 167.673 35.8718 167.673 35.4678C167.673 35.0638 167.362 34.7828 166.886 34.7828C166.416 34.7828 166.104 35.0588 166.104 35.4678C166.104 35.8718 166.416 36.1528 166.886 36.1528ZM166.387 35.9178L166.393 35.7798L166.511 35.7538V35.1408L166.376 35.1258L166.382 34.9878H166.928C167.163 34.9878 167.381 35.0638 167.375 35.2688C167.369 35.4118 167.287 35.4938 167.175 35.5398C167.234 35.6318 167.316 35.7288 167.375 35.7648L167.457 35.7798L167.445 35.9178H167.169C167.075 35.8408 166.987 35.7388 166.905 35.5758H166.817V35.7548L166.934 35.7808L166.923 35.9188H166.387V35.9178ZM166.815 35.1568V35.4228H166.915C167.05 35.4228 167.08 35.3718 167.08 35.2948C167.08 35.1778 166.992 35.1568 166.88 35.1568H166.815Z" fill="white"/>
<path d="M141.064 47.5068H140.34V40.3938H141.064V47.5068Z" fill="white"/>
<path d="M148.248 46.4528H148.268V40.3938H148.992V47.5068H148.088L143.948 41.3878H143.928V47.5068H143.204V40.3938H144.108L148.248 46.4528Z" fill="white"/>
<path d="M151.13 40.3938H153.491C153.932 40.3938 154.377 40.4678 154.822 40.6148C155.267 40.7618 155.67 40.9848 156.028 41.2828C156.385 41.5818 156.675 41.9528 156.897 42.3978C157.118 42.8438 157.228 43.3618 157.228 43.9508C157.228 44.5478 157.118 45.0658 156.897 45.5088C156.675 45.9498 156.385 46.3208 156.028 46.6178C155.67 46.9168 155.267 47.1388 154.822 47.2868C154.377 47.4348 153.932 47.5078 153.491 47.5078H151.13V40.3938ZM151.854 46.8648H153.291C153.827 46.8648 154.294 46.7808 154.692 46.6128C155.09 46.4458 155.421 46.2258 155.682 45.9548C155.943 45.6838 156.139 45.3748 156.269 45.0258C156.4 44.6768 156.465 44.3188 156.465 43.9508C156.465 43.5828 156.4 43.2238 156.269 42.8758C156.139 42.5278 155.943 42.2178 155.682 41.9458C155.42 41.6748 155.09 41.4558 154.692 41.2888C154.294 41.1208 153.827 41.0368 153.291 41.0368H151.854V46.8648Z" fill="white"/>
<path d="M159.711 47.5068H158.987V40.3938H159.711V47.5068Z" fill="white"/>
<path d="M161.801 47.5068H161.007L164.081 40.3938H164.784L167.839 47.5068H167.035L166.251 45.6378H162.574L161.801 47.5068ZM162.846 44.9748H165.981L164.414 41.1978L162.846 44.9748Z" fill="white"/>
</g>
<defs>
<clipPath id="clip0">
<rect width="138.986" height="31.359" fill="white" transform="translate(29.0449 16.1478)"/>
</clipPath>
</defs>
</svg>
