<svg width="182" height="49" viewBox="0 0 182 49" fill="none" xmlns="http://www.w3.org/2000/svg">
<g clip-path="url(#clip0)">
<path d="M83.2357 43.1125C83.2357 45.9489 85.021 47.8502 87.5452 47.8502C90.0693 47.8502 91.8547 45.9489 91.8547 43.1125V19.1437H94.3173C96.5336 19.1437 98.4421 18.0839 98.4421 15.4034C98.4421 12.6917 96.5336 11.6631 94.3173 11.6631H91.8547V6.58262C91.8547 3.74626 90.0693 1.84496 87.5452 1.84496C85.021 1.84496 83.2357 3.74626 83.2357 6.58262V11.6631H81.3272C79.1724 11.6631 77.5409 13.2528 77.5409 15.4034C77.5409 17.7099 78.9877 19.1437 81.3272 19.1437H83.2357V43.1125ZM24.6569 6.48912C24.6569 3.52808 22.7484 1.87613 20.1627 1.87613C17.577 1.87613 15.6685 3.52808 15.6685 6.48912V35.0709C15.6685 36.9722 15.6685 40.0579 12.3132 40.0579C9.60437 40.0579 7.51118 37.8761 5.11016 37.8761C3.14009 37.8761 1.75488 39.9021 1.75488 41.4917C1.75488 46.6346 8.65012 48.2553 12.8057 48.2553C18.2542 48.2553 24.6877 45.6372 24.6877 35.6943V6.48912H24.6569ZM27.0579 35.7567C27.0579 43.3307 32.1678 48.193 41.2794 48.193C50.3909 48.193 55.5008 43.3307 55.5008 35.7567V20.3592C55.5008 17.5229 53.7154 15.6216 51.1913 15.6216C48.6671 15.6216 46.8818 17.5229 46.8818 20.3592V35.5696C46.8818 39.1229 44.1729 41.0865 41.3102 41.0865C38.4166 41.0865 35.7386 39.1229 35.7386 35.5696V20.3592C35.7386 17.5229 33.9532 15.6216 31.429 15.6216C28.9049 15.6216 27.1195 17.5229 27.1195 20.3592V35.7567H27.0579ZM79.6957 21.4502C79.6957 23.4138 78.1874 25.2528 76.1557 25.2528C74.5243 25.2528 71.2306 22.7592 68.4294 22.7592C66.8595 22.7592 65.5051 23.4761 65.5051 25.1281C65.5051 29.0865 80.496 28.4943 80.496 38.219C80.496 43.8917 75.6324 48.2553 68.2139 48.2553C63.3503 48.2553 56.1472 45.5125 56.1472 41.6787C56.1472 40.3696 57.4709 37.8761 59.8719 37.8761C63.2272 37.8761 64.7355 40.7748 68.7988 40.7748C71.446 40.7748 72.2156 39.9333 72.2156 38.3437C72.2156 34.4476 57.2246 35.0398 57.2246 25.2528C57.2246 19.3307 62.0882 15.3099 68.9219 15.3099C73.1698 15.2787 79.6957 17.2424 79.6957 21.4502Z" fill="#1274C0"/>
<path d="M172.904 42.7696C172.904 45.606 174.721 47.5073 177.276 47.5073C179.831 47.5073 181.647 45.606 181.647 42.7696V6.27095C181.647 3.43459 179.831 1.53329 177.276 1.53329C174.721 1.53329 172.904 3.43459 172.904 6.27095V42.7696ZM127.1 6.27095C127.1 3.43459 125.284 1.53329 122.729 1.53329C120.174 1.53329 118.358 3.43459 118.358 6.27095V17.8658C116.05 15.9021 113.094 14.9047 110.047 14.9047C100.658 14.9047 95.9795 23.5073 95.9795 31.7982C95.9795 39.8398 101.551 47.8502 110.355 47.8502C113.341 47.8502 116.727 46.5411 118.358 43.9229C118.912 46.167 120.298 47.4761 122.729 47.4761C125.284 47.4761 127.1 45.5748 127.1 42.7385V6.27095ZM118.358 31.1437C118.358 35.2891 116.296 40.0268 111.494 40.0268C106.938 40.0268 104.691 35.4138 104.691 31.4242C104.691 27.4034 106.938 22.7281 111.494 22.7281C116.173 22.7281 118.358 26.9982 118.358 31.1437ZM129.501 42.7696C129.501 45.606 131.318 47.5073 133.873 47.5073C136.427 47.5073 138.244 45.606 138.244 42.7696V20.0164C138.244 17.18 136.427 15.2787 133.873 15.2787C131.318 15.2787 129.501 17.18 129.501 20.0164V42.7696ZM133.873 2.46835C131.256 2.46835 128.947 4.71251 128.947 7.14368C128.947 9.76186 131.256 12.0684 133.873 12.0684C136.612 12.0684 138.798 9.82419 138.798 7.14368C138.798 4.68134 136.489 2.46835 133.873 2.46835ZM170.503 20.8268C170.503 18.645 170.503 15.2476 166.317 15.2476C164.193 15.2476 162.377 16.7437 162.131 18.8008C160.191 16.1203 157.021 14.9047 153.819 14.9047C145.816 14.9047 139.383 22.0735 139.383 31.4242C139.383 41.0242 145.631 47.8502 153.819 47.8502C157.144 47.8502 159.884 46.4787 162.131 43.8605C162.746 46.1047 163.762 47.4761 166.317 47.4761C170.503 47.4761 170.503 44.0787 170.503 41.8969V20.8268ZM148.125 31.4554C148.125 27.3722 150.249 22.7593 155.051 22.7593C159.668 22.7593 161.792 27.3722 161.792 31.4554C161.792 35.5385 159.607 40.058 155.051 40.058C150.31 40.0268 148.125 35.5385 148.125 31.4554Z" fill="#FF6C00"/>
</g>
<defs>
<clipPath id="clip0">
<rect width="181" height="48" fill="white" transform="translate(0.923828 0.7229)"/>
</clipPath>
</defs>
</svg>
