<svg width="192" height="69" viewBox="0 0 192 69" fill="none" xmlns="http://www.w3.org/2000/svg">
<rect x="0.723145" y="0.0429077" width="190.554" height="68.8972" rx="6" fill="#D80027"/>
<g clip-path="url(#clip0)">
<path fill-rule="evenodd" clip-rule="evenodd" d="M105.398 25.367C101.083 24.5144 96.7003 24.0706 93.6186 24.0706C82.7219 24.0706 78.7988 28.7033 78.7988 36.8074V44.1408C78.7988 51.4853 81.4801 56.4916 94.3785 56.4916C97.7996 56.4916 102.015 56.1751 106.158 55.3337V48.7723C102.916 49.3937 99.9014 49.5443 95.1385 49.5443C90.0261 49.5443 87.1587 47.0085 87.1587 42.5969V38.3513C87.1587 33.6846 89.4299 31.018 93.9986 31.018C94.757 31.018 96.2443 31.028 97.0385 31.2322V36.0355H105.398V25.367ZM70.439 36.0355C70.439 27.3088 66.5312 24.0706 59.4192 24.0706C56.7273 24.0706 54.1187 24.8329 51.0594 26.3864L50.2994 24.8425H39.2796V31.7899H43.8395V49.5443H40.0396V56.4916H55.9993V49.5443H52.1993V31.8061C53.9124 31.1843 55.6254 31.018 57.5827 31.018C62.488 31.018 62.0792 35.367 62.0792 38.3675V56.4916H74.9989V49.5443H70.439V36.0355ZM30.9198 49.5443H35.4797V56.4916H18V49.5443H22.5599V19.439H18.76V12.4916H34.7197V19.439H30.9198V49.5443Z" fill="white"/>
<path fill-rule="evenodd" clip-rule="evenodd" d="M165.437 27.1582C165.437 23.9473 164.307 19.4389 158.977 19.4389C153.373 19.4389 150.781 24.9682 152.509 31.0178H145.03C144.463 29.2833 144.125 24.4557 145.937 20.6172C147.935 16.3824 152.651 12.4915 158.882 12.4915H143.398H130.478L114.518 36.8073V47.2284H131.618V40.281H122.498L135.798 19.4389H136.178V56.4915H143.398C143.398 42.7963 151.249 38.3593 158.597 35.2276C162.641 33.5042 165.437 31.3799 165.437 27.1582ZM173.037 26.7722V49.5441H154.037C154.037 45.6845 157.592 45.0272 162.017 42.5968C167.7 39.4759 173.037 35.6494 173.037 26.7722Z" fill="white"/>
</g>
<defs>
<clipPath id="clip0">
<rect width="156" height="44" fill="white" transform="translate(18 12.4915)"/>
</clipPath>
</defs>
</svg>
