<svg width="252" height="62" viewBox="0 0 252 62" fill="none" xmlns="http://www.w3.org/2000/svg">
<rect x="0.215332" y="0.888916" width="251.093" height="60.2223" rx="3" fill="#F88801"/>
<path d="M55.9775 27.3594C56.6182 27.3594 57.2666 27.5079 57.9229 27.8047C58.5791 28.1016 59.126 28.5001 59.5635 29.0001V27.6641H62.54V39.1954C62.54 40.5391 62.2432 41.6719 61.6494 42.5938C61.0557 43.5313 60.2666 44.2422 59.2822 44.7266C58.2979 45.2266 57.2197 45.4766 56.0479 45.4766C55.001 45.4766 54.1416 45.3204 53.4697 45.0079C52.7979 44.6954 52.1729 44.336 51.5947 43.9297V41.1172C51.9541 41.336 52.3291 41.5704 52.7197 41.8204C53.126 42.0704 53.5791 42.2813 54.0791 42.4532C54.5947 42.6251 55.1885 42.711 55.8604 42.711C56.5635 42.711 57.1963 42.5782 57.7588 42.3126C58.3213 42.0469 58.7588 41.6719 59.0713 41.1876C59.3994 40.7188 59.5635 40.1797 59.5635 39.5704V37.5079C59.2197 38.1485 58.7197 38.7032 58.0635 39.1719C57.4072 39.6251 56.6416 39.8516 55.7666 39.8516C54.8135 39.8516 53.9307 39.6094 53.1182 39.1251C52.3213 38.6407 51.6807 37.9376 51.1963 37.0157C50.7119 36.0938 50.4697 34.9766 50.4697 33.6641C50.4697 32.3516 50.7119 31.2266 51.1963 30.2891C51.6963 29.3516 52.3604 28.6329 53.1885 28.1329C54.0322 27.6172 54.9619 27.3594 55.9775 27.3594ZM56.5869 30.2891C55.9619 30.2891 55.4229 30.4532 54.9697 30.7813C54.5322 31.0938 54.1885 31.5079 53.9385 32.0235C53.6885 32.5235 53.5635 33.0704 53.5635 33.6641C53.5635 34.5547 53.8291 35.3126 54.3604 35.9376C54.9072 36.5469 55.626 36.8516 56.5166 36.8516C57.0479 36.8516 57.54 36.7188 57.9932 36.4532C58.4619 36.1719 58.8369 35.7813 59.1182 35.2813C59.415 34.7657 59.5635 34.1485 59.5635 33.4297V31.7422C59.1416 31.2891 58.6807 30.9376 58.1807 30.6876C57.6963 30.4219 57.165 30.2891 56.5869 30.2891ZM69.1729 22.6251V39.5001H66.1963V22.6251H69.1729ZM79.3682 27.3594C80.3838 27.3594 81.3057 27.6172 82.1338 28.1329C82.9775 28.6329 83.6416 29.3516 84.126 30.2891C84.626 31.2266 84.876 32.3516 84.876 33.6641C84.876 34.9766 84.626 36.0938 84.126 37.0157C83.6416 37.9376 82.9932 38.6407 82.1807 39.1251C81.3838 39.6094 80.5166 39.8516 79.5791 39.8516C78.7041 39.8516 77.9385 39.6251 77.2822 39.1719C76.626 38.7032 76.126 38.1485 75.7822 37.5079V39.5001H72.8057V22.6251H75.7822V29.0001C76.2197 28.5001 76.7588 28.1016 77.3994 27.8047C78.0557 27.5079 78.7119 27.3594 79.3682 27.3594ZM78.7588 30.2891C78.1807 30.2891 77.6416 30.4219 77.1416 30.6876C76.6572 30.9376 76.2041 31.2891 75.7822 31.7422V33.4297C75.7666 34.1485 75.8994 34.7657 76.1807 35.2813C76.4775 35.7813 76.8604 36.1719 77.3291 36.4532C77.7979 36.7188 78.2979 36.8516 78.8291 36.8516C79.7197 36.8516 80.4307 36.5469 80.9619 35.9376C81.5088 35.3126 81.7822 34.5547 81.7822 33.6641C81.7822 33.0704 81.6572 32.5235 81.4072 32.0235C81.1572 31.5079 80.8057 31.0938 80.3525 30.7813C79.8994 30.4532 79.3682 30.2891 78.7588 30.2891ZM90.6885 27.6641V29.3516C91.0479 28.8672 91.5322 28.4141 92.1416 27.9922C92.7666 27.5704 93.4775 27.3594 94.2744 27.3594C95.4775 27.3594 96.4854 27.7657 97.2979 28.5782C98.1104 29.3907 98.5166 30.6094 98.5166 32.2344V39.5001H95.54L95.5166 32.6329C95.5166 31.836 95.3213 31.2422 94.9307 30.8516C94.5557 30.461 94.0322 30.2657 93.3604 30.2657C92.8291 30.2657 92.3291 30.4376 91.8604 30.7813C91.4072 31.1251 91.0166 31.5313 90.6885 32.0001V39.5001H87.7119V27.6641H90.6885ZM107.118 27.3594C108.274 27.3594 109.267 27.6094 110.095 28.1094C110.938 28.6094 111.579 29.3047 112.017 30.1954C112.47 31.0704 112.696 32.086 112.696 33.2422V34.5079H104.118C104.274 35.3047 104.665 35.9454 105.29 36.4297C105.915 36.9141 106.681 37.1563 107.587 37.1563C108.446 37.1563 109.228 36.9844 109.931 36.6407C110.634 36.2969 111.196 35.9454 111.618 35.586L111.595 38.3516C111.22 38.6797 110.657 39.0157 109.907 39.3594C109.173 39.6876 108.36 39.8516 107.47 39.8516C106.298 39.8516 105.228 39.586 104.259 39.0547C103.306 38.5235 102.54 37.7969 101.962 36.8751C101.399 35.9532 101.118 34.8985 101.118 33.711C101.118 32.5547 101.376 31.5001 101.892 30.5469C102.407 29.5938 103.118 28.8282 104.024 28.2501C104.931 27.6563 105.962 27.3594 107.118 27.3594ZM107.048 29.961C106.313 29.961 105.696 30.1876 105.196 30.6407C104.696 31.0938 104.353 31.7032 104.165 32.4688H109.837C109.774 31.6251 109.462 31.0001 108.899 30.5938C108.337 30.1719 107.72 29.961 107.048 29.961ZM131.868 27.6641L127.767 39.5001H125.61L122.845 31.836L120.079 39.5001H117.899L113.821 27.6641H117.056L119.235 34.6719L121.79 27.6641H123.923L126.454 34.6719L128.634 27.6641H131.868ZM137.751 27.3594C138.485 27.3594 139.165 27.4688 139.79 27.6876C140.415 27.9063 140.899 28.1563 141.243 28.4376V31.0626C140.868 30.8126 140.407 30.5704 139.86 30.336C139.329 30.1016 138.774 29.9844 138.196 29.9844C137.634 29.9844 137.188 30.1094 136.86 30.3594C136.532 30.6094 136.368 30.9063 136.368 31.2501C136.368 31.5001 136.462 31.7344 136.649 31.9532C136.837 32.1563 137.196 32.336 137.728 32.4922L139.063 32.9376C140.86 33.4688 141.759 34.5079 141.759 36.0547C141.759 36.7891 141.548 37.4454 141.126 38.0235C140.72 38.586 140.165 39.0313 139.462 39.3594C138.774 39.6876 138.009 39.8516 137.165 39.8516C136.368 39.8516 135.595 39.7266 134.845 39.4766C134.095 39.2266 133.524 38.9532 133.134 38.6563V36.0547C133.431 36.2579 133.79 36.4532 134.212 36.6407C134.634 36.8282 135.071 36.9844 135.524 37.1094C135.978 37.2188 136.392 37.2735 136.767 37.2735C137.36 37.2735 137.813 37.1719 138.126 36.9688C138.454 36.7501 138.618 36.4454 138.618 36.0547C138.618 35.7579 138.485 35.5235 138.22 35.3516C137.954 35.1797 137.563 35.0079 137.048 34.836L135.595 34.3204C134.688 34.0235 134.063 33.6016 133.72 33.0547C133.376 32.5079 133.204 31.8594 133.204 31.1094C133.204 30.3594 133.392 29.711 133.767 29.1641C134.157 28.6016 134.696 28.1641 135.384 27.8516C136.071 27.5235 136.86 27.3594 137.751 27.3594ZM145.696 36.1719C146.212 36.1719 146.649 36.3594 147.009 36.7344C147.384 37.0938 147.571 37.5313 147.571 38.0469C147.571 38.5626 147.384 39.0079 147.009 39.3829C146.649 39.7422 146.212 39.9219 145.696 39.9219C145.181 39.9219 144.735 39.7422 144.36 39.3829C144.001 39.0079 143.821 38.5626 143.821 38.0469C143.821 37.5313 144.001 37.0938 144.36 36.7344C144.735 36.3594 145.181 36.1719 145.696 36.1719ZM156.149 27.3594C157.024 27.3594 157.743 27.5001 158.306 27.7813C158.868 28.0626 159.313 28.336 159.642 28.6016V31.3438C159.235 31.0469 158.774 30.7969 158.259 30.5938C157.759 30.3907 157.142 30.2891 156.407 30.2891C155.813 30.2891 155.259 30.4376 154.743 30.7344C154.243 31.0313 153.845 31.4297 153.548 31.9297C153.251 32.4297 153.103 33.0001 153.103 33.6407C153.103 34.6094 153.415 35.4063 154.04 36.0313C154.665 36.6563 155.454 36.9688 156.407 36.9688C157.142 36.9688 157.759 36.8751 158.259 36.6876C158.774 36.4844 159.235 36.2344 159.642 35.9376V38.6563C159.313 38.9376 158.868 39.211 158.306 39.4766C157.743 39.7266 157.024 39.8516 156.149 39.8516C154.946 39.8516 153.876 39.5704 152.938 39.0079C152.017 38.4297 151.282 37.6719 150.735 36.7344C150.204 35.7813 149.938 34.7501 149.938 33.6407C149.938 32.8126 150.087 32.0235 150.384 31.2735C150.696 30.5235 151.134 29.8594 151.696 29.2813C152.259 28.6876 152.915 28.2188 153.665 27.8751C154.431 27.5313 155.259 27.3594 156.149 27.3594ZM167.798 27.3594C168.954 27.3594 170.009 27.6407 170.962 28.2032C171.915 28.7501 172.681 29.5001 173.259 30.4532C173.853 31.3907 174.149 32.4454 174.149 33.6172C174.149 34.7891 173.853 35.8438 173.259 36.7813C172.681 37.7188 171.915 38.4688 170.962 39.0313C170.009 39.5782 168.954 39.8516 167.798 39.8516C166.657 39.8516 165.603 39.5782 164.634 39.0313C163.681 38.4688 162.915 37.7188 162.337 36.7813C161.759 35.8438 161.47 34.7891 161.47 33.6172C161.47 32.4454 161.759 31.3907 162.337 30.4532C162.915 29.5001 163.681 28.7501 164.634 28.2032C165.603 27.6407 166.657 27.3594 167.798 27.3594ZM167.798 30.2422C167.235 30.2422 166.712 30.3751 166.228 30.6407C165.743 30.9063 165.353 31.2891 165.056 31.7891C164.774 32.2891 164.634 32.8985 164.634 33.6172C164.634 34.336 164.774 34.9454 165.056 35.4454C165.353 35.9454 165.743 36.3282 166.228 36.5938C166.712 36.8438 167.235 36.9688 167.798 36.9688C168.36 36.9688 168.884 36.8438 169.368 36.5938C169.853 36.3282 170.243 35.9454 170.54 35.4454C170.837 34.9454 170.985 34.336 170.985 33.6172C170.985 32.8985 170.837 32.2891 170.54 31.7891C170.243 31.2891 169.853 30.9063 169.368 30.6407C168.884 30.3751 168.36 30.2422 167.798 30.2422ZM179.938 27.6641V29.1641C180.298 28.711 180.728 28.2969 181.228 27.9219C181.743 27.5469 182.399 27.3594 183.196 27.3594C184.024 27.3594 184.774 27.5547 185.446 27.9454C186.118 28.3204 186.642 28.8907 187.017 29.6563C187.485 29.0157 188.032 28.4766 188.657 28.0391C189.282 27.586 190.009 27.3594 190.837 27.3594C191.634 27.3594 192.36 27.5469 193.017 27.9219C193.673 28.2813 194.196 28.8204 194.587 29.5391C194.993 30.2579 195.196 31.1563 195.196 32.2344V39.5001H192.22L192.196 32.6329C192.196 31.836 191.985 31.2422 191.563 30.8516C191.157 30.461 190.618 30.2657 189.946 30.2657C189.431 30.2657 188.985 30.4297 188.61 30.7579C188.235 31.0704 187.884 31.4454 187.556 31.8829V39.5001H184.579L184.556 32.6329C184.556 31.836 184.345 31.2422 183.923 30.8516C183.517 30.461 182.985 30.2657 182.329 30.2657C181.829 30.2657 181.384 30.4219 180.993 30.7344C180.603 31.0313 180.251 31.3829 179.938 31.7891V39.5001H176.962V27.6641H179.938Z" fill="white"/>
</svg>
