<svg width="181" height="48" viewBox="0 0 181 48" fill="none" xmlns="http://www.w3.org/2000/svg">
<path d="M82.3118 42.3896C82.3118 45.226 84.0972 47.1273 86.6214 47.1273C89.1455 47.1273 90.9309 45.226 90.9309 42.3896V18.4208H93.3935C95.6098 18.4208 97.5183 17.361 97.5183 14.6805C97.5183 11.9688 95.6098 10.9403 93.3935 10.9403H90.9309V5.85973C90.9309 3.02337 89.1455 1.12207 86.6214 1.12207C84.0972 1.12207 82.3118 3.02337 82.3118 5.85973V10.9403H80.4033C78.2486 10.9403 76.6171 12.5299 76.6171 14.6805C76.6171 16.987 78.0639 18.4208 80.4033 18.4208H82.3118V42.3896ZM23.7331 5.76623C23.7331 2.80519 21.8246 1.15324 19.2389 1.15324C16.6532 1.15324 14.7447 2.80519 14.7447 5.76623V34.348C14.7447 36.2493 14.7447 39.3351 11.3894 39.3351C8.68054 39.3351 6.58735 37.1532 4.18633 37.1532C2.21626 37.1532 0.831055 39.1792 0.831055 40.7688C0.831055 45.9117 7.72629 47.5325 11.8819 47.5325C17.3304 47.5325 23.7639 44.9143 23.7639 34.9714V5.76623H23.7331ZM26.1341 35.0338C26.1341 42.6078 31.244 47.4701 40.3555 47.4701C49.4671 47.4701 54.577 42.6078 54.577 35.0338V19.6364C54.577 16.8 52.7916 14.8987 50.2674 14.8987C47.7433 14.8987 45.9579 16.8 45.9579 19.6364V34.8467C45.9579 38.4 43.2491 40.3636 40.3863 40.3636C37.4928 40.3636 34.8147 38.4 34.8147 34.8467V19.6364C34.8147 16.8 33.0294 14.8987 30.5052 14.8987C27.9811 14.8987 26.1957 16.8 26.1957 19.6364V35.0338H26.1341ZM78.7719 20.7273C78.7719 22.6909 77.2635 24.5299 75.2319 24.5299C73.6004 24.5299 70.3067 22.0364 67.5055 22.0364C65.9356 22.0364 64.5812 22.7532 64.5812 24.4052C64.5812 28.3636 79.5722 27.7714 79.5722 37.4961C79.5722 43.1688 74.7086 47.5325 67.2901 47.5325C62.4265 47.5325 55.2234 44.7896 55.2234 40.9558C55.2234 39.6467 56.547 37.1532 58.9481 37.1532C62.3033 37.1532 63.8117 40.0519 67.8749 40.0519C70.5222 40.0519 71.2918 39.2104 71.2918 37.6208C71.2918 33.7247 56.3008 34.3169 56.3008 24.5299C56.3008 18.6078 61.1644 14.587 67.9981 14.587C72.246 14.5558 78.7719 16.5195 78.7719 20.7273Z" fill="#1274C0"/>
<path d="M171.981 42.0467C171.981 44.8831 173.797 46.7844 176.352 46.7844C178.907 46.7844 180.723 44.8831 180.723 42.0467V5.54806C180.723 2.71169 178.907 0.810394 176.352 0.810394C173.797 0.810394 171.981 2.71169 171.981 5.54806V42.0467ZM126.177 5.54806C126.177 2.71169 124.36 0.810394 121.805 0.810394C119.251 0.810394 117.434 2.71169 117.434 5.54806V17.1429C115.126 15.1792 112.171 14.1818 109.123 14.1818C99.7346 14.1818 95.0557 22.7844 95.0557 31.0753C95.0557 39.1169 100.627 47.1273 109.431 47.1273C112.417 47.1273 115.803 45.8182 117.434 43.2C117.988 45.4442 119.374 46.7532 121.805 46.7532C124.36 46.7532 126.177 44.8519 126.177 42.0156V5.54806ZM117.434 30.4208C117.434 34.5662 115.372 39.3039 110.57 39.3039C106.014 39.3039 103.767 34.6909 103.767 30.7013C103.767 26.6805 106.014 22.0052 110.57 22.0052C115.249 22.0052 117.434 26.2753 117.434 30.4208ZM128.578 42.0467C128.578 44.8831 130.394 46.7844 132.949 46.7844C135.504 46.7844 137.32 44.8831 137.32 42.0467V19.2935C137.32 16.4571 135.504 14.5558 132.949 14.5558C130.394 14.5558 128.578 16.4571 128.578 19.2935V42.0467ZM132.949 1.74546C130.332 1.74546 128.024 3.98961 128.024 6.42078C128.024 9.03896 130.332 11.3455 132.949 11.3455C135.688 11.3455 137.874 9.1013 137.874 6.42078C137.874 3.95845 135.565 1.74546 132.949 1.74546ZM169.58 20.1039C169.58 17.9221 169.58 14.5247 165.393 14.5247C163.269 14.5247 161.453 16.0208 161.207 18.0779C159.268 15.3974 156.097 14.1818 152.896 14.1818C144.892 14.1818 138.459 21.3507 138.459 30.7013C138.459 40.3013 144.708 47.1273 152.896 47.1273C156.22 47.1273 158.96 45.7558 161.207 43.1377C161.823 45.3818 162.838 46.7532 165.393 46.7532C169.58 46.7532 169.58 43.3558 169.58 41.174V20.1039ZM147.201 30.7325C147.201 26.6494 149.325 22.0364 154.127 22.0364C158.744 22.0364 160.868 26.6494 160.868 30.7325C160.868 34.8156 158.683 39.3351 154.127 39.3351C149.386 39.3039 147.201 34.8156 147.201 30.7325Z" fill="#FF6C00"/>
</svg>
