<svg width="191" height="69" viewBox="0 0 191 69" fill="none" xmlns="http://www.w3.org/2000/svg">
<rect x="0.26123" y="0.0429077" width="190.554" height="68.8972" rx="6" fill="#D80027"/>
<g clip-path="url(#clip0)">
<path fill-rule="evenodd" clip-rule="evenodd" d="M104.936 25.367C100.621 24.5144 96.2384 24.0706 93.1566 24.0706C82.26 24.0706 78.3369 28.7033 78.3369 36.8074V44.1408C78.3369 51.4853 81.0182 56.4916 93.9166 56.4916C97.3377 56.4916 101.553 56.1751 105.696 55.3337V48.7723C102.454 49.3937 99.4394 49.5443 94.6766 49.5443C89.5642 49.5443 86.6968 47.0085 86.6968 42.5969V38.3513C86.6968 33.6846 88.968 31.018 93.5366 31.018C94.2951 31.018 95.7824 31.028 96.5766 31.2322V36.0355H104.936V25.367ZM69.9771 36.0355C69.9771 27.3088 66.0692 24.0706 58.9573 24.0706C56.2654 24.0706 53.6568 24.8329 50.5975 26.3864L49.8375 24.8425H38.8177V31.7899H43.3776V49.5443H39.5777V56.4916H55.5374V49.5443H51.7374V31.8061C53.4504 31.1843 55.1634 31.018 57.1208 31.018C62.0261 31.018 61.6172 35.367 61.6172 38.3675V56.4916H74.537V49.5443H69.9771V36.0355ZM30.4578 49.5443H35.0178V56.4916H17.5381V49.5443H22.098V19.439H18.2981V12.4916H34.2578V19.439H30.4578V49.5443Z" fill="white"/>
<path fill-rule="evenodd" clip-rule="evenodd" d="M164.975 27.1582C164.975 23.9473 163.845 19.4389 158.515 19.4389C152.911 19.4389 150.319 24.9682 152.047 31.0178H144.568C144.001 29.2833 143.663 24.4557 145.475 20.6172C147.473 16.3824 152.19 12.4915 158.42 12.4915H142.936H130.016L114.056 36.8073V47.2284H131.156V40.281H122.036L135.336 19.4389H135.716V56.4915H142.936C142.936 42.7963 150.787 38.3593 158.135 35.2276C162.179 33.5042 164.975 31.3799 164.975 27.1582ZM172.575 26.7722V49.5441H153.575C153.575 45.6845 157.13 45.0272 161.555 42.5968C167.238 39.4759 172.575 35.6494 172.575 26.7722Z" fill="white"/>
</g>
<defs>
<clipPath id="clip0">
<rect width="156" height="44" fill="white" transform="translate(17.5381 12.4915)"/>
</clipPath>
</defs>
</svg>
