<svg width="211" height="94" viewBox="0 0 211 94" fill="none" xmlns="http://www.w3.org/2000/svg">
<rect x="0.461914" y="0.445557" width="210" height="93" rx="14" fill="#002B4D"/>
<g clip-path="url(#clip0)">
<path d="M51.6436 83.1531C71.2454 83.1531 87.1359 67.2015 87.1359 47.5243C87.1359 27.8471 71.2454 11.8956 51.6436 11.8956C32.0418 11.8956 16.1514 27.8471 16.1514 47.5243C16.1514 67.2015 32.0418 83.1531 51.6436 83.1531Z" fill="#3B73B8"/>
<path d="M96.5001 65.0901L100.284 61.7241V30.1206H94.1556L89.1528 38.0721H88.8794V28.8696H118.712V38.0721H118.466L113.414 30.1206H107.335V61.7241L111.065 65.0901V65.5401H96.5001V65.0901Z" fill="white"/>
<path d="M134.99 61.7871C136.205 61.3596 137.326 60.6977 138.289 59.8386L138.643 60.1716C136.124 64.1646 132.4 66.1611 127.472 66.1611C125.248 66.2123 123.053 65.6504 121.124 64.5366C119.305 63.4483 117.834 61.8603 116.884 59.9601C115.851 57.8638 115.337 55.5482 115.387 53.2101C115.339 50.6886 115.897 48.1926 117.014 45.9336C118.025 43.889 119.592 42.1731 121.532 40.9836C123.516 39.7854 125.794 39.171 128.109 39.2106C130.193 39.1568 132.251 39.6916 134.048 40.7541C135.702 41.7563 137.032 43.2155 137.881 44.9571C138.786 46.7993 139.247 48.8295 139.226 50.8836H122.191C122.173 51.1206 122.164 51.4206 122.164 51.7836C122.124 53.7171 122.465 55.6396 123.169 57.4401C123.741 58.9782 124.781 60.2963 126.142 61.2075C127.503 62.1186 129.114 62.5765 130.749 62.5161C132.195 62.5319 133.631 62.2849 134.99 61.7871ZM123.675 43.3371C122.827 45.5331 122.335 47.8516 122.218 50.2041L132.627 49.6461C132.627 46.4511 132.221 44.0841 131.408 42.5451C130.595 41.0061 129.385 40.2366 127.777 40.2366C125.863 40.2366 124.5 41.2716 123.675 43.3371Z" fill="white"/>
<path d="M146.447 64.5681C144.621 63.5114 143.136 61.9491 142.17 60.0681C141.11 57.9803 140.582 55.6611 140.633 53.3181C140.574 50.7426 141.192 48.1971 142.426 45.9381C143.597 43.8487 145.331 42.1331 147.429 40.9881C149.646 39.7913 152.133 39.1855 154.65 39.2286C156.1 39.2371 157.546 39.3878 158.967 39.6786C160.254 39.9142 161.519 40.2543 162.751 40.6956L161.608 47.9361H161.128C160.181 46.1181 159.354 44.6016 158.649 43.3866C158.03 42.3235 157.321 41.3163 156.529 40.3761C156.328 40.3399 156.129 40.2933 155.932 40.2366C155.503 40.1381 155.064 40.0913 154.623 40.0971C153.565 40.0819 152.523 40.3562 151.609 40.8905C150.694 41.4249 149.942 42.1991 149.432 43.1301C148.237 45.1191 147.639 47.8191 147.639 51.2301C147.594 53.2832 147.925 55.3273 148.617 57.2601C149.167 58.8144 150.162 60.1713 151.477 61.1616C152.788 62.083 154.359 62.5563 155.959 62.5116C157.389 62.5102 158.807 62.259 160.151 61.7691C161.385 61.3586 162.519 60.6899 163.477 59.8071L163.804 60.1401C162.702 61.9962 161.135 63.5305 159.259 64.5906C157.239 65.6765 154.973 66.2177 152.682 66.1611C150.5 66.1977 148.347 65.6477 146.447 64.5681Z" fill="white"/>
<path d="M162.491 65.0901L165.97 62.5431V31.6866L163.455 29.7246V29.2746L172.259 27.1866L172.564 27.4656V43.2966C173.772 42.06 175.189 41.0497 176.751 40.3131C178.31 39.5841 180.011 39.2107 181.731 39.2196C183.155 39.1975 184.563 39.5299 185.828 40.1871C187.006 40.8035 187.987 41.7389 188.661 42.8871C189.348 44.0734 189.699 45.4257 189.675 46.7976V62.5251L193.18 65.0991V65.5491H179.754V65.0991L183.134 62.5746V47.2296C183.171 46.5585 183.075 45.8869 182.853 45.253C182.63 44.6191 182.286 44.0353 181.839 43.5351C180.975 42.6351 179.723 42.1851 178.082 42.1851C177.046 42.1781 176.02 42.3769 175.061 42.7701C174.109 43.1615 173.252 43.7522 172.546 44.5026V62.5251L175.921 65.0991V65.5491H162.473L162.491 65.0901Z" fill="white"/>
<path d="M47.2302 63.3846L46.4682 63.8976C45.1202 63.0184 43.9177 61.9328 42.9044 60.6801V39.8856C42.9442 38.3951 42.8255 36.9047 42.5502 35.4396L43.4468 34.7781C43.6148 36.3561 43.6837 37.9433 43.653 39.5301V60.3741C44.6658 61.5678 45.8685 62.5851 47.2123 63.3846H47.2302ZM42.3799 47.8056H36.7989V47.1396H42.3978L42.3799 47.8056ZM32.4057 63.3351L31.7423 63.8481C30.9309 63.1326 29.4516 62.8266 28.2816 62.8266C26.8875 62.8277 25.5105 63.1349 24.2471 63.7266V63.6771C25.6357 62.7564 27.2676 62.2751 28.9316 62.2956C30.1509 62.2956 31.5271 62.6016 32.3923 63.3171L32.4057 63.3351ZM28.1471 42.9366V52.7466C28.1471 57.2466 27.9454 59.0466 24.8927 62.6061L24.8389 62.5566C27.3358 59.2851 27.3851 57.4986 27.3851 52.9491V43.1031C27.3851 39.4761 27.793 38.8146 30.523 35.6466L30.5723 35.6961C28.4878 38.6616 28.1292 39.3231 28.1292 42.9501L28.1471 42.9366ZM30.9802 33.8061C29.7564 34.6251 28.9451 34.9311 28.0799 34.9311C26.9592 34.9311 25.9909 34.3686 24.9733 34.3686C24.0731 34.3366 23.1962 34.6597 22.5302 35.2686C22.2805 35.5034 22.0742 35.7807 21.9206 36.0876H21.8713C21.9787 35.5454 22.2439 35.0474 22.6333 34.6566C22.9776 34.3453 23.3798 34.1055 23.8168 33.951C24.2538 33.7966 24.717 33.7305 25.1795 33.7566C26.2464 33.7566 27.3671 34.3191 28.5371 34.3191C29.3674 34.3173 30.1862 34.1249 30.9309 33.7566L30.9802 33.8061ZM27.0175 47.8056H25.1347C24.0846 47.7639 23.033 47.8317 21.9968 48.0081L22.7096 47.1396H27.0175V47.8056ZM49.2071 58.7901V37.4871C49.2071 34.2156 49.4627 32.1726 50.023 30.1296L49.8168 30.0261C47.0195 31.6596 43.6082 33.8601 41.9316 35.3901C42.2874 36.8789 42.4382 38.4096 42.3799 39.9396V43.8726H36.7989V37.1226C36.7989 33.2391 37.0544 32.1726 37.7178 30.1251L37.5609 30.0711C36.1892 31.9611 35.732 33.5451 35.732 37.4826V60.3696C34.7932 59.8698 33.7413 59.6232 32.6792 59.6541C31.2299 59.6558 29.7945 59.9384 28.452 60.4866L28.4026 60.4371C33.392 55.9911 33.5444 55.2261 33.5444 51.9546V38.1486C33.5444 34.0626 34.0509 32.2761 35.1223 30.2826L34.9654 30.1296C34.0177 30.7041 32.9345 31.0147 31.8275 31.0296C30.2989 31.0296 28.2637 30.2646 26.4482 30.2646C25.7891 30.2417 25.132 30.3518 24.5161 30.5883C23.9001 30.8248 23.3376 31.183 22.862 31.6416C21.9963 32.5303 21.505 33.7197 21.4902 34.9626C21.4926 35.6386 21.5953 36.3105 21.7951 36.9561H21.8982C22.0479 36.4755 22.3091 36.0375 22.6602 35.6781C22.9429 35.4114 23.2754 35.2037 23.6386 35.0669C24.0018 34.9302 24.3885 34.8672 24.7761 34.8816C25.9954 34.8816 26.8113 35.3901 27.914 35.3901C29.0168 35.3901 29.9492 34.9806 31.6795 33.8061L31.7289 33.8601C27.1789 38.6616 27.0175 39.5301 27.0175 43.2066V43.8726C26.3189 43.8489 25.6226 43.7798 24.933 43.6656C23.5825 45.171 22.325 46.758 21.1675 48.4176L21.2706 48.5211C22.4989 48.335 23.7402 48.2492 24.9823 48.2646H27.0175V54.6006C27.0175 58.4841 26.4616 60.1176 23.2026 64.3071L23.3551 64.5096C24.958 63.7938 26.6888 63.4111 28.443 63.3846C29.0291 63.3576 29.6148 63.448 30.1658 63.6504C30.7168 63.8528 31.2223 64.1632 31.6526 64.5636H31.7513C33.2809 63.2806 34.9555 62.1826 36.7406 61.2921L36.7899 61.1886V48.2646H42.3889V60.9366C43.5518 62.3351 44.9108 63.5569 46.4233 64.5636H46.5264C48.6757 62.9457 50.9212 61.461 53.2506 60.1176L52.9457 59.5551C52.2823 59.8116 51.7264 60.1176 51.1526 60.3741C50.3935 60.0039 49.7305 59.4617 49.2161 58.7901H49.2071ZM79.3402 33.7566C78.0671 36.3621 76.5385 37.2801 74.5571 37.2801C71.0964 37.2801 65.9054 35.9031 61.3733 35.9031C58.5761 35.9031 56.5902 36.6186 55.214 37.9956C54.5517 38.6371 54.0468 39.4243 53.7392 40.2951H53.6899C53.8962 39.2037 54.4077 38.1938 55.1647 37.3836C56.5902 35.9526 58.7285 35.2371 61.5795 35.2371C66.004 35.2371 71.2982 36.6186 74.7589 36.6186C76.552 36.6186 78.0178 35.8491 79.2416 33.7026L79.3402 33.7566ZM69.8727 56.5401C69.7013 55.2708 69.6159 53.9914 69.6171 52.7106V40.6011C69.6171 38.7606 69.6709 38.1486 70.433 37.3836C70.7871 37.4331 71.4999 37.5366 71.9616 37.5861V59.5866C70.8504 59.8926 69.7025 60.044 68.5502 60.0366C66.9025 60.0515 65.265 59.7742 63.7133 59.2176C65.9054 58.3491 68.1423 57.3771 69.8727 56.5176V56.5401ZM64.7847 54.6366C64.7847 57.2916 64.5785 57.7866 63.7133 58.6866L63.664 58.6371C63.9689 57.8181 64.0182 57.2556 64.0182 55.2126V43.9221C64.0223 42.6371 63.9037 41.3548 63.664 40.0926L64.4799 39.7326C64.6919 40.9993 64.7939 42.2821 64.7847 43.5666V54.6366ZM66.9723 64.0866C71.0426 64.0866 74.3016 62.8131 76.7447 60.5631L76.794 60.6126C74.7095 63.0156 70.9395 64.8561 66.7168 64.8561C62.2878 64.8561 58.7778 63.4251 56.1823 60.8691C54.9979 59.6866 54.0631 58.2766 53.4338 56.7233C52.8045 55.17 52.4937 53.5052 52.5199 51.8286C52.5199 48.8136 53.7392 46.2576 55.9268 44.0616L55.9806 44.1111C54.1979 46.139 53.2381 48.7645 53.2909 51.4686C53.2718 53.1221 53.5865 54.7625 54.2159 56.2907C54.8454 57.8189 55.7766 59.2033 56.9533 60.3606C59.3471 62.7591 62.7047 64.0866 66.9813 64.0866H66.9723ZM80.8106 30.1296L80.5551 30.0261C79.4344 31.5606 77.9595 32.0691 75.8751 32.0691C72.4637 32.0691 66.8647 30.6921 62.6913 30.6921C59.4368 30.6921 56.6889 31.7136 54.8554 33.5496C54.2049 34.1747 53.6921 34.9298 53.35 35.7661C53.008 36.6024 52.8443 37.5014 52.8696 38.4051C52.8822 39.4886 53.1076 40.5591 53.533 41.5551H53.6854C53.9344 40.3745 54.5182 39.2915 55.3664 38.4366C56.6889 37.0866 58.5716 36.3441 61.2657 36.3441C62.9468 36.3441 65.1882 36.5466 69.6126 37.2126C67.5282 37.9776 64.8295 39.1026 63.0992 39.9126C63.3761 41.3417 63.5127 42.7947 63.5071 44.2506V56.0541C63.5071 57.6381 63.4578 58.3041 62.9961 58.9161C62.1667 58.5377 61.4084 58.0186 60.7547 57.3816C59.7177 56.3249 58.9004 55.0717 58.3501 53.6951C57.7999 52.3184 57.5277 50.8457 57.5495 49.3626C57.5548 47.7308 57.886 46.1167 58.5235 44.6156C59.1611 43.1146 60.092 41.7571 61.2613 40.6236L61.1088 40.4211C58.8743 41.1505 56.8487 42.4119 55.2051 44.0976C53.1402 46.2114 51.9885 49.057 51.9999 52.0176C51.9663 53.7186 52.2776 55.4088 52.9149 56.9854C53.5522 58.562 54.5022 59.992 55.7071 61.1886C58.352 63.8481 62.0189 65.3781 66.5464 65.3781C70.7692 65.3781 74.0775 63.9471 76.5206 61.4946C78.5951 59.3586 79.7785 56.5078 79.8289 53.5251L79.5733 53.4756C78.1655 56.1432 75.8297 58.198 73.0106 59.2491V37.6896C73.7727 37.7391 74.2299 37.7391 74.4361 37.7391C77.3857 37.7391 79.6271 35.8491 80.7971 30.1296" fill="white"/>
</g>
<defs>
<clipPath id="clip0">
<rect width="182" height="72" fill="white" transform="translate(13.4619 11.4456)"/>
</clipPath>
</defs>
</svg>
