<svg width="197" height="63" viewBox="0 0 197 63" fill="none" xmlns="http://www.w3.org/2000/svg">
<rect x="0.42041" y="0.96199" width="196.092" height="61.9484" rx="7" fill="black"/>
<g clip-path="url(#clip0)">
<path d="M29.1851 34.7427L30.9381 34.4667V18.2537L28.9731 17.9987L29.0791 16.2567H41.3191L41.0221 21.1627L38.5791 21.0987L38.4311 18.0197H34.6431V25.3097H36.2931L36.6751 23.6317L38.3901 23.6737V28.7077H36.6961L36.2921 26.9877H34.6431V34.7217H38.4521L38.8131 31.3667L41.3831 31.4517L41.5741 36.5697H29.1011L29.1851 34.7427Z" fill="white"/>
<path d="M42.6954 36.5697L42.7594 35.0617L44.1354 34.7857V24.5637L42.5264 24.4147V22.8857L46.5514 22.3127L46.8544 23.1837V23.7567C47.8314 22.7367 48.9994 22.1427 50.4864 22.1427C52.6744 22.1427 54.2884 23.4597 54.2884 26.0937V34.7867L55.7484 35.0627L55.6634 36.5707H50.9164V26.8257C50.9164 25.4237 50.4014 24.6377 49.1474 24.6377C48.7224 24.6377 48.4194 24.7227 48.0804 24.8287C47.8674 24.9987 47.6764 25.2537 47.5064 25.4877V34.7857L48.9504 35.0617L48.8444 36.5697H42.6954Z" fill="white"/>
<path d="M119.488 36.5697L119.552 35.0617L120.928 34.7857V24.5637L119.319 24.4147V22.8857L123.344 22.3127L123.646 23.1837V23.7567C124.623 22.7367 125.791 22.1427 127.278 22.1427C129.466 22.1427 131.08 23.4597 131.08 26.0937V34.7867L132.54 35.0627L132.455 36.5707H127.708V26.8257C127.708 25.4237 127.192 24.6377 125.939 24.6377C125.515 24.6377 125.212 24.7227 124.872 24.8287C124.66 24.9987 124.468 25.2537 124.299 25.4877V34.7857L125.743 35.0617L125.637 36.5697H119.488Z" fill="white"/>
<path d="M63.3372 36.2877C62.7852 36.5217 61.7872 36.7757 60.4912 36.7757C58.7922 36.7757 57.2102 36.0117 57.2102 33.5257V24.5567L55.5962 24.3017L55.6602 22.5177L57.4872 22.4327L58.2732 19.7137L60.5992 19.6067V22.5167H63.1272L62.9522 24.3007L60.6442 24.5567V33.5047C60.6442 34.2477 61.0482 34.7367 61.8122 34.7367H63.1872L63.3372 36.2877Z" fill="white"/>
<path d="M158.473 36.5697L158.537 35.1037L159.833 34.8067V24.5647L158.304 24.4157V22.8857L162.461 22.3127L162.737 23.3107V23.6297C163.821 22.8227 165.307 22.2917 167.071 22.2917L167.687 22.8227L167.262 26.6677L164.968 26.5827L164.735 24.5227C164.204 24.6077 163.694 24.7567 163.269 25.0537V34.8077L164.714 35.1047L164.608 36.5707H158.473V36.5697Z" fill="white"/>
<path d="M98.6012 36.5697L98.6652 35.1037L99.9612 34.8067V24.5647L98.4312 24.4157V22.8857L102.588 22.3127L102.864 23.3107V23.6297C103.948 22.8227 105.434 22.2917 107.198 22.2917L107.814 22.8227L107.389 26.6677L105.095 26.5827L104.862 24.5227C104.331 24.6077 103.821 24.7567 103.396 25.0537V34.8077L104.841 35.1047L104.735 36.5707H98.6012V36.5697Z" fill="white"/>
<path d="M64.3502 36.5697L64.4142 35.1037L65.7102 34.8067V24.5647L64.1802 24.4157V22.8857L68.3382 22.3127L68.6142 23.3107V23.6297C69.6972 22.8227 71.1842 22.2917 72.9472 22.2917L73.5632 22.8227L73.1382 26.6677L70.8442 26.5827L70.6102 24.5227C70.0792 24.6077 69.5692 24.7567 69.1442 25.0537V34.8077L70.5892 35.1047L70.4832 36.5707H64.3502V36.5697Z" fill="white"/>
<path d="M77.5284 30.3407C77.5284 32.7827 78.5844 34.6737 80.7014 34.6737C81.7844 34.6737 82.6554 34.4397 83.6754 33.9727L84.2494 35.3107C83.2084 36.1387 81.6944 36.7757 79.7824 36.7757C76.0814 36.7757 73.9434 33.5687 73.9434 29.4477C73.9434 25.9427 75.4834 22.1077 79.7424 22.1077C83.4414 22.1077 84.8454 25.5397 84.8454 29.3627L84.4844 30.2757L77.5284 30.3407ZM77.4644 28.7047L81.7394 28.5137C81.6544 26.8137 81.3024 24.1047 79.6294 24.1047C79.2324 24.1047 78.9464 24.1687 78.4364 24.4447C77.7484 25.6127 77.4554 27.7237 77.4644 28.7047Z" fill="white"/>
<path d="M136.592 30.3407C136.592 32.7827 137.648 34.6737 139.765 34.6737C140.849 34.6737 141.719 34.4397 142.739 33.9727L143.312 35.3107C142.272 36.1387 140.757 36.7757 138.845 36.7757C135.144 36.7757 133.006 33.5687 133.006 29.4477C133.006 25.9427 134.545 22.1077 138.805 22.1077C142.504 22.1077 143.908 25.5397 143.908 29.3627L143.547 30.2757L136.592 30.3407ZM136.528 28.7047L140.803 28.5137C140.718 26.8137 140.366 24.1047 138.693 24.1047C138.296 24.1047 138.01 24.1687 137.5 24.4447C136.812 25.6127 136.52 27.7237 136.528 28.7047Z" fill="white"/>
<path d="M111.778 30.3407C111.778 32.7827 112.834 34.6737 114.951 34.6737C116.035 34.6737 116.905 34.4397 117.925 33.9727L118.498 35.3107C117.458 36.1387 115.943 36.7757 114.031 36.7757C110.33 36.7757 108.192 33.5687 108.192 29.4477C108.192 25.9427 109.731 22.1077 113.99 22.1077C117.689 22.1077 119.093 25.5397 119.093 29.3627L118.732 30.2757L111.778 30.3407ZM111.714 28.7047L115.989 28.5137C115.904 26.8137 115.552 24.1047 113.879 24.1047C113.482 24.1047 113.196 24.1687 112.686 24.4447C111.998 25.6127 111.706 27.7237 111.714 28.7047Z" fill="white"/>
<path d="M153.517 36.5697L153.156 35.3587C152.221 36.2507 151.308 36.7817 149.885 36.7817C147.697 36.7817 145.738 35.6777 145.738 32.6607V24.1987L144.129 24.0497V22.7117L148.748 22.1807L149.109 23.3917V32.2367C149.109 33.7877 149.734 34.5947 150.989 34.5947C151.346 34.5947 151.797 34.5517 152.2 34.3827C152.433 34.1487 152.646 33.8727 152.837 33.5967V24.1987L151.18 24.0497V22.7117L155.847 22.1807L156.208 23.3917V34.7857L157.647 35.0617L157.477 36.5697H153.517Z" fill="white"/>
<path d="M91.763 34.7427C91.02 34.7427 90.446 34.6147 89.979 34.3607V25.3757C90.17 25.0787 90.404 24.8027 90.638 24.5477C91.063 24.3987 91.463 24.3357 91.909 24.3357C93.819 24.3357 94.135 26.2707 94.135 29.7337C94.135 33.0687 93.639 33.9867 93.506 34.3617C92.995 34.6157 92.443 34.7427 91.763 34.7427ZM97.46 29.1057C97.46 24.8167 96.186 22.1217 93.025 22.1217C90.923 22.1217 89.924 23.3347 89.512 23.8467V23.3797L89.151 22.1687L84.999 22.7427V24.2067L86.608 24.4187V41.7437L85.248 42.0197L85.184 43.4647H91.317L91.423 42.0197L89.979 41.7437V36.2497C90.553 36.5687 91.375 36.7807 92.268 36.7807C97.413 36.7827 97.46 31.5197 97.46 29.1057Z" fill="white"/>
<path d="M166.814 34.5817C167.513 34.5817 167.959 34.9957 167.959 35.5777C167.959 36.1647 167.501 36.5737 166.814 36.5737C166.138 36.5737 165.668 36.1647 165.668 35.5777C165.668 34.9897 166.132 34.5817 166.814 34.5817ZM166.814 36.2617C167.29 36.2617 167.601 35.9807 167.601 35.5767C167.601 35.1727 167.29 34.8917 166.814 34.8917C166.344 34.8917 166.032 35.1677 166.032 35.5767C166.032 35.9807 166.344 36.2617 166.814 36.2617ZM166.315 36.0267L166.321 35.8887L166.439 35.8627V35.2497L166.304 35.2347L166.31 35.0967H166.856C167.091 35.0967 167.309 35.1727 167.303 35.3777C167.297 35.5207 167.215 35.6027 167.103 35.6487C167.162 35.7407 167.244 35.8377 167.303 35.8737L167.385 35.8887L167.373 36.0267H167.097C167.003 35.9497 166.915 35.8477 166.833 35.6847H166.745V35.8637L166.862 35.8897L166.851 36.0277H166.315V36.0267ZM166.743 35.2657V35.5317H166.843C166.978 35.5317 167.008 35.4807 167.008 35.4037C167.008 35.2867 166.92 35.2657 166.808 35.2657H166.743Z" fill="white"/>
<path d="M140.992 47.6157H140.268V40.5027H140.992V47.6157Z" fill="white"/>
<path d="M148.176 46.5617H148.196V40.5027H148.92V47.6157H148.016L143.876 41.4967H143.856V47.6157H143.132V40.5027H144.036L148.176 46.5617Z" fill="white"/>
<path d="M151.058 40.5027H153.419C153.86 40.5027 154.305 40.5767 154.75 40.7237C155.195 40.8707 155.598 41.0937 155.956 41.3917C156.313 41.6907 156.603 42.0617 156.825 42.5067C157.046 42.9527 157.156 43.4707 157.156 44.0597C157.156 44.6567 157.046 45.1747 156.825 45.6177C156.603 46.0587 156.313 46.4297 155.956 46.7267C155.598 47.0257 155.195 47.2477 154.75 47.3957C154.305 47.5437 153.86 47.6167 153.419 47.6167H151.058V40.5027ZM151.782 46.9737H153.219C153.755 46.9737 154.222 46.8897 154.62 46.7217C155.018 46.5547 155.349 46.3347 155.61 46.0637C155.871 45.7927 156.067 45.4837 156.197 45.1347C156.328 44.7857 156.393 44.4277 156.393 44.0597C156.393 43.6917 156.328 43.3327 156.197 42.9847C156.067 42.6367 155.871 42.3267 155.61 42.0547C155.348 41.7837 155.018 41.5647 154.62 41.3977C154.222 41.2297 153.755 41.1457 153.219 41.1457H151.782V46.9737Z" fill="white"/>
<path d="M159.639 47.6157H158.915V40.5027H159.639V47.6157Z" fill="white"/>
<path d="M161.729 47.6157H160.935L164.009 40.5027H164.712L167.767 47.6157H166.963L166.179 45.7467H162.502L161.729 47.6157ZM162.774 45.0837H165.909L164.342 41.3067L162.774 45.0837Z" fill="white"/>
</g>
<defs>
<clipPath id="clip0">
<rect width="138.986" height="31.359" fill="white" transform="translate(28.9731 16.2567)"/>
</clipPath>
</defs>
</svg>
