<svg width="183" height="73" viewBox="0 0 183 73" fill="none" xmlns="http://www.w3.org/2000/svg">
<g clip-path="url(#clip0)">
<path fill-rule="evenodd" clip-rule="evenodd" d="M35.3553 0.389648C54.757 0.389648 70.4744 16.3938 70.4744 36.1494C70.4744 55.905 54.757 71.9092 35.3553 71.9092C15.9537 71.9092 0.236328 55.905 0.236328 36.1494C0.236328 16.3938 15.9718 0.389648 35.3553 0.389648Z" fill="#F37021"/>
<path fill-rule="evenodd" clip-rule="evenodd" d="M30.6184 37.6093L32.0522 34.2089H28.2952L30.6184 37.6093ZM30.0194 30.6237L32.0522 34.2089L33.5586 30.6237H30.0194ZM30.0194 30.6237L32.1066 26.2993H27.5874L30.0194 30.6237ZM18.549 26.2808L23.0501 35.1884L27.5693 26.2808H18.549ZM23.0501 35.1884L18.3131 44.5026H27.7326L25.4821 40.0118L23.0501 35.1884ZM25.3732 30.6237L27.6237 35.6134L28.2952 34.2089L30.0194 30.6237H25.3732ZM27.6237 35.595L25.5002 40.0303H29.6201L27.6237 35.595ZM30.6184 37.6093L29.602 40.0303H32.2881L30.6184 37.6093ZM27.7508 44.5026H31.6166L29.602 40.0118L27.7508 44.5026ZM31.9433 52.8188L27.7326 44.5026L24.2479 52.8188H31.9433ZM35.3554 44.5026L34.6838 43.5231L32.27 40.0118H34.1938H34.466H35.3554H36.2447H38.4407L35.3554 44.5026ZM23.6853 19.48L30.0739 10.9974H18.8576L23.6853 19.48ZM31.0358 19.48H23.6672L27.5511 26.2808L31.0358 19.48ZM18.549 26.2808L23.6672 19.48H15.1188L18.549 26.2808ZM18.549 26.2808H5.26371L11.743 35.3362L18.549 26.2808ZM18.3131 44.5026L14.0843 52.8188H24.2661L18.3131 44.5026ZM4.82812 44.5026H18.3131L11.743 35.3178L4.82812 44.5026ZM21.4166 59.6011H29.0938L24.2479 52.8373L21.4166 59.6011ZM40.0923 37.6093L38.6585 34.2089H42.4155L40.0923 37.6093ZM40.7094 30.6237L38.6767 34.2089L37.1703 30.6237H40.7094ZM40.7094 30.6237L38.6222 26.2993H43.1414L40.7094 30.6237ZM52.1617 26.2808L47.6606 35.1884L43.1414 26.2808H52.1617ZM47.6788 35.1884L52.4157 44.5026H42.9781L45.2286 40.0118L47.6788 35.1884ZM45.3556 30.6237L43.1051 35.6134L42.4336 34.2089L40.7094 30.6237H45.3556ZM43.1051 35.595L45.2286 40.0303H41.1087L43.1051 35.595ZM40.0923 37.6093L41.1087 40.0303H38.4226L40.0923 37.6093ZM42.9781 44.5026H39.1123L41.1268 40.0118L42.9781 44.5026ZM38.7856 52.8188L42.9962 44.5026L46.4809 52.8188H38.7856ZM35.3554 30.6237H35.682H36.0632H37.1703L35.3554 26.2993L33.5404 30.6237H34.7746H35.0287H35.3554ZM35.3554 40.0303L35.8091 39.2171L38.6585 34.1904H35.8272H35.3554H34.8472H32.0522L35.3554 40.0303ZM35.3554 52.8188L39.0941 44.5026H36.6621H36.4806H35.3735H34.339H34.0849H31.6347L34.5205 50.9153L35.3554 52.8188ZM47.0435 19.48L40.655 10.9789H51.8713L47.0435 19.48ZM39.6749 19.48H47.0435L43.1596 26.2808L39.6749 19.48ZM52.1617 26.2808L47.0435 19.48H55.61L52.1617 26.2808ZM52.1617 26.2808H65.447L58.9677 35.3362L52.1617 26.2808ZM52.4157 44.5026L56.6446 52.8188H46.4628L52.4157 44.5026ZM65.9007 44.5026H52.4157L58.9858 35.3178L65.9007 44.5026ZM49.3122 59.6011H41.635L46.4809 52.8373L49.3122 59.6011ZM35.3554 10.9789H36.8073H37.9326H40.655L35.3735 3.95636L30.092 10.9789H33.2682H33.9215H35.3554ZM35.3554 19.48H35.8817H36.2084H39.6749L35.3554 10.9974L31.0358 19.48H34.5023H34.6838H35.3554ZM35.3554 26.2808H36.1902H38.6404L36.6621 22.1781L35.3735 19.48L32.1066 26.2808H34.7201H35.3554ZM35.3554 59.5826L36.2447 57.827L38.7856 52.8003H36.5895H36.4262H35.3554H34.3934H34.1212H31.9433L35.3554 59.5826ZM35.3554 68.3424L41.6169 59.6011H37.3518H36.1358H35.3554H34.8472H33.3589H29.0938L35.3554 68.3424Z" fill="white"/>
<path fill-rule="evenodd" clip-rule="evenodd" d="M111.491 12.5498H103.941C101.527 12.5498 99.5488 14.5641 99.5488 17.0221V59.749H107.099C109.513 59.749 111.491 57.7346 111.491 55.2767V12.5498ZM124.105 12.5498H130.584H131.782H149.695V20.4409C149.695 22.788 147.808 24.7099 145.503 24.7099H131.782V30.7715H146.683V38.6627C146.683 41.0097 144.795 42.9317 142.49 42.9317H131.782V55.4245C131.782 57.8085 129.858 59.7674 127.517 59.7674H119.84V16.8927C119.858 14.5087 121.764 12.5498 124.105 12.5498ZM91.2001 12.5498H83.65C81.2361 12.5498 79.2578 14.5641 79.2578 17.0221V59.749H86.8079C89.2218 59.749 91.2001 57.7346 91.2001 55.2767V12.5498ZM168.262 12.5498H160.585C158.244 12.5498 156.32 14.5087 156.32 16.8927V59.7674C163.743 59.7674 171.148 59.7674 178.571 59.7674C180.876 59.7674 182.764 57.8455 182.764 55.4984V47.6073H168.262V12.5498Z" fill="#0A3474"/>
</g>
<defs>
<clipPath id="clip0">
<rect width="183" height="72" fill="white" transform="translate(0 0.167847)"/>
</clipPath>
</defs>
</svg>
