<svg width="290" height="35" viewBox="0 0 290 35" fill="none" xmlns="http://www.w3.org/2000/svg">
<g clip-path="url(#clip0)">
<path d="M37.4243 1.53035H25.1104V20.4235H28.9403V13.2384H35.8926V9.74617H28.9403V5.02253H37.4243V1.53035ZM44.1201 1.53035H40.2901V20.4235H44.1201V1.53035ZM60.5204 1.53035V12.8085L49.6527 1.18679H48.4041V20.4235H52.2341V9.08732L63.0724 20.767H64.349V1.53035H60.519H60.5204ZM80.7228 20.4235H84.8372L76.4948 1.18679H75.2181L66.8477 20.4235H70.9621L72.0118 17.962H79.6731L80.7228 20.4235ZM78.339 14.7837H73.3445L75.8417 8.40019L78.339 14.7837ZM99.5069 1.52894V12.8071L88.6391 1.18537H87.3905V20.4221H91.2205V9.08591L102.06 20.7656H103.337V1.52894H99.5069ZM116.531 1.18537C110.941 1.18537 106.543 5.42265 106.543 10.9762C106.543 16.5298 110.941 20.767 116.503 20.767C120.135 20.767 123.171 18.963 124.788 16.0717L121.894 14.0103C120.645 16.0137 118.887 17.1872 116.531 17.1872C113.041 17.1872 110.487 14.6395 110.487 11.0045C110.487 7.33981 113.04 4.7638 116.531 4.7638C118.887 4.7638 120.645 5.93729 121.894 7.9407L124.788 5.87932C123.143 2.98802 120.134 1.18396 116.531 1.18396V1.18537ZM131.882 1.52894H128.052V20.4221H131.882V1.52894ZM148.254 20.4221H152.368L144.026 1.18537H142.749L134.379 20.4221H138.493L139.543 17.9606H147.204L148.254 20.4221ZM145.87 14.7823H140.876L143.373 8.39878L145.87 14.7823ZM158.752 1.52752H154.922V20.4207H166.953V16.9285H158.752V1.52752ZM188.914 1.52752H176.315V20.4207H189.254V16.9285H180.147V12.1483H186.587V8.85686H180.147V5.02112H188.914V1.52894V1.52752ZM207.443 20.4207L201.285 10.8023L207.045 1.52752H202.703L199.128 7.48261L195.525 1.52752H191.156L197.001 10.8023L190.787 20.4207H195.157L199.128 14.1517L203.101 20.4207H207.443ZM217.034 1.52752H209.997V20.4207H213.827V13.7502H217.034C220.977 13.7502 223.787 11.2604 223.787 7.624C223.787 3.93105 220.977 1.52611 217.034 1.52611V1.52752ZM217.034 4.93346C218.822 4.93346 219.871 6.05039 219.871 7.624C219.871 9.25557 218.822 10.3725 217.034 10.3725H213.827V4.93346H217.034ZM242.655 20.4207L237.349 13.0065C239.365 12.0041 240.641 10.0572 240.641 7.624C240.641 3.93105 237.833 1.52611 233.888 1.52611H226.852V20.4192H230.682V13.7487H233.491L238.343 20.4192H242.657L242.655 20.4207ZM230.68 4.93346H233.887C235.675 4.93346 236.724 6.05039 236.724 7.624C236.724 9.25557 235.675 10.3442 233.887 10.3442H230.68V4.93346ZM257.608 1.52752H245.009V20.4207H257.948V16.9285H248.841V12.1483H255.282V8.85686H248.841V5.02112H257.608V1.52894V1.52752ZM267.141 1.18396C263.623 1.18396 260.928 3.27361 260.928 6.53675C260.928 9.19901 262.8 10.7443 265.467 11.9758L267.482 12.892C268.958 13.5791 269.866 14.0089 269.866 15.2403C269.866 16.5566 268.844 17.33 267.199 17.33C264.958 17.33 263.624 16.0123 262.602 14.5815L259.964 16.5849C261.354 19.1044 263.965 20.7642 267.199 20.7642C270.915 20.7642 273.753 18.6166 273.753 15.0961C273.753 12.4056 272.079 10.8886 269.129 9.57085L267.001 8.62641C265.639 7.99725 264.817 7.53917 264.817 6.45051C264.817 5.19078 265.894 4.61818 267.143 4.61818C268.675 4.61818 269.81 5.41982 270.718 6.79407L273.329 4.76239C272.221 2.70101 270.122 1.18396 267.143 1.18396H267.141ZM282.861 1.18396C279.342 1.18396 276.647 3.27361 276.647 6.53675C276.647 9.19901 278.519 10.7443 281.186 11.9758L283.201 12.892C284.677 13.5791 285.585 14.0089 285.585 15.2403C285.585 16.5566 284.563 17.33 282.918 17.33C280.676 17.33 279.343 16.0123 278.322 14.5815L275.683 16.5849C277.073 19.1044 279.684 20.7642 282.918 20.7642C286.635 20.7642 289.472 18.6166 289.472 15.0961C289.472 12.4056 287.798 10.8886 284.848 9.57085L282.719 8.62641C281.357 7.99725 280.534 7.53917 280.534 6.45051C280.534 5.19078 281.612 4.61818 282.861 4.61818C284.392 4.61818 285.528 5.41982 286.436 6.79407L289.046 4.76239C287.939 2.70101 285.84 1.18396 282.861 1.18396Z" fill="#003F74"/>
<path d="M226.364 34.0417L224.491 30.9002C225.21 30.7178 226.089 30.107 226.089 28.7144C226.089 27.343 225.189 26.4678 223.189 26.4678H220.354V34.0417H221.656V31.0727H223.096L224.852 34.0417H226.365H226.364ZM224.629 28.8162C224.629 29.7012 224.057 30.1678 223.031 30.1678H221.655V27.3826H223.009C224.246 27.3826 224.627 27.9622 224.627 28.8148L224.629 28.8162ZM232.607 31.0119C232.607 29.2234 231.654 27.9325 229.898 27.9325C228.184 27.9325 227.062 29.1414 227.062 30.9313C227.062 32.659 227.993 34.2156 230.205 34.2156C230.946 34.2156 231.823 33.9399 232.5 33.2882L232.109 32.6986C231.411 33.2274 230.882 33.39 230.247 33.39C229.019 33.39 228.384 32.5459 228.3 31.3371H232.586C232.607 31.2452 232.607 31.1434 232.607 31.0119ZM231.337 30.6768H228.3C228.47 29.4468 228.946 28.7356 229.835 28.7356C230.872 28.7356 231.242 29.4779 231.337 30.6768ZM239.696 33.1567C239.548 33.1864 239.431 33.1977 239.305 33.1977C238.935 33.1977 238.734 33.0761 238.734 32.4766V29.844C238.734 28.7257 238.088 27.9848 236.427 27.9848C235.401 27.9848 234.607 28.31 233.92 28.737L234.301 29.5698C234.873 29.2036 235.496 28.9392 236.227 28.9392C237.243 28.9392 237.57 29.3563 237.57 29.7111V30.0872C234.745 30.23 233.603 31.0119 233.603 32.3027C233.603 33.4621 234.471 34.1336 235.592 34.1336C236.385 34.1336 237.126 33.9484 237.634 33.2076C237.718 33.725 237.898 34.1449 238.607 34.1449C239.031 34.1449 239.433 34.0219 239.687 33.8692L239.698 33.1581L239.696 33.1567ZM237.569 32.5869C237.157 33.045 236.564 33.2684 235.897 33.2684C235.062 33.2684 234.733 32.8414 234.733 32.232C234.733 31.6113 235.198 30.9101 237.568 30.7277V32.5869H237.569ZM246.033 34.0417V25.9093H244.848V28.573V28.918C244.341 28.2478 243.683 28.0032 242.964 28.0032C241.346 28.0032 240.436 29.1315 240.436 31.0317C240.436 33.5624 241.843 34.1336 242.892 34.1336C243.749 34.1336 244.203 33.9484 244.891 33.2882L244.975 34.0417H246.033ZM244.817 32.5558C244.457 32.9828 243.833 33.267 243.261 33.267C242.362 33.267 241.685 32.6774 241.685 31.0303C241.685 29.5358 242.257 28.8346 243.24 28.8346C244.214 28.8346 244.659 29.4849 244.817 29.9628V32.5544V32.5558ZM254.086 29.1301V28.286H252.286V26.4664H251.303L251.08 28.286H250.085V29.1301H251.09V32.4639C251.09 33.602 251.619 34.1223 252.878 34.1223C253.385 34.1223 253.756 34.0516 254.031 33.8763V33.1341C253.787 33.2146 253.566 33.2146 253.333 33.2146C252.498 33.2146 252.286 32.8994 252.286 32.249V29.1286H254.086V29.1301ZM260.699 31.0614C260.699 29.2319 259.546 27.9311 257.788 27.9311C256.063 27.9311 254.91 29.2319 254.91 31.0713C254.91 32.9008 256.063 34.2142 257.788 34.2142C259.523 34.2142 260.699 32.9008 260.699 31.0614ZM259.503 31.0925C259.503 32.4342 258.869 33.4606 257.79 33.4606C256.69 33.4606 256.108 32.4031 256.108 31.0826C256.108 29.7309 256.701 28.7243 257.79 28.7243C258.901 28.7243 259.503 29.7408 259.503 31.0925ZM269.905 34.0417V33.0026H266.412V26.4678H265.11V34.0417H269.903H269.905ZM276.094 31.0119C276.094 29.2234 275.141 27.9325 273.386 27.9325C271.672 27.9325 270.551 29.1414 270.551 30.9313C270.551 32.659 271.481 34.2156 273.692 34.2156C274.434 34.2156 275.311 33.9399 275.988 33.2882L275.597 32.6986C274.899 33.2274 274.369 33.39 273.735 33.39C272.507 33.39 271.872 32.5459 271.788 31.3371H276.073C276.094 31.2452 276.094 31.1434 276.094 31.0119ZM274.825 30.6768H271.788C271.958 29.4468 272.434 28.7356 273.323 28.7356C274.36 28.7356 274.729 29.4779 274.825 30.6768ZM283.184 33.1567C283.035 33.1864 282.919 33.1977 282.793 33.1977C282.423 33.1977 282.221 33.0761 282.221 32.4766V29.844C282.221 28.7257 281.575 27.9848 279.915 27.9848C278.889 27.9848 278.094 28.31 277.408 28.737L277.789 29.5698C278.36 29.2036 278.984 28.9392 279.714 28.9392C280.73 28.9392 281.058 29.3563 281.058 29.7111V30.0872C278.233 30.23 277.091 31.0119 277.091 32.3027C277.091 33.4621 277.958 34.1336 279.079 34.1336C279.873 34.1336 280.614 33.9484 281.121 33.2076C281.205 33.725 281.386 34.1449 282.095 34.1449C282.518 34.1449 282.921 34.0219 283.174 33.8692L283.185 33.1581L283.184 33.1567ZM281.057 32.5869C280.645 33.045 280.052 33.2684 279.385 33.2684C278.55 33.2684 278.22 32.8414 278.22 32.232C278.22 31.6113 278.686 30.9101 281.055 30.7277V32.5869H281.057ZM289.521 34.0417V25.9093H288.336V28.573V28.918C287.828 28.2478 287.171 28.0032 286.452 28.0032C284.833 28.0032 283.924 29.1315 283.924 31.0317C283.924 33.5624 285.331 34.1336 286.379 34.1336C287.237 34.1336 287.691 33.9484 288.379 33.2882L288.463 34.0417H289.521ZM288.305 32.5558C287.945 32.9828 287.321 33.267 286.749 33.267C285.849 33.267 285.173 32.6774 285.173 31.0303C285.173 29.5358 285.744 28.8346 286.728 28.8346C287.701 28.8346 288.146 29.4849 288.305 29.9628V32.5544V32.5558Z" fill="#003F74"/>
<path d="M8.03033 2.2023C7.14045 3.29803 7.29601 4.94939 8.35966 5.88535L15.9229 12.7297C16.9137 13.6007 16.262 15.0442 16.262 15.0442L16.4176 15.1813L17.9998 13.1977C18.3865 12.7184 18.5757 12.1359 18.5785 11.5563V11.5266C18.5757 10.7787 18.2646 10.0336 17.6732 9.51327L10.1072 2.67029C9.1164 1.79512 9.76945 0.353003 9.76945 0.353003L9.61389 0.214447L8.03173 2.20089L8.03033 2.2023Z" fill="#003F74"/>
<path d="M4.59295 6.58048C3.70307 7.67903 3.85863 9.3304 4.92087 10.2649L12.4855 17.1079C13.4763 17.9817 12.8233 19.4238 12.8233 19.4238L12.9788 19.5638L14.561 17.5773C15.4494 16.4816 15.2953 14.8288 14.2331 13.8943L6.6684 7.04987C5.67622 6.17612 6.32926 4.73542 6.32926 4.73542L6.17371 4.59686L4.59155 6.58048H4.59295Z" fill="#003F74"/>
<path d="M1.07737 10.974C0.693391 11.4476 0.504204 12.0287 0.5 12.6084V12.6508C0.504204 13.3959 0.815311 14.1382 1.40669 14.657L8.97135 21.5014C9.96353 22.3766 9.31048 23.8187 9.31048 23.8187L9.46604 23.9573L11.0482 21.9708C11.9367 20.8709 11.7811 19.2209 10.7203 18.2892L3.15562 11.4434C2.16344 10.5696 2.81648 9.12892 2.81648 9.12892L2.66093 8.98895L1.07877 10.9754L1.07737 10.974Z" fill="#003F74"/>
</g>
<defs>
<clipPath id="clip0">
<rect width="289" height="34" fill="white" transform="translate(0.5 0.214478)"/>
</clipPath>
</defs>
</svg>
