<svg width="238" height="45" viewBox="0 0 238 45" fill="none" xmlns="http://www.w3.org/2000/svg">
<rect width="238" height="45" fill="#0087A8"/>
<path fill-rule="evenodd" clip-rule="evenodd" d="M170.914 32.9453V42.4123C170.914 42.4123 171.17 43.0435 172.578 43.1066V43.5484H166.433V43.1066C166.433 43.1066 167.713 43.1066 168.097 42.4123V37.805H163.232V42.4755C163.232 42.4755 163.488 43.1066 164.897 43.1697V43.5484H158.688V43.1066C158.688 43.1066 159.904 43.1066 160.352 42.4123V32.9453C159.904 32.251 158.688 32.251 158.688 32.251V31.8093H164.897V32.251C163.424 32.3142 163.232 32.9453 163.232 32.9453V37.0477H168.097V32.9453C167.649 32.251 166.433 32.251 166.433 32.251V31.8093H172.642V32.251C171.17 32.3773 170.914 32.9453 170.914 32.9453ZM160.864 33.0084H161.312V42.4123H160.864V33.0084ZM168.545 33.0084H168.994V42.4123H168.545V33.0084Z" fill="white"/>
<path fill-rule="evenodd" clip-rule="evenodd" d="M189.286 42.4123C189.286 42.4123 189.67 43.0435 191.014 43.1066V43.5484H184.741V43.1066C184.741 43.1066 185.893 43.1066 186.278 42.4123V32.9453C185.893 32.2511 184.741 32.251 184.741 32.251V31.8093H190.438H192.487C192.487 31.8093 195.047 31.683 195.879 33.7027C195.879 33.7027 196.264 34.7756 195.943 35.5961C195.431 37.3001 193.191 37.8682 193.191 37.8682C193.191 37.8682 194.151 38.3731 195.879 41.0238C195.879 41.0238 197.224 42.8541 198.184 43.1066L198.568 43.4853H194.407C194.023 43.359 192.167 40.6452 192.167 40.6452C190.63 38.1837 189.414 38.3731 189.286 38.4362V42.4123ZM189.35 32.756C189.286 32.8822 189.35 32.9453 189.35 32.9453V37.6157C189.478 37.6157 192.295 37.805 193.127 35.7223C193.319 35.1543 193.255 34.5863 193.255 34.5863C192.935 31.9986 189.35 32.756 189.35 32.756ZM194.023 42.3492H194.471C194.087 41.9705 192.807 40.0771 192.807 40.0771C192.359 39.2567 191.271 38.4362 191.271 38.4362H190.822C190.822 38.4362 191.975 39.3198 192.423 40.2034C192.487 40.2034 193.447 41.7181 194.023 42.3492ZM192.807 32.8191C195.047 34.9018 192.807 36.9846 192.807 36.9846C192.807 36.9846 194.215 36.2903 194.215 34.9018C194.215 33.3871 192.807 32.8191 192.807 32.8191ZM186.982 33.0084H187.366V42.4123H186.982V33.0084Z" fill="white"/>
<path fill-rule="evenodd" clip-rule="evenodd" d="M177.828 32.8822V37.0477H180.389C180.773 36.9215 181.093 35.2805 181.157 35.028H181.669V39.7616H181.157C181.093 39.5091 180.773 37.8682 180.389 37.805H177.828V41.7812C177.828 41.9705 177.956 42.6648 178.66 42.6648C178.66 42.6648 180.965 43.0435 182.885 42.2861C182.885 42.2861 183.269 41.9074 183.717 40.1402H184.229L184.101 43.5484H178.212H177.38H173.283V43.1066C173.283 43.1066 174.243 43.1066 174.627 42.4123V32.9453C174.307 32.251 173.283 32.251 173.283 32.251V31.8093H183.717V34.9649H183.269C182.821 33.1978 182.373 32.8822 182.373 32.8822C180.645 32.3142 178.212 32.756 177.828 32.8822ZM175.46 32.9453H175.844V42.3492H175.46V32.9453Z" fill="white"/>
<path fill-rule="evenodd" clip-rule="evenodd" d="M203.177 34.0813L201.257 39.1304H205.354L203.177 34.0813ZM203.369 33.0084H203.753L207.722 42.3492H207.21L203.369 33.0084ZM200.937 39.8878L199.977 42.2861C199.977 42.2861 200.233 42.9804 201.641 42.9804V43.5484H197.16V43.0435C197.16 43.0435 198.568 43.0435 198.953 42.1599L202.537 33.0084C202.217 32.3773 200.873 32.3142 200.873 32.3142V31.8093H205.162L209.707 42.0968C209.707 42.0968 210.091 43.0435 211.499 42.9804V43.5484H205.098V43.0435C205.098 43.0435 206.506 42.9804 206.762 42.3492L205.738 39.8878H200.937Z" fill="white"/>
<path fill-rule="evenodd" clip-rule="evenodd" d="M218.028 31.8724V32.3142C216.62 32.4404 216.556 32.8191 216.364 33.0084V41.7181C216.364 41.9074 216.492 42.6017 217.068 42.6017C217.068 42.6017 219.372 42.9173 221.229 42.223C221.229 42.223 221.741 41.4656 222.061 39.6985H222.509L222.445 43.4853H211.819V42.9804C211.819 42.9804 213.163 42.9173 213.419 42.2861V33.0084C213.163 32.3142 211.755 32.251 211.755 32.251V31.8093H218.028V31.8724ZM214.059 33.0715H214.443V42.4123H214.059V33.0715Z" fill="white"/>
<path fill-rule="evenodd" clip-rule="evenodd" d="M235.76 35.1543C234.223 31.7461 230.19 31.8724 230.19 31.8724H222.957V32.3142C222.957 32.3142 224.429 32.3773 224.621 33.0715V42.3492C224.429 43.0435 222.957 43.1066 222.957 43.1066V43.5484H229.422C232.367 43.4853 234.799 42.1599 235.76 40.014C236.848 37.5526 235.76 35.1543 235.76 35.1543ZM233.327 35.4698C232.879 33.324 231.599 32.8191 231.599 32.8191C233.135 33.1978 233.903 35.0912 233.967 37.1108C234.031 39.3829 233.263 41.7181 231.663 42.223C231.663 42.223 233.455 41.2763 233.519 37.6157C233.519 37.5526 233.583 37.0477 233.519 36.6059C233.455 36.0379 233.327 35.4698 233.327 35.4698ZM232.943 37.5526C232.943 37.5526 233.007 39.6985 232.303 40.8345C231.279 42.9804 228.654 42.791 228.654 42.791C227.438 42.7279 227.438 41.9705 227.438 41.9705V32.8191C227.438 32.8191 228.142 32.6297 229.678 32.6297C229.678 32.6297 231.087 32.5666 231.983 33.7027C231.983 33.7027 232.879 34.7756 232.879 36.5428L232.943 37.5526ZM225.069 33.0084H225.518V42.4123H225.069V33.0084Z" fill="white"/>
<path fill-rule="evenodd" clip-rule="evenodd" d="M94.0986 35.1543C92.6263 31.8724 88.7216 31.9355 88.7216 31.9355H81.7441V32.3773C81.7441 32.3773 83.1524 32.4404 83.3445 33.1346V42.1599C83.1524 42.8541 81.7441 42.9172 81.7441 42.9172V43.359H88.0174C90.834 43.2959 93.2025 42.0337 94.1627 39.9509C95.1869 37.4895 94.0986 35.1543 94.0986 35.1543ZM91.7942 35.4698C91.3461 33.3871 90.1298 32.8822 90.1298 32.8822C91.6021 33.2609 92.3703 35.0912 92.4343 37.0477C92.4983 39.1935 91.7942 41.5287 90.1938 41.9705C90.1938 41.9705 91.9222 41.0238 91.9862 37.4895C91.9862 37.4895 91.9862 36.9215 91.9862 36.4797C91.9222 36.0379 91.7942 35.4698 91.7942 35.4698ZM91.4741 37.4895C91.4741 37.4895 91.5381 39.5091 90.834 40.6452C89.8738 42.7279 87.3133 42.5386 87.3133 42.5386C86.161 42.4755 86.161 41.7181 86.161 41.7181V32.8191C86.161 32.8191 86.8652 32.6297 88.3375 32.6928C88.3375 32.6928 89.6817 32.6297 90.5139 33.7027C90.5139 33.7027 91.3461 34.7125 91.4101 36.4165L91.4741 37.4895ZM83.7926 33.0715H84.2407V42.1599H83.7926V33.0715Z" fill="white"/>
<path fill-rule="evenodd" clip-rule="evenodd" d="M99.3486 32.9453V36.9846H101.845C102.165 36.8583 102.549 35.2805 102.613 35.0281H103.061V39.6353H102.549C102.485 39.3829 102.165 37.805 101.781 37.7419H99.3486V41.5919C99.3486 41.7812 99.4766 42.4123 100.117 42.4755C100.117 42.4755 102.293 42.8541 104.214 42.1599C104.214 42.1599 104.598 41.7812 104.982 40.0771H105.43L105.302 43.359H99.6047H98.7725H94.8037V42.9173C94.8037 42.9173 95.7639 42.9173 96.084 42.223V33.0715C95.7639 32.4404 94.8037 32.3773 94.8037 32.3773V31.9986H104.918V35.0912H104.47C104.086 33.3871 103.637 33.0715 103.637 33.0715C102.165 32.3773 99.7327 32.8822 99.3486 32.9453ZM97.1082 33.0715H97.4282V42.1599H97.1082V33.0715Z" fill="white"/>
<path fill-rule="evenodd" clip-rule="evenodd" d="M133.723 34.2076L131.802 39.1304H135.771L133.723 34.2076ZM133.851 33.1346H134.235L138.076 42.1599H137.627L133.851 33.1346ZM131.546 39.8247L130.65 42.1599C130.65 42.1599 130.906 42.8541 132.25 42.8541V43.2959H127.897V42.8541C127.897 42.8541 129.242 42.8541 129.626 42.0337L133.083 33.1346C132.762 32.5035 131.418 32.5035 131.418 32.5035V32.0617H135.643L140.06 42.0337C140.06 42.0337 140.444 42.9172 141.788 42.9172V43.359H135.515V42.9172C135.515 42.9172 136.923 42.8541 137.115 42.2861L136.091 39.8878H131.546V39.8247Z" fill="white"/>
<path fill-rule="evenodd" clip-rule="evenodd" d="M109.334 42.9173C109.334 42.9173 111.319 43.9271 114.391 43.359C114.391 43.359 115.928 43.1066 117.272 41.5919L116.888 41.087C114.007 43.4853 111.191 41.9074 111.191 41.9074C107.35 39.7616 108.566 31.8093 113.879 32.6928C113.879 32.6928 115.352 32.8191 115.544 33.5764L116.056 35.1543H116.504V32.5035C116.504 32.5035 114.327 31.4306 110.807 31.9986C107.99 32.5035 106.774 35.1543 106.774 35.1543C106.774 35.1543 106.262 35.9748 106.134 37.4895C106.198 37.5526 105.814 41.2763 109.334 42.9173ZM107.03 38.1837C107.03 38.1837 106.966 41.087 109.654 42.5386C107.67 41.7812 106.902 39.8247 106.902 39.8247C106.326 37.9944 106.71 36.4165 106.71 36.4165C107.414 33.6396 109.526 32.8822 109.526 32.8822C107.35 34.3338 107.03 36.4797 107.03 36.4797C107.03 36.4797 107.03 36.9846 107.03 38.1837Z" fill="white"/>
<path fill-rule="evenodd" clip-rule="evenodd" d="M120.344 42.9173C120.344 42.9173 122.329 43.9271 125.401 43.359C125.401 43.359 126.938 43.1066 128.282 41.5919L127.898 41.087C125.017 43.4853 122.201 41.9074 122.201 41.9074C118.36 39.7616 119.576 31.8093 124.889 32.6928C124.889 32.6928 126.361 32.8191 126.553 33.5764L127.066 35.1543H127.514V32.5035C127.514 32.5035 125.337 31.4306 121.817 31.9986C119 32.5035 117.784 35.1543 117.784 35.1543C117.784 35.1543 117.272 35.9748 117.144 37.4895C117.208 37.5526 116.823 41.2763 120.344 42.9173ZM118.04 38.1837C118.04 38.1837 117.976 41.087 120.664 42.5386C118.68 41.7812 117.912 39.8247 117.912 39.8247C117.336 37.9944 117.72 36.4165 117.72 36.4165C118.424 33.6396 120.536 32.8822 120.536 32.8822C118.36 34.3338 118.04 36.4797 118.04 36.4797C118.04 36.4797 118.04 36.9846 118.04 38.1837Z" fill="white"/>
<path fill-rule="evenodd" clip-rule="evenodd" d="M144.669 34.2707L151.775 43.359H153.567V33.1978C153.951 32.5666 155.232 32.5035 155.232 32.5035V32.0617H150.943V32.5666C152.159 32.5666 152.607 33.2609 152.607 33.2609V39.8247L146.526 32.1248H142.109V32.5666C142.109 32.5666 143.197 32.5666 143.709 33.2609V42.2861C143.325 42.9172 142.045 42.9804 142.045 42.9804V43.4222H146.334V42.9172C145.118 42.9172 144.669 42.223 144.669 42.223V34.2707ZM152.031 42.223L144.99 33.1978H144.541L151.583 42.223H152.031Z" fill="white"/>
<path fill-rule="evenodd" clip-rule="evenodd" d="M35.5269 13.9481C31.4301 2.14587 20.8039 2.52455 20.8039 2.52455H1.66406V4.03927C1.66406 4.03927 5.50484 4.29173 6.08095 6.69005V38.8149C5.50484 41.2132 1.66406 41.4656 1.66406 41.4656V42.9173H18.8195C26.5651 42.7279 32.9664 38.1206 35.6549 30.7994C38.4715 22.2791 35.5269 13.9481 35.5269 13.9481ZM29.1896 15.0842C27.9094 7.69986 24.6447 5.93268 24.6447 5.93268C28.6775 7.19495 30.7259 13.8219 30.982 20.7644C31.238 28.5274 29.1896 36.7321 24.8367 38.4362C24.8367 38.4362 29.5737 35.0912 29.7657 22.5316C29.7657 22.4053 29.8297 20.5119 29.7017 18.9972C29.5097 16.9144 29.1896 15.0842 29.1896 15.0842ZM28.1654 22.2791C28.1654 22.2791 28.2934 29.6003 26.5011 33.5764C23.8125 41.0238 16.8351 40.2665 16.8351 40.2665C13.6345 39.9509 13.5705 37.3001 13.5705 37.3001V5.554C13.5705 5.554 15.4909 4.85975 19.5877 4.98598C19.5877 4.98598 23.2364 4.79664 25.6049 8.64657C25.6049 8.64657 27.9094 12.3703 28.0374 18.4292L28.1654 22.2791ZM7.2972 6.5007H8.51344V38.9411H7.2972V6.5007Z" fill="white"/>
<path fill-rule="evenodd" clip-rule="evenodd" d="M70.67 6.24825V39.0673C70.67 39.0673 71.3742 41.1501 75.663 41.4025V42.9173H57.3553V41.4656C57.3553 41.4656 61.0681 41.4025 62.2843 39.0673V23.0365H48.0735V39.1304C48.0735 39.1304 48.7776 41.2132 53.0665 41.5288V42.9173H34.7588V41.4656C34.7588 41.4656 38.4715 41.4025 39.6878 39.0673V6.31136C38.4075 3.97616 34.7588 3.91305 34.7588 3.91305V2.46143H53.0665V3.91305C48.7776 4.1655 48.0735 6.31136 48.0735 6.31136V20.4488H62.3484V6.31136C61.0681 3.97616 57.4194 3.91305 57.4194 3.91305V2.46143H75.7271V3.91305C71.3742 4.1655 70.67 6.24825 70.67 6.24825ZM41.0321 6.5007H42.3763V39.1304H41.0321V6.5007ZM63.6926 6.5007H65.0369V39.1304H63.6926V6.5007Z" fill="white"/>
<path d="M174.115 24.3619C174.051 24.0463 174.051 23.9832 173.987 23.9832H173.923C173.923 23.9832 173.923 24.0463 173.859 24.1094C173.667 24.8668 173.347 25.1823 173.347 25.1823C172.771 25.9397 171.811 26.4446 170.851 26.4446H140.061C138.844 26.4446 137.756 25.7503 137.244 24.6774C137.18 24.5512 137.052 24.2356 137.052 24.1094C137.052 24.0463 137.052 23.9832 136.924 23.9832C136.86 23.9832 136.796 24.0463 136.796 24.3619C136.796 24.5512 136.796 24.7405 136.796 24.8668C136.796 26.6971 138.268 28.1487 140.125 28.1487H170.915C172.771 28.1487 174.243 26.6971 174.243 24.8668C174.179 24.7405 174.179 24.4881 174.115 24.3619Z" fill="white"/>
<path d="M139.74 25.561C140.06 25.6872 140.38 25.6872 140.701 25.6872C141.405 25.6872 141.917 25.561 142.237 25.4979C142.365 25.4348 142.493 25.4348 142.557 25.4348C142.813 25.3717 143.197 25.4348 143.645 25.4348C143.837 25.4348 144.029 25.4979 144.221 25.4979C145.502 25.6241 147.23 25.7504 148.126 25.6872C149.086 25.6872 149.79 25.3086 150.046 25.1823C150.559 25.4348 151.839 25.6241 152.351 25.6872C152.735 25.6872 153.119 25.6872 153.567 25.6872C155.424 25.6872 157.408 25.4979 158.56 25.3717C160.353 25.7504 163.361 25.8135 165.538 25.8135C167.458 25.8135 169.122 25.7504 169.442 25.6872H169.57C170.21 25.6241 171.619 25.4979 172.195 24.1725C172.451 23.6676 172.387 23.0996 172.131 22.5316C173.091 21.3955 173.219 19.5021 172.835 18.1136C172.579 17.23 172.131 16.5358 172.003 16.4095C171.939 16.1571 171.491 15.0842 170.979 14.2006C170.275 12.8752 168.866 11.9285 166.946 11.5498C165.666 11.2973 164.129 11.2342 162.977 11.3604C162.913 11.3604 162.721 11.4236 162.529 11.4236C161.697 11.5498 159.968 11.8654 159.392 11.8654C159.264 11.8654 159.2 11.8022 159.2 11.7391C159.136 11.6129 159.008 11.3604 159.136 10.7924V10.7293C159.264 9.84572 159.072 9.08836 158.432 8.58345C158.112 8.331 157.728 8.20477 157.28 8.20477C156.896 8.20477 156.448 8.26788 156.064 8.331C155.936 8.331 155.872 8.39411 155.744 8.39411C155.231 8.52034 154.655 8.58345 154.207 8.45722C154.143 8.45722 154.079 8.39411 154.015 8.39411C153.375 8.07854 152.287 6.9425 151.647 6.31136C151.711 6.18513 151.775 6.05891 151.839 5.86957C151.903 5.74334 151.903 5.61711 152.031 5.49088C152.095 5.36466 152.287 5.04909 152.415 4.85975C152.479 4.79663 152.479 4.67041 152.479 4.54418C152.479 4.41795 152.351 4.35484 152.287 4.29172C151.967 4.10238 151.583 4.03927 151.327 3.97616C151.775 3.28191 152.095 2.3352 152.159 2.20898C152.223 2.08275 152.159 1.95652 152.095 1.83029C152.031 1.70407 151.903 1.64095 151.775 1.64095C149.854 1.70407 148.894 2.08275 148.446 2.39832C148.254 2.27209 147.934 2.14586 147.55 2.14586C147.422 2.14586 147.23 2.14586 147.102 2.20898C146.526 2.3352 146.206 2.777 146.078 3.09257C145.694 3.21879 144.989 3.47125 144.285 4.48107C143.325 5.80645 142.237 6.43759 141.725 6.81627C141.597 6.87938 141.533 6.9425 141.469 7.00561C140.829 7.51052 140.124 8.331 140.957 9.90884C141.533 11.0449 142.941 11.4236 144.093 11.4236C144.349 11.4236 144.605 11.4236 144.861 11.3604C144.989 11.5498 145.117 11.8654 144.989 12.244C144.925 12.4334 144.797 12.6227 144.733 12.8121L144.669 13.0014C144.413 13.4432 144.157 13.885 144.349 14.6424C144.029 14.8317 143.645 15.2735 143.581 15.7784C143.517 16.0309 143.517 16.2833 143.645 16.5989H143.581L143.325 16.5358C142.813 16.4095 142.237 16.2833 141.661 16.5358C141.021 16.7882 140.124 17.4825 139.42 19.3759C139.228 19.8808 139.036 20.3857 139.292 20.8275C139.292 20.8906 139.356 20.9537 139.036 21.1431C138.78 21.2693 138.588 21.5849 138.588 21.9004C138.588 22.0898 138.652 22.2791 138.716 22.4684C138.716 22.4684 138.716 22.4684 138.716 22.5316C138.716 22.5947 138.716 22.5947 138.716 22.5947C138.588 22.7209 138.524 22.9102 138.46 23.0996C138.332 23.5414 138.268 23.6045 138.268 23.8569C138.012 24.3619 138.588 25.1823 139.74 25.561ZM138.46 23.7938C138.524 23.6045 138.524 23.5414 138.652 23.1627C138.716 22.9734 138.844 22.784 138.908 22.7209C138.972 22.5947 138.972 22.4053 138.908 22.2791C138.844 22.1529 138.844 22.0898 138.844 21.9635C138.844 21.7742 138.972 21.5849 139.1 21.4586C139.484 21.2062 139.612 20.9537 139.484 20.7013C139.356 20.3857 139.42 20.007 139.676 19.5021C140.316 17.7349 141.149 17.1038 141.725 16.8513C142.173 16.662 142.685 16.7882 143.133 16.9144L143.389 16.9776C143.645 17.0407 143.773 16.9776 143.837 16.9144C143.901 16.8513 143.901 16.7882 143.837 16.662C143.773 16.4095 143.773 16.2202 143.773 15.9677C143.837 15.5259 144.221 15.1473 144.477 15.021C144.541 14.9579 144.605 14.8948 144.541 14.8317C144.349 14.1374 144.541 13.8219 144.797 13.3801L144.925 13.1907C145.053 13.0014 145.117 12.8121 145.181 12.5596C145.373 11.9285 145.117 11.4236 144.925 11.2973C144.861 11.2342 144.797 11.2342 144.733 11.2342C144.477 11.2973 144.157 11.2973 143.901 11.2973C142.877 11.2973 141.597 10.9187 141.085 9.97195C140.38 8.64656 140.829 8.01543 141.469 7.51052C141.533 7.4474 141.597 7.4474 141.725 7.38429C142.237 7.06872 143.389 6.37447 144.413 4.98597C145.117 3.97616 145.822 3.78682 146.078 3.7237C146.142 3.7237 146.206 3.66059 146.206 3.59747C146.334 3.34502 146.59 2.96634 147.038 2.84011C147.166 2.777 147.294 2.777 147.422 2.777C147.806 2.777 148.062 2.90323 148.19 3.09257C148.254 3.15568 148.318 3.15568 148.382 3.09257C148.702 2.84011 149.534 2.39832 151.647 2.3352H151.711V2.39832C151.711 2.46143 151.263 3.59748 150.751 4.29172C150.687 4.35484 150.687 4.41795 150.751 4.48107C150.751 4.54418 150.815 4.54418 150.879 4.54418C151.199 4.54418 151.583 4.60729 151.967 4.79663C151.967 4.79663 151.967 4.79663 151.967 4.85975V4.92286C151.967 4.92286 151.647 5.42777 151.583 5.61711C151.519 5.80645 151.455 5.93268 151.391 6.05891C151.327 6.24825 151.263 6.37447 151.199 6.5007C151.135 6.56381 151.199 6.62693 151.199 6.69004C151.391 6.87938 152.927 8.45722 153.759 8.96213C153.823 9.02525 153.951 9.02524 154.015 9.08836C154.527 9.2777 155.167 9.15147 155.68 9.02525C155.808 9.02525 155.872 8.96213 156 8.96213C156.384 8.89902 156.768 8.8359 157.088 8.8359C157.472 8.8359 157.792 8.89902 158.048 9.08836C158.56 9.53015 158.752 10.1613 158.624 10.9187V10.9818C158.56 11.1711 158.496 11.8654 158.752 12.1809C158.88 12.3072 159.008 12.4334 159.264 12.4334C159.84 12.4334 161.569 12.1178 162.465 11.9916C162.657 11.9285 162.785 11.9285 162.913 11.9285C163.361 11.8654 163.809 11.8022 164.321 11.8022C165.153 11.8022 165.986 11.8654 166.754 12.0547C168.61 12.4334 169.89 13.317 170.595 14.5792C171.107 15.4628 171.555 16.5358 171.619 16.7251C171.619 16.7251 171.619 16.7251 171.619 16.7882C171.683 16.9144 172.131 17.5456 172.387 18.4292C172.707 19.6914 172.579 21.5849 171.683 22.5947C171.619 22.6578 171.619 22.7209 171.683 22.784L171.747 22.8471C172.003 23.2889 172.003 23.7938 171.811 24.1725C171.299 25.3086 170.082 25.4348 169.442 25.4979H169.314C169.058 25.561 167.458 25.6241 165.474 25.6241C163.681 25.6241 160.353 25.561 158.496 25.1823C158.496 25.1823 158.496 25.1823 158.432 25.1823C157.344 25.3717 155.36 25.4979 153.503 25.4979C153.055 25.4979 152.671 25.4979 152.351 25.4979C151.711 25.4348 150.366 25.2454 150.11 24.993C150.046 24.9299 149.982 24.9299 149.918 24.993C149.854 25.0561 149.15 25.4979 148.062 25.4979C147.23 25.4979 145.502 25.4348 144.221 25.3086C144.029 25.3086 143.837 25.2454 143.645 25.2454C143.133 25.1823 142.749 25.1823 142.429 25.2454C142.301 25.2454 142.173 25.3086 142.045 25.3086C141.725 25.3717 141.341 25.4979 140.765 25.4979C140.701 25.4979 140.637 25.4979 140.573 25.4979C140.316 25.4979 140.06 25.4348 139.74 25.3717C138.844 24.9299 138.396 24.2356 138.46 23.7938Z" fill="white"/>
<path d="M166.05 13.3801C166.498 13.8219 166.946 14.3268 167.394 14.7686C168.482 15.7784 169.379 15.7784 169.443 15.7784C170.083 15.7784 170.659 15.3997 170.787 15.2735C170.723 15.0842 170.595 14.9579 170.531 14.8317C170.467 14.7686 170.211 14.3268 170.147 14.1374C170.019 13.9481 169.891 13.8219 169.763 13.6325C168.61 12.4965 166.882 12.1178 165.602 11.9916C165.346 11.9916 165.154 11.9285 164.898 11.9285C164.834 11.9285 164.706 11.9285 164.642 11.9285C164.962 12.1178 165.218 12.3703 165.474 12.6227C165.602 12.9383 165.794 13.1276 166.05 13.3801Z" fill="white"/>
<path d="M149.599 7.69986C149.727 8.07854 149.919 8.89902 149.471 9.53015C148.895 10.3506 147.807 10.54 146.975 10.6662L146.782 10.7293C146.718 10.7293 146.654 10.7293 146.526 10.7924C146.334 10.7924 145.822 10.9187 145.822 11.0449C145.822 11.2342 146.014 11.3604 146.334 11.3604C146.462 11.3604 146.59 11.3604 146.718 11.2973C146.91 11.2342 147.103 11.1711 147.295 11.0449C147.359 11.0449 147.423 10.9818 147.423 10.9818C147.551 10.9818 147.679 11.0449 147.743 11.1711C147.807 11.2342 147.807 11.3604 147.743 11.4236C147.743 11.4867 147.679 11.5498 147.551 11.6129C147.103 11.8654 146.654 11.9916 146.27 12.1178C146.206 12.1178 146.142 12.1809 146.206 12.3071C146.27 12.4334 146.27 12.4334 146.398 12.4334C148.191 12.0547 150.815 11.108 153.248 8.89902C152.48 8.33099 151.583 7.4474 151.135 7.00561C150.943 7.25806 150.367 7.69986 149.599 7.69986Z" fill="white"/>
<path d="M148.958 4.54418C149.534 4.54418 150.239 4.10238 150.687 3.47124C150.943 3.09256 151.135 2.77699 151.199 2.58765C149.982 2.71388 148.51 3.09256 148.254 3.66059C148.19 3.84993 148.19 4.10238 148.382 4.29172C148.574 4.48106 148.766 4.54418 148.958 4.54418Z" fill="white"/>
<path d="M144.989 15.7153C145.054 15.7153 145.118 15.7153 145.182 15.7153C146.078 15.7153 146.974 15.6522 147.998 15.5259C149.983 15.2735 153.247 14.5792 157.152 12.7489C157.216 12.7489 157.216 12.6858 157.216 12.6227C157.216 12.5596 157.152 12.4965 156.896 12.4334C156.128 12.3072 156 11.676 156 11.676C156 11.676 155.872 11.4236 156.064 11.2342C156.192 11.1711 156.448 11.1711 156.512 11.3604C156.512 11.3604 156.768 11.676 157.28 11.676H157.344C157.792 11.676 158.368 11.2342 158.496 10.8555C158.688 10.0982 158.56 9.53015 158.112 9.21459C157.92 9.08836 157.728 9.02525 157.408 9.02525C157.28 9.02525 157.216 9.02525 157.088 9.02525C156.32 9.15147 155.808 9.78261 155.68 9.97195L155.232 10.4769C153.439 12.4965 151.199 13.4432 149.022 14.1374C147.166 14.7686 145.63 14.9579 145.054 14.9579C144.925 14.9579 144.733 15.0842 144.733 15.3366C144.669 15.5891 144.797 15.7153 144.989 15.7153Z" fill="white"/>
<path d="M144.925 23.0365C144.733 22.784 144.413 22.3422 144.029 22.0898C143.581 21.7742 143.133 21.7742 142.877 21.9004C142.621 22.0898 142.557 22.2791 142.493 22.4684C142.429 22.6578 142.365 23.1627 142.301 23.6676C142.237 24.1094 142.685 24.425 143.453 24.2987C144.285 24.2356 145.502 24.0463 144.925 23.0365Z" fill="white"/>
<path d="M138.909 24.0463C139.037 23.6045 139.165 23.2889 139.165 23.2889C139.229 23.1627 139.293 23.0996 139.357 23.0996H139.421L139.485 23.1627C139.485 23.2258 139.485 23.352 139.421 23.4151C139.421 23.4783 139.229 23.8569 139.165 24.3618C139.165 24.425 139.421 24.5512 139.357 24.5512C139.357 24.5512 139.421 24.5512 139.421 24.6143C139.741 24.7405 139.933 24.4881 139.997 23.8569C140.125 22.8471 139.933 22.6578 139.741 22.5947H139.677C139.549 22.5316 139.421 22.4053 139.357 22.216C139.421 21.8373 139.805 21.8373 140.061 21.8373C140.189 21.8373 140.381 21.8373 140.637 21.8373C140.893 21.8373 141.149 21.7111 141.213 21.4586C141.341 21.1431 141.277 20.7644 140.893 20.5119C140.381 20.0701 140.189 19.8177 140.317 19.5652C140.381 19.439 140.509 19.3759 140.637 19.3759C140.765 19.3759 140.957 19.439 141.213 19.5652C141.277 19.6283 141.341 19.6283 141.405 19.6283C141.725 19.6283 141.981 19.2496 142.109 19.0603C142.237 18.8079 142.429 18.5554 142.749 18.3029C142.941 18.1767 143.197 18.1767 143.326 18.3029C143.39 18.3661 143.454 18.4923 143.39 18.6185C143.39 18.8079 143.326 18.9972 143.197 19.2496C143.005 19.6283 143.005 20.007 143.133 20.3226C143.262 20.6381 143.518 20.8906 143.902 21.0168C144.478 21.2062 144.734 21.1431 145.31 20.9537C145.758 20.8275 146.014 20.8275 146.078 21.0168C146.142 21.1431 146.142 21.3324 145.95 21.5849C145.63 22.1529 145.374 22.784 145.63 23.0365C145.63 23.0365 145.694 22.9734 145.758 22.9102C145.95 22.5316 146.206 21.9004 146.974 21.9004C147.102 21.9004 147.23 21.9004 147.422 21.9635C147.486 21.9635 147.55 22.0266 147.55 22.0898C147.55 22.1529 147.55 22.216 147.486 22.2791C147.23 22.5316 146.718 23.2889 147.294 23.9832C147.486 24.1725 147.742 24.2987 148.062 24.3618C148.191 24.3618 148.255 24.3618 148.319 24.3618C149.087 24.3618 149.407 23.8569 149.471 23.6045C149.471 23.5414 149.535 23.4151 149.535 23.352C149.599 23.1627 149.599 22.9102 149.791 22.5947C149.983 22.216 150.239 21.8373 150.687 21.5849C151.647 20.8906 152.223 19.8808 152.351 19.5652L152.415 19.439C152.479 19.1865 152.543 18.9972 152.799 18.9972C152.927 18.9972 152.991 19.0603 153.055 19.1234C153.184 19.2496 153.184 19.5021 153.055 19.8177C152.927 20.1964 152.351 21.0799 151.839 21.5849C151.583 21.8373 151.327 22.6578 151.583 23.2889C151.711 23.6676 151.967 23.8569 152.415 23.8569C152.479 23.8569 152.543 23.8569 152.607 23.8569C153.055 23.9201 153.44 23.9201 153.824 23.9201C154.848 23.9201 155.616 23.7938 156 23.5414C156.448 23.2889 156.64 23.0996 156.768 22.784C156.96 22.216 157.152 21.4586 157.344 20.4488C157.792 17.6718 157.088 16.0309 156.768 15.5259C156.64 15.6522 156.512 15.7784 156.256 15.7784C156.192 15.7784 156.128 15.7784 156.064 15.7784C155.872 15.7784 155.68 15.7153 155.552 15.5891C155.488 15.7153 155.36 15.9046 155.168 15.9677C155.04 16.0309 154.912 16.0309 154.784 16.0309C154.592 16.0309 154.4 15.9677 154.336 15.9046C154.272 16.0309 154.144 16.2833 153.824 16.3464C153.76 16.3464 153.696 16.3464 153.568 16.3464C153.376 16.3464 153.248 16.2833 153.119 16.2202C153.055 16.3464 152.927 16.5358 152.607 16.662C152.543 16.662 152.479 16.7251 152.351 16.7251C152.159 16.7251 152.031 16.662 151.903 16.5989C151.839 16.7882 151.711 17.0407 151.391 17.1038C151.327 17.1038 151.199 17.1038 151.135 17.1038C150.879 17.1038 150.751 16.9776 150.623 16.9144C150.559 17.0407 150.431 17.23 150.111 17.2931C150.047 17.2931 149.919 17.2931 149.855 17.2931C149.599 17.2931 149.471 17.23 149.343 17.1669C149.279 17.2931 149.151 17.4825 148.831 17.5456C148.767 17.5456 148.639 17.6087 148.575 17.6087C148.383 17.6087 148.255 17.5456 148.19 17.4825C148.126 17.6087 147.998 17.7349 147.742 17.798C147.678 17.798 147.614 17.798 147.55 17.798C147.294 17.798 147.102 17.6718 147.038 17.6087C146.974 17.6718 146.974 17.7349 146.974 17.8611C146.974 18.0505 146.974 18.1767 147.422 18.6816C147.614 18.871 147.806 19.1234 148.062 19.3128C148.639 19.8808 149.151 20.3226 149.023 20.6381C148.959 20.7644 148.831 20.8275 148.703 20.8275C148.447 20.8275 148.062 20.6381 147.422 20.2595C147.358 20.1964 147.294 20.1964 147.23 20.1332L147.166 20.0701C146.974 19.9439 146.526 19.6283 146.334 19.5021C146.014 19.2496 144.606 18.3661 144.094 18.0505C144.094 18.0505 144.094 18.0505 144.03 18.0505H143.966C143.646 17.8612 142.749 17.23 141.981 17.23C141.853 17.23 141.725 17.23 141.597 17.2931C141.085 17.4825 140.381 18.0505 139.805 19.6914C139.677 19.9439 139.549 20.4488 139.613 20.575C139.741 20.8906 139.869 21.3955 139.037 21.8373C138.973 21.8373 138.973 21.9004 138.973 21.9635C138.973 21.9635 138.973 21.9635 138.973 22.0266C138.973 22.0898 139.037 22.1529 139.037 22.216C139.165 22.4053 139.101 22.6578 138.909 22.9102C138.845 22.9734 138.845 23.0365 138.781 23.0996C138.717 23.1627 138.717 23.1627 138.717 23.2258C138.717 23.2258 138.589 23.6045 138.525 23.7938C138.461 24.0463 138.525 24.1725 138.525 24.1725L138.909 24.0463ZM139.549 23.4783C139.549 23.4783 139.613 23.352 139.613 23.2258C139.613 23.352 139.613 23.4151 139.549 23.4783C139.549 23.5414 139.421 23.7307 139.357 24.0463C139.485 23.7307 139.549 23.5414 139.549 23.4783Z" fill="white"/>
<path d="M157.984 14.3899C157.792 14.453 157.664 14.6424 157.536 14.7686C157.472 14.9579 157.472 15.2104 157.6 15.4628C157.664 15.6522 157.792 15.9046 157.856 16.1571C157.92 16.2833 158.048 16.662 158.496 16.662C158.56 16.662 158.624 16.662 158.688 16.662C159.265 16.5358 159.265 16.2833 159.265 15.9677C159.265 15.6522 159.137 15.1473 159.008 14.7686C158.88 14.453 158.56 14.3899 158.368 14.3899C158.176 14.3268 158.048 14.3899 157.984 14.3899Z" fill="white"/>
<path d="M158.752 19.9439C158.304 19.9439 158.112 20.1332 158.048 20.4488C157.984 20.7013 157.984 20.8275 157.984 20.9537C157.984 21.0168 157.984 21.0799 157.92 21.2062C157.92 21.2693 157.92 21.5217 158.048 21.7111C158.176 21.8373 158.368 21.9635 158.56 21.9635H158.624C159.008 21.9635 159.264 21.7742 159.328 21.3324C159.392 21.1431 159.392 20.7013 159.392 20.5119C159.392 20.4488 159.328 20.2595 159.2 20.1332C159.2 20.0701 159.008 19.9439 158.752 19.9439Z" fill="white"/>
<path d="M158.752 17.1669C158.56 17.1669 158.368 17.23 158.24 17.3562C158.112 17.4825 158.048 17.6718 158.048 17.8611C158.048 18.1136 158.048 18.2398 158.048 18.4292C158.048 18.5554 158.048 18.6185 158.048 18.7447C158.048 19.0603 158.176 19.439 158.752 19.439C159.392 19.439 159.456 19.0603 159.456 18.7447C159.456 18.4923 159.456 17.9874 159.392 17.6718C159.392 17.23 159.072 17.1669 158.752 17.1669Z" fill="white"/>
<path d="M162.465 22.6578C162.465 22.6578 162.785 22.5947 162.465 22.4053C162.145 22.216 161.569 21.9004 160.929 22.216C160.225 22.4684 160.225 23.0365 160.545 23.1627C160.929 23.2889 161.313 23.352 161.249 23.4783C161.185 23.7307 160.225 23.2258 160.161 23.8569C160.097 24.3619 160.353 24.4881 161.057 24.5512C161.121 24.5512 161.185 24.5512 161.185 24.4881C161.185 24.1725 161.313 23.0365 162.465 22.6578Z" fill="white"/>
<path d="M164.513 23.5414C164.065 23.5414 163.233 23.4151 162.913 23.0365C162.849 22.9734 162.849 22.9734 162.721 22.9734C162.401 23.0996 161.632 23.4151 161.568 24.425C161.568 24.4881 161.568 24.5512 161.632 24.6143C161.76 24.6774 161.952 24.8668 162.273 24.8668C162.337 24.8668 162.401 24.8668 162.401 24.8036C162.401 24.6143 162.465 24.1094 162.785 23.7307C162.977 23.4151 163.297 23.6676 163.105 23.8569C163.041 23.9832 162.785 24.4881 162.849 24.8668C162.849 24.9299 162.913 24.993 162.977 24.993C163.169 25.0561 163.553 25.1192 164.129 24.993C164.129 24.993 164.193 24.993 164.257 24.9299C164.385 24.8036 164.705 24.5512 164.833 23.7307C164.769 23.6045 164.577 23.5414 164.513 23.5414Z" fill="white"/>
<path d="M164.258 22.4684C163.682 22.4053 163.682 22.216 163.682 22.0898C163.682 21.9004 163.874 21.7742 163.938 21.7111C163.746 21.5217 163.618 21.2693 163.618 21.2693C163.426 21.3955 163.105 21.7111 163.105 22.0898C163.105 22.3422 163.233 22.9733 164.194 23.0365C164.642 23.0365 164.898 23.1627 164.962 23.2258C164.962 23.2258 165.09 22.9734 165.41 22.8471C165.154 22.5316 164.45 22.4684 164.258 22.4684Z" fill="white"/>
<path d="M167.074 23.1627C167.074 23.1627 166.562 22.9734 165.986 23.0365C165.602 23.0996 165.282 23.2889 165.282 23.6045C165.218 24.6143 166.306 24.5512 166.69 24.5512C167.138 24.5512 168.739 24.5512 168.739 24.5512C168.291 23.8569 167.65 23.352 167.074 23.1627Z" fill="white"/>
<path d="M160.032 19.9439C160.032 20.6381 160.481 21.0799 161.377 21.2693C161.505 21.2693 161.633 21.3324 161.697 21.3324C162.529 21.3324 162.785 20.6381 162.977 19.8177L163.041 19.6914C163.297 18.9341 163.809 18.3029 164.513 17.8611C164.833 17.6718 165.089 17.5456 165.089 17.5456C165.153 17.5456 165.153 17.5456 165.218 17.5456C165.346 17.5456 165.474 17.6087 165.538 17.7349C165.602 17.798 165.602 17.9243 165.538 17.9874C165.474 18.0505 165.41 18.1136 165.346 18.1767C165.282 18.1767 164.193 18.6816 163.937 19.7546C163.809 20.2595 164.001 20.8275 164.321 21.3324C164.641 21.7742 165.346 22.4684 166.818 22.5947H167.074H167.138C168.866 22.5947 170.082 22.216 170.723 21.4586C171.363 20.7013 171.171 19.6914 171.107 19.439C171.107 19.3759 171.107 19.2496 171.171 19.1865C171.235 19.1234 171.299 19.0603 171.363 19.0603H171.427C171.619 19.0603 171.747 19.1865 171.747 19.3128C171.811 19.6914 172.003 20.8906 171.171 21.9635C171.171 22.0266 171.107 22.0266 171.107 22.0898C170.915 22.3422 170.659 22.5316 170.467 22.6578C170.467 22.6578 170.531 22.6578 170.595 22.6578C170.851 22.6578 171.171 22.5947 171.555 22.1529C172.323 21.2062 172.387 19.5652 172.067 18.4292C171.875 17.798 171.619 17.2931 171.491 17.0407C171.043 17.3562 170.275 17.6718 169.378 17.6718C168.61 17.6718 167.33 17.2931 166.114 16.1571C165.538 15.6522 165.025 15.0842 164.641 14.6424C164.449 14.3899 164.257 14.2006 164.065 14.0743C163.425 13.5063 162.721 13.1276 162.209 13.0014C162.145 13.0014 162.145 13.0014 162.081 12.9383H162.017C161.889 12.8752 161.697 12.8752 161.505 12.8121C161.185 12.7489 160.929 12.7489 160.609 12.8121C160.481 12.8752 160.353 12.8752 160.224 12.9383C160.224 12.9383 160.224 12.9383 160.16 12.9383C159.712 13.1276 159.264 13.5694 159.392 14.3268C159.584 14.3268 160.289 17.5456 160.032 19.9439ZM171.299 17.4194C171.363 17.4825 171.363 17.6087 171.363 17.6718C171.363 17.9874 171.107 18.3029 170.787 18.3029C170.531 18.3029 170.275 18.1136 170.211 17.798C170.595 17.7349 170.915 17.6087 171.299 17.4194ZM169.442 17.8611C169.57 17.8611 169.698 17.8611 169.89 17.8611C169.954 18.1767 170.147 18.4292 170.403 18.5554C170.275 18.6185 170.146 18.6816 170.018 18.6816C169.698 18.6816 169.378 18.4292 169.378 18.0505C169.442 17.9874 169.442 17.9243 169.442 17.8611ZM168.674 17.798C168.802 17.798 168.93 17.8611 169.058 17.8611C169.058 17.9243 169.058 17.9874 169.058 18.0505C169.058 18.3029 169.122 18.4923 169.314 18.6816C168.93 18.7447 168.61 18.4292 168.61 18.0505C168.61 17.9874 168.674 17.9243 168.674 17.798ZM167.906 17.5456C168.034 17.6087 168.226 17.6718 168.354 17.7349C168.29 17.8611 168.29 17.9874 168.29 18.1136C168.29 18.3029 168.354 18.4923 168.418 18.6185C168.034 18.6816 167.714 18.3661 167.714 17.9874C167.714 17.798 167.778 17.6718 167.906 17.5456ZM167.202 17.23C167.33 17.2931 167.458 17.3562 167.586 17.4194C167.458 17.6087 167.394 17.798 167.394 17.9874C167.394 18.1136 167.394 18.1767 167.458 18.3029C167.202 18.2398 166.946 17.9874 166.946 17.7349C166.946 17.4825 167.01 17.2931 167.202 17.23ZM166.498 16.7251C166.626 16.7882 166.754 16.9144 166.882 16.9776C166.69 17.1669 166.562 17.4194 166.562 17.6718C166.562 17.7349 166.562 17.798 166.562 17.8611C166.306 17.798 166.114 17.5456 166.114 17.2931C166.178 17.0407 166.306 16.8513 166.498 16.7251ZM165.858 16.1571C165.922 16.2202 165.986 16.2833 166.05 16.3464C166.114 16.4095 166.178 16.4726 166.242 16.5358C165.986 16.7251 165.858 16.9776 165.794 17.23C165.602 17.1038 165.474 16.9144 165.474 16.662C165.474 16.4726 165.602 16.2833 165.858 16.1571ZM165.218 15.5259C165.346 15.6522 165.474 15.7784 165.602 15.9046C165.346 16.094 165.153 16.3464 165.153 16.662C164.961 16.5358 164.769 16.3464 164.769 16.094C164.769 15.8415 164.961 15.5891 165.218 15.5259ZM164.577 14.8948C164.705 15.021 164.833 15.1473 164.897 15.2735C164.641 15.3997 164.449 15.6522 164.385 15.9677C164.193 15.8415 164.129 15.6522 164.129 15.4628C164.193 15.2104 164.385 14.9579 164.577 14.8948ZM163.937 14.1374L164.001 14.2006C164.129 14.3268 164.257 14.453 164.385 14.5792C164.129 14.7055 163.937 14.9579 163.873 15.2735C163.681 15.1473 163.489 14.9579 163.489 14.7055C163.489 14.453 163.681 14.2637 163.937 14.1374ZM163.169 13.6325C163.297 13.6957 163.489 13.8219 163.617 13.9481C163.361 14.1374 163.169 14.3899 163.169 14.7686C162.977 14.6424 162.849 14.453 162.849 14.2006C162.849 13.9481 162.977 13.7588 163.169 13.6325Z" fill="white"/>
<path d="M145.373 13.5063C145.373 13.5063 145.437 13.5063 145.373 13.5063H145.437C145.437 13.5694 145.437 13.6957 145.437 13.7588C145.309 13.8219 145.245 13.9481 145.245 14.0743C145.245 14.2637 145.437 14.453 145.629 14.453C145.821 14.453 146.013 14.2637 146.013 14.0743C146.013 13.885 145.885 13.6957 145.629 13.6957C145.565 13.6325 145.629 13.5063 145.629 13.4432C145.885 13.4432 146.141 13.3801 146.397 13.317C146.397 13.3801 146.397 13.5063 146.397 13.5694C146.333 13.6325 146.269 13.6957 146.269 13.8219C146.269 14.0112 146.397 14.1374 146.589 14.1374C146.782 14.1374 146.91 14.0112 146.91 13.8219C146.91 13.6325 146.782 13.5063 146.589 13.5063C146.525 13.4432 146.589 13.317 146.589 13.2539C146.782 13.1907 146.974 13.1276 147.23 13.0645C147.23 13.1276 147.23 13.2539 147.23 13.317C147.166 13.3801 147.102 13.4432 147.102 13.5063C147.102 13.6325 147.23 13.7588 147.358 13.7588C147.486 13.7588 147.614 13.6325 147.614 13.5063C147.614 13.3801 147.486 13.2539 147.358 13.2539C147.294 13.1907 147.358 13.0645 147.358 13.0014C147.486 13.0014 147.55 12.9383 147.678 12.9383H147.742C147.806 13.0014 147.998 13.0645 148.19 13.0645C148.254 13.0645 148.318 13.0645 148.382 13.0645C148.702 13.0014 148.83 12.7489 148.83 12.5596H148.894C148.958 12.6227 149.086 12.6858 149.278 12.6858C149.406 12.6858 149.47 12.6858 149.598 12.6227C149.918 12.4965 149.982 12.244 149.982 12.0547V11.9916L150.046 11.9285C150.11 12.0547 150.302 12.1178 150.43 12.1178C150.558 12.1178 150.622 12.1178 150.75 12.0547C151.006 11.9285 151.134 11.676 151.07 11.4236V11.3604H151.134C151.262 11.4867 151.39 11.5498 151.582 11.5498C151.711 11.5498 151.775 11.5498 151.903 11.4867C152.159 11.3604 152.223 11.0449 152.159 10.7924V10.7293L152.223 10.6662C152.351 10.7924 152.479 10.8555 152.607 10.8555C152.735 10.8555 152.863 10.7924 152.927 10.7293C153.183 10.54 153.247 10.2244 153.119 10.0351V9.97195L153.183 9.90884C153.247 9.97195 153.375 10.0351 153.567 10.0351C153.759 10.0351 153.951 9.97195 154.079 9.84572C154.271 9.65638 154.335 9.34081 154.207 9.08836C154.143 9.08836 154.015 9.02525 153.951 9.02525C153.951 9.02525 153.887 8.96213 153.823 8.96213C153.631 9.15147 153.503 9.2777 153.375 9.40393C152.479 10.1613 151.454 10.8555 150.366 11.4236C149.534 11.8654 148.702 12.1809 147.87 12.4965C146.653 12.8752 145.693 13.0645 145.245 13.1276C145.117 13.1907 145.117 13.2539 145.117 13.2539C145.245 13.5063 145.309 13.5063 145.373 13.5063Z" fill="white"/>
<path d="M144.926 16.9776C144.926 17.23 145.118 17.4825 145.438 17.4825C145.694 17.4825 145.95 17.2931 145.95 16.9776C145.95 16.7251 145.758 16.4726 145.438 16.4726C145.374 16.4095 145.438 16.2833 145.438 16.2833C145.438 16.2202 145.438 16.1571 145.374 16.1571C145.374 16.1571 145.374 16.1571 145.31 16.1571C145.246 16.1571 145.246 16.1571 145.246 16.2202C145.246 16.2202 145.182 16.4095 145.246 16.5358C145.054 16.5989 144.926 16.7882 144.926 16.9776Z" fill="white"/>
<path d="M146.078 16.9144C146.078 17.1669 146.27 17.4194 146.59 17.4194C146.846 17.4194 147.102 17.23 147.102 16.9144C147.102 16.662 146.91 16.4095 146.59 16.4095C146.526 16.2833 146.59 16.2202 146.59 16.2202C146.59 16.1571 146.59 16.094 146.526 16.094C146.526 16.094 146.526 16.094 146.462 16.094C146.398 16.094 146.398 16.094 146.398 16.1571C146.398 16.1571 146.334 16.3464 146.398 16.4726C146.206 16.5358 146.078 16.7251 146.078 16.9144Z" fill="white"/>
<path d="M147.23 16.7882C147.23 17.0407 147.423 17.2931 147.743 17.2931C147.999 17.2931 148.255 17.1038 148.255 16.7882C148.255 16.5358 148.063 16.3464 147.871 16.3464H147.807C147.743 16.2202 147.807 16.1571 147.807 16.1571C147.807 16.094 147.807 16.0309 147.743 16.0309C147.743 16.0309 147.743 16.0309 147.679 16.0309C147.615 16.0309 147.615 16.0309 147.615 16.094C147.615 16.094 147.551 16.2833 147.615 16.4095C147.358 16.4095 147.23 16.5989 147.23 16.7882Z" fill="white"/>
<path d="M148.318 16.5989C148.318 16.8513 148.51 17.1038 148.83 17.1038C149.087 17.1038 149.343 16.9144 149.343 16.5989C149.343 16.3464 149.151 16.094 148.83 16.094C148.766 15.9677 148.83 15.9046 148.83 15.9046C148.83 15.8415 148.83 15.7784 148.766 15.7784C148.766 15.7784 148.766 15.7784 148.702 15.7784C148.638 15.7784 148.638 15.7784 148.638 15.8415C148.638 15.8415 148.574 16.0309 148.638 16.1571C148.446 16.2202 148.318 16.3464 148.318 16.5989Z" fill="white"/>
<path d="M149.854 15.9046C149.79 15.9046 149.79 15.9677 149.726 15.9677C149.598 16.0309 149.534 16.1571 149.534 16.3464C149.534 16.5989 149.726 16.8513 150.046 16.8513C150.302 16.8513 150.558 16.662 150.558 16.3464C150.558 16.1571 150.43 16.0309 150.302 15.9046H150.238H150.174H150.11C150.046 15.8415 150.11 15.7153 150.11 15.7153C150.11 15.6522 150.11 15.5891 150.046 15.5891C150.046 15.5891 150.046 15.5891 149.982 15.5891C149.918 15.5891 149.918 15.5891 149.918 15.6522C149.854 15.5891 149.79 15.7153 149.854 15.9046Z" fill="white"/>
<path d="M150.814 16.094C150.814 16.3464 151.006 16.5989 151.327 16.5989C151.583 16.5989 151.839 16.4095 151.839 16.094C151.839 15.8415 151.647 15.5891 151.327 15.5891C151.263 15.4628 151.327 15.3997 151.327 15.3997C151.327 15.3366 151.327 15.2735 151.263 15.2735C151.263 15.2735 151.263 15.2735 151.199 15.2735C151.135 15.2735 151.135 15.2735 151.135 15.3366C151.135 15.3366 151.071 15.5259 151.135 15.6522C150.942 15.7153 150.814 15.9046 150.814 16.094Z" fill="white"/>
<path d="M152.287 15.2735C152.223 15.2735 152.223 15.3366 152.159 15.3366C152.031 15.3997 151.967 15.5259 151.967 15.7153C151.967 15.9677 152.159 16.2202 152.479 16.2202C152.735 16.2202 152.991 16.0309 152.991 15.7153C152.991 15.5891 152.927 15.3997 152.799 15.3366C152.735 15.2735 152.607 15.2104 152.543 15.2104C152.479 15.1473 152.543 15.021 152.543 15.021C152.543 14.9579 152.543 14.8948 152.479 14.8948C152.479 14.8948 152.479 14.8948 152.415 14.8948C152.351 14.8948 152.351 14.8948 152.351 14.9579C152.287 14.9579 152.223 15.0842 152.287 15.2735Z" fill="white"/>
<path d="M153.184 15.3366C153.184 15.5891 153.376 15.8415 153.696 15.8415C153.952 15.8415 154.208 15.6522 154.208 15.3366C154.208 15.0842 154.016 14.8317 153.696 14.8317C153.632 14.7055 153.696 14.6424 153.696 14.6424C153.696 14.5792 153.696 14.5161 153.632 14.5161C153.632 14.5161 153.632 14.5161 153.568 14.5161C153.504 14.5161 153.504 14.5161 153.504 14.5792C153.504 14.5792 153.44 14.7686 153.504 14.8948C153.312 14.9579 153.184 15.1473 153.184 15.3366Z" fill="white"/>
<path d="M154.335 14.9579C154.335 15.2104 154.527 15.4628 154.847 15.4628C155.103 15.4628 155.359 15.2735 155.359 14.9579C155.359 14.7055 155.167 14.5161 154.911 14.5161C154.847 14.3899 154.911 14.3268 154.911 14.3268C154.911 14.2637 154.911 14.2006 154.847 14.2006C154.847 14.2006 154.847 14.2006 154.783 14.2006C154.719 14.2006 154.719 14.2006 154.719 14.2637C154.719 14.2637 154.655 14.3899 154.719 14.5792C154.463 14.6424 154.335 14.7686 154.335 14.9579Z" fill="white"/>
<path d="M155.872 14.1374C155.808 14.1374 155.808 14.2006 155.744 14.2006C155.616 14.2637 155.552 14.3899 155.552 14.5792C155.552 14.8317 155.744 15.0842 156.064 15.0842C156.32 15.0842 156.576 14.8948 156.576 14.5792C156.576 14.3899 156.448 14.2637 156.32 14.1374H156.256H156.192H156.128C156.064 14.0112 156.128 13.9481 156.128 13.9481C156.128 13.885 156.128 13.8219 156.064 13.8219C156.064 13.8219 156.064 13.8219 156 13.8219C155.936 13.8219 155.936 13.8219 155.936 13.885C155.872 13.8219 155.808 13.9481 155.872 14.1374Z" fill="white"/>
<path d="M165.281 14.1374C165.665 14.5792 166.177 15.1473 166.69 15.5891C168.034 16.8513 169.25 16.9144 169.442 16.9144C170.21 16.9144 170.85 16.5989 171.235 16.3464C171.17 16.2202 171.106 16.1571 171.106 16.0309C170.786 16.2202 170.21 16.5989 169.442 16.5989C169.314 16.5989 168.162 16.5358 166.882 15.3997C166.37 14.9579 165.857 14.3899 165.473 13.9481C165.217 13.6957 165.025 13.4432 164.833 13.317C164.385 12.8752 163.873 12.5596 163.233 12.244C163.041 12.244 162.785 12.3072 162.593 12.3703C163.169 12.5596 163.937 12.9383 164.577 13.5694C164.833 13.6325 165.025 13.885 165.281 14.1374Z" fill="white"/>
<path d="M146.142 10.0351C146.206 10.0351 146.334 10.0351 146.398 10.0351H146.462C146.526 10.0351 146.59 10.0351 146.654 10.0351C146.782 10.0351 146.846 10.0351 146.91 10.0351H146.974C147.742 9.90884 148.574 9.78261 148.894 9.21459C149.15 8.77279 149.086 8.20477 148.702 7.51052L148.638 7.44741C148.51 7.25807 148.254 6.81627 148.638 6.56382C148.83 6.43759 149.15 6.18513 149.215 6.12202C149.215 5.99579 149.15 5.68023 149.471 5.49088C149.727 5.36466 149.919 5.36466 150.047 5.36466C150.111 5.36466 150.239 5.36466 150.303 5.30154C150.367 5.23843 150.495 5.23843 150.495 5.23843C150.623 5.23843 150.623 5.30154 150.623 5.36466C150.623 5.42777 150.623 5.554 150.559 5.61711C150.559 5.61711 150.495 5.68023 150.431 5.74334C150.239 5.86957 149.663 6.31136 149.599 6.5007C149.535 6.62693 149.471 6.9425 149.535 7.06872C149.535 7.13184 149.599 7.13184 149.663 7.13184C150.367 7.06872 150.815 6.5007 150.879 6.37448C151.007 6.12202 151.071 6.05891 151.135 5.80645C151.199 5.68023 151.263 5.554 151.327 5.36466C151.391 5.30154 151.455 5.1122 151.519 4.98598C151.327 4.92286 151.135 4.92286 150.879 4.92286C150.687 4.92286 150.559 4.92286 150.495 4.92286H150.431C149.279 5.04909 148.51 6.05891 148.51 6.05891C148.318 6.37448 148.062 6.5007 147.87 6.5007C147.678 6.5007 147.55 6.37448 147.486 6.37448C147.422 6.31136 147.23 6.12202 147.486 5.61711C147.678 5.17532 147.614 4.54418 147.294 4.22861C147.102 3.97616 146.718 3.97616 146.526 3.97616C146.398 3.97616 146.334 3.97616 146.27 3.97616H146.206C146.014 4.03927 145.438 4.22861 144.798 5.04909C144.542 5.42777 144.221 5.80645 143.837 6.18513C143.645 6.43759 143.325 6.69004 143.069 6.87938C142.813 7.06872 142.557 7.25807 142.493 7.44741C142.493 7.51052 142.429 7.63675 142.365 7.69986C142.237 7.76297 142.173 7.76297 142.109 7.76297C142.045 7.76297 141.917 7.76297 141.661 7.8892C141.341 8.01543 141.213 8.26788 141.213 8.70968C141.213 8.96213 141.277 9.2777 141.469 9.59327C141.597 9.78261 141.789 9.97195 141.981 10.1613C142.109 10.2244 142.237 10.2875 142.429 10.2875C142.621 10.2875 142.877 10.2244 143.069 10.0982C143.453 9.90884 143.581 9.59327 143.645 9.46704C143.645 9.40393 143.645 9.40393 143.709 9.34081C143.773 9.2777 143.965 8.89902 144.221 8.89902C144.35 8.89902 144.478 8.96213 144.606 9.08836C144.67 9.15147 144.734 9.2777 144.67 9.34081C144.67 9.53016 144.478 9.65638 144.35 9.78261C144.35 9.78261 144.221 9.84572 144.221 9.97195C144.221 10.0351 144.221 10.0982 144.286 10.1613C144.286 10.2244 144.414 10.2875 144.606 10.2875H144.67C144.862 10.2875 145.054 10.2244 145.246 10.1613C145.438 10.0982 145.63 10.0351 145.822 10.0351C145.886 10.0351 146.014 10.0351 146.142 10.0351ZM145.182 6.56382C144.99 6.5007 144.798 6.43759 144.606 6.31136L144.542 6.24825L144.478 6.31136C144.478 6.37448 144.414 6.37448 144.414 6.43759C144.414 6.43759 144.414 6.43759 144.35 6.43759C144.35 6.43759 144.286 6.43759 144.286 6.37448C144.35 6.05891 144.414 5.74334 144.606 5.49088C144.67 5.36466 144.798 5.23843 144.926 5.1122C145.054 4.98598 145.182 4.92286 145.374 4.85975C145.502 4.79663 145.694 4.79663 145.822 4.79663H145.886C146.078 4.79663 146.206 4.85975 146.398 4.85975C146.462 4.85975 146.526 4.92286 146.59 4.92286L146.846 5.04909C146.91 5.04909 146.974 5.1122 147.038 5.1122C147.102 5.1122 147.166 5.17532 147.23 5.17532C147.23 5.17532 147.294 5.17532 147.294 5.23843V5.30154C147.23 5.30154 147.166 5.36466 147.102 5.30154C147.038 5.36466 147.038 5.42777 146.974 5.49088L146.91 5.554C146.846 5.61711 146.846 5.74334 146.782 5.80645C146.718 5.93268 146.59 6.05891 146.526 6.12202C146.398 6.18513 146.27 6.31136 146.142 6.31136C145.758 6.62693 145.438 6.62693 145.182 6.56382Z" fill="white"/>
<path d="M146.462 5.86956C146.526 5.80645 146.526 5.74334 146.59 5.68022C146.654 5.61711 146.654 5.554 146.718 5.554C146.782 5.49088 146.782 5.49088 146.846 5.42777H146.718C146.59 5.42777 146.526 5.36466 146.398 5.36466C146.27 5.36466 146.078 5.30154 145.95 5.36466C146.014 5.42777 146.014 5.49088 146.014 5.554C146.142 5.86956 145.95 6.18513 145.63 6.31136C145.566 6.31136 145.502 6.31136 145.438 6.31136C145.182 6.31136 144.99 6.18513 144.862 5.93268C144.798 5.99579 144.734 6.12202 144.67 6.18513C144.862 6.31136 145.054 6.37447 145.246 6.37447C145.502 6.37447 145.758 6.37447 145.95 6.31136C146.142 6.18513 146.27 6.05891 146.462 5.86956Z" fill="white"/>
</svg>
