<svg width="180" height="180" viewBox="0 0 180 180" fill="none" xmlns="http://www.w3.org/2000/svg">
<rect width="180" height="180" rx="20" fill="#FED955"/>
<path d="M36.4883 84.7074H40.9297V86.3715H41C41.3438 85.7933 41.8008 85.3324 42.3711 84.9886C42.9492 84.6449 43.6367 84.473 44.4336 84.473C45.2227 84.473 45.8594 84.6449 46.3438 84.9886C46.8359 85.3324 47.2539 85.8246 47.5977 86.4652H47.7148C48.1836 85.809 48.6914 85.3129 49.2383 84.9769C49.7852 84.641 50.4727 84.473 51.3008 84.473C52.1836 84.473 52.9336 84.6566 53.5508 85.0238C54.168 85.3832 54.6328 85.8988 54.9453 86.5707C55.2656 87.2426 55.4258 88.0394 55.4258 88.9613V97.0004H50.8906V89.3949C50.8906 88.9418 50.7656 88.6097 50.5156 88.3988C50.2734 88.1801 49.957 88.0707 49.5664 88.0707C49.168 88.0707 48.8438 88.1801 48.5938 88.3988C48.3438 88.6097 48.2188 88.9418 48.2188 89.3949V97.0004H43.6836V89.3949C43.6836 88.9418 43.5625 88.6097 43.3203 88.3988C43.0781 88.1801 42.7617 88.0707 42.3711 88.0707C41.9648 88.0707 41.6367 88.1801 41.3867 88.3988C41.1445 88.6097 41.0234 88.9418 41.0234 89.3949V97.0004H36.4883V84.7074ZM70.3789 93.766V96.473C69.207 97.0043 68.1992 97.2699 67.3555 97.2699C66.2695 97.2699 65.5312 96.8207 65.1406 95.9222C64.2344 96.4379 63.4688 96.7933 62.8438 96.9886C62.2266 97.1761 61.6289 97.2699 61.0508 97.2699C60.2852 97.2699 59.6094 97.141 59.0234 96.8832C58.4453 96.6176 57.9922 96.2308 57.6641 95.723C57.3438 95.2152 57.1836 94.6097 57.1836 93.9066C57.1836 92.9379 57.4766 92.1683 58.0625 91.598C58.6484 91.0277 59.3828 90.598 60.2656 90.309C61.1562 90.0199 62.3984 89.7035 63.9922 89.3597L64.8359 89.184V89.0316C64.8359 88.0707 64.1992 87.5902 62.9258 87.5902C61.8242 87.5902 60.2305 87.9574 58.1445 88.6918V85.2933C60.1836 84.7465 61.9258 84.473 63.3711 84.473C65.1211 84.473 66.4531 84.8988 67.3672 85.7504C68.2891 86.6019 68.75 87.9691 68.75 89.8519V92.4418C68.75 92.8168 68.7578 93.1136 68.7734 93.3324C68.7969 93.5433 68.8516 93.723 68.9375 93.8715C69.0312 94.0199 69.1758 94.0941 69.3711 94.0941C69.6133 94.0941 69.9258 93.9847 70.3086 93.766H70.3789ZM61.6016 93.4027C61.6016 93.7465 61.6914 94.0043 61.8711 94.1761C62.0508 94.348 62.2969 94.434 62.6094 94.434C62.8984 94.434 63.2383 94.3676 63.6289 94.2347C64.0195 94.0941 64.4219 93.9066 64.8359 93.6722V91.3754C63.9219 91.6254 63.2695 91.8207 62.8789 91.9613C62.4883 92.0941 62.1758 92.2738 61.9414 92.5004C61.7148 92.7269 61.6016 93.0277 61.6016 93.4027ZM72.1133 97.0004V84.7074H76.6484V97.0004H72.1133ZM72.0898 83.4418V80.4418H76.6719V83.4418H72.0898ZM83.9141 80.4418V92.723C83.9141 93.3011 83.9844 93.7074 84.125 93.9418C84.2734 94.1761 84.5273 94.2933 84.8867 94.2933C85.1211 94.2933 85.5156 94.2504 86.0703 94.1644V97.0004C84.8516 97.1566 83.9727 97.2347 83.4336 97.2347C82.543 97.2347 81.7969 97.0746 81.1953 96.7543C80.5938 96.4261 80.1484 95.9847 79.8594 95.4301C79.5703 94.8754 79.4258 94.2543 79.4258 93.5668V80.4418H83.9141ZM92.2578 97.2699C90.7969 97.2699 89.1016 97.0433 87.1719 96.5902V93.1332C87.9141 93.3754 88.7734 93.5941 89.75 93.7894C90.7344 93.9769 91.4922 94.0707 92.0234 94.0707C92.4062 94.0707 92.7227 94.0121 92.9727 93.8949C93.2305 93.7777 93.3594 93.598 93.3594 93.3558C93.3594 93.1527 93.2695 92.9808 93.0898 92.8402C92.918 92.6996 92.6953 92.5863 92.4219 92.5004C92.1562 92.4066 91.7656 92.2933 91.25 92.1605L90.4414 91.9379C89.7852 91.7426 89.2148 91.516 88.7305 91.2582C88.2461 91.0004 87.8438 90.641 87.5234 90.1801C87.2109 89.7191 87.0547 89.1371 87.0547 88.434C87.0547 87.0824 87.4883 86.0863 88.3555 85.4457C89.2305 84.7972 90.4531 84.473 92.0234 84.473C92.75 84.473 93.5547 84.5394 94.4375 84.6722C95.3281 84.8051 96.2188 85.0043 97.1094 85.2699V88.6683C96.1953 88.3324 95.2734 88.0472 94.3438 87.8129C93.4141 87.5707 92.7031 87.4496 92.2109 87.4496C91.8906 87.4496 91.6328 87.5043 91.4375 87.6136C91.25 87.7152 91.1562 87.8597 91.1562 88.0472C91.1562 88.2972 91.3125 88.4965 91.625 88.6449C91.9375 88.7933 92.4375 88.9613 93.125 89.1488C94.0469 89.4144 94.8086 89.6801 95.4102 89.9457C96.0195 90.2113 96.5508 90.6215 97.0039 91.1761C97.457 91.723 97.6836 92.4418 97.6836 93.3324C97.6836 94.0902 97.4961 94.766 97.1211 95.3597C96.7539 95.9457 96.1641 96.4105 95.3516 96.7543C94.5469 97.098 93.5156 97.2699 92.2578 97.2699ZM104.047 80.4418V92.723C104.047 93.3011 104.117 93.7074 104.258 93.9418C104.406 94.1761 104.66 94.2933 105.02 94.2933C105.254 94.2933 105.648 94.2504 106.203 94.1644V97.0004C104.984 97.1566 104.105 97.2347 103.566 97.2347C102.676 97.2347 101.93 97.0746 101.328 96.7543C100.727 96.4261 100.281 95.9847 99.9922 95.4301C99.7031 94.8754 99.5586 94.2543 99.5586 93.5668V80.4418H104.047ZM113.492 97.2347C112.117 97.2347 110.918 96.9769 109.895 96.4613C108.879 95.9457 108.094 95.2113 107.539 94.2582C106.984 93.2972 106.707 92.1722 106.707 90.8832C106.707 89.5941 106.984 88.4691 107.539 87.5082C108.094 86.5394 108.883 85.7933 109.906 85.2699C110.93 84.7386 112.125 84.473 113.492 84.473C114.867 84.473 116.066 84.7347 117.09 85.2582C118.113 85.7816 118.902 86.5277 119.457 87.4965C120.012 88.4574 120.289 89.5863 120.289 90.8832C120.289 92.1801 120.012 93.309 119.457 94.2699C118.902 95.223 118.113 95.9574 117.09 96.473C116.066 96.9808 114.867 97.2347 113.492 97.2347ZM113.551 93.9066C114.301 93.9066 114.875 93.641 115.273 93.1097C115.672 92.5707 115.871 91.8129 115.871 90.8363C115.871 89.8676 115.672 89.1176 115.273 88.5863C114.875 88.0551 114.301 87.7894 113.551 87.7894C112.793 87.7894 112.211 88.0551 111.805 88.5863C111.398 89.1176 111.195 89.8676 111.195 90.8363C111.195 91.8129 111.395 92.5707 111.793 93.1097C112.199 93.641 112.785 93.9066 113.551 93.9066ZM127.051 87.2035V92.723C127.051 93.309 127.121 93.7191 127.262 93.9535C127.402 94.1801 127.652 94.2933 128.012 94.2933C128.238 94.2933 128.629 94.2504 129.184 94.1644V97.0004C127.965 97.1566 127.086 97.2347 126.547 97.2347C125.656 97.2347 124.91 97.0746 124.309 96.7543C123.707 96.4261 123.262 95.9847 122.973 95.4301C122.684 94.8754 122.539 94.2543 122.539 93.5668V87.2035H120.922V84.7074H122.539V82.3636L127.051 81.4027V84.7074H129.301V87.2035H127.051ZM131.457 80.4418H135.898V86.559H136.039C136.445 85.9496 136.977 85.4496 137.633 85.059C138.297 84.6683 139.07 84.473 139.953 84.473C140.781 84.473 141.52 84.6527 142.168 85.0121C142.824 85.3715 143.336 85.8793 143.703 86.5355C144.07 87.1918 144.254 87.9457 144.254 88.7972V97.0004H139.742V89.9457C139.742 89.3363 139.566 88.8715 139.215 88.5511C138.863 88.2308 138.414 88.0707 137.867 88.0707C137.32 88.0707 136.871 88.2308 136.52 88.5511C136.168 88.8715 135.992 89.3363 135.992 89.9457V97.0004H131.457V80.4418Z" fill="#151515"/>
</svg>
