<svg width="180" height="180" viewBox="0 0 180 180" fill="none" xmlns="http://www.w3.org/2000/svg">
<rect width="180" height="180" rx="20" fill="#045FB3"/>
<path d="M99.7198 40V79.84H107.88V89.92H99.7198V92.896C99.7198 98.976 98.0878 103.552 94.8238 106.624C91.4958 109.696 87.3038 111.232 82.2478 111.232C80.8398 111.232 79.5598 111.136 78.4078 110.944C77.2558 110.816 76.1998 110.592 75.2398 110.272V100.192C76.0718 100.384 76.9998 100.544 78.0238 100.672C78.9838 100.8 79.9118 100.864 80.8078 100.864C83.1758 100.864 85.0958 100.16 86.5678 98.752C87.9758 97.408 88.6798 95.136 88.6798 91.936V89.92H76.1998V79.84H88.6798V40H99.7198Z" fill="white"/>
</svg>
