<svg width="180" height="180" viewBox="0 0 180 180" fill="none" xmlns="http://www.w3.org/2000/svg">
<rect width="180" height="180" rx="20" fill="#151515"/>
<path d="M72.936 71.184C72.936 71.616 72.784 71.984 72.48 72.288C72.176 72.592 71.808 72.744 71.376 72.744C70.944 72.744 70.576 72.592 70.272 72.288C69.968 71.984 69.816 71.616 69.816 71.184C69.816 70.752 69.968 70.384 70.272 70.08C70.576 69.776 70.944 69.624 71.376 69.624C71.808 69.624 72.176 69.776 72.48 70.08C72.784 70.384 72.936 70.752 72.936 71.184ZM64.992 77.256V87H62.784V77.256H60.576V75.24H62.784V73.536C62.784 72.96 62.88 72.432 63.072 71.952C63.28 71.472 63.56 71.064 63.912 70.728C64.264 70.376 64.68 70.104 65.16 69.912C65.656 69.72 66.192 69.624 66.768 69.624C67.568 69.624 68.224 69.76 68.736 70.032L68.136 71.976C67.752 71.784 67.32 71.688 66.84 71.688C66.296 71.688 65.848 71.88 65.496 72.264C65.16 72.632 64.992 73.128 64.992 73.752V75.24H72.48V87H70.272V77.256H64.992ZM75.3596 75.24H77.4716V76.872H77.5676C77.9036 76.296 78.4156 75.816 79.1036 75.432C79.8076 75.048 80.5356 74.856 81.2876 74.856C82.7276 74.856 83.8316 75.272 84.5996 76.104C85.3836 76.92 85.7756 78.088 85.7756 79.608V87H83.5676V79.752C83.5196 77.832 82.5516 76.872 80.6636 76.872C79.7836 76.872 79.0476 77.232 78.4556 77.952C77.8636 78.656 77.5676 79.504 77.5676 80.496V87H75.3596V75.24ZM93.6474 87.384C91.9194 87.384 90.4954 86.792 89.3754 85.608C88.2554 84.424 87.6954 82.928 87.6954 81.12C87.6954 79.328 88.2394 77.84 89.3274 76.656C90.4154 75.456 91.8074 74.856 93.5034 74.856C95.2474 74.856 96.6314 75.424 97.6554 76.56C98.6954 77.68 99.2154 79.256 99.2154 81.288L99.1914 81.528H89.9514C89.9834 82.68 90.3674 83.608 91.1034 84.312C91.8394 85.016 92.7194 85.368 93.7434 85.368C95.1514 85.368 96.2554 84.664 97.0554 83.256L99.0234 84.216C98.4954 85.208 97.7594 85.984 96.8154 86.544C95.8874 87.104 94.8314 87.384 93.6474 87.384ZM90.1194 79.704H96.8634C96.7994 78.888 96.4634 78.216 95.8554 77.688C95.2634 77.144 94.4634 76.872 93.4554 76.872C92.6234 76.872 91.9034 77.128 91.2954 77.64C90.7034 78.152 90.3114 78.84 90.1194 79.704ZM67.968 94.528L65.16 102.28H70.872L68.064 94.528H67.968ZM62.736 109H60.288L66.768 91.816H69.264L75.744 109H73.296L71.64 104.344H64.416L62.736 109ZM83.2524 107.368C84.3084 107.368 85.1964 106.968 85.9164 106.168C86.6364 105.384 86.9964 104.368 86.9964 103.12C86.9964 101.888 86.6364 100.872 85.9164 100.072C85.1964 99.272 84.3084 98.872 83.2524 98.872C82.1804 98.872 81.2844 99.272 80.5644 100.072C79.8604 100.872 79.5084 101.888 79.5084 103.12C79.5084 104.368 79.8604 105.392 80.5644 106.192C81.2844 106.976 82.1804 107.368 83.2524 107.368ZM83.6124 109.384C82.7484 109.384 81.9564 109.2 81.2364 108.832C80.5324 108.464 79.9884 107.976 79.6044 107.368H79.5084L79.6044 109V114.184H77.3964V97.24H79.5084V98.872H79.6044C79.9884 98.264 80.5324 97.776 81.2364 97.408C81.9564 97.04 82.7484 96.856 83.6124 96.856C85.1644 96.856 86.4764 97.464 87.5484 98.68C88.6524 99.912 89.2044 101.392 89.2044 103.12C89.2044 104.864 88.6524 106.344 87.5484 107.56C86.4764 108.776 85.1644 109.384 83.6124 109.384ZM96.7524 107.368C97.8084 107.368 98.6964 106.968 99.4164 106.168C100.136 105.384 100.496 104.368 100.496 103.12C100.496 101.888 100.136 100.872 99.4164 100.072C98.6964 99.272 97.8084 98.872 96.7524 98.872C95.6804 98.872 94.7844 99.272 94.0644 100.072C93.3604 100.872 93.0084 101.888 93.0084 103.12C93.0084 104.368 93.3604 105.392 94.0644 106.192C94.7844 106.976 95.6804 107.368 96.7524 107.368ZM97.1124 109.384C96.2484 109.384 95.4564 109.2 94.7364 108.832C94.0324 108.464 93.4884 107.976 93.1044 107.368H93.0084L93.1044 109V114.184H90.8964V97.24H93.0084V98.872H93.1044C93.4884 98.264 94.0324 97.776 94.7364 97.408C95.4564 97.04 96.2484 96.856 97.1124 96.856C98.6644 96.856 99.9764 97.464 101.048 98.68C102.152 99.912 102.704 101.392 102.704 103.12C102.704 104.864 102.152 106.344 101.048 107.56C99.9764 108.776 98.6644 109.384 97.1124 109.384ZM106.7 91.816V109H104.492V91.816H106.7ZM114.554 109.384C112.826 109.384 111.402 108.792 110.282 107.608C109.162 106.424 108.602 104.928 108.602 103.12C108.602 101.328 109.146 99.84 110.234 98.656C111.322 97.456 112.714 96.856 114.41 96.856C116.154 96.856 117.538 97.424 118.562 98.56C119.602 99.68 120.122 101.256 120.122 103.288L120.098 103.528H110.858C110.89 104.68 111.274 105.608 112.01 106.312C112.746 107.016 113.626 107.368 114.65 107.368C116.058 107.368 117.162 106.664 117.962 105.256L119.93 106.216C119.402 107.208 118.666 107.984 117.722 108.544C116.794 109.104 115.738 109.384 114.554 109.384ZM111.026 101.704H117.77C117.706 100.888 117.37 100.216 116.762 99.688C116.17 99.144 115.37 98.872 114.362 98.872C113.53 98.872 112.81 99.128 112.202 99.64C111.61 100.152 111.218 100.84 111.026 101.704Z" fill="white"/>
</svg>
