<svg xmlns="http://www.w3.org/2000/svg" xmlns:xlink="http://www.w3.org/1999/xlink" width="50" height="50" viewBox="0 0 50 50">
  <defs>
    <clipPath id="clip-click">
      <rect width="50" height="50"/>
    </clipPath>
  </defs>
  <g id="click" clip-path="url(#clip-click)">
    <g id="Icon_Link" data-name="Icon Link" transform="translate(3 3)">
      <path id="Path_3210" data-name="Path 3210" d="M20.64,16.661a7.133,7.133,0,0,1-2.089,6.427l-2.965,2.965A7.515,7.515,0,0,1,4.958,15.425l2.95-2.948a7.468,7.468,0,0,1,5.329-2.218,7.457,7.457,0,0,1,1.113.113L16.632,8.09A10.214,10.214,0,0,0,5.956,10.53L3.009,13.476A10.273,10.273,0,0,0,17.536,28L20.5,25.039a10.219,10.219,0,0,0,2.421-10.66Z" transform="translate(0 13.251)" fill="rgba(21,21,21,0.3)" fill-rule="evenodd"/>
      <path id="Path_3211" data-name="Path 3211" d="M20.739,0a10.2,10.2,0,0,0-7.281,3.028L10.511,5.974A10.218,10.218,0,0,0,8.09,16.633l2.281-2.283a7.453,7.453,0,0,1-.113-1.113,7.465,7.465,0,0,1,2.2-5.314l2.95-2.948A7.515,7.515,0,1,1,26.053,15.587l-2.965,2.965a7.132,7.132,0,0,1-6.427,2.089L14.38,22.921A10.219,10.219,0,0,0,25.038,20.5L28,17.538A10.273,10.273,0,0,0,20.739,0Z" transform="translate(13.252)" fill="rgba(21,21,21,0.3)" fill-rule="evenodd"/>
      <path id="Path_3212" data-name="Path 3212" d="M6.268,22.574a1.482,1.482,0,0,1-1.048-2.53L20.043,5.22a1.482,1.482,0,0,1,2.1,2.1L7.316,22.139A1.479,1.479,0,0,1,6.268,22.574Z" transform="translate(8.453 8.452)" fill="rgba(21,21,21,0.3)" fill-rule="evenodd"/>
    </g>
  </g>
</svg>
