<svg width="16" height="16" viewBox="0 0 16 16" fill="none" xmlns="http://www.w3.org/2000/svg">
<path fill-rule="evenodd" clip-rule="evenodd" d="M7.46095 10.8126C7.48078 10.945 7.50167 11.0773 7.50167 11.215C7.50167 11.9411 7.21875 12.6232 6.70596 13.136L5.63429 14.2077C5.12096 14.721 4.43938 15.0034 3.71333 15.0034C2.21567 15.0034 0.996651 13.7849 0.996651 12.2867C0.996651 11.5612 1.27957 10.8791 1.79236 10.3657L2.85867 9.29997C3.37254 8.78342 4.0568 8.49836 4.785 8.49836C4.92271 8.49836 5.05506 8.51926 5.18741 8.53908L6.01206 7.71444C5.62733 7.57887 5.21527 7.50171 4.785 7.50171C3.78942 7.50171 2.85385 7.89126 2.15298 8.59642L1.08774 9.66112C0.386336 10.3625 0 11.2949 0 12.2867C0 14.3347 1.66591 16 3.71333 16C4.70516 16 5.63751 15.6137 6.33891 14.9128L7.41058 13.8412C8.11199 13.1392 8.49833 12.2069 8.49833 11.215C8.49833 10.7848 8.42116 10.3727 8.2856 9.98798L7.46095 10.8126Z" fill="#151515" fill-opacity="0.3"/>
<path fill-rule="evenodd" clip-rule="evenodd" d="M12.2869 0C11.2914 0 10.3558 0.389551 9.65493 1.09471L8.5897 2.15941C7.88829 2.86082 7.50195 3.79317 7.50195 4.785C7.50195 5.21581 7.57911 5.62733 7.71468 6.01259L8.53933 5.18741C8.5195 5.05506 8.4986 4.92271 8.4986 4.785C8.4986 4.05948 8.78099 3.37736 9.29432 2.86403L10.3606 1.79826C10.8745 1.28171 11.5588 0.996651 12.2869 0.996651C13.7846 0.996651 15.0036 2.21567 15.0036 3.71333C15.0036 4.43938 14.7207 5.1215 14.2079 5.63429L13.1362 6.70596C12.6229 7.21929 11.9413 7.50167 11.2153 7.50167C11.0776 7.50167 10.9452 7.48078 10.8129 7.46095L9.98822 8.2856C10.373 8.42116 10.7845 8.49833 11.2153 8.49833C12.2071 8.49833 13.1395 8.11199 13.8409 7.41112L14.9125 6.33945C15.6139 5.63751 16.0003 4.70516 16.0003 3.71333C16.0003 1.66591 14.3344 0 12.2869 0Z" fill="#151515" fill-opacity="0.3"/>
<path fill-rule="evenodd" clip-rule="evenodd" d="M5.32112 11.2151C5.18395 11.2151 5.04678 11.1625 4.94229 11.0581C4.73278 10.8491 4.73278 10.5099 4.94229 10.3004L10.3006 4.94205C10.5101 4.73253 10.8488 4.73253 11.0583 4.94205C11.2678 5.15156 11.2678 5.49074 11.0583 5.69971L5.69996 11.0581C5.59547 11.1625 5.4583 11.2151 5.32112 11.2151Z" fill="#151515" fill-opacity="0.3"/>
</svg>
