<svg xmlns="http://www.w3.org/2000/svg" xmlns:xlink="http://www.w3.org/1999/xlink" width="48" height="48" viewBox="0 0 48 48">
  <defs>
    <clipPath id="clip-path">
      <rect id="Rectangle_183" data-name="Rectangle 183" width="45.086" height="45.086" transform="translate(0.547 13.581) rotate(-16.366)" fill="#fff"/>
    </clipPath>
    <clipPath id="clip-mailbox">
      <rect width="48" height="48"/>
    </clipPath>
  </defs>
  <g id="mailbox" clip-path="url(#clip-mailbox)">
    <g id="mail" transform="translate(34.994 -14.869) rotate(60)" clip-path="url(#clip-path)">
      <path id="Path_3215" data-name="Path 3215" d="M78.149,56.035c-.006.012-.014.015-.009.035A.03.03,0,0,0,78.149,56.035Z" transform="translate(-56.056 -39.849)" fill="#fff"/>
      <path id="Path_3216" data-name="Path 3216" d="M109.346,47.989l-.094.039C109.314,48.01,109.34,48,109.346,47.989Z" transform="translate(-78.534 -34.037)" fill="#fff"/>
      <path id="Path_3217" data-name="Path 3217" d="M58.6,61.324c.009,0,.009,0,.006-.013-.079.023-.185.054-.358.116Z" transform="translate(-41.686 -43.661)" fill="#fff"/>
      <path id="Path_3218" data-name="Path 3218" d="M155.734,69.729l-.047-.129A.636.636,0,0,0,155.734,69.729Z" transform="translate(-112.081 -49.649)" fill="#fff"/>
      <path id="Path_3219" data-name="Path 3219" d="M136.684,39.746a.586.586,0,0,1,.144-.064C136.758,39.7,136.7,39.721,136.684,39.746Z" transform="translate(-98.352 -28.035)" fill="#fff"/>
      <path id="Path_3220" data-name="Path 3220" d="M49.121,62.543l.159-.014C49.265,62.512,49.209,62.517,49.121,62.543Z" transform="translate(-35.092 -44.534)" fill="#fff"/>
      <path id="Path_3221" data-name="Path 3221" d="M38.226,67.739l.132-.072C38.3,67.685,38.221,67.719,38.226,67.739Z" transform="translate(-27.221 -48.253)" fill="#fff"/>
      <path id="Path_3222" data-name="Path 3222" d="M38.771,67.52c-.023.018-.041.023-.065.041A.607.607,0,0,0,38.771,67.52Z" transform="translate(-27.568 -48.147)" fill="#fff"/>
      <path id="Path_3223" data-name="Path 3223" d="M29.376,77.87a2.82,2.82,0,0,0-.165-.464Z" transform="translate(-20.708 -55.289)" fill="#fff"/>
      <path id="Path_3224" data-name="Path 3224" d="M160.583,129.556l.02-.027C160.58,129.546,160.583,129.556,160.583,129.556Z" transform="translate(-115.617 -92.945)" fill="#fff"/>
      <path id="Path_3225" data-name="Path 3225" d="M28.477,78.225l-.027-.124A.585.585,0,0,0,28.477,78.225Z" transform="translate(-20.159 -55.791)" fill="#fff"/>
      <path id="Path_3226" data-name="Path 3226" d="M58.9,58.454c.138-.084.464-.147.447-.175A1.577,1.577,0,0,0,58.9,58.454Z" transform="translate(-42.159 -41.471)" fill="#fff"/>
      <path id="Path_3227" data-name="Path 3227" d="M150.847,140.627l-.091.049A.452.452,0,0,0,150.847,140.627Z" transform="translate(-108.518 -100.963)" fill="#fff"/>
      <path id="Path_3228" data-name="Path 3228" d="M28.547,78.548l.024.146c.006-.013,0-.033.006-.046Z" transform="translate(-20.229 -56.114)" fill="#fff"/>
      <path id="Path_3229" data-name="Path 3229" d="M97.145,153.727l.194-.057A.6.6,0,0,0,97.145,153.727Z" transform="translate(-69.787 -110.386)" fill="#fff"/>
      <path id="Path_3230" data-name="Path 3230" d="M28.947,76.679l-.1-.266A2.525,2.525,0,0,0,28.947,76.679Z" transform="translate(-20.447 -54.572)" fill="#fff"/>
      <path id="Path_3231" data-name="Path 3231" d="M60.556,159.435a.278.278,0,0,0,.091-.016C60.612,159.429,60.582,159.427,60.556,159.435Z" transform="translate(-43.353 -114.539)" fill="#fff"/>
      <path id="Path_3232" data-name="Path 3232" d="M133.939,40.7a.224.224,0,0,1-.082.013C133.85,40.721,133.862,40.729,133.939,40.7Z" transform="translate(-96.308 -28.767)" fill="#fff"/>
      <path id="Path_3233" data-name="Path 3233" d="M151.226,48.29a1.893,1.893,0,0,0,.209.386A2.2,2.2,0,0,0,151.226,48.29Z" transform="translate(-108.858 -34.254)" fill="#fff"/>
      <path id="Path_3234" data-name="Path 3234" d="M139.079,34.727a.3.3,0,0,0,.1-.018A.432.432,0,0,1,139.079,34.727Z" transform="translate(-100.082 -24.442)" fill="#fff"/>
      <path id="Path_3235" data-name="Path 3235" d="M159.141,67.21Z" transform="translate(-114.571 -47.922)" fill="#fff"/>
      <path id="Path_3236" data-name="Path 3236" d="M67.172,58.076a.919.919,0,0,0,0-.153l0-.075v-.065c0-.075-.012-.138-.018-.191-.012-.105-.027-.221-.039-.327-.026-.221-.065-.45-.092-.671s-.059-.462-.1-.7-.08-.467-.121-.706-.08-.467-.121-.706-.089-.465-.136-.691-.083-.444-.127-.66-.077-.424-.118-.63a10.449,10.449,0,0,1-.389-1.357l.073-.076-.133-.419c-.015-.181.094.321.059,0l-.1-.145c.026-.04-.245-1.094,0-.4,0,0-.029-.1-.065-.253s-.088-.366-.147-.567l-.221-.818c-.1-.364-.132-.19-.224-.6,0-.088.059.135.085.095-.3-1.21-.583-1.333-.9-2.45l.044.085c-.082-.183-.2-.542-.215-.536-.044.176.112.185.168.539-.088-.007-.177-.406-.233-.368a3.9,3.9,0,0,0-.233-.629c-.089-.4-.3-.936-.345-1.24a4.563,4.563,0,0,1-.383-.749c-.041-.3.079.042-.036-.349l-.062-.047c-.112-.316-.08-.271-.05-.269-.121-.346-.162-.258-.3-.7l.132.223c-.138-.308-.177-.439-.333-.872.029,0,.091.18.138.308-.029-.264-.182-.393-.221-.524-.006.045.1.351.006.216a3.607,3.607,0,0,1-.247-.614l.132.223a3.415,3.415,0,0,1-.333-.742c.017.028.021,0,.032.012a9.517,9.517,0,0,1-.486-1.231l.044.085a3.877,3.877,0,0,1-.209-.386c.083.281.044.216.009.259-.077-.392-.306-.521-.5-1.128a.52.52,0,0,1,.156.3,1.528,1.528,0,0,1,.4.515c-.112-.218-.227-.478-.174-.429l-.1-.037c-.059-.135-.1-.243-.138-.341-.067-.035.041.3-.115,0-.168-.343-.006-.216-.056-.256-.226-.478-.156-.172-.324-.646a.737.737,0,0,1,.079.173c-.112-.349-.353-.812-.309-.956a.294.294,0,0,1,.118.173l-.017.005c.215.34-.144-.3-.027-.221-.035.043-.221-.426-.294-.644l-.021.093c-.435-.635.112-.011-.195-.7-.221-.426.059.168-.091-.082-.053-.148-.085-.258-.133-.386a3.047,3.047,0,0,0-.115-.293c-.047-.128-.118-.271-.188-.446-.032-.11-.088-.268-.135-.429l-.032-.11-.015-.05-.009-.03,0-.01,0-.01c-.038,0-.059,0-.065-.025-.211.095-.526.2-.823.3-.079.023-.147.054-.217.075a.224.224,0,0,0-.076.033.1.1,0,0,0-.05.026.5.5,0,0,0-.147.087,1.05,1.05,0,0,0,.247-.072c.112-.044.2-.08.291-.118a4.627,4.627,0,0,1,.794-.266l-.241.158-.423.157-.423.157a2.644,2.644,0,0,1-.452.155c.047,0,.076,0,.056.027a6.911,6.911,0,0,1-1.04.436c-.079-.042.194-.122.385-.189a5.373,5.373,0,0,0-.773.238c-.041-.042.306-.1.344-.166l-.5.19,0-.01c-.044.111-.385.124-.691.257A4.954,4.954,0,0,0,54.1,34.3c-.12.014-.153,0-.115-.032.194-.024.15-.044.206-.082-.244.083-.576.093-.447.011-.388.147.153,0-.076.1l-.273.08-.273.08c.073.022.27-.025,0,.1-.235.08-.35.114-.667.207.038-.033-.117-.042.115-.1a1.073,1.073,0,0,0-.467.17c.356-.061-.553.206-.276.2l-.356.061c.079-.023.079-.056.2-.08-.118-.042-.276.1-.391.137a2.374,2.374,0,0,1-.473.084,1.164,1.164,0,0,1-.432.094c-.156.057,0,.043-.044.078l-.55.15c-.038-.032-.112-.12-.036-.153-.2.092-.038.131-.358.214.156-.122-.432.061-.191-.1a4.382,4.382,0,0,0-.982.245c-.162.1.312-.048.309.007-.791.243-.788.417-1.381.547l.156-.024a2.505,2.505,0,0,0-.517.228c.077-.1-.464-.082-1.061.1-.041.056.356-.028.276.061l-.4.117c-.029,0,.012-.025.062-.051-.347.124-.694.084-.764.2l-.394,0,.156.009a4.36,4.36,0,0,1-.514.206,2.232,2.232,0,0,1-.791.178c.079.009.276.028-.038.131-.027-.123-.688.137-.694.084-.132.039-.373.066-.367.119l.006-.078c-.006.111-.476.238-.835.354.038-.164-.4.116-.591.043-.044.111-.635.219-.673.318-.273.08-.27-.008-.35-.017l-.123.069a7.4,7.4,0,0,0-.993.2l-.267.166-.118-.009c-.038.033-.273.113-.123.1l-.159.047c.018.093-.214.085-.511.216-.073.011-.065-.025,0-.055-.159.047-.1-.024-.2-.029.121-.014-.505.334-.082.242.038.032-.191.132-.356.159l-.121-.052-.159.145c-.235.08-.356.061-.55.118.191-.067.394-.29-.115-.13a3.225,3.225,0,0,0,.514-.238c-.106.031-.162.037-.006-.053-.388.147-.118.089-.508.226,0-.075-.118-.074-.473.019l.27-.025a.072.072,0,0,1-.047.036c.1-.018.129-.016.165.006-.079.023-.429.235-.511.216.426-.016-.664.315-.391.3a.871.871,0,0,1-.353.1c.309-.156-.27-.008-.241-.071-.118.056.279-.028.121.052a1.764,1.764,0,0,1-.464.082l.073-.043-.314.071c-.041.056.314-.038.041.075-.073.011-.347.124-.347.091.115-.1,0-.131.232-.221-.2.07-.814.294-.541.279l-.235.08c.156-.024.582-.105.124.062l0-.01-.306.166-.159.014c.015.017-.032.053-.156.089-.041-.01-.156.024-.156-.009-.347.124-.309.156-.347.189-.188.077-.27.09-.2.014a7.9,7.9,0,0,1-.929.295c-.344.166.082-.013-.112.109a6.011,6.011,0,0,0-1.766.671c.2.039-.147.087-.211.226.106-.1-.576.191-.094-.092a1.585,1.585,0,0,1-.15.077l-.147.087c-.235.047.479-.293.138-.215-.341.176-.5.409-.911.616.044-.078-.026-.025-.106.031s-.156.122-.129.049a1.8,1.8,0,0,1,.279-.224l-.076.033a1.787,1.787,0,0,0-.332.239c-.053.048-.056.071-.059.094s.062.047-.1.2c-.4.345-.358.214-.4.2a1.678,1.678,0,0,0-.344.363,1.024,1.024,0,0,1,.291-.282c.082-.046.123-.036.088.039a.929.929,0,0,0-.185.12,1.471,1.471,0,0,0-.188.208,2.468,2.468,0,0,0-.244.377c.276-.266.367-.348.455-.439.044-.046.091-.081.159-.145a1.312,1.312,0,0,1,.126-.092,2.053,2.053,0,0,1,.185-.12c.053-.081-.006-.151.352-.365-.185.185.038.032.106,0-.047,0,.006-.045.085-.1a2.163,2.163,0,0,0,.229-.165c.118-.024-.156.22.209.026l.018-.136c.144-.064-.026.106.262-.088-.065.073-.041.088-.053.114s-.059.061-.25.193A5.749,5.749,0,0,0,29,42.24c-.041.023-.035.043-.068.063a1.629,1.629,0,0,1,.338-.186c.27-.09-.182.13-.1.139,0,0,.1-.051.2-.092s.2-.092.2-.092.009,0,.012.007c.106-.064.206-.115.259-.1a2.546,2.546,0,0,0-.217.206s.106-.064.2-.125.2-.125.2-.125c-.032.053.388-.081.076.065,0,0,.162-.069.326-.129s.326-.128.326-.128l.082.052c.153-.067.156-.089-.035-.022.229-.067.958-.488.887-.3a12.3,12.3,0,0,1,1.308-.537c-.458.233.582-.105.076.1a2.19,2.19,0,0,0,.582-.269c.235-.047.153.064-.076.164l.267-.133-.006.013a.985.985,0,0,0,.115-.066l.118-.056c.273-.048.082.052.347-.026l.041-.088.194-.024c-.079-.009.073-.076.273-.146l0,.01.232-.09c-.223.12.223-.055.132.027.2-.06.209-.072.576-.191l-.073-.022c.473-.183.038.065.432-.061l-.041-.042c.588-.085.934-.34,1.372-.414-.235.08-.156.122-.159.112.356-.126.94-.287,1.293-.456a1.053,1.053,0,0,0,.585-.03c.273-.08.314-.1.391-.169.273-.048.773-.238.8-.18.05-.058.241-.06.382-.134l.041.01-.041-.042c.511-.019.788-.286,1.3-.328l-.076.033.2-.08c.041.01-.041.056-.044.078l.949-.257-.2.014a2.645,2.645,0,0,1,.552-.173c-.358.182.312-.081.391-.038l-.2.08c.273-.08.273-.08.241-.125.359-.116.276.028.588-.118l-.241.06c-.079-.009.076-.1.235-.145.038,0,.159-.014.038.032.279-.093.711-.187.829-.243.156-.024.121.019.038.065.591-.206.276-.07.867-.276v.033l.2-.092.312-.015-.118-.009a5.342,5.342,0,0,1,.555-.163l-.085.069a12.217,12.217,0,0,0,1.19-.317c.038,0-.038.033-.079.056.476-.205.394-.028.864-.254-.023.018.036.022.012.04l.22-.1v.065l.162-.135.159.019.079-.056c.27.04.591-.141.943-.146l-.074-.055a6.046,6.046,0,0,1,1.387-.429,13.266,13.266,0,0,0,1.525-.415v.065l.391-.2c.232-.025-.117.089-.038.1.429-.17.158-.145.661-.325.273-.048-.076.066-.191.132.473-.183,1.175-.432,1.522-.523.006-.013.021-.028,0-.023.314-.136.741-.25,1.087-.374,0,.033-.088.059-.173.095a1.934,1.934,0,0,0,.409-.142l-.115.1A5.878,5.878,0,0,1,58,34.019c-.041-.01-.044-.052.188-.142a.129.129,0,0,0,.076,0l.044-.013.018-.005a.36.36,0,0,0,.082-.046l.106-.064.026-.008c.012.007.006.02.018.028l.021.07c-.009,0-.026-.025-.041-.042l0-.01-.009,0h0c.009,0,.012.007.015.017l.009.03a.058.058,0,0,0,.029.035c.015.017.041.042.068.067l-.017.005-.018.005a.142.142,0,0,1,.024.048.042.042,0,0,0,.018.028l.006.02a.069.069,0,0,0,.021.038l.079.173c.109.241.224.468.224.468-.015.179.389.9.309.858.139.341-.089-.3.1.122.018.126.18.383.124.389l-.024-.048.127.3-.127-.17c.124.258.241.431.288.428a6.153,6.153,0,0,1,.245.735l-.044-.085c.306.684.336,1.209.639,1.72.012.04-.006.045-.041-.042l.165.431-.074-.087.336.686-.029,0c.089.236.206.539.339.86s.259.654.377.958l-.044-.085c.286.646.221.655.427,1.128-.015-.017-.018-.028-.032-.045l.159.444-.065-.09a4.31,4.31,0,0,1,.236.737,4.619,4.619,0,0,0,.28.528c.171.484.009.128.089.432.112.349.182.393.315.878l-.029,0c.074.218.142.351.242.659l-.044-.085a2.558,2.558,0,0,1,.174.559,1.205,1.205,0,0,0,.183.459c.044.216.183.622.124.618q.084.237.159.444c.05.138.092.278.133.419.091.278.174.559.274.868-.059.126.05.138.089.53l.035-.043c.112.447.206.931.3,1.439s.171,1.007.289,1.507l-.038.033.085.193c.192,1.077.4,2.466.488,3.323.032.143.074.316.112.512.021.1.041.206.053.311.006.053.012.106.021.168s.015.115.018.158l-.012-.04.012.105.009.03a.087.087,0,0,1,0,.056l-.024.051a1.187,1.187,0,0,1-.135.094c-.317.191-.643.385-.973.569.035-.043-.044-.02.026-.073a2.1,2.1,0,0,1-.529.319l.182-.064a1.274,1.274,0,0,1-.576.289l-.279.224c-.018,0-.053.016-.065.008l-.041.056-.194.024a3.126,3.126,0,0,0-.555.425c-.038,0-.323.138-.115,0,0,0-.065.041-.173.095s-.241.125-.382.2l-.561.274.182-.064c.041.042-.273.244-.464.311.211-.16-.015-.083-.124-.062-.141.107.156-.024.079.042a4.035,4.035,0,0,1-.682.386l.1-.074c-.253.15-.414.122-.664.25-.215.15-.4.195-.317.257-.332.174-.153,0-.265.045a2.094,2.094,0,0,1-.7.3c-.132.2-.938.362-.964.5l-.306.068c0,.033-.032.119-.25.226-.229.067-.194-.008-.27-.008l-.106.162c-1.29.4-2.906,1.126-4.34,1.493-.308.123-.655.247-1.017.386s-.741.25-1.111.359l.076-.033-.737.195.541-.115c-.156.057-.27.123-.429.17-.206.049-.42.1-.655.149s-.476.107-.726.17-.5.125-.755.2-.508.127-.752.21c-.617.28-.462-.006-1.061.235.05-.026.062-.051.112-.076-.332.108-.585.161-.838.246s-.511.15-.843.259c.053-.146-.441.1-.388.016l-.047.068c-.153,0-.511.052-.467.006l-.262.022-.032-.045c-.2.037-.508.095-.8.148-.147.021-.285.04-.406.054a1.107,1.107,0,0,1-.273-.018c-.485.11-1.123.221-1.793.319-.676.079-1.381.155-2.007.208a4.792,4.792,0,0,1-.826.122l-.317-.037c-.147.021-.288.063-.435.084a1.289,1.289,0,0,1-.42.036c0-.01.015-.015.032-.021-.279.027-.538-.006-.785.034a1.333,1.333,0,0,1-.35-.083c-.076-.032-.118-.074-.074-.087-.015.048-.15.011-.247-.058-.024-.015-.05-.04-.074-.055a.219.219,0,0,1-.053-.05l-.044-.052a.681.681,0,0,1-.088-.072,1.3,1.3,0,0,1-.215-.275,3.3,3.3,0,0,1-.289-.689c-.056-.158-.112-.349-.171-.549s-.13-.409-.194-.63c-.548-1.768-1.288-4.189-2.048-6.746s-1.544-5.258-2.222-7.6-1.267-4.315-1.677-5.416c-.079-.14-.221-.556-.227-.38-.094-.321-.056-.485-.121-.542.083.444-.147-.109-.094.333l-.08-.271c-.044-.052.127.366.053.311l.1.057a1.882,1.882,0,0,1,.053.442,2.018,2.018,0,0,1,.309.825l-.041-.14c.109.4.009.259.018.354l-.027-.09.047.357c-.041-.271-.218-.677-.153-.456.1.495-.009-.128.088.236.065.221,0,.173-.026.171l.109.4c-.041-.01-.071-.274-.065-.09l.177.5c-.07.119.189.544.159.8-.118-.369-.026.04-.071-.012l.245.9c.006.085-.1-.233-.056-.093a1.651,1.651,0,0,0,.118.369c0,.088.18.678.109.666.124.618.156.238.268.815-.023.083-.133-.452-.1-.188l.174.592a.644.644,0,0,1-.144-.328c.377,1.612.408,2.529.879,3.971.006.216-.071-.143-.147-.273.362,1.038.322,1.519.584,2.412l.041.01c.245,1.291.758,2.775,1.138,4.2l-.024-.178c.091.18.194.5.28.724-.006.045-.129-.147.009.259-.015-.083-.05-.269-.018-.224.136.625.4,1.571.719,2.612.162.519.321,1.061.489,1.6.08.271.156.532.259.818a4.881,4.881,0,0,0,.371.872,2.967,2.967,0,0,0,.415.565,2.746,2.746,0,0,0,.553.448,2.78,2.78,0,0,0,.6.272,4.364,4.364,0,0,0,.585.134,6.009,6.009,0,0,0,1.073.034c.17-.006.329-.02.5-.037l.488-.034c.647-.048,1.3-.086,1.925-.162s1.264-.131,1.866-.232c-.367.054-.232-.074.05-.091a17.286,17.286,0,0,0,2.116-.229c.35-.081.688-.137,1.026-.192l.5-.082c.165-.026.326-.063.491-.089.326-.063.644-.124.967-.2l.241-.06.238-.07c.159-.047.314-.1.47-.16l.041.042a2.25,2.25,0,0,0,.441-.13l-.006.013c.244-.05.5-.115.741-.185a5.228,5.228,0,0,1,.585-.161v-.066c.282-.083.156.009.438-.107v.033l.32-.148c0,.055.2.006.432-.062a3.8,3.8,0,0,1,.6-.166c.356-.126,1.028-.378,1.578-.529a10.13,10.13,0,0,0,1.217-.325c.209-.072.432-.16.676-.242s.491-.188.758-.288c.526-.2,1.081-.394,1.593-.61l-.044-.052.265-.11c0,.01.041.01,0,.032.235-.014.608-.277.846-.314-.156-.009-.191.067-.347.124-.232.057-.044-.085.264-.176l-.006.013.185-.12c.041.042.235-.014.276.028.438-.2.8-.387,1.155-.568.182-.1.367-.184.561-.274s.394-.192.62-.3c-.067.1.635-.317.5-.135.517-.293-.123-.029.088-.222.153-.067.294-.173.338-.154-.059.061.144,0,.029.068,0,0,.091-.049.176-.084s.173-.095.173-.095c.035-.01-.035.043-.076.066.687-.431,1.3-.589,1.913-.987.029-.063-.258.13-.229.067.605-.417.6-.251,1.167-.626l-.1.117a1.879,1.879,0,0,1,.573-.365c.082.019-.25.193-.391.3.215-.117.761-.441.564-.394a2.569,2.569,0,0,1,.511-.248c-.006-.02-.256.108-.118-.009.362-.172.9-.493,1.331-.751.006.02.044.02.015.05.076-.066.156-.122.226-.175a2.582,2.582,0,0,0,.25-.193,1.053,1.053,0,0,0,.25-.291A.945.945,0,0,0,67.172,58.076Z" transform="translate(-18.412 -22.665)" fill="#fff"/>
      <path id="Path_3237" data-name="Path 3237" d="M133.255,36.451l.185-.054c0-.01,0-.033.082-.079Z" transform="translate(-95.875 -25.605)" fill="#fff"/>
      <path id="Path_3238" data-name="Path 3238" d="M155.521,58.342c.018.028.024.048.041.076C155.544,58.357,155.533,58.35,155.521,58.342Z" transform="translate(-111.961 -41.516)" fill="#fff"/>
      <path id="Path_3239" data-name="Path 3239" d="M159.066,66.727c-.08-.174-.032-.012-.014.081C159.072,66.813,159.078,66.8,159.066,66.727Z" transform="translate(-114.489 -47.518)" fill="#fff"/>
      <path id="Path_3240" data-name="Path 3240" d="M115.255,42.874c.032-.02.05-.026.035-.043C115.249,42.854,115.243,42.867,115.255,42.874Z" transform="translate(-82.866 -30.31)" fill="#fff"/>
      <path id="Path_3241" data-name="Path 3241" d="M64.5,57.161a.1.1,0,0,1,.056-.005C64.548,57.148,64.53,57.154,64.5,57.161Z" transform="translate(-46.206 -40.656)" fill="#fff"/>
      <path id="Path_3242" data-name="Path 3242" d="M67.386,56.506a1.094,1.094,0,0,0,.156-.057A.784.784,0,0,0,67.386,56.506Z" transform="translate(-48.288 -40.148)" fill="#fff"/>
      <path id="Path_3243" data-name="Path 3243" d="M127.438,39.045a.71.71,0,0,0,.144-.064A.4.4,0,0,0,127.438,39.045Z" transform="translate(-91.672 -27.529)" fill="#fff"/>
      <path id="Path_3244" data-name="Path 3244" d="M68.539,56.087l.2-.047,0-.01Z" transform="translate(-49.121 -39.846)" fill="#fff"/>
      <path id="Path_3245" data-name="Path 3245" d="M63.6,57.22l.247-.072A1.046,1.046,0,0,0,63.6,57.22Z" transform="translate(-45.555 -40.653)" fill="#fff"/>
      <path id="Path_3246" data-name="Path 3246" d="M96.727,48.36l.018-.005C96.9,48.288,96.8,48.327,96.727,48.36Z" transform="translate(-69.485 -34.275)" fill="#fff"/>
      <path id="Path_3247" data-name="Path 3247" d="M71.512,54.857l.026-.008.047-.036Z" transform="translate(-51.268 -38.967)" fill="#fff"/>
      <path id="Path_3248" data-name="Path 3248" d="M60.481,58.169a.3.3,0,0,0,.094-.039.579.579,0,0,1-.118.024Z" transform="translate(-43.282 -41.363)" fill="#fff"/>
      <path id="Path_3249" data-name="Path 3249" d="M85.829,51.069c-.047.036-.068.064-.065.074C85.835,51.122,85.867,51.1,85.829,51.069Z" transform="translate(-61.565 -36.262)" fill="#fff"/>
      <path id="Path_3250" data-name="Path 3250" d="M154.722,55.505c.009,0,.02,0,.029,0A.031.031,0,0,0,154.722,55.505Z" transform="translate(-111.383 -39.465)" fill="#fff"/>
      <path id="Path_3251" data-name="Path 3251" d="M148.787,37.653l.036.055C148.8,37.671,148.8,37.661,148.787,37.653Z" transform="translate(-107.096 -26.57)" fill="#fff"/>
      <path id="Path_3252" data-name="Path 3252" d="M158.391,66.155c0-.01-.011-.008,0,0l.059.2Z" transform="translate(-114.03 -47.156)" fill="#fff"/>
      <path id="Path_3253" data-name="Path 3253" d="M133.909,35.382a.156.156,0,0,1-.064.041C133.88,35.412,133.907,35.4,133.909,35.382Z" transform="translate(-96.301 -24.928)" fill="#fff"/>
      <path id="Path_3254" data-name="Path 3254" d="M158.664,72.156v-.1A.15.15,0,0,0,158.664,72.156Z" transform="translate(-114.225 -51.424)" fill="#fff"/>
      <path id="Path_3255" data-name="Path 3255" d="M163.1,82.942h0C163.1,82.919,163.1,82.929,163.1,82.942Z" transform="translate(-117.435 -59.278)" fill="#fff"/>
      <path id="Path_3256" data-name="Path 3256" d="M161.94,78.378c-.017-.028-.024-.048-.041-.076C161.911,78.343,161.923,78.383,161.94,78.378Z" transform="translate(-116.568 -55.936)" fill="#fff"/>
      <path id="Path_3257" data-name="Path 3257" d="M161.792,78.176c0,.01.017.027.02.037C161.806,78.194,161.8,78.174,161.792,78.176Z" transform="translate(-116.491 -55.845)" fill="#fff"/>
      <path id="Path_3258" data-name="Path 3258" d="M36.173,114.4a1.1,1.1,0,0,0,.1.233Z" transform="translate(-25.738 -82.016)" fill="#fff"/>
      <path id="Path_3259" data-name="Path 3259" d="M83.516,50.669l.011-.025C83.513,50.659,83.513,50.659,83.516,50.669Z" transform="translate(-59.94 -35.955)" fill="#fff"/>
      <path id="Path_3260" data-name="Path 3260" d="M37.362,114.564l.009.063C37.365,114.607,37.368,114.584,37.362,114.564Z" transform="translate(-26.597 -82.133)" fill="#fff"/>
      <path id="Path_3261" data-name="Path 3261" d="M155.987,66.22c-.059-.07-.089-.268-.121-.248C155.91,66.057,155.931,66.193,155.987,66.22Z" transform="translate(-112.21 -47.027)" fill="#fff"/>
      <path id="Path_3262" data-name="Path 3262" d="M37.3,114.374l-.012-.073-.012.025C37.278,114.337,37.293,114.354,37.3,114.374Z" transform="translate(-26.534 -81.943)" fill="#fff"/>
      <path id="Path_3263" data-name="Path 3263" d="M52.009,61.249c.009,0,.017-.005.014-.015Z" transform="translate(-37.178 -43.605)" fill="#fff"/>
      <path id="Path_3264" data-name="Path 3264" d="M50.253,61.519c.032-.02.059-.028.091-.049A.445.445,0,0,0,50.253,61.519Z" transform="translate(-35.91 -43.776)" fill="#fff"/>
      <path id="Path_3265" data-name="Path 3265" d="M36.556,115.233l.059.136A.706.706,0,0,0,36.556,115.233Z" transform="translate(-26.014 -82.617)" fill="#fff"/>
      <path id="Path_3266" data-name="Path 3266" d="M32.391,68.086c.018-.005.035-.01.041-.023A.089.089,0,0,1,32.391,68.086Z" transform="translate(-23.006 -48.539)" fill="#fff"/>
      <path id="Path_3267" data-name="Path 3267" d="M135.4,35.037a.347.347,0,0,0,.047,0C135.445,35.024,135.433,35.016,135.4,35.037Z" transform="translate(-97.425 -24.67)" fill="#fff"/>
      <path id="Path_3268" data-name="Path 3268" d="M124.086,42.108a.3.3,0,0,0-.17.1A.354.354,0,0,0,124.086,42.108Z" transform="translate(-89.128 -29.788)" fill="#fff"/>
      <path id="Path_3269" data-name="Path 3269" d="M133.2,39.82c-.021,0-.038,0-.059,0A.091.091,0,0,0,133.2,39.82Z" transform="translate(-95.791 -28.131)" fill="#fff"/>
      <path id="Path_3270" data-name="Path 3270" d="M44.022,38.918c.694-.247,1.572-.614,2.269-.819a1.746,1.746,0,0,1,.558-.284l.056.093.173-.095c.088.007-.135.061.009.063l.05-.091c.029.035.479-.13.194.041l.717-.232c.158-.047.062-.116.244-.148.044.02-.056.038-.026.073.547-.1.546-.389,1.052-.494l-.041.023c.07-.053.238-.1.235-.113-.091-.082-.07.086-.238.07-.017-.093.17-.1.141-.172.124,0,.179-.074.273-.113.191,0,.417-.112.567-.09a.8.8,0,0,1,.318-.224c.153.031-.006.078.176.046l.012-.058c.144-.031.129-.016.127.006.159-.047.1-.106.306-.133l-.091.081a2.537,2.537,0,0,1,.394-.127c.009.03-.079.056-.135.062.126.039.173-.095.238-.1-.024-.015-.168.017-.112-.054.1-.018.191-.132.279-.093l-.091.081c.191-.1.088-.091.329-.151-.009,0,0,.023,0,.033.129-.114.341-.111.561-.176l-.041.023c.082-.046.124-.1.167-.115-.132.006-.1-.014-.132-.059.191.031.226-.175.514-.206.009.03-.053.081-.132.072-.062.116-.059.192-.205.278.1-.051.211-.095.2-.06l.012-.091.159-.047c.012-.058-.147-.044-.018-.126.159-.079.112.054.127.006.211-.095.062-.116.291-.151a.116.116,0,0,1-.077.033c.168-.016.373-.131.456-.047-.021.028-.012.058-.076.066l0-.01c-.147.119.135-.062.109.044-.024-.048.191-.1.3-.121l-.053-.05c.273-.276.018.126.335,0,.191-.1-.085,0,.026-.073a1.225,1.225,0,0,0,.406-.086c.059,0,.191,0,.22.066.115-.066.388-.081.429-.17-.226.012-.191.132-.461.125l.053-.081a4.71,4.71,0,0,1,.508-.16c-.029,0-.044-.02-.029-.035a2.174,2.174,0,0,1,.526-.231c.053.05-.091.081-.194.122.165.006.159-.047.4-.1.024.048-.159.047-.17.1l.258-.1,0,.01c.009-.1.206-.05.356-.126.379-.111.406-.25.588-.38.059,0,.082.019.074.055-.109-.012-.082.013-.1.041.129-.049.306,0,.247.058.194-.09-.082-.019.032-.086l.282-.083c-.047-.03-.147-.011-.018-.093a1.942,1.942,0,0,1,.335-.1c-.012.025.065.057-.044.078a.283.283,0,0,0,.214-.085c-.076,0-.017-.028.041-.056s.129-.049.073-.076a.388.388,0,0,0,.079.009.661.661,0,0,1,.074.022c-.029,0-.029.03-.079.023.047.062.109-.021.156-.024a.285.285,0,0,1,.077.032.162.162,0,0,1,.053.05c.038,0,.1.057.085.095.044.02.029-.03.047-.036l.059.07c.015.017.024.048.038.065a.119.119,0,0,0,.021.038c-.021.028-.1.094-.123.069a.108.108,0,0,0,.085.029c.021,0,.053.017.074.087-.047-.03-.041.023-.035.076s.012.106-.053.048a.7.7,0,0,0,.056.256,2.822,2.822,0,0,0,.115.293c.082.085-.035-.186.021-.191.177.439.333.415.424.758l-.018-.093a.978.978,0,0,0,.177.275c-.085-.029-.076.295.059.626.044.02-.015-.214.062-.182l.094.223c.006.02-.021,0-.038-.032.094.19.062.407.147.436l-.014.244.009-.1c.044.02.135.233.159.28a.885.885,0,0,1,.133.452c.015-.048.035-.174.106,0-.1.041.106.394.053.41.029.068.044.216.088.2l-.065.008c.091-.016.188.25.277.453-.135,0,.094.223.018.354.1,0,.162.356.25.363.065.155-.017.169-.032.217l.056.06a4.525,4.525,0,0,0,.13.572l.127.137-.009.068c.024.015.091.148.082.052l.026.09c.079-.023.062.113.168.278,0,.043-.018.038-.044.013.035.088-.021.061-.029.129,0-.075.25.265.206.016.029-.03.1.1.115.2l-.053.081.109.077a1.174,1.174,0,0,1,.065.319c-.041-.108-.221-.2-.117.089a1.293,1.293,0,0,0-.18-.285c.017.06.026.09-.044.013.1.22.074.055.159.28-.065.008-.062.084-.012.287l-.009-.161c.012.007.024.015.026.025-.018-.06-.012-.073.009-.1.012.04.173.232.15.283.017-.267.221.36.22.2.024.015.089.17.059.2-.118-.173-.017.169-.071.151.047.062-.009-.161.053-.081a.722.722,0,0,1,.041.271l-.032-.045.035.186c.044.02-.006-.184.068-.031,0,.043.077.2.05.2-.074-.055-.109.021-.168-.114.041.108.185.469.191.293l.05.138c-.009-.1-.044-.347.062-.083l-.009,0,.118.173v.1c.017-.005.041.01.065.09-.012.025.009.1-.021.093.077.2.1.168.132.19.041.108.047.161,0,.121a3.86,3.86,0,0,1,.159.542c.106.2,0-.043.082.052a2.969,2.969,0,0,0,.342,1.033c.059-.126.044.085.15.119-.056-.06.044.347-.088.059l.08.173c-.006.143-.15-.283-.153-.064.077.2.23.292.283.538-.094-.06.088.17-.006.143a.622.622,0,0,1-.088-.17l0,.043c.142.449.124.095.253.307.106.263.021.234,0,.262a.724.724,0,0,0,.109.24c-.1-.145-.065-.319,0-.262-.032.151.138.406.194.466-.065-.417-.1-.266-.138-.668-.041-.042-.106,0-.156-.238.085.128.032-.02.029-.063-.021.061-.071-.143-.109-.208.009-.068.141.089.076-.131l-.106,0c-.018-.093.079.009-.009-.161.082.085.067-.063.168.18-.03-.329-.206-.441-.327-.656.015.017.024.015.041.042a.75.75,0,0,1-.106-.2c-.038-.163.088.1.094.06l-.115-.163c0-.01,0-.01.006-.013-.036-.055-.065-.123-.053-.148.056.06.1.08.141.122l-.156-.238c.044.02-.021-.234.068-.063l-.15-.381.05-.058c-.044-.085-.053-.083-.021.028-.029-.133-.321-.538-.171-.517a7.792,7.792,0,0,1-.344-.749c.162.258-.044-.347.088-.059-.035-.186-.115-.2-.182-.328-.021-.136.064-.106.132.027l-.091-.148.009,0-.085-.128c-.018-.158.05-.058,0-.219l-.07-.012-.006-.118c-.015.048-.059-.037-.1-.145l.009,0-.059-.135c.082.118-.038-.13.032-.086-.044-.118-.044-.118-.124-.323l-.024.05c-.135-.265.047-.036-.027-.254l-.038.033c-.044-.347-.241-.529-.277-.78.059.135.1.08.082.085a5.8,5.8,0,0,0-.327-.722c.038-.1.05-.124-.009-.357-.065-.155-.079-.173-.129-.213-.03-.166-.174-.429-.127-.464-.053-.017-.041-.14-.1-.21l.012-.025-.038.033c0-.3-.224-.436-.236-.737l.032.045-.062-.113c.012-.025.044.02.07.012l-.186-.534.006.118a1.266,1.266,0,0,1-.139-.308c.141.187-.062-.178-.021-.234l.059.1c-.065-.155-.065-.155-.1-.122-.085-.193.035-.174-.08-.336l.05.138c-.015.048-.085-.029-.112-.12,0-.023-.009-.1.029-.03-.074-.153-.138-.406-.185-.469-.018-.093.026-.073.047-.036-.162-.323-.047-.161-.209-.484l.026-.008-.07-.11-.006-.184-.009.068a1.81,1.81,0,0,1-.121-.313l.059.037a5.913,5.913,0,0,0-.236-.672c0-.023.026.025.041.042-.162-.258-.012-.236-.183-.491.024.015.021-.028.032-.02l-.074-.12.056-.005-.121-.084a.459.459,0,0,0,0-.055.5.5,0,0,1,0-.055l-.053-.05a.537.537,0,0,0-.118-.336c-.085-.128-.188-.25-.285-.385a6.643,6.643,0,0,0,.006.085,1.8,1.8,0,0,0-.532-.214c-.041-.01-.1-.014-.141-.024s-.088-.007-.129-.017c-.088-.007-.173,0-.25,0a2.449,2.449,0,0,0-.462.059,1.733,1.733,0,0,0-.385.124l-.009-.063-.191.132c-.129-.017.056-.071.012-.091-.22.1-.07.119-.323.2-.144,0,.032-.053.088-.091a3.723,3.723,0,0,1-.776.261c0,.01-.012.025,0,.023a5.448,5.448,0,0,1-.561.176c-.009-.03.044-.046.085-.069a.523.523,0,0,0-.209.072l.056-.071c-.144.031-.394.159-.447.109.024.015.03.068-.088.091-.1-.07-.314.136-.523.143.021-.028.159-.079.115-.066a.49.49,0,0,0-.25.128l.015-.048-.435.182c-.1-.07-.417.144-.411.066-.159.047.144,0-.056.071-.065-.025-.179.074-.188.012l.015-.015-.138.051.071-.086c-.12.046-.191.132-.188.175-.124,0-.282.083-.35.048l.041-.023c-.317.126-.582.007-.808.183-.021,0-.024-.015.021-.028l-.2.06.032-.053-.306.166-.009-.03c-.223.055-.561.176-.837.279l.041-.023c-.294.141-.306.068-.517.163a.032.032,0,0,1,.024-.018l-.2.06.035-.043c-.132.1-.452.057-.341.078a1.141,1.141,0,0,0-.226.175c-.217.075-.065-.025-.211,0a2.312,2.312,0,0,1-.4.149L49,35.614c-.094.039-.159.079-.3.131l.041-.023c-.208.138-.314.005-.452.187-.1.008-.282.083-.291.02-.27.123-.491.22-.764.333-.07-.077-.059.028-.25.03l.032.045c-.4.139-.894.153-1.326.313l-.032-.045-.07.086c-.479.13-1.1.3-1.475.422a1.5,1.5,0,0,1-.488.23l.015-.015a6.636,6.636,0,0,1-1.07.369c.021-.028-.029-.035.012-.058-.07.086-.217.075-.3.1l.109.012a.391.391,0,0,1-.326.063l-.15.109a.067.067,0,0,1-.041-.01l-.018.038-.106-.034c-.038.033-.253.118-.3.209-.024-.015-.185.022-.068-.035l-.617.181.1-.008c.032.045-.141.139-.244.148.109-.086-.012-.073-.076-.1-.07.053.082.019.047.062a.957.957,0,0,1-.376.154l.056-.038c-.135.062-.229,0-.367.053-.109.086-.217.075-.164.157-.179.074-.088-.039-.15-.021a.552.552,0,0,1-.385.091c-.059.159-.5.115-.505.236l-.168-.016c.009.03-.009.1-.117.154-.123,0-.112-.054-.156-.074l-.038.131c-.688.1-1.528.471-2.278.625a9.66,9.66,0,0,1-1.081.427l.038-.033-.382.1.285-.04a.887.887,0,0,1-.209.1,7.6,7.6,0,0,0-1.466.452c-.285.236-.25-.036-.535.168.024-.018.026-.04.05-.058a9.008,9.008,0,0,0-.8.432c0-.131-.217.075-.209.007l-.012.058c-.088-.007-.265.045-.25,0l-.129.114-.032-.045c-.2.07-.605.254-.741.185a12.509,12.509,0,0,1-1.848.685,1.213,1.213,0,0,1-.385.189l-.165-.006c-.132.072-.259.2-.4.2,0-.01.006-.013.012-.025a1.493,1.493,0,0,0-.4.182c-.156.057-.323.073-.3,0,.009.03-.015.048-.05.058l-.071.021-.115.034a1.25,1.25,0,0,0-.206.082.7.7,0,0,1-.094.039,1.643,1.643,0,0,0-.147.119,1.181,1.181,0,0,0-.3.448,1.624,1.624,0,0,0-.079.906c.035.219.059.3.08.4s.044.216.068.329c.195.924.478,2.182.782,3.509a48.661,48.661,0,0,0,1.878,6.687c.059.07.138.276.179.187.056.158-.012.254.044.281-.021-.234.129.049.138-.182l.041.14c.035.022-.082-.183-.018-.158l-.094-.027a.541.541,0,0,1,.009-.231c-.059-.1-.185-.142-.2-.411l.021.07c-.053-.213.026-.138.032-.184l.015.05,0-.186c0,.141.121.346.088.236-.035-.251-.009.068-.062-.113-.032-.11.021-.093.05-.091l-.05-.2c.038,0,.032.143.053.05l-.1-.253c.085-.069-.109-.273-.044-.412.065.188.032-.021.068,0l-.115-.457c.006-.045.062.113.032.045.012-.09-.059-.135-.065-.188.015-.048-.083-.346-.015-.344-.027-.319-.112-.12-.141-.416.035-.043.068.231.074.087l-.088-.3a.2.2,0,0,1,.094.158,16.1,16.1,0,0,0-.251-2.063c.023-.116.05.073.1.135a9.379,9.379,0,0,1-.186-1.253H28.31a19.607,19.607,0,0,0-.4-2.172l-.012.091a1.813,1.813,0,0,1-.147-.371c.012-.025.106.067.035-.141-.006.045,0,.141-.023.116a11.125,11.125,0,0,0-.227-1.361c-.059-.266-.115-.555-.177-.831-.03-.133-.065-.319-.056-.289a.1.1,0,0,1,.021-.061.063.063,0,0,1,.041-.056l.018-.005.059-.028c.079-.023.147-.054.226-.077.306-.1.62-.2.923-.315.62-.2,1.231-.405,1.807-.629-.173.062-.135-.069,0-.088.426.049.626-.249,1.034-.26a15.669,15.669,0,0,0,1.9-.71l.032.045c.1-.008.118-.056.212-.095l0,.01c.241-.06.5-.213.649-.234L34.221,42c.138-.051.082.019.22-.065l.009.03.15-.109c.021.1.394-.127.52-.12a5.806,5.806,0,0,1,.779-.316,2.905,2.905,0,0,0,.623-.128c.414-.154,1-.371,1.54-.529l-.029-.068.138-.051c0,.01.024.015.009.03.135.037.314-.136.435-.117-.088-.039-.1.018-.176.052-.123,0-.035-.088.129-.114l0,.01.094-.071c.032.045.135.037.159.084.45-.165.738-.358,1.217-.488-.026.073.335-.131.27.008.267-.133-.076-.065.035-.174.079-.023.15-.077.176-.052-.026.04.088.039.021.07l.191-.067c.021,0-.021.028-.035.043.367-.184.7-.162,1.031-.336.015-.048-.144.031-.126-.006.329-.184.323-.04.632-.2l-.056.071a.48.48,0,0,1,.311-.146c.053.05-.135.094-.206.148.123-.036.414-.154.3-.176a.676.676,0,0,1,.285-.04c0-.01-.141.009-.071-.045a5.942,5.942,0,0,0,.738-.195c0,.01.029.035,0,.043C43.754,38.887,43.775,39.023,44.022,38.918Z" transform="translate(-18.32 -23.225)" fill="#fff"/>
      <path id="Path_3271" data-name="Path 3271" d="M136,38.948l-.1.018c0,.01.009.03-.041.056Z" transform="translate(-97.755 -27.505)" fill="#fff"/>
      <path id="Path_3272" data-name="Path 3272" d="M119.878,43.808a.066.066,0,0,0-.029.03C119.872,43.82,119.872,43.82,119.878,43.808Z" transform="translate(-86.19 -31.016)" fill="#fff"/>
      <path id="Path_3273" data-name="Path 3273" d="M115.981,45.329c.077-.033,0-.033-.038-.033C115.946,45.307,115.949,45.317,115.981,45.329Z" transform="translate(-83.368 -32.092)" fill="#fff"/>
      <path id="Path_3274" data-name="Path 3274" d="M144.671,36.412a.031.031,0,0,0-.023.018C144.665,36.425,144.665,36.425,144.671,36.412Z" transform="translate(-104.106 -25.673)" fill="#fff"/>
      <path id="Path_3275" data-name="Path 3275" d="M155.119,63.632a.042.042,0,0,1,0-.032A.092.092,0,0,1,155.119,63.632Z" transform="translate(-111.668 -45.314)" fill="#fff"/>
      <path id="Path_3276" data-name="Path 3276" d="M154.719,61.775a.6.6,0,0,0-.044-.086A.744.744,0,0,0,154.719,61.775Z" transform="translate(-111.35 -43.934)" fill="#fff"/>
      <path id="Path_3277" data-name="Path 3277" d="M139.131,37.537a.157.157,0,0,0-.065.041A.129.129,0,0,0,139.131,37.537Z" transform="translate(-100.073 -26.486)" fill="#fff"/>
      <path id="Path_3278" data-name="Path 3278" d="M154.443,61.089l-.033-.111-.009,0Z" transform="translate(-111.152 -43.421)" fill="#fff"/>
      <path id="Path_3279" data-name="Path 3279" d="M155.2,63.848a.808.808,0,0,1-.041-.141A.28.28,0,0,0,155.2,63.848Z" transform="translate(-111.7 -45.392)" fill="#fff"/>
      <path id="Path_3280" data-name="Path 3280" d="M148.763,45.278l0-.01C148.7,45.188,148.734,45.243,148.763,45.278Z" transform="translate(-107.052 -32.041)" fill="#fff"/>
      <path id="Path_3281" data-name="Path 3281" d="M153.5,59.616l-.006-.02-.026-.025Z" transform="translate(-110.478 -42.404)" fill="#fff"/>
      <path id="Path_3282" data-name="Path 3282" d="M155.793,65.826c-.006-.02-.021-.038-.026-.058l.018.061Z" transform="translate(-112.138 -46.881)" fill="#fff"/>
      <path id="Path_3283" data-name="Path 3283" d="M150.756,51.491c.027.025.047.03.056.027C150.8,51.478,150.785,51.46,150.756,51.491Z" transform="translate(-108.518 -36.555)" fill="#fff"/>
      <path id="Path_3284" data-name="Path 3284" d="M153.367,50.338c.006,0,.01,0,.021.007A.026.026,0,0,1,153.367,50.338Z" transform="translate(-110.405 -35.734)" fill="#fff"/>
      <path id="Path_3285" data-name="Path 3285" d="M148.782,56.97l.022-.019C148.792,56.968,148.792,56.968,148.782,56.97Z" transform="translate(-107.092 -40.511)" fill="#fff"/>
      <path id="Path_3286" data-name="Path 3286" d="M156.3,45.987h0a.44.44,0,0,1,.061-.1Z" transform="translate(-112.515 -32.52)" fill="#fff"/>
      <path id="Path_3287" data-name="Path 3287" d="M138.749,70.958l.016-.023C138.763,70.951,138.759,70.957,138.749,70.958Z" transform="translate(-99.844 -50.614)" fill="#fff"/>
      <path id="Path_3288" data-name="Path 3288" d="M144.578,62.7a.053.053,0,0,0-.032.02C144.558,62.7,144.566,62.691,144.578,62.7Z" transform="translate(-104.032 -44.662)" fill="#fff"/>
      <path id="Path_3289" data-name="Path 3289" d="M154.6,44.53l.041,0A.038.038,0,0,1,154.6,44.53Z" transform="translate(-111.292 -31.538)" fill="#fff"/>
      <path id="Path_3290" data-name="Path 3290" d="M153.273,41.781c.007.014.009.024.016.037C153.282,41.8,153.269,41.787,153.273,41.781Z" transform="translate(-110.336 -29.552)" fill="#fff"/>
      <path id="Path_3291" data-name="Path 3291" d="M153.361,41.946a.023.023,0,0,1-.007-.014C153.36,41.936,153.365,41.94,153.361,41.946Z" transform="translate(-110.395 -29.661)" fill="#fff"/>
      <path id="Path_3292" data-name="Path 3292" d="M98.129,108.643a.262.262,0,0,1-.052-.1Z" transform="translate(-70.46 -77.784)" fill="#fff"/>
      <path id="Path_3293" data-name="Path 3293" d="M129.446,83.524l.015,0A.021.021,0,0,1,129.446,83.524Z" transform="translate(-93.123 -59.709)" fill="#fff"/>
      <path id="Path_3294" data-name="Path 3294" d="M154.448,45.684c-.04.006-.033.046-.051.034C154.415,45.705,154.406,45.681,154.448,45.684Z" transform="translate(-111.149 -32.371)" fill="#fff"/>
      <path id="Path_3295" data-name="Path 3295" d="M124.556,84.019l-.016.023C124.543,84.026,124.552,84.025,124.556,84.019Z" transform="translate(-89.579 -60.066)" fill="#fff"/>
      <path id="Path_3296" data-name="Path 3296" d="M98.71,108.15l.028.02c0,.006-.01,0-.019,0S98.711,108.16,98.71,108.15Z" transform="translate(-70.917 -77.5)" fill="#fff"/>
      <path id="Path_3297" data-name="Path 3297" d="M119.806,96.565c0-.006,0-.006.01,0Z" transform="translate(-86.158 -69.127)" fill="#fff"/>
      <path id="Path_3298" data-name="Path 3298" d="M119.4,97.264c.008-.012.027-.025.035-.036C119.425,97.255,119.411,97.263,119.4,97.264Z" transform="translate(-85.866 -69.609)" fill="#fff"/>
      <path id="Path_3299" data-name="Path 3299" d="M97.981,108.385l-.03-.056A.143.143,0,0,1,97.981,108.385Z" transform="translate(-70.369 -77.629)" fill="#fff"/>
      <path id="Path_3300" data-name="Path 3300" d="M113.8,104.715l.012-.017A.013.013,0,0,1,113.8,104.715Z" transform="translate(-81.819 -75.006)" fill="#fff"/>
      <path id="Path_3301" data-name="Path 3301" d="M145.009,62.079a.026.026,0,0,0,.007-.021C145.021,62.062,145.027,62.066,145.009,62.079Z" transform="translate(-104.366 -44.2)" fill="#fff"/>
      <path id="Path_3302" data-name="Path 3302" d="M139.2,65.5a.118.118,0,0,1-.083.054A.22.22,0,0,1,139.2,65.5Z" transform="translate(-100.111 -46.689)" fill="#fff"/>
      <path id="Path_3303" data-name="Path 3303" d="M138.729,66.3l.008-.011A.01.01,0,0,0,138.729,66.3Z" transform="translate(-99.829 -47.259)" fill="#fff"/>
      <path id="Path_3304" data-name="Path 3304" d="M141.882,61.8c0,.01,0,.015,0,.031A.036.036,0,0,1,141.882,61.8Z" transform="translate(-102.103 -44.011)" fill="#fff"/>
      <path id="Path_3305" data-name="Path 3305" d="M106.336,47.341c.128-.272.329-.619.431-.9a.494.494,0,0,0,.163-.207l-.062-.037.054-.063c-.009-.036-.035.051-.042-.01l.051-.013c-.024-.016.06-.2-.04-.093l.119-.289c.024-.062.072-.011.081-.091-.013-.024-.022.017-.046,0,.036-.231.231-.187.283-.4l-.013.014c.033-.026.056-.088.065-.091.055.053-.053.018-.037.1.061.017.061-.06.1-.037,0-.052.041-.068.063-.1-.007-.08.058-.17.038-.236.033-.026.1-.037.133-.109-.027-.068-.051-.007-.036-.084l.037,0c.015-.059.006-.055-.009-.055.024-.062.066-.033.076-.119l-.05.032a.648.648,0,0,0,.069-.16c-.02-.008-.033.026-.035.051-.029-.063.054-.063.056-.088.011.011,0,.069.04.054.009-.042.079-.066.05-.109l-.05.032c.059-.074.057-.03.087-.127,0,.006-.013-.005-.022,0,.07-.044.061-.137.1-.227l-.013.014c.026-.029.061-.041.067-.058,0,.058.011.049.042.068-.027-.088.1-.075.122-.2-.02-.008-.05.013-.048.046-.072.011-.121,0-.173.055.028-.034.061-.079.03-.078l.057.009.024-.062c.037,0,.034.071.081.025s-.04-.054-.009-.055c.061-.079.072-.011.087-.108-.011.009-.024.023-.019.031,0-.069.071-.146.021-.191-.017.006-.037,0-.039.023l.007,0c-.072.049.035-.051-.031-.057.031.018.059-.074.074-.113l.035.026c.168-.083-.081-.025-.012-.146.059-.074-.006.036.046,0,.015-.059-.009-.094.041-.164,0-.027-.007-.08-.051-.1.039-.043.045-.156.1-.169,0,.1-.079.066-.065.187l.051-.013c.026-.067.087-.147.084-.2,0,.014.013.024.022.021.056-.088.107-.1.137-.2-.035-.026-.05.032-.072.069,0-.072.024-.062.054-.159-.031-.018-.024.062-.061.06l.054-.1-.007,0c.064.012.03-.078.076-.138.065-.149.146-.143.231-.207,0-.027-.016-.038-.038-.04.011.049-.006.036-.03.04.026-.048-.01-.132-.04-.112.052-.076.016.038.052,0l.043-.112c.022.021.011.069.062.017a.911.911,0,0,0,.058-.132c-.017.006-.037-.04-.057.01.006-.036.024-.081.056-.088,0,.083.07-.1.1-.034l0-.083c-.006.017-.026.009-.028.034-.037-.04.035-.051.052-.076,0-.025.028-.092.01-.105.022-.017.037-.076.012-.092.02-.031.026.01.051.007l.043-.112c-.024-.016-.086-.052-.1-.038.042-.029.077.017.1-.05-.059.016,0-.1-.079-.069a.315.315,0,0,1,.064-.207c.053-.018,0,.069.036.084.082-.155.19-.12.222-.242l-.006.036c.054-.063.046-.06.094-.086-.053,0-.091-.138-.032-.25.031,0,.02.085.06.081l.037-.076c0-.008-.013-.005-.024,0,.048-.065-.008-.157.061-.157l-.038-.1.016.038c.031,0,.067-.077.087-.089a.164.164,0,0,0,.041-.164c.013.024.04.073.077.017-.079-.031.027-.15-.014-.16.011-.028.008-.08.044-.073l-.049-.012c.068.02.1-.075.146-.143-.1-.019.043-.073-.027-.146.064.012.076-.119.133-.109.028-.053-.033-.071-.047-.1l.037-.018c-.016-.038.025-.145.031-.219l.081-.033-.018-.033c.017-.006.048-.046.057-.01l.013-.034c.059.023.037-.037.087-.089,0-.019-.022-.021-.033-.013.013-.034-.027-.03-.031-.057,0,.027.155-.069.141.028.024.016.063-.027.061-.06l-.044-.043.072-.011c.026-.048,0-.083.017-.122-.022.037-.14.049-.092-.055-.028.053-.07.063-.094.086.009-.022.006-.036-.033-.013.05-.071.044-.015.087-.089a.073.073,0,0,1-.031-.018c-.007,0,0-.008-.011-.011s-.007,0,0-.008a.062.062,0,0,1-.016-.038l.026.029a.027.027,0,0,0,.016,0c0,.014.009.016.029.024,0-.006.02-.012.037-.018s.031-.02.017-.025c.033.032.055.015.079-.008s.044-.054.059-.035c.017-.006.041-.048.013-.053-.033.026-.044.015-.055,0s-.02-.027-.037-.021c.022-.017.029.024.059,0a.033.033,0,0,0,0-.033c0-.006-.013-.005-.02-.008s-.022,0-.029,0l0,.011-.062-.017c.02-.012.086.014.059-.016-.022,0-.04-.035-.059-.023s-.074.036-.059.054c-.011-.011-.069-.059,0-.066l-.031-.018c.031,0,.121.021.064-.027l-.009,0-.018-.052a.027.027,0,0,1-.016,0,.024.024,0,0,1-.015,0c.011-.009.009-.022-.011-.03-.011.009-.044,0-.048.007-.07-.053-.051-.065-.053-.078-.042-.029-.062-.037-.059,0a.667.667,0,0,0-.209-.106c-.066-.064.022,0,0-.047-.114.02-.273-.137-.4-.224.074-.036-.029-.024-.018-.091.018.033-.15-.025-.05.051l-.066-.045c-.07.005.1.091,0,.091-.073-.047-.084-.135-.192-.17.007.061-.064-.05-.07.005.013.024.04.035.064.05l-.022,0c-.18-.082-.018-.071-.093-.152-.1-.066-.1-.013-.123,0a.183.183,0,0,1-.09-.061c.053.059.136.04.123,0-.077.022-.159-.08-.177-.113.178.03.108.054.281.076.013.024-.017.064.077.094-.042-.048.015-.02.037-.018-.028.015.053.04.073.067.033-.007-.014-.082.077-.041l-.017.064c.042.01.011-.047.075,0-.018-.052.037-.037-.051-.1.145.017.163.127.234.2,0-.008,0-.014-.013-.024a.347.347,0,0,0,.066.064c.066.025-.033-.051,0-.058l.092.055.009,0c.022.021.037.04.055.034a.218.218,0,0,1-.021-.085l.076.1c0-.025.105.021.044-.035l.143.1.042-.029c.026.03.024.035-.02.012.059.023.173.2.2.115a2.814,2.814,0,0,0,.265.237c-.033-.051,0-.039.046-.021s.084.039.028-.015c.1.044.06.081.113.121.073.028.108,0,.059-.054l.051.065.009,0,.031.057a.207.207,0,0,0,.084.019.186.186,0,0,1,.029,0c.015,0,.011.011,0,.027l-.061.021.014.044c-.018-.013-.042.029-.066.071l.009,0-.037.056c.052-.057-.013.053.033.032a.857.857,0,0,1-.071.146l-.02-.027c-.037.056-.03.059-.011.067s.033.013.018.052l-.031-.018c.007.138-.115.181-.114.277.026-.048.059-.016.052-.018a1.073,1.073,0,0,1-.156.248.141.141,0,0,1,.036.142c-.028.053-.039.062-.072.069,0,.064-.074.152-.043.17-.031,0-.013.053-.05.071l.011.011-.031-.018c.034.129-.109.145-.088.268l.013-.014-.028.034c.011.011.031,0,.051.007l-.074.19-.011-.049c-.022.037-.065.052-.063.1.081-.052-.024.062.009.094l.028-.034c-.028.053-.028.053-.059.035-.041.068.04.073-.019.128l.019-.05c-.013-.024-.053,0-.065.033,0,.008.007.041.024.016-.035.051-.056.146-.078.163-.006.036.024.035.044.023-.08.11-.015.059-.1.169l.02.008-.042.029.016.077-.018-.033a.229.229,0,0,0-.05.109l.033-.007c-.063.1-.012.15-.093.241,0,.008.017-.006.026-.009-.085.083.016.1-.076.177.009,0,.018.013.027.01l-.037.037.04.015-.072.011.029.043-.026.009c.053.078-.032.123-.005.21l-.042-.029c-.17.127-.1.4-.235.591l.04.015-.079.066c.009.055.044-.015.057.009-.061.079-.072.011-.127.112,0,.066.033-.007.063-.027a.957.957,0,0,0-.147.3c-.007,0-.015,0-.013-.005a.907.907,0,0,0-.093.221c.02.008.026-.009.041-.029-.011.028-.011.067-.039.081l.044-.015c-.015.059-.089.152-.054.179-.011-.011-.044-.023-.063.027.049.051-.076.119-.08.207.017-.006.046-.06.039-.043,0,.044-.041.068-.074.094h.031l-.109.164c.049.051-.078.163-.034.167-.024.062,0-.066-.044.015.018.033-.041.068,0,.083l.011-.009-.028.053.052-.018a.1.1,0,0,1-.112.053c0,.052-.043.112-.019.147l.013-.014c-.069.121.015.256-.09.332,0,.008.011.011.017-.006l-.03.078.033-.007-.1.117.02.008a2.2,2.2,0,0,1-.149.328l.013-.014c-.08.11-.032.123-.086.2.009,0,.009,0,.011-.009l-.03.078.026-.009c-.063.046-.021.191-.039.139-.033.026-.074.074-.1.075-.041.087.018.033.009.094s-.061.06-.082.155l.02.008a.6.6,0,0,0-.067.116l.013-.014c-.074.074.007.138-.1.172,0,.044-.043.112,0,.122-.07.1-.117.186-.182.3.053.04-.015.02-.01.105l-.031-.018c-.069.16-.061.375-.15.547l.031.018-.052.018c-.06.2-.148.444-.215.6a.477.477,0,0,0-.13.181l.009,0a2.044,2.044,0,0,0-.195.426c.017-.006.024.016.037,0-.052.018-.041.087-.054.121l-.011-.049a.11.11,0,0,0-.03.136l-.066.052a.014.014,0,0,0,.009.016l-.024,0,.031.057c-.013.014-.061.1-.118.109.011.011,0,.083.024.035l-.088.249,0-.044c-.031-.018-.085.044-.08.091.046-.04.048.012.066.045-.033.026-.016-.038-.042-.029-.042.029-.089.113-.078.144l.022-.017c-.035.051.014.1-.014.155-.046.04-.041.087-.09.055-.041.068.029.043.027.068a.148.148,0,0,0-.039.159c-.1.006-.049.206-.128.195l.016.077a.082.082,0,0,0-.1.034c0,.052.04.054.053.078h-.083c-.031.3-.224.621-.277.935a2.474,2.474,0,0,0-.216.424l.013-.014-.039.159.01-.125a.48.48,0,0,0-.054.082,1.854,1.854,0,0,1-.207.6c-.135.1.038.118-.075.215a.1.1,0,0,1,.035-.012,2.6,2.6,0,0,1-.226.311c.085.014-.035.09.009.094l-.037,0c.009.036-.012.111.018.11l-.063.046.031.018c-.03.078-.124.242-.073.306a3.34,3.34,0,0,0-.324.743.33.33,0,0,0-.1.15l.016.077c-.035.051-.111.092-.106.158.007,0,.007,0,.015,0-.028.053-.03.117-.091.158-.024.062-.03.136.018.129-.068-.02-.045.137-.045.137s-.1.3-.258.73c-.075.215-.172.467-.276.736-.065.168-.134.347-.207.518-.112.272-.218.546-.333.823L103,57.043c-.1-.052-.2-.109-.3-.161a1.587,1.587,0,0,1-.15-.084c-.044-.023-.106-.06-.119-.065-.2-.115-.383-.225-.549-.327a4.467,4.467,0,0,1-.754-.561c-.014-.044-.089-.1-.038-.118-.06-.042-.117-.012-.112-.043.095.03.008-.08.118-.07l-.055-.034c0-.025.06.062.068.02l-.015.059a.142.142,0,0,0,.1.008c.031.037.021.124.135.142l-.024-.016c.082.044.07,0,.092,0l-.02-.007.079.011c-.064-.012-.124-.093-.08-.069.108.035-.031,0,.038.04.044.024.048-.007.055-.024l.081.044c.009-.022-.057-.029-.009-.036l.09.08c.048-.046.095.088.176.055-.064-.05.022-.017.015-.039l.176.094c.022,0-.037-.04-.013-.024.044,0,.044.043.064.051.026-.009.132.07.147.031.136.04.024.074.145.114.029-.015-.086-.052-.027-.049l.11.068a.074.074,0,0,0-.049-.07c.086.033.161.056.236.078a.738.738,0,0,1,.11.03c.013,0,.035.007.048.012h.037a.306.306,0,0,1,.211.062c.011-.028-.024-.035-.042-.068.044.043.073.047.086.033,0-.066-.027-.126-.01-.152l.02.027a.725.725,0,0,0-.018-.091c0-.025-.009-.016.024-.1a4.1,4.1,0,0,0,.136-.391l.009.036a.453.453,0,0,0,.1-.117c-.011-.011-.07,0-.029-.063.007.022,0,.052.018.052a7.5,7.5,0,0,1,.313-1.069c.212-.471.362-1.018.571-1.483-.028.073.049.07.057.009-.061-.2.126-.247.1-.437.145-.259.143-.549.342-.768l-.031-.018c0-.044.026-.048.047-.084l-.006,0c.023-.1.108-.2.108-.261l.042.01c.028-.053-.016-.038.028-.092l-.02-.008.066-.052c-.068-.02.063-.162.047-.22a1.253,1.253,0,0,0,.158-.312c-.024-.035.027-.169.049-.264a6.512,6.512,0,0,0,.261-.619l.044.023.028-.053c-.007,0-.011-.011-.02-.008-.029-.063.069-.121.054-.179.029.043-.009.042-.021.075,0,.052.057.028.063-.046l-.007,0,.044-.035c-.031-.018-.029-.063-.06-.081a3.363,3.363,0,0,0,.254-.481c-.046,0,.067-.135-.014-.121.07-.1.044.043.112,0,.013-.034.046-.06.021-.075-.02.012-.029-.043-.046-.018l.037-.076c0-.008-.017.006-.026.009.1-.141.068-.3.168-.417.031,0-.015.059.009.055.107-.12.008-.138.1-.258l-.044.015c.044-.035.077-.041.076-.119-.035-.026-.057.049-.087.069.019-.05.078-.163.1-.117.035-.051.01-.086.01-.125.007,0,0,.066.038.04a1.507,1.507,0,0,1,.094-.3c-.007,0-.024-.016-.026-.01C106.379,47.467,106.291,47.439,106.336,47.341Z" transform="translate(-72.554 -26.199)" fill="#fff"/>
      <path id="Path_3306" data-name="Path 3306" d="M142.686,60.573l-.023.045a.027.027,0,0,0-.036,0Z" transform="translate(-102.645 -43.128)" fill="#fff"/>
      <path id="Path_3307" data-name="Path 3307" d="M137.789,67.3a.015.015,0,0,1-.019,0C137.774,67.3,137.78,67.306,137.789,67.3Z" transform="translate(-99.137 -47.991)" fill="#fff"/>
      <path id="Path_3308" data-name="Path 3308" d="M136.4,68.763c.03-.03.021.007.014.028A.028.028,0,0,1,136.4,68.763Z" transform="translate(-98.143 -49.037)" fill="#fff"/>
      <path id="Path_3309" data-name="Path 3309" d="M145.953,57.018c-.01,0-.014.007-.025,0C145.944,57.019,145.947,57.014,145.953,57.018Z" transform="translate(-105.03 -40.558)" fill="#fff"/>
      <path id="Path_3310" data-name="Path 3310" d="M153.915,46.544c0,.006,0,.006,0,.015S153.911,46.55,153.915,46.544Z" transform="translate(-110.797 -32.993)" fill="#fff"/>
      <path id="Path_3311" data-name="Path 3311" d="M153.581,47.269a.12.12,0,0,1-.03.03A.077.077,0,0,1,153.581,47.269Z" transform="translate(-110.537 -33.516)" fill="#fff"/>
      <path id="Path_3312" data-name="Path 3312" d="M143.964,59.547a.053.053,0,0,1-.032.02C143.944,59.55,143.958,59.543,143.964,59.547Z" transform="translate(-103.588 -42.386)" fill="#fff"/>
      <path id="Path_3313" data-name="Path 3313" d="M153.347,47.487l-.029.04-.006,0Z" transform="translate(-110.365 -33.674)" fill="#fff"/>
      <path id="Path_3314" data-name="Path 3314" d="M153.966,46.357l-.037.052A.1.1,0,0,1,153.966,46.357Z" transform="translate(-110.811 -32.857)" fill="#fff"/>
      <path id="Path_3315" data-name="Path 3315" d="M149.021,53.323c-.041.022-.024.009,0,0Z" transform="translate(-107.247 -37.89)" fill="#fff"/>
      <path id="Path_3316" data-name="Path 3316" d="M152.7,47.97l-.018.013Z" transform="translate(-109.911 -34.023)" fill="#fff"/>
      <path id="Path_3317" data-name="Path 3317" d="M154.362,45.787c0,.006,0,.006-.014.007a.023.023,0,0,0,0-.015Z" transform="translate(-111.113 -32.44)" fill="#fff"/>
      <path id="Path_3318" data-name="Path 3318" d="M150.6,51a.064.064,0,0,1,.041,0C150.623,51.015,150.609,51.022,150.6,51Z" transform="translate(-108.406 -36.21)" fill="#fff"/>
      <path id="Path_3319" data-name="Path 3319" d="M28.507,87c0,.006-.009,0-.014.017A.026.026,0,0,0,28.507,87Z" transform="translate(-20.19 -62.217)" fill="#fff"/>
      <path id="Path_3320" data-name="Path 3320" d="M35.941,90.125l-.029,0C35.932,90.129,35.932,90.129,35.941,90.125Z" transform="translate(-25.55 -64.475)" fill="#fff"/>
      <path id="Path_3321" data-name="Path 3321" d="M23.581,85.015h0a.442.442,0,0,0-.1-.048Z" transform="translate(-16.566 -60.751)" fill="#fff"/>
      <path id="Path_3322" data-name="Path 3322" d="M51.959,96.46l-.026-.01C51.943,96.461,51.95,96.464,51.959,96.46Z" transform="translate(-37.124 -69.047)" fill="#fff"/>
      <path id="Path_3323" data-name="Path 3323" d="M42.558,92.67a.053.053,0,0,1,.038,0C42.576,92.662,42.563,92.657,42.558,92.67Z" transform="translate(-30.351 -66.31)" fill="#fff"/>
      <path id="Path_3324" data-name="Path 3324" d="M24.286,82.773l-.032.025A.038.038,0,0,0,24.286,82.773Z" transform="translate(-17.127 -59.166)" fill="#fff"/>
      <path id="Path_3325" data-name="Path 3325" d="M24,79.746c0,.016.005.025.007.04C24,79.771,24,79.749,24,79.746Z" transform="translate(-16.942 -56.98)" fill="#fff"/>
      <path id="Path_3326" data-name="Path 3326" d="M24,79.932a.024.024,0,0,0,0-.016C24,79.923,24,79.929,24,79.932Z" transform="translate(-16.944 -57.102)" fill="#fff"/>
      <path id="Path_3327" data-name="Path 3327" d="M106.537,106.172a.259.259,0,0,0-.01-.111Z" transform="translate(-76.565 -75.99)" fill="#fff"/>
      <path id="Path_3328" data-name="Path 3328" d="M66.582,101.974l-.012.011A.021.021,0,0,0,66.582,101.974Z" transform="translate(-47.698 -73.038)" fill="#fff"/>
      <path id="Path_3329" data-name="Path 3329" d="M25.011,83.706c.037-.016.053.021.061,0C25.05,83.706,25.044,83.681,25.011,83.706Z" transform="translate(-17.674 -59.832)" fill="#fff"/>
      <path id="Path_3330" data-name="Path 3330" d="M70.957,99.772l.026.01C70.973,99.771,70.964,99.775,70.957,99.772Z" transform="translate(-50.868 -71.447)" fill="#fff"/>
      <path id="Path_3331" data-name="Path 3331" d="M105.749,106.072l-.013.032c.007,0,.009,0,.018-.008S105.753,106.081,105.749,106.072Z" transform="translate(-75.994 -75.998)" fill="#fff"/>
      <path id="Path_3332" data-name="Path 3332" d="M81.755,107.739c-.007,0-.007,0-.009,0Z" transform="translate(-58.662 -77.202)" fill="#fff"/>
      <path id="Path_3333" data-name="Path 3333" d="M82.415,108.154c-.013-.005-.036-.006-.049-.012A.05.05,0,0,0,82.415,108.154Z" transform="translate(-59.11 -77.494)" fill="#fff"/>
      <path id="Path_3334" data-name="Path 3334" d="M106.522,105.874l-.006-.063A.143.143,0,0,0,106.522,105.874Z" transform="translate(-76.557 -75.81)" fill="#fff"/>
      <path id="Path_3335" data-name="Path 3335" d="M91.205,111.358l-.019-.008A.013.013,0,0,0,91.205,111.358Z" transform="translate(-65.482 -79.812)" fill="#fff"/>
      <path id="Path_3336" data-name="Path 3336" d="M41.906,92.361a.026.026,0,0,1-.017-.014C41.886,92.354,41.884,92.36,41.906,92.361Z" transform="translate(-29.866 -66.083)" fill="#fff"/>
      <path id="Path_3337" data-name="Path 3337" d="M48.477,92.2a.118.118,0,0,0,.1,0A.218.218,0,0,0,48.477,92.2Z" transform="translate(-34.627 -65.97)" fill="#fff"/>
      <path id="Path_3338" data-name="Path 3338" d="M49.473,92.517l-.013-.005A.01.01,0,0,1,49.473,92.517Z" transform="translate(-35.337 -66.201)" fill="#fff"/>
      <path id="Path_3339" data-name="Path 3339" d="M44.389,90.43c0,.009.01.012.021.023A.036.036,0,0,0,44.389,90.43Z" transform="translate(-31.673 -64.698)" fill="#fff"/>
      <path id="Path_3340" data-name="Path 3340" d="M40.061,75.7c-.339-.111-.8-.224-1.127-.361a.666.666,0,0,1-.306-.037l.013-.071-.1-.008c-.025-.033.071.013.022-.037l-.049.026c0-.029-.22-.1-.053-.1l-.347-.129c-.073-.029-.063.044-.141-.01-.012-.028.032,0,.035-.032-.233-.145-.339.026-.567-.095h.022a.888.888,0,0,1-.13-.021c.007.079.055-.024.112.044-.03.057-.1,0-.111.048-.045-.041-.091-.021-.14-.033-.066-.064-.2-.085-.24-.148-.048,0-.111.048-.2.014-.041-.07.031-.041-.049-.088l-.026.028c-.064-.033-.054-.037-.043-.047-.073-.029-.078.023-.163-.034l.066-.012a.913.913,0,0,1-.194-.069c.008-.02.047,0,.071.013-.035-.067-.1-.008-.12-.025,0,.016.065.048.019.068-.044-.025-.117.007-.135-.046l.066-.012c-.11-.013-.069.019-.178-.032.007,0,.005-.013.014-.017-.091.017-.168-.059-.274-.1h.022c-.045,0-.082.013-.1.006.052.043.036.045.03.08-.059-.084-.145.019-.267-.06.008-.02.049-.026.077,0,.063-.044.088-.087.178-.082-.052-.005-.116-.015-.093-.037l-.034.047-.073-.029c-.026.028.039.076-.038.076s-.019-.068-.043-.047c-.116-.015-.063.044-.161-.018.016,0,.038,0,.042.009-.065-.048-.184-.057-.187-.127.018-.008.026-.028.05-.011l0,.007c.1-.015-.071-.013-.028-.064-.006.035-.11-.013-.156-.031l0,.045c-.2.058.038-.076-.122-.117-.11-.013.037.022-.035.032-.064-.033-.077-.076-.177-.093-.021-.024-.066-.064-.055-.113-.067,0-.173-.084-.222-.057.086.072.117-.007.216.093l-.049.026a1.065,1.065,0,0,1-.241-.087c.011.012.012.028,0,.032-.12-.025-.169,0-.279-.049,0-.045.066-.012.115,0-.062-.055-.073-.029-.183-.08.006-.036.073.029.1,0l-.131-.037,0-.007c-.037.054-.093-.037-.18-.048-.181-.064-.236,0-.356.011-.021-.024-.023-.039-.008-.057.036.045.037.022.058.008-.062-.017-.112-.1-.071-.112-.107-.019.023.039-.038.038l-.132-.052c0,.032.053.059-.03.057a1.269,1.269,0,0,1-.161-.056c.018-.008-.008-.057.051-.033-.037-.022-.09-.043-.12-.025.076.06-.143-.026-.1.044l-.076-.06c.02.008.028-.012.052.005-.008-.057-.071-.013-.107-.019s-.1-.048-.1-.071c-.032,0-.1-.03-.091-.059-.042-.009-.01.026-.031.041l-.132-.052c0-.029.017-.1.039-.1-.057.008-.042.067-.121.036.058-.03-.086-.072,0-.108a.437.437,0,0,0-.233-.107c-.055.024.065.048.049.088-.2-.056-.248.047-.382-.021l.037.022a.3.3,0,0,0-.146,0c.038-.038-.057-.167-.2-.209-.024.021.061.077.028.1l-.1-.03c0-.009.005-.013.021-.014-.094-.014-.135-.122-.185-.073l-.06-.1.023.039c-.024.021-.119-.009-.144,0a.224.224,0,0,1-.177-.093c.012.028.036.083-.042.067.031-.079-.155-.092-.133-.129-.033-.013-.078-.054-.1-.023l.025-.043c-.033.063-.145.019-.236,0,.056-.084-.1-.023-.11-.127-.037.054-.163-.034-.2.014-.069-.02-.039-.076-.051-.1l-.043.013c-.023-.039-.148-.089-.22-.14l-.09.033-.016-.037c-.018.008-.077,0-.051.033l-.04-.016c-.023.059-.061,0-.144,0-.017-.014,0-.032.013-.033-.04-.016-.007-.041-.028-.064.021.024-.176.06-.078.121,0,.029-.071.025-.1,0l-.006-.063-.063.044c-.062-.017-.076-.06-.122-.079.049.012.147-.063.019-.107a.349.349,0,0,0,.147,0c-.026-.01-.037-.022.013-.033-.1-.017-.046.02-.144,0a.064.064,0,0,0,.006-.036c0-.007,0-.009,0-.016s0-.007,0-.009a.071.071,0,0,0-.023-.039l.007.041a.025.025,0,0,1-.012.011c.011.012.008.018,0,.038a.1.1,0,0,0-.043.013c-.018.008-.041.007-.036-.007,0,.047-.027.05-.066.05s-.081-.009-.075.016c-.018.008-.074-.006-.057-.03.047,0,.046-.02.045-.036s-.009-.034.009-.042c-.032,0,0,.038-.041.045a.042.042,0,0,1-.028-.026c-.007,0,.005-.013.008-.02s.014-.017.017-.024l.013.005.03-.057c-.025.005-.051.071-.058.03.014-.017,0-.054.023-.059s.087-.027.092,0c0-.016,0-.092-.056-.052l.006-.036c-.024.021-.071.1-.071.025l.009,0-.033-.051a.025.025,0,0,0,.012-.011.022.022,0,0,0,.012-.011c-.016,0-.026-.01-.019-.03.016,0,.029-.034.042-.029,0-.089-.02-.084-.031-.1,0-.051.013-.071.041-.045.013-.071.021-.189.059-.228-.009-.095-.014.017-.039-.038.1-.066.079-.3.094-.45-.087.027,0-.038-.068-.08.016.037.088-.125.083,0l.009-.08c.056-.046.006.139.08.07.011-.087-.059-.16-.011-.263.049.05,0-.083.056-.046a.148.148,0,0,1,0,.083l.014-.017c.06-.189-.051-.066-.067-.179.018-.122.063-.082.095-.084a.16.16,0,0,0,.013-.109c.014.081-.065.126-.095.084.076-.038.045-.172.029-.209-.1.149-.031.117-.14.257.012.028.07.035.027.125-.012-.066-.029,0-.043.013.034-.009,0,.067.006.1-.03.018-.064-.071-.094.024l.07.035c-.022.037-.05-.027-.052.055-.033-.051-.061,0-.055-.113-.092.116-.007.21.006.314,0-.009-.011-.012-.012-.028a.318.318,0,0,1,.009.095c-.026.066-.022-.062-.052-.043l-.019.107-.009,0c0,.032.008.057-.01.064a.266.266,0,0,0-.061-.077l.034.127c-.024-.017-.059.091-.063.005l-.016.176-.057.008c.007.041.013.043.025-.005-.023.059,1.242-1.112-.043.226a2.533,2.533,0,0,1,.017.364c-.022-.062-.035-.029-.053.017s-.027.088-.034.009c-.032.1.028.1.025.17-.029.072-.083.074-.092,0l.02.084-.009,0,.028.064a.178.178,0,0,1-.044.074c0,.007-.012.011-.017.024s0,.016.021.024l.065-.028.029.042c0-.022.057-.008.112.006l-.009,0,.078.016c-.09-.005.057.03,0,.047a1.181,1.181,0,0,0,.184.057l-.009-.034c.078.016.075.022.068.042s-.013.033.033.051l.006-.036c.118.108.247.052.333.124-.062-.017-.058.03-.055.024a1.5,1.5,0,0,0,.338.073c.015.059.016.075.1.131.069.02.085.018.115,0,.058.046.19.06.184.1.024-.021.057.03.1.017v.016l.006-.036c.091.119.21.03.306.136H30.3l.052.005c0,.016-.024.021-.031.041l.225.089-.036-.045c.049.012.1-.008.14.033-.107.019.073.029.077.076l-.052-.005c.069.02.069.02.075-.016.091.021.036.083.129.081l-.06-.024c-.012-.028.038-.038.078-.023,0,.009.032.035,0,.029.071.013.172.068.2.065.037.022.013.043-.012.049.159.025.064.033.222.057l-.008.02.057-.008.057.068-.016-.037a.318.318,0,0,1,.135.046l-.03.018c.14.033.143.1.285.112,0,.009-.018.008-.028.012.137,0,.074.083.214.077-.009,0,0,.022-.01.026h.061l-.016.039.063-.044.017.053.028-.012c.031.1.134.068.192.152l0-.051c.24-.027.438.226.7.27L33,74.21l.117-.007c.043.047-.046.02-.034.047.116.015.063-.044.194-.007.056.052-.03.018-.071.025a1.336,1.336,0,0,1,.381.12c0-.007.012-.011.005-.013a1.266,1.266,0,0,1,.267.1c-.008.02-.028.012-.057.008.033.013.068.042.1.033l-.046.02c.064.033.2.049.2.094,0-.016.012-.049.071-.025.01.072.163.034.245.1-.018.008-.087-.012-.067,0a.187.187,0,0,0,.139.017l-.024.021.227.044c.01.072.2.065.175.1.073.029-.056-.052.046-.02.016.037.091.021.076.06h-.016l.069.02-.055.024a.109.109,0,0,0,.13-.04c.045.041.132.052.146.1H35.2c.16.04.219.2.364.182,0,.009,0,.016-.018.008l.093.037-.03.018.177.017-.008.02a3.074,3.074,0,0,0,.4.137h-.022c.159.025.134.068.247.09-.009,0-.009,0-.016,0l.093.037-.028.012c.088-.011.187.127.154.076.047,0,.121,0,.145-.019.108.035.016.037.077.076s.1,0,.2.056l-.008.02a.838.838,0,0,1,.153.038h-.022c.121,0,.118.108.231.053.041.031.132.052.11.089.143.026.254.055.4.09,0,.067.029,0,.1.071L38,76.087c.194.069.382.234.6.3l-.006.035.055-.024c.22.1.508.224.7.29a.652.652,0,0,1,.259.041l-.009,0a2.86,2.86,0,0,1,.527.177c-.018.008,0,.029-.026.028.055-.024.108.035.148.051l-.036-.045a.147.147,0,0,1,.144.08l.1-.008a.015.015,0,0,1,.008.018l.021-.014.028.064c.022,0,.134.03.185,0,0,.016.076.06.013.043l.289.122-.041-.031c.006-.035.1-.028.141.01-.07,0-.025.043-.009.08.047,0-.023-.039,0-.051a.272.272,0,0,1,.186.051l-.032,0c.071.013.081.085.15.1.07,0,.108.035.116-.023.091.021.017.053.041.07.05-.011.164.05.171.09.08-.067.221.118.27.053l.057.068a.086.086,0,0,1,.1-.044c.045.041.019.068.031.1l.062-.059c.289.2.723.3,1.043.5a3.459,3.459,0,0,1,.541.16h-.022l.171.09-.119-.085a.662.662,0,0,1,.114.022,2.594,2.594,0,0,0,.687.294c.186-.025.077.114.249.106a.109.109,0,0,0-.037.016,3.593,3.593,0,0,0,.447.07c-.051.071.106.042.077.076l.026-.028c.025.033.109.073.085.094l.088-.011L45.588,79c.093.036.308.091.328.175a4.671,4.671,0,0,1,.906.32.451.451,0,0,1,.2.043l.057.068c.071.013.165-.011.221.042,0,.007,0,.007-.012.011.069.019.127.066.209.052.073.029.144.08.1.109.033-.063.156.069.156.069s.339.149.846.357c.249.106.547.223.864.349.2.079.41.162.618.236.327.122.651.25.984.374l.158-.691c.028-.11.05-.224.078-.334a1.451,1.451,0,0,0,.036-.168c.011-.049.024-.12.029-.133.044-.226.082-.439.112-.633a3.939,3.939,0,0,0,.055-.952c-.029-.042-.029-.141-.077-.114.006-.074.075-.092.044-.112-.043.09-.078-.054-.15.032l.01-.064c-.024-.017.011.088-.032.063l.064.033a.128.128,0,0,1-.07.079c.011.05.1.106.028.2l0-.029c-.021.091-.057.046-.071.063l.008-.02-.048.064c.037-.054.008-.156,0-.108-.048.1.024-.021.008.057-.012.049-.042.029-.062.021l-.021.091c-.027-.011.017-.062-.025-.033l0,.124c-.077,0,.009.133-.081.166,0-.083-.032,0-.046-.018l-.046.195c-.014.017-.008-.056-.012-.027-.029.034.006.063,0,.083-.028.012-.035.146-.081.128-.065.127.048.072-.006.188-.034.009.017-.1-.024-.055l-.02.129a.078.078,0,0,1-.027-.087c-.034.085-.069.155-.1.225a.608.608,0,0,0-.055.1c0,.013-.019.03-.025.043l-.026.028c-.057.069-.1.1-.1.2-.033-.013-.014-.044-.03-.08.006.063-.011.087-.034.085-.056-.052-.093-.113-.129-.119l.01.034a.955.955,0,0,1-.068-.08c-.024-.017-.008-.018-.107-.058-.152-.06-.3-.12-.452-.193l.025.033a.6.6,0,0,1-.177-.017c0-.016.056-.046-.035-.067.014.021.045.041.033.051a10.506,10.506,0,0,0-1.19-.569c-.579-.2-1.181-.5-1.753-.693.086.034.027.087-.034.048-.132-.189-.315-.094-.466-.253a5.147,5.147,0,0,0-.942-.326l.006-.036c-.041-.031-.062-.017-.111-.029l0-.007c-.107-.058-.262-.073-.314-.116l-.022.037c-.069-.02-.023-.039-.1-.048l.008-.02-.1.008c.033-.063-.192-.076-.232-.13a1.754,1.754,0,0,1-.4-.119c-.013-.043-.172-.106-.273-.161-.2-.065-.493-.164-.749-.273l-.012.049-.069-.02c0-.007,0-.016.008-.02-.035-.067-.16-.04-.2-.094.017.053.044.025.083.041.045.041-.017.062-.088.011l0-.007-.063.005c.006-.035-.035-.067-.028-.1a4.671,4.671,0,0,1-.619-.176c.035-.032-.171-.052-.1-.1-.143-.026.006.063-.079.083-.04-.016-.087-.012-.083-.041.025-.005-.017-.053.018-.046l-.1-.03c0-.009.018-.008.028-.012-.2-.034-.315-.17-.5-.189-.024.021.064.033.043.047-.186-.013-.13-.1-.3-.12l.046-.02c-.063.005-.094.024-.163-.034,0-.045.086,0,.127-.011-.06-.024-.2-.065-.177-.017-.071-.013-.085-.056-.119-.085,0,.007.056.052.008.057a2.125,2.125,0,0,0-.343-.158c0-.007,0-.029.01-.026C40.143,75.821,40.183,75.738,40.061,75.7Z" transform="translate(-20.053 -49.909)" fill="#fff"/>
      <path id="Path_3341" data-name="Path 3341" d="M42.937,89.912l.044.025a.027.027,0,0,1,.03-.019Z" transform="translate(-30.625 -64.324)" fill="#fff"/>
      <path id="Path_3342" data-name="Path 3342" d="M50.78,92.85a.015.015,0,0,0,.018-.008C50.792,92.84,50.789,92.846,50.78,92.85Z" transform="translate(-36.291 -66.44)" fill="#fff"/>
      <path id="Path_3343" data-name="Path 3343" d="M52.742,93.338c-.042-.009-.014.017,0,.031A.028.028,0,0,0,52.742,93.338Z" transform="translate(-37.692 -66.798)" fill="#fff"/>
      <path id="Path_3344" data-name="Path 3344" d="M38.34,88.607c.009,0,.016,0,.021-.014C38.349,88.6,38.342,88.6,38.34,88.607Z" transform="translate(-27.303 -63.371)" fill="#fff"/>
      <path id="Path_3345" data-name="Path 3345" d="M26.023,84.108c.006,0,.006,0,.01.012C26.036,84.114,26.029,84.111,26.023,84.108Z" transform="translate(-18.405 -60.131)" fill="#fff"/>
      <path id="Path_3346" data-name="Path 3346" d="M26.64,84.571a.122.122,0,0,0,.042.009A.076.076,0,0,0,26.64,84.571Z" transform="translate(-18.851 -60.465)" fill="#fff"/>
      <path id="Path_3347" data-name="Path 3347" d="M41.367,89.688a.054.054,0,0,0,.038,0C41.386,89.681,41.37,89.682,41.367,89.688Z" transform="translate(-29.491 -64.158)" fill="#fff"/>
      <path id="Path_3348" data-name="Path 3348" d="M26.941,84.637l.046.018,0-.007Z" transform="translate(-19.069 -60.513)" fill="#fff"/>
      <path id="Path_3349" data-name="Path 3349" d="M25.806,84.022l.06.024A.1.1,0,0,0,25.806,84.022Z" transform="translate(-18.248 -60.069)" fill="#fff"/>
      <path id="Path_3350" data-name="Path 3350" d="M33.761,87.182c.047,0,.025-.005,0,0Z" transform="translate(-23.995 -62.349)" fill="#fff"/>
      <path id="Path_3351" data-name="Path 3351" d="M27.785,84.667h0Z" transform="translate(-19.678 -60.534)" fill="#fff"/>
      <path id="Path_3352" data-name="Path 3352" d="M25.229,83.708c.006,0,.006,0,.016,0a.022.022,0,0,1-.01-.012Z" transform="translate(-17.831 -59.832)" fill="#fff"/>
      <path id="Path_3353" data-name="Path 3353" d="M31.145,86.057a.064.064,0,0,0-.032.025C31.135,86.083,31.151,86.082,31.145,86.057Z" transform="translate(-22.082 -61.539)" fill="#fff"/>
    </g>
  </g>
</svg>
