<svg width="203" height="203" viewBox="0 0 203 203" fill="none" xmlns="http://www.w3.org/2000/svg">
<g clip-path="url(#clip0)">
<path d="M78.1766 56.0348C78.1559 56.0796 78.1247 56.0888 78.1457 56.1601C78.1975 56.1061 78.1871 56.0705 78.1766 56.0348Z" fill="white"/>
<path d="M109.591 47.9893L109.252 48.1283C109.474 48.063 109.569 48.035 109.591 47.9893Z" fill="white"/>
<path d="M59.5186 61.3572C59.5503 61.3479 59.5503 61.3478 59.5396 61.3115C59.2538 61.3955 58.8726 61.5074 58.248 61.7303L59.5186 61.3572Z" fill="white"/>
<path d="M155.857 70.0634L155.687 69.6001C155.74 69.7819 155.783 69.9273 155.857 70.0634Z" fill="white"/>
<path d="M136.684 39.913C136.801 39.8394 136.981 39.747 137.203 39.6818C136.949 39.7564 136.727 39.8217 136.684 39.913Z" fill="white"/>
<path d="M49.1211 62.6053L49.6931 62.5558C49.64 62.4924 49.4387 62.5121 49.1211 62.6053Z" fill="white"/>
<path d="M38.2273 67.9256C38.3755 67.8426 38.5554 67.7503 38.7035 67.6673C38.4812 67.7326 38.206 67.8529 38.2273 67.9256Z" fill="white"/>
<path d="M38.9387 67.5201C38.8541 67.5844 38.7905 67.6031 38.7059 67.6674C38.8541 67.5844 38.9387 67.5201 38.9387 67.5201Z" fill="white"/>
<path d="M29.8053 79.0774C29.6565 78.4534 29.4337 77.9297 29.2109 77.406L29.8053 79.0774Z" fill="white"/>
<path d="M160.583 129.628L160.656 129.529C160.573 129.592 160.583 129.628 160.583 129.628Z" fill="white"/>
<path d="M28.5471 78.5465L28.4507 78.1009C28.4617 78.2557 28.5044 78.4011 28.5471 78.5465Z" fill="white"/>
<path d="M58.9021 58.9097C59.3994 58.6057 60.5749 58.3789 60.5111 58.2792C59.9818 58.4741 59.1346 58.644 58.9021 58.9097Z" fill="white"/>
<path d="M151.084 140.627L150.756 140.803C150.936 140.71 151.031 140.682 151.084 140.627Z" fill="white"/>
<path d="M28.5469 78.5479L28.6329 79.0755C28.6539 79.0298 28.6326 78.9571 28.6537 78.9114C28.6216 78.8024 28.5789 78.657 28.5469 78.5479Z" fill="white"/>
<path d="M97.1447 153.876C97.3671 153.81 97.5894 153.745 97.8435 153.67C97.4517 153.746 97.2611 153.802 97.1447 153.876Z" fill="white"/>
<path d="M29.1999 77.3711L28.8496 76.4136C28.9558 76.7751 29.0831 77.0912 29.1999 77.3711Z" fill="white"/>
<path d="M60.5557 159.476C60.6617 159.484 60.7887 159.447 60.884 159.419C60.7569 159.456 60.651 159.448 60.5557 159.476Z" fill="white"/>
<path d="M134.156 40.6952C134.061 40.7232 133.965 40.7511 133.86 40.7428C133.838 40.7885 133.881 40.8154 134.156 40.6952Z" fill="white"/>
<path d="M151.226 48.2903C151.395 48.751 151.745 49.3552 151.979 49.6794C151.777 49.228 151.586 48.8128 151.226 48.2903Z" fill="white"/>
<path d="M139.079 34.775C139.185 34.7834 139.312 34.7461 139.439 34.7088C139.376 34.7274 139.249 34.7647 139.079 34.775Z" fill="white"/>
<path d="M159.158 67.2096C159.126 67.2189 159.126 67.2189 159.158 67.2096C159.137 67.2552 159.137 67.2552 159.158 67.2096C159.137 67.2552 159.137 67.2552 159.158 67.2096Z" fill="white"/>
<path d="M174.253 125.299C174.263 125.1 174.284 124.936 174.263 124.746L174.252 124.475L174.252 124.239C174.241 123.967 174.209 123.741 174.188 123.551C174.145 123.171 174.092 122.754 174.049 122.374C173.954 121.577 173.815 120.754 173.719 119.957C173.613 119.125 173.506 118.292 173.357 117.432C173.208 116.573 173.07 115.749 172.921 114.89C172.772 114.03 172.634 113.207 172.485 112.347C172.347 111.524 172.166 110.673 171.996 109.859C171.826 109.045 171.698 108.258 171.539 107.48C171.379 106.702 171.262 105.951 171.113 105.209C170.583 103.99 170.179 102.145 169.712 100.319L169.976 100.045L169.498 98.5356C169.445 97.8836 169.838 99.6926 169.71 98.5519L169.35 98.0294C169.445 97.8836 168.468 94.0861 169.338 96.5797C169.338 96.5797 169.232 96.2181 169.104 95.6664C168.977 95.1148 168.786 94.3462 168.573 93.623C168.17 92.1313 167.777 90.6757 167.777 90.6757C167.426 89.3648 167.3 89.9911 166.97 88.5169C166.98 88.1996 167.182 89.0044 167.278 88.8586C166.205 84.5001 165.177 84.0556 164.03 80.033L164.189 80.3397C163.892 79.6807 163.478 78.3885 163.415 78.4071C163.256 79.0427 163.817 79.0743 164.02 80.3502C163.702 80.3257 163.383 78.8876 163.182 79.0252C162.969 78.0665 162.651 77.5708 162.344 76.7579C162.025 75.3198 161.25 73.3872 161.101 72.292C160.772 71.6424 160.242 71.0125 159.722 69.5943C159.573 68.4991 160.008 69.7459 159.594 68.3358L159.372 68.1655C158.968 67.0272 159.085 67.1893 159.191 67.1975C158.756 65.9507 158.608 66.2691 158.109 64.6875L158.586 65.49C158.087 64.3796 157.949 63.9096 157.387 62.3467C157.493 62.3549 157.716 62.9964 157.885 63.4571C157.779 62.5065 157.228 62.04 157.09 61.5699C157.069 61.7332 157.461 62.8354 157.111 62.349C156.846 61.5629 156.274 60.7885 156.22 60.1365L156.697 60.9389C155.923 59.3597 156.157 60.1551 155.499 58.2669C155.562 58.366 155.573 58.2844 155.615 58.3112C154.947 57.2113 154.543 55.6018 153.864 53.8768L154.023 54.1835C153.684 53.4977 153.387 53.1921 153.27 52.7944C153.568 53.8068 153.43 53.5723 153.303 53.7275C153.026 52.3162 152.2 51.852 151.489 49.6651C151.595 49.6733 151.902 50.1328 152.051 50.7568C152.613 51.3773 152.846 51.3482 153.493 52.6113C153.09 51.8264 152.676 50.8875 152.867 51.0671L152.517 50.9341C152.305 50.4466 152.156 50.0582 152.018 49.706C151.775 49.5812 152.167 50.8011 151.605 49.7094C151.001 48.4731 151.583 48.9303 151.403 48.7869C150.587 47.063 150.842 48.1664 150.237 46.4589C150.321 46.6303 150.512 46.9277 150.523 47.0817C150.12 45.8255 149.25 44.1565 149.408 43.6387C149.557 43.7915 149.652 43.7635 149.832 44.2603L149.769 44.279C150.543 45.5048 149.249 43.2141 149.673 43.4824C149.546 43.6375 148.877 41.9487 148.612 41.1626L148.538 41.4985C146.969 39.2101 148.941 41.4588 147.837 38.9944C147.042 37.4606 148.05 39.5997 147.509 38.6981C147.318 38.1651 147.201 37.7674 147.031 37.3067C146.989 37.162 146.819 36.7013 146.617 36.25C146.448 35.7893 146.193 35.2749 145.938 34.6428C145.821 34.245 145.62 33.6759 145.45 33.0974C145.407 32.9527 145.365 32.8081 145.333 32.6997C145.312 32.6273 145.291 32.555 145.28 32.5189C145.269 32.4827 145.259 32.4466 145.248 32.4104L145.238 32.3742L145.227 32.3381C145.089 32.3392 145.015 32.3217 144.994 32.2494C144.232 32.5911 143.099 32.9631 142.029 33.3164C141.744 33.4004 141.5 33.5112 141.246 33.5858C141.151 33.6138 141.055 33.6418 140.971 33.7059C140.907 33.7246 140.844 33.7432 140.791 33.798C140.547 33.9088 140.367 34.0009 140.261 34.1106C140.653 34.0348 140.907 33.9602 141.151 33.8494C141.553 33.6919 141.86 33.5625 142.199 33.4237C142.876 33.1462 143.671 32.7952 145.058 32.4664L144.19 33.0355C143.724 33.2116 143.194 33.4063 142.665 33.601C142.167 33.7865 141.638 33.9812 141.14 34.1666C140.526 34.4255 139.934 34.6389 139.51 34.724C139.679 34.7135 139.785 34.7217 139.711 34.822C138.049 35.5065 137.658 35.9357 135.963 36.3939C135.677 36.2423 136.662 35.9531 137.35 35.7117C136.228 35.8843 136.249 36.0744 134.566 36.5688C134.417 36.416 135.667 36.2061 135.804 35.9694L134.004 36.6551L133.994 36.6189C133.835 37.0189 132.607 37.0655 131.506 37.546C128.859 38.4019 128.563 38.9209 127.155 39.6486C126.721 39.6975 126.604 39.6532 126.742 39.5342C127.44 39.4468 127.282 39.3757 127.483 39.238C126.604 39.5354 125.407 39.5726 125.873 39.2788C124.475 39.807 126.424 39.2741 125.598 39.6345C125.598 39.6345 125.09 39.7837 124.613 39.9237C124.105 40.0729 123.629 40.2128 123.629 40.2128C123.893 40.2922 124.603 40.1231 123.629 40.5662C122.782 40.8543 122.369 40.9755 121.225 41.3113C121.363 41.1924 120.802 41.1609 121.638 40.9545C121.077 41.0408 120.219 41.2926 119.955 41.5667C121.236 41.3475 117.964 42.3083 118.96 42.2909L117.678 42.5101C117.964 42.4261 117.964 42.3083 118.388 42.2232C117.964 42.0727 117.393 42.5941 116.98 42.7153C116.524 42.8098 115.402 43.1001 115.275 43.0196C114.915 43.2039 113.941 43.4114 113.718 43.3589C113.157 43.563 113.729 43.5129 113.56 43.6412L111.58 44.1834C111.442 44.0667 111.177 43.7518 111.452 43.6317C110.722 43.9641 111.315 44.104 110.161 44.4037C110.722 43.9641 108.604 44.6252 109.472 44.0561C108.784 44.0619 106.931 44.5668 105.935 44.9376C105.353 45.305 107.058 44.7651 107.048 44.9645C104.199 45.8402 104.21 46.4654 102.072 46.9364L102.633 46.8502C101.362 47.3411 101.479 47.2676 100.769 47.6723C101.045 47.3166 99.096 47.3783 96.9466 48.0488C96.7985 48.2494 98.228 47.9474 97.9423 48.2669L96.5129 48.6867C96.407 48.6786 96.5552 48.5958 96.7351 48.5036C95.4858 48.9491 94.236 48.8056 93.9822 49.2336L92.5631 49.2183L93.1244 49.2498C92.9656 49.4143 91.5469 49.8702 91.2716 49.9903C89.8423 50.5279 89.2705 50.578 88.4233 50.6305C88.7092 50.6643 89.4189 50.7308 88.286 51.1028C88.1903 50.6596 85.8082 51.5948 85.7868 51.4047C85.3104 51.5447 84.442 51.6426 84.4634 51.8327L84.4843 51.5516C84.4635 51.9505 82.7693 52.4087 81.4776 52.8274C81.6148 52.2372 80.0482 53.2471 79.3491 52.9812C79.1905 53.3812 77.0621 53.7706 76.9247 54.1252C75.94 54.4144 75.9504 54.0971 75.6644 54.0633L75.2198 54.3117C74.6585 54.2802 72.7738 54.7944 71.6408 55.0486L70.6775 55.6457L70.2539 55.613C70.1163 55.7319 69.2693 56.02 69.8094 55.9792L69.2376 56.1471C69.3014 56.4818 68.4648 56.4526 67.3955 56.9237C67.1308 56.9622 67.1624 56.8351 67.4059 56.7243C66.8342 56.8922 67.0352 56.6368 66.6857 56.6216C67.1199 56.5727 64.8651 57.824 66.3898 57.494C66.5276 57.6106 65.7018 57.971 65.1088 58.0666L64.6745 57.8799L64.103 58.4012C63.256 58.6893 62.8217 58.6204 62.1229 58.8257C62.8111 58.5843 63.5412 57.7807 61.7095 58.3579C62.6836 58.0326 63.107 57.7119 63.5622 57.4997C63.181 57.6116 62.9798 57.6314 63.5409 57.3095C62.1433 57.8378 63.1175 57.6303 61.7093 58.1224C61.6985 57.8506 61.2855 57.8541 60.0043 58.1911L60.9786 58.1013C60.9574 58.1468 60.9045 58.2016 60.8092 58.2296C61.1693 58.1631 61.2752 58.1713 61.4023 58.2518C61.1164 58.3358 59.8568 59.0984 59.5602 59.0284C61.0957 58.9702 57.1676 60.1631 58.1525 60.1095C58.0149 60.2285 57.0408 60.5538 56.8819 60.4827C57.9935 59.9206 55.9076 60.4546 56.0133 60.2272C55.5898 60.4301 57.0193 60.1281 56.4476 60.4138C55.7594 60.6552 55.177 60.6692 54.7746 60.7088L55.0392 60.5525L53.9062 60.8067C53.7581 61.0073 55.0393 60.6703 54.0547 61.0773C53.79 61.1158 52.8054 61.5228 52.8053 61.405C53.218 61.0481 52.8049 60.9338 53.6413 60.6096C52.9214 60.8603 50.7086 61.6672 51.6935 61.6137L50.8464 61.9017C51.4077 61.8154 52.9431 61.5216 51.2914 62.1245L51.2808 62.0883L50.1799 62.6866L49.608 62.7367C49.661 62.7997 49.4917 62.928 49.047 63.0586C48.8987 63.0236 48.4857 63.1448 48.4856 63.027C47.2363 63.4725 47.3741 63.5891 47.2365 63.7081C46.5589 63.9856 46.2624 64.0334 46.527 63.7593C45.5529 64.0847 43.8801 64.7331 43.1812 64.8205C41.9426 65.4199 43.4777 64.7727 42.7791 65.2135C41.5188 65.1516 38.4699 66.6361 36.4161 67.632C37.1469 67.7709 35.8868 67.9446 35.6542 68.4449C36.0352 68.0974 33.579 69.1329 35.315 68.1125C35.315 68.1125 35.0504 68.2688 34.7751 68.3889C34.5105 68.5451 34.2459 68.7014 34.2459 68.7014C33.3987 68.8716 35.9713 67.6448 34.743 67.927C33.515 68.5626 32.9332 69.4011 31.4617 70.1475C31.6203 69.8652 31.3663 70.0576 31.0805 70.2594C30.7947 70.4611 30.5196 70.6991 30.6147 70.4355C30.8368 70.1346 31.2603 69.9317 31.6201 69.6296L31.3449 69.7497C30.6674 70.1451 30.3393 70.4378 30.1488 70.6116C29.9583 70.7853 29.9478 70.867 29.9373 70.9486C29.9691 71.0571 30.1598 71.1189 29.5672 71.6857C28.1384 72.9301 28.2757 72.4577 28.1274 72.4227C27.8628 72.579 27.175 73.2916 26.8894 73.7289C27.2279 73.2367 27.6724 72.8705 27.937 72.7143C28.2334 72.5487 28.3817 72.5837 28.2549 72.8566C28.0431 72.958 27.8103 73.105 27.588 73.2881C27.334 73.4805 27.1436 73.7721 26.9108 74.0368C26.477 74.557 26.1703 75.1576 26.0328 75.3943C27.0276 74.4345 27.3557 74.1418 27.6731 73.8129C27.8319 73.6485 28.0012 73.5202 28.2446 73.2916C28.3504 73.182 28.5304 73.0899 28.6997 72.9616C28.8691 72.8333 29.102 72.6864 29.3666 72.5301C29.557 72.2385 29.345 71.9866 30.6364 71.2146C29.9698 71.8817 30.7742 71.3312 31.0177 71.2204C30.8483 71.2309 31.0388 71.0571 31.3246 70.8554C31.6103 70.6536 31.9914 70.4239 32.1501 70.2595C32.5737 70.1743 31.5895 71.0525 32.9021 70.3528L32.9653 69.863C33.4841 69.6321 32.8703 70.2443 33.9076 69.5469C33.6748 69.8117 33.7596 69.8654 33.7173 69.9563C33.675 70.0473 33.5057 70.1756 32.8176 70.6525C34.681 69.9482 35.3793 69.0362 36.7343 68.2455C36.5861 68.3283 36.6073 68.4006 36.4909 68.4741C36.7343 68.2455 37.2848 68.0053 37.7082 67.8024C38.6823 67.4771 37.052 68.27 37.338 68.3039C37.338 68.3039 37.6979 68.1196 38.0684 67.9715C38.439 67.8234 38.7989 67.6392 38.7989 67.6392C38.8307 67.6299 38.8307 67.6299 38.8413 67.666C39.2224 67.4363 39.5823 67.252 39.773 67.3138C39.3814 67.6252 39.2333 67.8258 38.9899 68.0544C38.9899 68.0544 39.371 67.8247 39.7203 67.6042C40.1014 67.3745 40.4507 67.1541 40.4507 67.1541C40.3343 67.3454 41.8484 66.8614 40.7262 67.3874C40.7262 67.3874 41.3085 67.1378 41.9014 66.9244C42.4943 66.711 43.0766 66.4615 43.0766 66.4615L43.3732 66.6493C43.9238 66.409 43.9343 66.3274 43.2461 66.5688C44.072 66.3262 46.6972 64.809 46.4436 65.4726C48.2115 64.5607 48.9315 64.4278 51.1548 63.5392C49.5034 64.3777 53.2514 63.1591 51.4304 63.8903C52.5634 63.6361 52.7008 63.2815 53.5266 62.9212C54.3737 62.751 54.0775 63.1522 53.2517 63.5125L54.2151 63.0332L54.1939 63.0787C54.1939 63.0787 54.4057 62.9772 54.6068 62.8396C54.8185 62.7382 55.0302 62.6367 55.0302 62.6367C56.015 62.4653 55.3269 62.8245 56.2798 62.5447L56.4279 62.2263L57.1268 62.1388C56.8408 62.105 57.3913 61.8648 58.1113 61.6141L58.1219 61.6502L58.9583 61.326C58.1537 61.7587 59.763 61.129 59.4349 61.4217C60.1655 61.2071 60.1867 61.1617 61.5101 60.7337L61.2453 60.6544C62.9499 59.9967 61.3832 60.8888 62.8019 60.4329L62.6535 60.2801C64.7714 59.9723 66.0204 59.0557 67.5981 58.7887C66.7511 59.0767 67.0372 59.2283 67.0266 59.1922C68.3077 58.7374 70.4147 58.1579 71.6851 57.5491C72.2359 57.6623 72.3948 57.7335 73.7925 57.4408C74.7772 57.1516 74.9254 57.0688 75.2006 56.8309C76.1854 56.6595 77.9852 55.9738 78.0807 56.1814C78.2606 55.9715 78.9489 55.9657 79.4571 55.6987L79.6054 55.7337L79.457 55.5809C81.2997 55.511 82.2944 54.5512 84.1476 54.3997L83.8724 54.5198L84.5817 54.233C84.73 54.268 84.4336 54.4335 84.4231 54.5152L87.8431 53.5893L87.1336 53.6406C87.8324 53.4354 88.2875 53.1054 89.1241 53.0168C87.8326 53.671 90.2465 52.7264 90.5325 52.8781L89.8232 53.1649C90.8079 52.8757 90.8079 52.8757 90.6912 52.7136C91.983 52.295 91.6868 52.814 92.809 52.2881L91.9407 52.5038C91.6548 52.4699 92.2158 52.1481 92.7876 51.9802C92.9253 51.979 93.3594 51.93 92.9253 52.0968C93.9312 51.7621 95.4877 51.4228 95.9112 51.2199C96.4724 51.1336 96.3454 51.2887 96.049 51.4543C98.1771 50.7115 97.0443 51.2013 99.1725 50.4585L99.1725 50.5763L99.903 50.244L101.026 50.1892L100.602 50.1565C101.301 49.9513 101.756 49.7391 102.603 49.5688L102.296 49.8161C104.287 49.1922 104.7 49.4243 106.584 48.6745C106.722 48.6734 106.447 48.7935 106.299 48.8763C108.014 48.1369 107.718 48.7737 109.411 47.9621C109.327 48.0262 109.539 48.0426 109.454 48.1067L110.248 47.7557L110.248 47.9913L110.83 47.5061L111.402 47.5738L111.688 47.3721C112.662 47.5179 113.816 46.8649 115.087 46.8451L114.822 46.648C116.23 45.9203 117.977 45.525 119.82 45.1018C121.63 44.6878 123.536 44.2459 125.315 43.6057L125.315 43.8413L126.723 43.1136C127.56 43.025 126.3 43.4343 126.586 43.4682C128.131 42.8571 127.157 42.9469 128.968 42.2973C129.952 42.126 128.693 42.5353 128.28 42.7743C129.984 42.1166 132.515 41.2164 133.764 40.8887C133.785 40.8433 133.838 40.7884 133.775 40.8071C134.907 40.3173 136.443 39.9057 137.692 39.4603C137.692 39.5781 137.375 39.6713 137.067 39.8008C137.544 39.6609 138.158 39.5198 138.539 39.29L138.126 39.6469C139.111 39.3577 140.932 38.5087 141.207 38.6242C141.059 38.5892 141.048 38.4353 141.885 38.1111C141.959 38.1286 142.033 38.1461 142.16 38.1088C142.224 38.0901 142.255 38.0808 142.319 38.0621C142.351 38.0528 142.383 38.0435 142.383 38.0435C142.478 38.0155 142.563 37.9514 142.679 37.8779C142.795 37.8044 142.944 37.7216 143.06 37.6482L143.155 37.6202C143.198 37.647 143.177 37.6925 143.219 37.7193C143.24 37.7916 143.272 37.9001 143.293 37.9724C143.261 37.9817 143.198 37.8826 143.145 37.8196C143.134 37.7834 143.134 37.7834 143.134 37.7834L143.102 37.7928C143.071 37.8021 143.071 37.8021 143.102 37.7928C143.134 37.7834 143.145 37.8196 143.155 37.8558C143.166 37.8919 143.177 37.9281 143.187 37.9642C143.209 38.0365 143.251 38.0634 143.293 38.0902C143.346 38.1532 143.442 38.243 143.537 38.3328C143.537 38.3328 143.505 38.3421 143.474 38.3515C143.442 38.3608 143.41 38.3701 143.41 38.3701C143.41 38.3701 143.463 38.4331 143.495 38.5416C143.506 38.5777 143.516 38.6139 143.559 38.6407C143.569 38.6769 143.569 38.6769 143.58 38.713C143.59 38.7492 143.612 38.8215 143.654 38.8483C143.749 39.0559 143.845 39.2635 143.94 39.4711C144.333 40.3377 144.747 41.1588 144.747 41.1588C144.694 41.8026 146.147 44.4001 145.861 44.2484C146.36 45.4766 145.542 43.1638 146.232 44.6893C146.296 45.1419 146.879 46.0703 146.678 46.0901L146.593 45.9186L147.049 47.0022L146.593 46.3898C147.039 47.3194 147.463 47.9411 147.632 47.9306C147.909 48.8706 148.513 50.107 148.513 50.5781L148.354 50.2714C149.458 52.7359 149.565 54.6288 150.657 56.4681C150.7 56.6127 150.636 56.6314 150.509 56.3153L151.103 57.8689L150.838 57.554L152.047 60.0266L151.941 60.0184C152.26 60.8675 152.684 61.9604 153.162 63.1162C153.607 64.2814 154.096 65.4734 154.52 66.5662L154.361 66.2595C155.39 68.5887 155.157 68.6178 155.9 70.3242C155.847 70.2612 155.836 70.225 155.783 70.162L156.356 71.7611L156.123 71.4368C156.759 72.546 157.068 74.8903 156.972 74.0937C157.29 74.7072 157.789 75.8176 157.98 75.9972C158.595 77.7409 158.012 76.459 158.299 77.5531C158.702 78.8092 158.956 78.9702 159.434 80.715L159.328 80.7068C159.594 81.4929 159.838 81.9711 160.199 83.0826L160.04 82.7759C160.432 83.6425 160.538 84.2396 160.666 84.7913C160.783 85.3068 160.889 85.7862 161.324 86.444C161.483 87.2219 161.982 88.6857 161.77 88.6693C161.972 89.2385 162.163 89.7715 162.343 90.2684C162.524 90.7652 162.673 91.2714 162.821 91.7776C163.15 92.7806 163.448 93.793 163.808 94.9045C163.597 95.3594 163.989 95.4014 164.128 96.8138L164.255 96.6587C164.658 98.2682 164.999 100.014 165.328 101.842C165.616 103.643 165.945 105.47 166.37 107.27L166.233 107.389L166.54 108.084C167.232 111.965 167.977 116.97 168.297 120.057C168.414 120.573 168.563 121.197 168.701 121.902C168.775 122.273 168.85 122.644 168.892 123.024C168.914 123.215 168.935 123.405 168.967 123.631C168.988 123.821 169.02 124.047 169.031 124.201L168.989 124.057L169.031 124.437C169.042 124.473 169.052 124.509 169.063 124.545C169.084 124.618 169.074 124.699 169.053 124.745C169.031 124.79 168.989 124.881 168.968 124.927C168.968 124.927 168.746 125.11 168.481 125.266C167.338 125.955 166.163 126.654 164.977 127.316C165.104 127.161 164.818 127.245 165.072 127.053C164.607 127.582 163.696 127.889 163.167 128.201L163.823 127.969C163.231 128.536 162.183 128.962 161.748 129.011L160.743 129.817C160.679 129.835 160.552 129.873 160.51 129.846L160.362 130.046L159.663 130.134C159.409 130.326 158.001 131.172 157.663 131.664C157.525 131.665 156.498 132.163 157.25 131.667C157.25 131.667 157.017 131.814 156.625 132.008C156.233 132.201 155.757 132.459 155.249 132.726C154.222 133.224 153.227 133.713 153.227 133.713L153.883 133.481C154.032 133.633 152.899 134.359 152.211 134.6C152.973 134.023 152.158 134.302 151.766 134.377C151.258 134.762 152.327 134.291 152.052 134.529C151.427 134.987 149.977 135.806 149.596 135.918L149.966 135.652C149.056 136.194 148.474 136.091 147.574 136.551C146.801 137.092 146.123 137.252 146.431 137.476C145.234 138.102 145.88 137.481 145.478 137.638C144.98 138.059 143.223 138.772 142.969 138.728C142.493 139.457 139.591 140.034 139.496 140.534L138.395 140.778C138.395 140.896 138.279 141.205 137.495 141.592C136.67 141.835 136.796 141.562 136.521 141.564L136.14 142.148C131.492 143.591 125.669 146.204 120.502 147.526C119.391 147.97 118.141 148.415 116.839 148.916C115.526 149.38 114.171 149.817 112.837 150.209L113.112 150.089L110.455 150.791L112.403 150.376C111.842 150.58 111.429 150.819 110.857 150.987C110.116 151.165 109.343 151.353 108.496 151.523C107.649 151.693 106.781 151.909 105.88 152.134C104.98 152.359 104.08 152.584 103.159 152.855C102.228 153.089 101.328 153.314 100.449 153.611C98.2255 154.618 98.786 153.589 96.6262 154.459C96.8062 154.367 96.8485 154.276 97.0285 154.184C95.832 154.574 94.9214 154.763 94.0109 155.07C93.0897 155.341 92.1685 155.611 90.9721 156.002C91.1623 155.475 89.3838 156.35 89.5742 156.059L89.405 156.305C88.8543 156.309 87.5624 156.492 87.7211 156.328L86.7786 156.408L86.662 156.246C85.9419 156.379 84.8301 156.588 83.7818 156.778C83.2523 156.855 82.7546 156.923 82.3205 156.972C81.8757 156.984 81.5579 156.96 81.3355 156.907C79.5884 157.303 77.2906 157.702 74.8762 158.058C72.4406 158.341 69.8991 158.616 67.6435 158.808C67.0188 159.03 65.7057 159.141 64.6679 159.249L63.5241 159.114C62.9946 159.191 62.4864 159.34 61.9569 159.417C61.4381 159.53 60.9086 159.607 60.4426 159.548C60.432 159.512 60.4955 159.493 60.559 159.474C59.553 159.573 58.6209 159.454 57.7315 159.598C57.2337 159.548 56.7464 159.416 56.471 159.3C56.1955 159.185 56.0471 159.032 56.206 158.985C56.1531 159.158 55.6659 159.026 55.3162 158.775C55.2314 158.722 55.136 158.632 55.0513 158.578C54.9665 158.525 54.9135 158.462 54.8605 158.399C54.7545 158.273 54.7015 158.21 54.7015 158.21C54.7015 158.21 54.5744 158.129 54.3836 157.95C54.1928 157.77 53.9384 157.491 53.6097 156.959C53.281 156.427 52.9415 155.624 52.57 154.476C52.3683 153.907 52.1665 153.22 51.9542 152.497C51.7418 151.774 51.4871 151.024 51.2535 150.228C49.2787 143.857 46.6138 135.135 43.8744 125.924C41.1349 116.714 38.3103 106.979 35.868 98.5449C33.4257 90.1112 31.3021 82.9978 29.827 79.0323C29.5407 78.5272 29.0312 77.0273 29.0105 77.6618C28.6707 76.5048 28.8079 75.9147 28.5748 75.7082C28.8725 77.3096 28.0449 75.314 28.2368 76.9072L27.9501 75.931C27.7911 75.742 28.4065 77.2501 28.1416 77.0529L28.5124 77.2582C28.6825 78.0723 28.7146 78.5342 28.7043 78.8514C29.0226 79.5827 29.5524 79.977 29.8186 81.8232L29.6699 81.3171C30.0629 82.7726 29.7024 82.2501 29.7344 82.5942L29.6389 82.2688L29.8093 83.554C29.6603 82.5767 29.0237 81.1141 29.2573 81.9095C29.6082 83.6916 29.2252 81.4477 29.5757 82.7586C29.8093 83.554 29.5868 83.3837 29.4809 83.3756L29.8738 84.8311C29.7256 84.7962 29.6189 83.8456 29.6406 84.5069L30.2774 86.3229C30.0236 86.7509 30.9567 88.2835 30.8516 89.2177C30.4269 87.8892 30.7563 89.3635 30.5973 89.1745L31.4789 92.4111C31.5003 92.719 31.1287 91.5713 31.2774 92.0775C31.3308 92.7295 31.6382 93.0712 31.702 93.4059C31.6917 93.7232 32.3499 95.847 32.0957 95.8039C32.5422 98.0292 32.6577 96.66 33.0617 98.7407C32.9772 99.0404 32.5839 97.1137 32.6905 98.0642L33.317 100.197C33.2004 100.035 32.9672 99.8289 32.7972 99.0148C34.1572 104.821 34.2657 108.127 35.9641 113.323C35.9859 114.102 35.7096 112.809 35.4339 112.34C36.7394 116.08 36.5924 117.812 37.5375 121.03L37.6858 121.065C38.5684 125.715 40.4152 131.064 41.7854 136.199L41.7001 135.557C42.029 136.206 42.4005 137.354 42.7083 138.167C42.6872 138.33 42.2419 137.636 42.7407 139.1C42.6876 138.802 42.56 138.132 42.6766 138.294C43.1655 140.546 44.1318 143.954 45.2679 147.705C45.8518 149.576 46.4252 151.529 47.0304 153.472C47.3171 154.448 47.5931 155.388 47.9646 156.418C48.3043 157.457 48.7181 158.514 49.3014 159.56C49.715 160.263 50.2027 160.984 50.7962 161.595C51.3898 162.206 52.0786 162.79 52.7885 163.209C53.4984 163.629 54.2188 163.968 54.9391 164.188C55.6594 164.409 56.3585 164.557 57.047 164.669C58.4133 164.857 59.6841 164.837 60.9126 164.79C61.5268 164.767 62.0987 164.717 62.7023 164.657L64.4602 164.534C66.79 164.36 69.1304 164.223 71.3965 163.95C73.6626 163.677 75.95 163.477 78.1208 163.114C76.7971 163.307 77.2839 162.849 78.3006 162.786C81.1708 163.043 83.0445 162.022 85.9251 161.961C87.1851 161.67 88.4029 161.469 89.6206 161.269C90.2136 161.173 90.8383 161.068 91.4313 160.972C92.0243 160.877 92.6067 160.745 93.1997 160.65C94.3751 160.422 95.5187 160.204 96.6834 159.941L97.5517 159.725L98.4093 159.473C98.9811 159.305 99.5422 159.101 100.103 158.897L100.252 159.05C100.951 158.962 101.109 158.798 101.84 158.583L101.819 158.629C102.698 158.449 103.629 158.215 104.487 157.963C105.345 157.711 106.096 157.451 106.594 157.384L106.594 157.148C107.61 156.849 107.155 157.179 108.172 156.763L108.172 156.881L109.326 156.346C109.315 156.545 110.056 156.367 110.882 156.124C111.708 155.882 112.64 155.529 113.053 155.526C114.334 155.071 116.758 154.163 118.738 153.621C119.173 153.689 121.555 152.872 123.122 152.451C123.874 152.191 124.678 151.876 125.557 151.579C126.425 151.245 127.325 150.902 128.289 150.541C130.184 149.827 132.185 149.122 134.027 148.345L133.868 148.156L134.821 147.759C134.831 147.795 134.969 147.794 134.821 147.876C135.668 147.824 137.012 146.879 137.87 146.745C137.309 146.714 137.182 146.987 136.621 147.191C135.784 147.397 136.462 146.884 137.573 146.557L137.552 146.603L138.219 146.171C138.368 146.324 139.066 146.119 139.215 146.272C140.792 145.534 142.084 144.879 143.375 144.225C144.032 143.875 144.698 143.562 145.397 143.239C146.085 142.879 146.816 142.547 147.631 142.151C147.388 142.497 149.918 141.008 149.42 141.664C151.283 140.607 148.976 141.559 149.737 140.864C150.288 140.624 150.796 140.239 150.955 140.31C150.743 140.53 151.474 140.315 151.061 140.554C151.061 140.554 151.389 140.379 151.696 140.25C152.024 140.075 152.321 139.909 152.321 139.909C152.448 139.872 152.194 140.064 152.046 140.147C154.523 138.595 156.736 138.024 158.937 136.591C159.043 136.364 158.006 137.061 158.111 136.834C160.292 135.33 160.261 135.928 162.314 134.579L161.954 134.999C162.6 134.495 162.822 134.194 164.018 133.685C164.315 133.755 163.119 134.382 162.611 134.766C163.384 134.343 165.352 133.176 164.643 133.345C165.532 132.73 165.977 132.717 166.485 132.45C166.464 132.378 165.564 132.839 166.061 132.418C167.364 131.8 169.301 130.642 170.857 129.713C170.878 129.786 171.016 129.785 170.91 129.894C171.185 129.656 171.471 129.454 171.725 129.262C172.042 129.051 172.349 128.804 172.625 128.566C172.9 128.328 173.228 128.035 173.524 127.516C173.894 127.132 174.201 126.414 174.253 125.299Z" fill="white"/>
<path d="M133.255 36.7984L133.922 36.6025C133.911 36.5661 133.921 36.4841 134.218 36.3181L133.255 36.7984Z" fill="white"/>
<path d="M155.521 58.3422C155.584 58.4419 155.606 58.5146 155.669 58.6144C155.605 58.3962 155.563 58.3692 155.521 58.3422Z" fill="white"/>
<path d="M159.182 66.9274C158.895 66.301 159.066 66.8827 159.13 67.2192C159.204 67.2369 159.225 67.1912 159.182 66.9274Z" fill="white"/>
<path d="M115.269 42.9866C115.385 42.9129 115.449 42.8942 115.396 42.8308C115.247 42.9138 115.226 42.9595 115.269 42.9866Z" fill="white"/>
<path d="M64.5039 57.1849C64.5674 57.1663 64.631 57.1476 64.7052 57.1653C64.6627 57.1383 64.5992 57.157 64.5039 57.1849Z" fill="white"/>
<path d="M67.3857 56.6531C67.5127 56.6158 67.7033 56.5598 67.9468 56.4489C67.7244 56.5142 67.5338 56.5702 67.3857 56.6531Z" fill="white"/>
<path d="M127.438 39.2126C127.629 39.1566 127.809 39.0643 127.957 38.9813C127.639 39.0746 127.523 39.1483 127.438 39.2126Z" fill="white"/>
<path d="M68.5391 56.2356L69.2485 56.0667L69.2379 56.0304L68.5391 56.2356Z" fill="white"/>
<path d="M63.6037 57.4092C63.8896 57.3253 64.239 57.2227 64.4931 57.148C64.133 57.2143 63.8471 57.2982 63.6037 57.4092Z" fill="white"/>
<path d="M96.7272 48.4691C96.7589 48.4598 96.7589 48.4598 96.7907 48.4505C97.3412 48.2098 97.0024 48.3488 96.7272 48.4691Z" fill="white"/>
<path d="M71.5116 54.97C71.5434 54.9607 71.5751 54.9514 71.6069 54.9421L71.7761 54.8134L71.5116 54.97Z" fill="white"/>
<path d="M60.5419 58.269C60.669 58.2317 60.796 58.1944 60.8806 58.13C60.7853 58.158 60.6583 58.1953 60.457 58.215C60.4995 58.242 60.5419 58.269 60.5419 58.269Z" fill="white"/>
<path d="M85.9978 51.0688C85.8286 51.1974 85.7546 51.2981 85.7653 51.3345C86.0194 51.2599 86.1358 51.1862 85.9978 51.0688Z" fill="white"/>
<path d="M154.722 55.5118C154.753 55.5027 154.795 55.5292 154.826 55.5201C154.784 55.4935 154.753 55.5027 154.722 55.5118Z" fill="white"/>
<path d="M148.787 37.6534L148.915 37.8529C148.84 37.7168 148.83 37.6805 148.787 37.6534Z" fill="white"/>
<path d="M158.406 66.1727C158.395 66.1366 158.365 66.1454 158.406 66.1727C158.449 66.3173 158.512 66.5343 158.618 66.8958L158.406 66.1727Z" fill="white"/>
<path d="M134.077 35.3817C134.024 35.4367 133.94 35.501 133.845 35.529C133.972 35.4917 134.067 35.4637 134.077 35.3817Z" fill="white"/>
<path d="M158.685 72.4123L158.684 72.0571C158.663 72.1028 158.632 72.2305 158.685 72.4123Z" fill="white"/>
<path d="M163.099 82.9762C163.12 82.9313 163.12 82.9313 163.099 82.9762C163.109 82.8956 163.12 82.9313 163.099 82.9762Z" fill="white"/>
<path d="M162.048 78.5747C161.985 78.4749 161.963 78.4022 161.899 78.3025C161.942 78.4479 161.985 78.5933 162.048 78.5747Z" fill="white"/>
<path d="M161.792 78.177C161.802 78.2127 161.855 78.2749 161.865 78.3105C161.844 78.2392 161.823 78.1678 161.792 78.177Z" fill="white"/>
<path d="M36.1734 114.402C36.2372 114.737 36.4068 114.962 36.5234 115.242L36.1734 114.402Z" fill="white"/>
<path d="M83.52 50.7336L83.5614 50.6439C83.5095 50.6979 83.5095 50.6979 83.52 50.7336Z" fill="white"/>
<path d="M37.3618 114.564L37.3942 114.791C37.3728 114.719 37.3832 114.637 37.3618 114.564Z" fill="white"/>
<path d="M156.301 66.8692C156.089 66.6173 155.982 65.9024 155.866 65.9759C156.025 66.2826 156.099 66.7712 156.301 66.8692Z" fill="white"/>
<path d="M37.3604 114.565L37.3175 114.301C37.2964 114.347 37.2964 114.347 37.2753 114.392C37.2859 114.429 37.3391 114.492 37.3604 114.565Z" fill="white"/>
<path d="M52.0085 61.2878C52.0397 61.2787 52.0708 61.2695 52.0604 61.2339L52.0085 61.2878Z" fill="white"/>
<path d="M50.2528 61.6454C50.3692 61.5717 50.4645 61.5437 50.5809 61.47C50.401 61.5624 50.3057 61.5904 50.2528 61.6454Z" fill="white"/>
<path d="M36.5557 115.233L36.7686 115.724C36.7152 115.542 36.6301 115.369 36.5557 115.233Z" fill="white"/>
<path d="M32.3915 68.1463C32.4551 68.1276 32.5186 68.109 32.5397 68.0633C32.4868 68.1183 32.4233 68.137 32.3915 68.1463Z" fill="white"/>
<path d="M135.401 35.0702C135.433 35.0609 135.507 35.0786 135.57 35.0599C135.56 35.0236 135.517 34.9966 135.401 35.0702Z" fill="white"/>
<path d="M124.529 42.1079C124.296 42.1368 124.043 42.3298 123.916 42.4855C124.138 42.4202 124.318 42.3279 124.529 42.1079Z" fill="white"/>
<path d="M133.351 39.8321C133.276 39.8144 133.213 39.833 133.139 39.8153C133.213 39.833 133.255 39.86 133.351 39.8321Z" fill="white"/>
<path d="M91.1775 54.2602C93.6762 53.3693 96.8417 52.0469 99.351 51.3099C99.8061 50.8621 100.59 50.5927 101.362 50.2872L101.564 50.6208L102.189 50.2803C102.506 50.3048 101.702 50.5018 102.22 50.5065L102.4 50.1788C102.506 50.3048 104.126 49.7112 103.099 50.327L105.683 49.4897C106.254 49.3218 105.905 49.071 106.561 48.9568C106.72 49.0279 106.36 49.0944 106.466 49.2203C108.436 48.8776 108.435 47.8174 110.256 47.4396L110.108 47.5224C110.362 47.33 110.966 47.1528 110.955 47.1166C110.626 46.8203 110.701 47.4268 110.097 47.3685C110.034 47.0337 110.711 46.9918 110.605 46.748C111.05 46.7352 111.251 46.4798 111.59 46.341C112.278 46.3353 113.093 45.9388 113.633 46.0158C113.888 45.8234 114.141 45.3953 114.777 45.2088C115.327 45.3219 114.756 45.4898 115.412 45.3756L115.454 45.1668C115.973 45.0537 115.92 45.1085 115.91 45.1902C116.482 45.0223 116.28 44.8065 117.011 44.7097L116.683 45.0024C117.17 44.7809 117.403 44.7517 118.102 44.5465C118.133 44.655 117.816 44.7482 117.615 44.7681C118.07 44.9092 118.239 44.4275 118.472 44.3984C118.387 44.3447 117.868 44.4579 118.07 44.2024C118.43 44.136 118.758 43.7255 119.075 43.8678L118.747 44.1605C119.435 43.8013 119.065 43.8316 119.933 43.6159C119.901 43.6252 119.922 43.6975 119.933 43.7337C120.399 43.322 121.161 43.3337 121.955 43.1005L121.807 43.1833C122.104 43.0177 122.252 42.8171 122.41 42.7705C121.934 42.7926 122.05 42.7191 121.934 42.557C122.622 42.669 122.749 41.9249 123.786 41.8165C123.818 41.925 123.596 42.1081 123.31 42.0743C123.088 42.4929 123.099 42.7647 122.57 43.0772C122.93 42.893 123.332 42.7356 123.3 42.8627L123.342 42.5361C123.565 42.4708 123.755 42.4148 123.914 42.3682C123.956 42.1594 123.384 42.2095 123.85 41.9157C124.422 41.63 124.253 42.1116 124.306 41.939C125.068 41.5973 124.528 41.5203 125.354 41.3956C125.301 41.4504 125.152 41.5332 125.078 41.5157C125.682 41.4563 126.423 41.0423 126.72 41.3478C126.646 41.4481 126.678 41.5566 126.445 41.5858L126.434 41.5496C125.905 41.9799 126.921 41.328 126.826 41.7094C126.741 41.538 127.514 41.3502 127.906 41.2744L127.715 41.0948C128.699 40.0989 127.779 41.5474 128.922 41.0937C129.61 40.7345 128.615 41.1054 129.017 40.8301C129.536 40.717 129.78 40.8419 130.479 40.5188C130.69 40.5352 131.167 40.513 131.273 40.7568C131.686 40.5177 132.671 40.4641 132.819 40.1458C132.003 40.1889 132.131 40.6227 131.157 40.5947L131.347 40.3031C131.95 40.1259 132.713 39.7842 133.179 39.7259C133.073 39.7177 133.02 39.6548 133.073 39.6C133.93 39.2303 134.089 38.948 134.968 38.7685C135.158 38.9481 134.64 39.0612 134.269 39.2093C134.862 39.2315 134.841 39.0414 135.72 38.8618C135.805 39.0333 135.148 39.0297 135.106 39.2385L136.037 38.8863L136.048 38.9225C136.08 38.5598 136.789 38.7441 137.329 38.4677C138.695 38.0666 138.79 37.5674 139.446 37.0998C139.658 37.1161 139.743 37.1698 139.711 37.2969C139.319 37.2549 139.415 37.3447 139.341 37.445C139.806 37.2689 140.442 37.4357 140.23 37.655C140.929 37.332 139.934 37.585 140.347 37.3459L141.363 37.0474C141.193 36.9401 140.833 37.0066 141.299 36.7127C141.733 36.5459 141.956 36.4806 142.506 36.3582C142.464 36.4492 142.739 36.5646 142.348 36.6404C142.623 36.6381 143.004 36.5262 143.12 36.3349C142.845 36.3372 143.057 36.2358 143.269 36.1343C143.48 36.0329 143.734 35.9582 143.533 35.8602C143.533 35.8602 143.681 35.8952 143.819 35.8941C143.967 35.9291 144.084 35.9734 144.084 35.9734C143.978 35.9652 143.978 36.083 143.798 36.0574C143.968 36.2825 144.19 35.9816 144.359 35.9711C144.433 35.9886 144.55 36.0329 144.635 36.0866C144.719 36.1402 144.815 36.23 144.825 36.2662C144.963 36.265 145.196 36.4715 145.133 36.6079C145.292 36.6791 145.239 36.4983 145.302 36.4797C145.302 36.4797 145.408 36.6056 145.514 36.7316C145.567 36.7946 145.599 36.903 145.652 36.966C145.673 37.0383 145.726 37.1013 145.726 37.1013C145.652 37.2016 145.377 37.4395 145.282 37.3497C145.419 37.4664 145.483 37.4477 145.589 37.4559C145.663 37.4734 145.78 37.5177 145.854 37.7708C145.684 37.6635 145.706 37.8536 145.727 38.0437C145.748 38.2338 145.77 38.4239 145.537 38.2175C145.526 38.4169 145.59 38.7516 145.738 39.14C145.855 39.5377 146.036 39.9168 146.152 40.1967C146.449 40.5023 146.025 39.5272 146.226 39.5074C146.863 41.0878 147.424 41.0015 147.753 42.2402L147.689 41.9054C148.071 42.6181 148.007 42.5189 148.325 42.8968C148.018 42.7907 148.051 43.9593 148.539 45.1513C148.698 45.2225 148.485 44.3816 148.761 44.497L149.1 45.3007C149.122 45.373 149.026 45.2831 148.963 45.184C149.302 45.8698 149.186 46.6501 149.493 46.7562L149.441 47.6356L149.473 47.2729C149.631 47.3441 149.96 48.1115 150.045 48.2829C150.48 49.0586 150.48 49.412 150.523 49.91C150.576 49.7374 150.65 49.2837 150.904 49.9158C150.534 50.0639 151.287 51.3352 151.096 51.3912C151.202 51.635 151.256 52.1691 151.414 52.1225L151.181 52.1517C151.51 52.0945 151.86 53.0521 152.178 53.7834C151.691 53.7693 152.518 54.587 152.243 55.0605C152.592 55.0757 152.826 56.3423 153.144 56.3668C153.377 56.9266 153.081 56.9744 153.028 57.147L153.229 57.3628C153.187 57.6894 153.569 58.7554 153.697 59.4249L154.153 59.9194L154.121 60.1643C154.206 60.218 154.45 60.6962 154.418 60.3521L154.513 60.6775C154.799 60.5936 154.736 61.0834 155.118 61.6783C155.129 61.8322 155.054 61.8147 154.959 61.7249C155.086 62.041 154.885 61.943 154.853 62.1879C154.843 61.9162 155.754 63.1409 155.595 62.2451C155.701 62.1355 155.945 62.6137 156.008 62.9484L155.818 63.24L156.21 63.5176C156.422 64.0051 156.359 64.2594 156.444 64.6664C156.295 64.278 155.649 63.9573 156.021 64.9871C155.798 64.4634 155.554 64.2208 155.374 63.9596C155.437 64.1765 155.469 64.285 155.215 64.0062C155.586 64.8005 155.48 64.2033 155.788 65.0163C155.555 65.0454 155.565 65.3172 155.746 66.0496L155.714 65.47C155.756 65.4968 155.799 65.5236 155.809 65.5598C155.745 65.3428 155.767 65.2974 155.841 65.1971C155.883 65.3417 156.466 66.0345 156.382 66.2164C156.444 65.2554 157.177 67.5146 157.176 66.9256C157.261 66.9793 157.495 67.5391 157.389 67.6487C156.965 67.027 157.326 68.2564 157.135 68.1945C157.305 68.4196 157.103 67.6149 157.325 67.903C157.474 68.2914 157.474 68.6447 157.474 68.8803L157.358 68.7182L157.485 69.3877C157.644 69.4588 157.464 68.7264 157.729 69.2769C157.74 69.4309 158.005 69.9814 157.91 70.0094C157.645 69.8122 157.518 70.0851 157.306 69.5976C157.454 69.986 157.974 71.2865 157.995 70.652L158.175 71.1488C158.143 70.8048 158.015 69.8997 158.397 70.848L158.366 70.8573L158.79 71.479L158.79 71.8323C158.853 71.8137 158.938 71.8673 159.023 72.1566C158.981 72.2476 159.055 72.5006 158.949 72.4925C159.225 73.1969 159.299 73.0966 159.426 73.1771C159.575 73.5655 159.596 73.7556 159.416 73.6122C159.586 74.1907 159.968 75.1389 159.99 75.5646C160.371 76.2772 159.979 75.4106 160.286 75.7524C160.139 76.542 161.029 78.2833 161.518 79.4753C161.729 79.0205 161.677 79.7821 162.058 79.9057C161.857 79.6899 162.218 81.1548 161.74 80.1168L162.027 80.7396C162.006 81.2563 161.486 79.7202 161.476 80.5086C161.752 81.2131 162.303 81.5619 162.494 82.4483C162.155 82.2336 162.812 83.0618 162.473 82.9649C162.325 82.8121 162.251 82.5591 162.155 82.3514L162.166 82.5054C162.676 84.1231 162.611 82.846 163.078 83.6123C163.46 84.5605 163.152 84.4544 163.078 84.5547C163.089 84.7086 163.301 85.1961 163.471 85.4212C163.11 84.8987 163.237 84.2724 163.47 84.4789C163.354 85.0235 163.969 85.9426 164.17 86.1584C163.936 84.6562 163.82 85.2008 163.671 83.7523C163.522 83.5995 163.289 83.7464 163.109 82.8962C163.416 83.3557 163.225 82.8227 163.215 82.6687C163.141 82.8868 162.96 82.1544 162.822 81.92C162.854 81.675 163.331 82.2419 163.097 81.4465L162.716 81.4406C162.652 81.1059 163.002 81.4744 162.684 80.8609C162.98 81.1665 162.927 80.6324 163.288 81.5083C163.181 80.3221 162.545 79.9197 162.11 79.1441C162.163 79.2071 162.195 79.1978 162.259 79.2969C162.11 79.1441 161.983 78.828 161.877 78.5843C161.739 77.9964 162.195 78.9622 162.216 78.7989L161.803 78.2134C161.792 78.1772 161.792 78.1772 161.824 78.1679C161.696 77.9696 161.59 77.7258 161.633 77.6349C161.834 77.8507 161.993 77.9218 162.141 78.0746L161.579 77.2185C161.738 77.2897 161.505 76.3764 161.823 76.9899L161.282 75.6171L161.461 75.4072C161.302 75.1005 161.271 75.1098 161.387 75.5075C161.281 75.0282 160.232 73.5691 160.772 73.6461C160.199 72.636 160.114 72.229 159.531 70.9472C160.114 71.8756 159.371 69.698 159.848 70.7361C159.721 70.0666 159.435 70.0328 159.191 69.5546C159.116 69.0659 159.423 69.172 159.667 69.6502L159.339 69.1184L159.37 69.1091L159.063 68.6495C158.999 68.0792 159.243 68.4396 159.073 67.8611L158.819 67.8179L158.797 67.3922C158.744 67.5648 158.585 67.2581 158.437 66.8697L158.468 66.8604L158.256 66.3728C158.553 66.7962 158.118 65.9028 158.372 66.0638C158.213 65.6392 158.213 65.6392 157.927 64.8986L157.842 65.0805C157.354 64.1241 158.012 64.9523 157.746 64.1662L157.609 64.2851C157.449 63.036 156.739 62.3805 156.611 61.4754C156.823 61.9629 156.971 61.7624 156.908 61.781C156.589 61.0497 156.175 59.8752 155.73 59.1812C155.868 58.8267 155.91 58.7357 155.697 57.8948C155.464 57.335 155.411 57.272 155.231 57.1285C155.124 56.5314 154.605 55.5843 154.774 55.456C154.583 55.3942 154.625 54.9498 154.413 54.6979L154.456 54.6069L154.318 54.7259C154.307 53.6296 153.512 53.156 153.469 52.069L153.585 52.2311L153.363 51.8252C153.405 51.7342 153.522 51.8964 153.617 51.8684L152.948 49.9439L152.97 50.3696C152.821 49.9813 152.546 49.748 152.471 49.2593C152.98 49.9346 152.248 48.6178 152.396 48.4172L152.609 48.7869C152.375 48.2271 152.375 48.2271 152.238 48.3461C151.93 47.6509 152.364 47.7198 151.951 47.1342L152.131 47.6311C152.078 47.8037 151.824 47.525 151.728 47.1996C151.739 47.1179 151.696 46.8555 151.834 47.0899C151.569 46.5394 151.335 45.6262 151.166 45.4011C151.102 45.0663 151.261 45.1375 151.335 45.2728C150.752 44.1088 151.165 44.6943 150.582 43.5303L150.677 43.5023L150.423 43.1057L150.401 42.4444L150.369 42.6894C150.221 42.301 150.051 42.0759 149.934 41.5604L150.146 41.6945C149.647 40.5841 149.87 40.2832 149.297 39.2732C149.307 39.1916 149.392 39.363 149.445 39.426C148.862 38.4976 149.402 38.5746 148.787 37.6555C148.872 37.7092 148.861 37.5552 148.904 37.582L148.639 37.1493L148.84 37.1295L148.405 36.8251C148.405 36.8251 148.416 36.7434 148.416 36.6256C148.416 36.5078 148.426 36.4262 148.426 36.4262L148.236 36.2466C148.267 35.8838 148.119 35.4955 147.811 35.0359C147.504 34.5764 147.133 34.1355 146.783 33.6491C146.783 33.6491 146.772 33.7308 146.793 33.8031C146.783 33.8847 146.804 33.957 146.804 33.957C146.221 33.6176 145.586 33.333 144.887 33.1848C144.738 33.1498 144.527 33.1335 144.378 33.0985C144.23 33.0635 144.06 33.074 143.912 33.039C143.594 33.0145 143.287 33.0261 143.012 33.0284C142.43 33.0424 141.868 33.1286 141.349 33.2418C140.862 33.3455 140.386 33.4855 139.962 33.6884L139.931 33.4621L139.242 33.9391C138.776 33.8796 139.444 33.6837 139.285 33.6125C138.491 33.9635 139.031 34.0405 138.12 34.3472C137.601 34.3425 138.237 34.1559 138.438 34.0183C137.58 34.388 136.31 34.8789 135.643 34.957C135.653 34.9932 135.6 35.048 135.632 35.0387C135.06 35.3244 134.266 35.4398 133.61 35.6719C133.578 35.5634 133.768 35.5074 133.917 35.4246C133.694 35.4899 133.355 35.5109 133.165 35.6847L133.366 35.4293C132.847 35.5424 131.947 36.003 131.756 35.8234C131.841 35.877 131.863 36.0671 131.439 36.1522C131.089 35.9015 130.306 36.642 129.554 36.6665C129.628 36.5662 130.126 36.3808 129.967 36.4274C129.597 36.4577 129.321 36.6956 129.067 36.888L129.12 36.7154L127.553 37.372C127.204 37.1212 126.05 37.892 126.071 37.611C125.499 37.7789 126.59 37.6157 125.87 37.8664C125.637 37.7777 125.224 38.1346 125.192 37.9083L125.245 37.8535L124.747 38.0389L125.001 37.7287C124.567 37.8955 124.313 38.2057 124.324 38.3596C123.879 38.3724 123.308 38.6581 123.064 38.5333L123.212 38.4505C122.069 38.9042 121.115 38.4772 120.3 39.1093C120.226 39.0918 120.215 39.0557 120.374 39.009L119.644 39.2236L119.76 39.0323L118.659 39.6306L118.627 39.5221C117.822 39.7191 116.605 40.1553 115.61 40.5261L115.758 40.4433C114.699 40.9506 114.657 40.6882 113.894 41.0298C113.916 40.9844 113.947 40.975 113.979 40.9657L113.249 41.1803L113.375 41.0251C112.899 41.4007 111.745 41.2291 112.147 41.3073C111.861 41.5091 111.396 41.8029 111.332 41.9394C110.549 42.2088 111.099 41.8507 110.57 41.9277C109.998 42.0956 109.956 42.3044 109.14 42.4653L109.109 42.3568C108.77 42.4956 108.537 42.6425 108.039 42.8279L108.187 42.7451C107.436 43.2408 107.054 42.7637 106.557 43.4203C106.186 43.4506 105.541 43.7188 105.509 43.4926C104.535 43.9357 103.741 44.2867 102.756 44.6937C102.502 44.4149 102.544 44.7951 101.856 44.8009L101.973 44.9631C100.533 45.4645 98.7535 45.5157 97.1972 46.0906L97.0805 45.9285L96.8266 46.2387C95.1007 46.7063 92.8666 47.3231 91.5114 47.7604C91.0985 47.9995 90.5058 48.4484 89.754 48.5907L89.8069 48.5359C88.6106 49.0443 87.3401 49.5353 85.953 49.8641C86.0271 49.7638 85.847 49.7381 85.9952 49.6553C85.7413 49.9655 85.2117 49.9247 84.9258 50.0086L85.3177 50.0506C84.9896 50.3434 84.4072 50.3573 84.1424 50.278L83.6025 50.6722C83.5708 50.6815 83.4966 50.664 83.4543 50.6372L83.3908 50.7736L83.0095 50.65C82.8719 50.7689 82.099 51.0745 81.9192 51.4022C81.8345 51.3485 81.2521 51.4803 81.6756 51.2774L79.4521 51.9304L79.8227 51.9001C79.9393 52.0622 79.3147 52.4027 78.9441 52.433C79.3357 52.1216 78.9015 52.1706 78.6685 52.0819C78.4145 52.2744 78.9651 52.1519 78.8381 52.307C78.4994 52.5636 77.7265 52.8691 77.483 52.8621L77.6841 52.7245C77.1971 52.9461 76.858 52.7315 76.3604 52.9169C75.9688 53.2283 75.5769 53.1862 75.7678 53.4837C75.122 53.7519 75.45 53.3414 75.2276 53.4067C74.9524 53.6446 74.0207 53.8789 73.8405 53.7355C73.6291 54.3081 72.0299 54.1494 72.0196 54.5844L71.4159 54.5261C71.4478 54.6345 71.3844 54.8888 70.9927 55.0824C70.5479 55.0952 70.5901 54.8864 70.4312 54.8153L70.2939 55.2876C67.816 55.6618 64.7882 56.9831 62.088 57.5404C60.9552 58.0302 59.5578 58.6762 58.1919 59.0774L58.3295 58.9584L56.953 59.3234L57.9802 59.1788C57.7155 59.3351 57.5144 59.4727 57.2286 59.5567C55.7038 59.8866 53.6814 60.402 51.9452 61.1868C50.9186 62.0382 51.0449 61.0585 50.0182 61.792C50.1029 61.7279 50.1134 61.6462 50.1981 61.5821C49.0547 62.1535 48.4195 62.4579 47.3081 63.1378C47.3077 62.6666 46.5246 63.4071 46.5562 63.1622L46.514 63.371C46.1962 63.3465 45.5609 63.533 45.6138 63.3604L45.1481 63.7721L45.0315 63.61C44.3115 63.8607 42.8506 64.5254 42.3632 64.2758C40.7224 65.1504 37.9166 66.053 35.7037 66.7421C35.4391 67.0162 34.8145 67.2389 34.3169 67.4243L33.7238 67.4021C33.2474 67.6599 32.7924 68.1077 32.2841 68.1391C32.2734 68.103 32.3052 68.0937 32.3264 68.0482C31.8394 68.2697 31.3099 68.3467 30.8971 68.7036C30.336 68.9076 29.7324 68.9671 29.8275 68.7035C29.8594 68.812 29.7747 68.8761 29.6476 68.9134C29.5841 68.9321 29.4888 68.9601 29.3935 68.988C29.2665 69.0254 29.1394 69.0627 28.9806 69.1093C28.6947 69.1933 28.4194 69.3134 28.2395 69.4055C28.0277 69.507 27.9007 69.5443 27.9007 69.5443C27.9007 69.5443 27.6996 69.6819 27.3715 69.9746C27.0434 70.2673 26.6096 70.7875 26.2925 71.5875C25.9437 72.3969 25.7857 73.5038 26.0091 74.852C26.1368 75.6393 26.2217 75.9285 26.2961 76.2994C26.3706 76.6703 26.4556 77.0774 26.5406 77.4844C27.2422 80.8131 28.2624 85.3442 29.3569 90.1285C31.5776 99.6876 34.2652 110.249 36.1216 114.22C36.3336 114.472 36.6201 115.213 36.7681 114.894C36.9698 115.463 36.7264 115.81 36.9277 115.908C36.853 115.066 37.3939 116.085 37.425 115.251L37.5736 115.757C37.7008 115.838 37.2766 115.098 37.5097 115.187L37.1707 115.09C37.1174 114.674 37.149 114.429 37.2018 114.256C36.9897 113.887 36.5342 113.745 36.4911 112.776L36.5654 113.029C36.3742 112.261 36.6604 112.53 36.6814 112.367L36.7345 112.548L36.7446 111.877C36.7556 112.384 37.1798 113.124 37.063 112.726C36.9352 111.821 37.0314 112.971 36.8402 112.32C36.7234 111.923 36.9141 111.984 37.02 111.993L36.8394 111.26C36.9771 111.259 36.9563 111.776 37.0302 111.44L36.6588 110.528C36.9658 110.28 36.2662 109.543 36.4988 109.043C36.7323 109.721 36.6153 108.969 36.7424 109.05L36.3281 107.404C36.3492 107.241 36.5508 107.81 36.4447 107.566C36.4868 107.24 36.2326 107.079 36.2112 106.889C36.264 106.716 35.9137 105.641 36.1573 105.648C36.0611 104.498 35.7545 105.216 35.6478 104.148C35.7748 103.993 35.892 104.979 35.9128 104.463L35.5943 103.378C35.6897 103.468 35.8803 103.53 35.9336 103.946C35.4335 100.951 35.8134 99.1899 35.0277 96.5143C35.1121 96.0968 35.2079 96.7756 35.3775 97.0007C34.7089 95.0763 35.1318 94.1666 34.7069 92.4847L34.5692 92.4859C34.4826 90.0763 33.5697 87.3203 33.1334 84.6599L33.0913 84.9865C32.8581 84.6622 32.72 84.0744 32.5608 83.6499C32.6031 83.5589 32.9422 83.8913 32.6875 83.1414C32.6664 83.3046 32.6985 83.6487 32.6031 83.5589C32.5386 82.3996 32.1878 80.6174 31.7838 78.6545C31.5713 77.6958 31.3693 76.6554 31.1461 75.6606C31.0398 75.1812 30.9122 74.5118 30.9441 74.6202C30.9546 74.5386 30.9651 74.4569 31.018 74.4021C31.0286 74.3205 31.0709 74.2295 31.1661 74.2015C31.1979 74.1922 31.1979 74.1922 31.2297 74.1829L31.4414 74.0814C31.7273 73.9975 31.9708 73.8867 32.2567 73.8027C33.3578 73.4401 34.4907 73.0681 35.5812 72.6693C37.8152 71.9346 40.0175 71.2093 42.0926 70.4035C41.4679 70.6263 41.6052 70.1539 42.1029 70.0863C43.6387 70.2637 44.358 69.1884 45.83 69.1488C48.2121 68.0958 50.563 67.8767 52.6695 66.5904L52.7861 66.7525C53.1568 66.7222 53.2096 66.5496 53.5484 66.4108L53.559 66.447C54.4272 66.2313 55.3694 65.6796 55.8988 65.6027L55.8669 65.3764C56.3645 65.191 56.1635 65.4464 56.661 65.1432L56.6928 65.2517L57.2326 64.8575C57.3071 65.2284 58.6514 64.4016 59.1068 64.4249C59.742 64.1206 60.9277 63.576 61.9124 63.2868C62.1561 63.4116 63.3737 62.9755 64.1572 62.8239C65.6501 62.2677 67.7676 61.4887 69.7052 60.9197L69.5991 60.6759L70.0967 60.4905C70.1073 60.5266 70.1815 60.5441 70.1285 60.599C70.6158 60.7308 71.2614 60.1092 71.6956 60.178C71.3778 60.0357 71.3356 60.2445 71.0603 60.3646C70.6155 60.3774 70.933 60.0485 71.526 59.9529L71.5366 59.9891L71.8753 59.7325C71.9919 59.8946 72.3626 59.8643 72.4474 60.0358C74.0673 59.4422 75.1046 58.7448 76.8305 58.2772C76.7354 58.5408 78.0375 57.805 77.8049 58.3053C78.7682 57.826 77.5293 58.072 77.9315 57.679C78.2173 57.595 78.4714 57.4026 78.5667 57.4924C78.4715 57.6382 78.8846 57.6347 78.6411 57.7455L79.3293 57.5041C79.4034 57.5216 79.2552 57.6044 79.2023 57.6592C80.5256 56.9957 81.7224 57.0762 82.9186 56.45C82.9714 56.2774 82.3998 56.5631 82.4632 56.4267C83.6488 55.7643 83.628 56.2809 84.7396 55.7188L84.5386 55.9743C84.8773 55.7177 84.9936 55.5264 85.6608 55.4483C85.8515 55.6279 85.1739 55.7877 84.9199 55.9801C85.3646 55.8495 86.4127 55.4239 86.0102 55.3457C86.4972 55.1241 86.7409 55.2489 87.0373 55.2011C87.0267 55.165 86.529 55.2326 86.783 55.0402C87.5137 54.9434 88.5831 54.5901 89.4407 54.3382C89.4513 54.3744 89.5467 54.4642 89.4514 54.4922C90.2137 54.1505 90.2882 54.6392 91.1775 54.2602Z" fill="white"/>
<path d="M136.366 38.9476L136.006 39.0139C136.017 39.0502 136.038 39.1229 135.858 39.2153L136.366 38.9476Z" fill="white"/>
<path d="M119.953 43.8077C119.922 43.8169 119.87 43.8709 119.849 43.9157C119.932 43.8526 119.932 43.8526 119.953 43.8077Z" fill="white"/>
<path d="M116.081 45.4144C116.357 45.2941 116.081 45.296 115.943 45.297C115.954 45.3334 115.965 45.3697 116.081 45.4144Z" fill="white"/>
<path d="M144.731 36.4121C144.7 36.4213 144.669 36.4304 144.648 36.4753C144.711 36.457 144.711 36.457 144.731 36.4121Z" fill="white"/>
<path d="M155.128 63.7158C155.118 63.6801 155.107 63.6444 155.128 63.5996C155.128 63.5996 155.138 63.6353 155.128 63.7158Z" fill="white"/>
<path d="M154.834 61.9978C154.813 61.9251 154.749 61.8253 154.675 61.6892C154.749 61.8253 154.781 61.9344 154.834 61.9978Z" fill="white"/>
<path d="M139.299 37.5374C139.204 37.5654 139.119 37.6298 139.066 37.6848C139.193 37.6475 139.246 37.5924 139.299 37.5374Z" fill="white"/>
<path d="M154.551 61.3781L154.433 60.9782L154.401 60.9875L154.551 61.3781Z" fill="white"/>
<path d="M155.31 64.2159C155.267 64.0704 155.173 63.8611 155.161 63.7068C155.154 63.9063 155.237 64.0793 155.31 64.2159Z" fill="white"/>
<path d="M148.86 45.4124L148.849 45.3761C148.626 45.0862 148.754 45.2857 148.86 45.4124Z" fill="white"/>
<path d="M153.585 59.7343C153.585 59.7343 153.574 59.6979 153.563 59.6616L153.468 59.5712L153.585 59.7343Z" fill="white"/>
<path d="M155.862 65.9772C155.841 65.9045 155.788 65.8411 155.767 65.7684C155.788 65.8411 155.809 65.9139 155.831 65.9866L155.862 65.9772Z" fill="white"/>
<path d="M150.756 51.5311C150.852 51.6215 150.926 51.6392 150.958 51.6299C150.915 51.4844 150.862 51.4211 150.756 51.5311Z" fill="white"/>
<path d="M153.367 50.3383C153.388 50.353 153.403 50.3325 153.443 50.3619C153.408 50.3676 153.388 50.353 153.367 50.3383Z" fill="white"/>
<path d="M148.782 57.0184L148.861 56.9514C148.817 57.0127 148.817 57.0127 148.782 57.0184Z" fill="white"/>
<path d="M156.315 46.2382C156.279 46.244 156.279 46.244 156.315 46.2382C156.339 46.1608 156.414 46.0567 156.534 45.8903L156.315 46.2382Z" fill="white"/>
<path d="M138.749 71.0174L138.808 70.9357C138.799 70.9912 138.784 71.0117 138.749 71.0174Z" fill="white"/>
<path d="M144.66 62.7067C144.625 62.7124 144.575 62.7385 144.546 62.7793C144.59 62.7181 144.619 62.6773 144.66 62.7067Z" fill="white"/>
<path d="M154.595 44.5299L154.741 44.542C154.692 44.5682 154.636 44.5592 154.595 44.5299Z" fill="white"/>
<path d="M153.275 41.781C153.301 41.8308 153.307 41.8659 153.333 41.9156C153.307 41.8659 153.26 41.8014 153.275 41.781Z" fill="white"/>
<path d="M153.38 41.9819C153.359 41.9673 153.354 41.9322 153.354 41.9322C153.374 41.9468 153.395 41.9615 153.38 41.9819Z" fill="white"/>
<path d="M98.2637 108.899C98.1746 108.804 98.1154 108.666 98.0771 108.544L98.2637 108.899Z" fill="white"/>
<path d="M129.446 83.5242L129.501 83.5332C129.466 83.5389 129.446 83.5242 129.446 83.5242Z" fill="white"/>
<path d="M154.579 45.6853C154.436 45.7087 154.459 45.8518 154.397 45.8069C154.462 45.7594 154.43 45.6729 154.579 45.6853Z" fill="white"/>
<path d="M124.599 84.0191L124.54 84.1008C124.549 84.0453 124.584 84.0396 124.599 84.0191Z" fill="white"/>
<path d="M98.7095 108.15L98.8116 108.223C98.7969 108.244 98.7765 108.229 98.7414 108.235C98.7356 108.2 98.7152 108.185 98.7095 108.15Z" fill="white"/>
<path d="M119.806 96.5767C119.821 96.5559 119.821 96.5559 119.842 96.5709L119.806 96.5767Z" fill="white"/>
<path d="M119.401 97.3589C119.431 97.3173 119.497 97.2699 119.527 97.2282C119.488 97.3265 119.437 97.3531 119.401 97.3589Z" fill="white"/>
<path d="M98.0576 108.532L97.951 108.329C97.9985 108.395 98.0459 108.46 98.0576 108.532Z" fill="white"/>
<path d="M113.8 104.759C113.815 104.739 113.829 104.718 113.844 104.698C113.85 104.733 113.835 104.753 113.8 104.759Z" fill="white"/>
<path d="M145.009 62.1337C145.024 62.1133 145.038 62.0929 145.033 62.0578C145.053 62.0724 145.074 62.0871 145.009 62.1337Z" fill="white"/>
<path d="M139.418 65.5028C139.379 65.601 139.227 65.6809 139.119 65.6985C139.2 65.6302 139.245 65.5678 139.418 65.5028Z" fill="white"/>
<path d="M138.729 66.3322C138.744 66.3117 138.744 66.3117 138.759 66.2913C138.724 66.297 138.729 66.3322 138.729 66.3322Z" fill="white"/>
<path d="M141.899 61.7954C141.905 61.8305 141.89 61.8509 141.881 61.9065C141.875 61.8714 141.869 61.8363 141.899 61.7954Z" fill="white"/>
<path d="M120.289 73.893C120.749 72.9121 121.476 71.6634 121.841 70.6458C122.117 70.4973 122.265 70.1837 122.429 69.8995L122.207 69.7676L122.403 69.542C122.37 69.4137 122.278 69.7254 122.252 69.5072L122.434 69.4613C122.347 69.4045 122.651 68.7573 122.289 69.1277L122.717 68.0881C122.803 67.8662 122.978 68.0495 123.008 67.7598C122.96 67.6718 122.929 67.8222 122.842 67.7654C122.97 66.9348 123.675 67.0906 123.86 66.3278L123.813 66.3792C123.931 66.2856 124.016 66.0638 124.048 66.0528C124.247 66.2453 123.858 66.1188 123.916 66.3957C124.137 66.458 124.136 66.1793 124.294 66.2636C124.285 66.0748 124.443 66.0197 124.521 65.8877C124.495 65.5999 124.73 65.2735 124.658 65.037C124.776 64.9435 125.036 64.9049 125.137 64.6427C125.041 64.3971 124.955 64.6189 125.009 64.3384L125.143 64.3439C125.197 64.133 125.166 64.144 125.11 64.1459C125.196 63.924 125.347 64.0285 125.384 63.7187L125.203 63.8342C125.328 63.6508 125.336 63.561 125.452 63.2585C125.381 63.231 125.334 63.352 125.327 63.4418C125.223 63.2163 125.523 63.2163 125.53 63.1264C125.57 63.1649 125.516 63.3758 125.674 63.3208C125.705 63.1704 125.957 63.0824 125.853 62.9266L125.672 63.0421C125.884 62.7762 125.877 62.9357 125.985 62.5837C125.978 62.6039 125.938 62.5654 125.906 62.5764C126.158 62.4187 126.124 62.0813 126.249 61.7586L126.202 61.81C126.296 61.7073 126.422 61.6633 126.445 61.6027C126.447 61.8118 126.486 61.7806 126.597 61.8466C126.5 61.5312 126.975 61.5752 127.035 61.1352C126.964 61.1077 126.854 61.181 126.862 61.3002C126.602 61.3387 126.427 61.2947 126.239 61.5001C126.341 61.3772 126.459 61.214 126.348 61.2177L126.554 61.2507C126.585 61.17 126.616 61.0894 126.639 61.0289C126.774 61.0343 126.76 61.2837 126.932 61.1187C127.097 60.9041 126.789 60.9243 126.899 60.9207C127.119 60.6346 127.16 60.8821 127.213 60.5319C127.174 60.5631 127.127 60.6144 127.143 60.6438C127.157 60.3944 127.4 60.1176 127.217 59.9544C127.154 59.9764 127.083 59.9489 127.075 60.0387L127.099 60.0479C126.839 60.2258 127.224 59.8646 126.987 59.8426C127.098 59.9086 127.199 59.5767 127.253 59.4355L127.38 59.5308C127.987 59.2319 127.087 59.441 127.337 59.0047C127.549 58.7388 127.314 59.1348 127.503 58.9991C127.557 58.7883 127.469 58.6618 127.649 58.4069C127.633 58.3079 127.624 58.1191 127.465 58.0347C127.606 57.8807 127.627 57.4719 127.809 57.426C127.811 57.7744 127.526 57.6644 127.576 58.1007L127.758 58.0549C127.851 57.8129 128.071 57.5268 128.061 57.338C128.07 57.3875 128.109 57.426 128.141 57.415C128.344 57.0996 128.526 57.0537 128.634 56.7017C128.507 56.6064 128.453 56.8172 128.375 56.9492C128.365 56.6907 128.46 56.7274 128.569 56.3754C128.458 56.3094 128.483 56.5972 128.349 56.5917L128.544 56.2268L128.52 56.2177C128.75 56.2598 128.629 55.9353 128.794 55.7208C129.027 55.1854 129.32 55.2055 129.627 54.9763C129.61 54.8773 129.571 54.8388 129.491 54.8315C129.532 55.0093 129.469 54.9617 129.382 54.9745C129.475 54.8022 129.347 54.4978 129.237 54.5712C129.425 54.2961 129.293 54.7087 129.426 54.5748L129.582 54.1714C129.662 54.2484 129.623 54.419 129.804 54.2338C129.897 54.0614 129.929 53.9807 130.014 53.7589C129.951 53.7809 129.879 53.614 129.809 53.7956C129.832 53.6654 129.894 53.504 130.012 53.4802C130.006 53.779 130.263 53.1135 130.359 53.3591L130.365 53.0603C130.342 53.1208 130.271 53.0933 130.263 53.1831C130.128 53.0383 130.388 52.9998 130.451 52.9081C130.458 52.8183 130.552 52.5762 130.488 52.5286C130.567 52.4662 130.621 52.2554 130.533 52.1985C130.604 52.0867 130.628 52.2352 130.715 52.2224L130.871 51.819C130.783 51.7622 130.561 51.6302 130.514 51.6815C130.664 51.577 130.791 51.742 130.884 51.5C130.671 51.5568 130.882 51.1516 130.598 51.2506C130.534 51.0636 130.697 50.7098 130.83 50.5062C131.02 50.4402 130.816 50.7556 130.959 50.8106C131.256 50.2532 131.644 50.3796 131.76 49.9378L131.737 50.068C131.933 49.8424 131.901 49.8534 132.075 49.7581C131.885 49.7544 131.747 49.2612 131.958 48.856C132.069 48.8523 132.031 49.1622 132.173 49.1475L132.306 48.8743C132.29 48.845 132.258 48.856 132.219 48.8872C132.391 48.6525 132.191 48.3206 132.437 48.3224L132.3 47.9686L132.356 48.1061C132.467 48.1024 132.599 47.8292 132.67 47.787C132.882 47.5212 132.849 47.3928 132.816 47.1948C132.864 47.2828 132.961 47.4588 133.094 47.2553C132.808 47.1453 133.193 46.7144 133.042 46.6796C133.081 46.5788 133.072 46.3899 133.199 46.4156L133.024 46.3716C133.27 46.443 133.402 46.1002 133.551 45.8563C133.194 45.7885 133.707 45.5923 133.452 45.332C133.682 45.3741 133.726 44.9047 133.932 44.9377C134.033 44.7452 133.812 44.6829 133.764 44.5949L133.898 44.5307C133.841 44.3932 133.989 44.01 134.011 43.7405L134.303 43.6213L134.239 43.5039C134.302 43.4819 134.411 43.3389 134.444 43.4672L134.491 43.3462C134.705 43.4287 134.624 43.2124 134.805 43.0272C134.804 42.9575 134.725 42.9502 134.686 42.9813C134.732 42.8603 134.59 42.875 134.574 42.776C134.59 42.875 135.133 42.5284 135.081 42.8786C135.168 42.9355 135.309 42.7814 135.3 42.6623L135.141 42.5083L135.402 42.4697C135.496 42.2974 135.408 42.1709 135.462 42.0297C135.384 42.1617 134.957 42.2058 135.129 41.8317C135.027 42.0242 134.877 42.0591 134.791 42.1416C134.822 42.0609 134.814 42.0114 134.672 42.0958C134.852 41.8409 134.83 42.0408 134.986 41.7767C134.938 41.7584 134.915 41.7493 134.875 41.7108C134.851 41.7016 134.859 41.6814 134.835 41.6722C134.811 41.6631 134.811 41.6631 134.819 41.6429C134.779 41.6044 134.771 41.5549 134.763 41.5054L134.858 41.6117C134.882 41.6209 134.914 41.6099 134.914 41.6099C134.922 41.6594 134.946 41.6686 135.017 41.6961C135.025 41.6759 135.088 41.6539 135.151 41.6319C135.214 41.6099 135.261 41.5585 135.214 41.5402C135.333 41.6557 135.412 41.5934 135.498 41.5108C135.585 41.4283 135.655 41.3165 135.711 41.3843C135.774 41.3623 135.86 41.2101 135.757 41.1936C135.639 41.2871 135.599 41.2486 135.559 41.2101C135.52 41.1716 135.488 41.113 135.425 41.135C135.503 41.0726 135.528 41.2212 135.638 41.1478C135.661 41.0873 135.645 41.058 135.629 41.0286C135.637 41.0085 135.582 41.0103 135.558 41.0011C135.534 40.992 135.479 40.9938 135.455 40.9846L135.44 41.025L135.218 40.9627C135.289 40.9205 135.527 41.0121 135.431 40.9058C135.352 40.8985 135.288 40.7811 135.217 40.8233C135.154 40.915 134.949 40.9517 135.005 41.0195C134.965 40.981 134.758 40.8087 134.987 40.7812L134.876 40.7152C134.987 40.7115 135.312 40.7903 135.105 40.618L135.073 40.629L135.009 40.442C135.009 40.442 134.977 40.453 134.953 40.4438C134.922 40.4548 134.898 40.4457 134.898 40.4457C134.937 40.4145 134.929 40.365 134.858 40.3375C134.818 40.3687 134.699 40.3228 134.684 40.3632C134.43 40.1725 134.5 40.1303 134.492 40.0808C134.341 39.9764 134.27 39.9489 134.279 40.068C134.056 39.936 133.715 39.6886 133.525 39.6849C133.286 39.4539 133.604 39.6922 133.508 39.5162C133.097 39.5896 132.524 39.0213 132.071 38.7078C132.339 38.5795 131.968 38.6217 132.006 38.3815C132.07 38.4988 131.467 38.2899 131.825 38.5667L131.587 38.4054C131.334 38.4237 131.953 38.7317 131.597 38.7336C131.335 38.5631 131.293 38.2459 130.905 38.1194C130.93 38.3376 130.674 37.9379 130.652 38.1378C130.7 38.2258 130.795 38.2624 130.882 38.3193L130.803 38.3119C130.153 38.015 130.738 38.0553 130.467 37.7656C130.094 37.5291 130.103 37.718 130.025 37.7803C129.945 37.773 129.771 37.6593 129.699 37.5622C129.89 37.7748 130.19 37.7051 130.142 37.5475C129.865 37.6263 129.57 37.2578 129.506 37.1405C130.148 37.2486 129.895 37.3366 130.52 37.4154C130.568 37.5034 130.459 37.6464 130.799 37.7546C130.648 37.5804 130.854 37.6831 130.933 37.6904C130.831 37.7436 131.124 37.8334 131.196 37.9305C131.314 37.9067 131.147 37.6335 131.472 37.782L131.41 38.013C131.561 38.0479 131.448 37.8425 131.679 38.024C131.614 37.837 131.812 37.8901 131.495 37.6518C132.017 37.7141 132.083 38.1101 132.338 38.3705C132.322 38.3411 132.329 38.321 132.29 38.2825C132.338 38.3705 132.449 38.4364 132.528 38.5134C132.766 38.6051 132.409 38.3283 132.527 38.3044L132.86 38.5024C132.86 38.5024 132.86 38.5024 132.892 38.4914C132.972 38.5684 133.027 38.6362 133.091 38.6142C133.026 38.4969 133.034 38.4071 133.017 38.308L133.289 38.6674C133.296 38.5775 133.669 38.7443 133.446 38.5427L133.962 38.9038L134.112 38.7993C134.207 38.9056 134.2 38.9258 134.041 38.8415C134.255 38.924 134.663 39.5675 134.755 39.2558C135.074 39.6334 135.249 39.6774 135.71 40.1101C135.59 39.9249 135.709 39.9707 135.876 40.0349C136.018 40.0899 136.177 40.1742 135.978 39.9817C136.327 40.1393 136.194 40.2732 136.384 40.4162C136.646 40.517 136.772 40.4033 136.597 40.22L136.78 40.4528L136.812 40.4418L136.924 40.6471C137.09 40.7113 137.169 40.7186 137.225 40.7168C137.248 40.7259 137.28 40.7149 137.328 40.7333C137.383 40.7314 137.367 40.7718 137.344 40.8323L137.123 40.9093L137.172 41.067C137.108 41.0193 137.022 41.1715 136.936 41.3237L136.968 41.3127L136.835 41.5162C137.023 41.3108 136.789 41.7069 136.954 41.6317C136.884 41.8132 136.876 41.8334 136.697 42.1579L136.625 42.0608C136.492 42.2643 136.516 42.2734 136.587 42.3009C136.635 42.3193 136.706 42.3468 136.651 42.4879L136.54 42.422C136.567 42.9188 136.126 43.0729 136.128 43.4212C136.222 43.2489 136.341 43.3644 136.317 43.3552C136.169 43.5991 136.006 44.0226 135.754 44.25C135.882 44.415 135.921 44.4535 135.884 44.7634C135.783 44.9559 135.743 44.987 135.625 45.0109C135.618 45.2401 135.36 45.5573 135.471 45.6233C135.36 45.6269 135.425 45.814 135.291 45.8781L135.33 45.9166L135.219 45.8507C135.341 46.3145 134.827 46.3714 134.902 46.8169L134.949 46.7656L134.847 46.8884C134.886 46.9269 134.957 46.8847 135.029 46.9122L134.764 47.598L134.724 47.4201C134.646 47.5522 134.488 47.6072 134.497 47.796C134.788 47.6071 134.411 48.0179 134.531 48.1334L134.633 48.0105C134.531 48.203 134.531 48.203 134.42 48.1371C134.272 48.3809 134.564 48.4011 134.352 48.5973L134.422 48.4157C134.374 48.3277 134.232 48.4121 134.186 48.5331C134.202 48.5624 134.21 48.6816 134.273 48.5899C134.148 48.7733 134.071 49.1143 133.992 49.1767C133.969 49.3068 134.08 49.3032 134.151 49.261C133.861 49.6589 134.097 49.4718 133.807 49.8697L133.879 49.8972L133.729 50.0017L133.786 50.2786L133.722 50.1613C133.644 50.2933 133.558 50.3758 133.543 50.5555L133.661 50.5316C133.435 50.9075 133.618 51.0707 133.327 51.3989C133.343 51.4282 133.39 51.3769 133.422 51.3659C133.116 51.6647 133.48 51.7124 133.149 52.0021C133.181 51.9911 133.213 52.0498 133.245 52.0388L133.111 52.1726L133.254 52.2276L132.993 52.2661L133.097 52.422L133.002 52.455C133.194 52.7373 132.887 52.8969 132.984 53.2122L132.833 53.1077C132.219 53.5661 132.463 54.5635 131.985 55.2364L132.128 55.2914L131.845 55.5298C131.878 55.7278 132.003 55.4748 132.051 55.5628C131.831 55.8488 131.79 55.6013 131.595 55.9662C131.612 56.2045 131.713 55.9423 131.823 55.869C131.612 56.2045 131.323 56.6721 131.293 56.9618C131.269 56.9526 131.238 56.9636 131.245 56.9435C131.081 57.158 131.012 57.4788 130.911 57.741C130.982 57.7685 131.006 57.708 131.06 57.6365C131.022 57.7374 131.022 57.8767 130.92 57.9299L131.078 57.8749C131.024 58.0857 130.757 58.4231 130.884 58.5184C130.845 58.4799 130.726 58.4341 130.656 58.6156C130.831 58.7989 130.382 59.0428 130.368 59.3619C130.431 59.3399 130.533 59.1473 130.51 59.2078C130.503 59.3674 130.361 59.4517 130.243 59.5452L130.354 59.5415L129.962 60.132C130.137 60.3153 129.682 60.7187 129.84 60.7333C129.754 60.9552 129.822 60.495 129.682 60.7884C129.746 60.9057 129.533 61.0322 129.676 61.0872L129.715 61.056L129.614 61.2486L129.803 61.1825C129.71 61.3549 129.52 61.4209 129.401 61.3751C129.41 61.5639 129.246 61.7785 129.334 61.905L129.381 61.8536C129.131 62.29 129.435 62.7777 129.057 63.0491C129.073 63.0784 129.097 63.0876 129.12 63.0271L129.011 63.3094L129.13 63.2856L128.777 63.7055L128.848 63.733C128.747 64.0648 128.513 64.5306 128.31 64.9156L128.357 64.8643C128.067 65.2622 128.242 65.3061 128.046 65.6013C128.078 65.5903 128.078 65.5903 128.085 65.5702L127.977 65.8525L128.071 65.8195C127.843 65.9864 127.997 66.5089 127.932 66.3219C127.814 66.4154 127.665 66.5896 127.555 66.5933C127.406 66.9068 127.619 66.7106 127.588 66.9306C127.503 67.1525 127.369 67.147 127.292 67.488L127.363 67.5155C127.285 67.6476 127.198 67.7301 127.121 67.9318L127.168 67.8804C126.901 68.1481 127.195 68.3773 126.792 68.5002C126.786 68.6597 126.637 68.9035 126.788 68.9384C126.537 69.3051 126.365 69.6094 126.131 70.0055C126.321 70.1485 126.076 70.077 126.094 70.385L125.982 70.319C125.733 70.8948 125.762 71.6703 125.442 72.2882L125.553 72.3542L125.364 72.4202C125.147 73.1243 124.829 74.0209 124.588 74.5765C124.446 74.7305 124.203 74.9377 124.118 75.2292L124.149 75.2182C123.884 75.6949 123.61 76.1918 123.448 76.7547C123.511 76.7327 123.535 76.8115 123.582 76.7602C123.393 76.8262 123.434 77.0737 123.388 77.1948L123.347 77.0169C123.166 77.1324 123.176 77.3909 123.24 77.5083L123.004 77.6953C122.996 77.7155 123.012 77.7448 123.036 77.754L122.949 77.7668L123.061 77.9722C123.014 78.0235 122.842 78.3279 122.636 78.3646C122.676 78.4031 122.631 78.6634 122.724 78.4911L122.406 79.3877L122.413 79.2281C122.302 79.1622 122.106 79.3877 122.123 79.5564C122.288 79.4115 122.297 79.6004 122.361 79.7177C122.243 79.8112 122.305 79.5802 122.21 79.6132C122.06 79.7177 121.889 80.0221 121.929 80.1303L122.007 80.0679C121.882 80.2513 122.057 80.4346 121.956 80.6271C121.791 80.772 121.808 80.9407 121.633 80.827C121.484 81.0709 121.737 80.9828 121.73 81.0727C121.588 81.157 121.496 81.5384 121.591 81.6447C121.228 81.6668 121.414 82.3873 121.129 82.347L121.187 82.6238C121.115 82.5963 120.957 82.5817 120.839 82.7449C120.849 82.9337 120.983 82.9392 121.031 83.0272L120.731 83.0272C120.619 84.0962 119.923 85.2641 119.733 86.3954C119.483 86.8318 119.139 87.3709 118.953 87.9246L119 87.8732L118.861 88.4453L118.898 87.9961C118.828 88.1079 118.749 88.1703 118.702 88.2913C118.564 88.933 118.38 89.7654 117.958 90.4365C117.47 90.7812 118.095 90.86 117.686 91.2121C117.725 91.1809 117.781 91.1791 117.812 91.1681C117.531 91.6155 117.358 91.8502 116.998 92.2902C117.306 92.3397 116.873 92.6129 117.031 92.6276L116.897 92.6221C116.929 92.7504 116.852 93.0218 116.963 93.0181L116.735 93.185L116.846 93.251C116.737 93.5333 116.401 94.1219 116.584 94.3547C116.122 94.9873 115.735 96.1351 115.416 97.0317C115.275 97.1161 115.15 97.3691 115.072 97.5708L115.129 97.8476C115.004 98.031 114.728 98.1795 114.746 98.4179C114.77 98.427 114.77 98.427 114.801 98.416C114.7 98.6085 114.693 98.8377 114.473 98.9844C114.387 99.2063 114.365 99.4758 114.539 99.4501C114.294 99.3786 114.376 99.9433 114.376 99.9433C114.376 99.9433 114.02 101.01 113.445 102.573C113.174 103.348 112.824 104.256 112.451 105.224C112.218 105.829 111.969 106.474 111.705 107.09C111.3 108.07 110.919 109.058 110.507 110.057C109.761 109.654 109.015 109.25 108.269 108.847C107.904 108.66 107.546 108.453 107.181 108.266C106.999 108.173 106.816 108.079 106.642 107.965C106.483 107.881 106.261 107.749 106.213 107.731C105.499 107.317 104.832 106.921 104.236 106.552C103.029 105.786 102.044 105.082 101.518 104.532C101.469 104.374 101.199 104.154 101.381 104.108C101.166 103.956 100.961 104.063 100.976 103.953C101.317 104.061 101.006 103.663 101.402 103.7L101.203 103.577C101.21 103.487 101.418 103.799 101.449 103.648L101.395 103.859C101.561 103.923 101.672 103.92 101.767 103.887C101.878 104.022 101.841 104.332 102.252 104.398L102.165 104.341C102.459 104.501 102.418 104.323 102.497 104.33L102.426 104.303L102.711 104.343C102.481 104.301 102.266 104.009 102.424 104.094C102.813 104.22 102.314 104.097 102.56 104.238C102.718 104.323 102.734 104.213 102.757 104.152L103.05 104.312C103.082 104.231 102.844 104.209 103.018 104.183L103.344 104.471C103.517 104.306 103.686 104.788 103.978 104.669C103.748 104.488 104.057 104.607 104.033 104.528L104.667 104.865C104.747 104.873 104.532 104.72 104.619 104.777C104.778 104.792 104.779 104.931 104.85 104.959C104.945 104.926 105.326 105.212 105.381 105.071C105.872 105.214 105.469 105.336 105.905 105.481C106.008 105.428 105.596 105.292 105.809 105.305L106.206 105.551C106.198 105.501 106.197 105.362 106.03 105.298C106.34 105.417 106.609 105.498 106.879 105.578C107.005 105.604 107.156 105.639 107.275 105.685C107.322 105.703 107.401 105.71 107.449 105.729L107.583 105.734C107.9 105.763 108.074 105.738 108.344 105.958C108.383 105.857 108.256 105.831 108.192 105.714C108.351 105.868 108.454 105.884 108.501 105.833C108.484 105.595 108.403 105.378 108.466 105.287L108.538 105.384C108.513 105.235 108.497 105.136 108.472 105.057C108.48 104.968 108.44 104.999 108.557 104.696C108.736 104.232 108.914 103.768 109.046 103.286L109.078 103.415C109.22 103.33 109.321 103.138 109.431 102.995C109.391 102.956 109.178 103.013 109.327 102.769C109.351 102.848 109.336 102.958 109.391 102.956C109.433 102.069 110.141 100.442 110.52 99.1058C111.283 97.408 111.823 95.4388 112.579 93.7611C112.478 94.0233 112.755 94.0141 112.785 93.7941C112.567 93.0846 113.238 92.903 113.146 92.2191C113.669 91.2858 113.662 90.2408 114.377 89.4505L114.266 89.3845C114.272 89.225 114.359 89.2121 114.437 89.0801L114.414 89.0709C114.498 88.7097 114.804 88.3412 114.803 88.1322L114.953 88.167C115.055 87.9745 114.897 88.0295 115.054 87.8351L114.982 87.8076L115.218 87.6206C114.973 87.5491 115.444 87.0357 115.387 86.8285C115.536 86.5847 115.849 86.1263 115.957 85.7046C115.869 85.5781 116.055 85.094 116.132 84.753C116.413 84.1663 116.795 83.3173 117.074 82.5216L117.233 82.6059L117.334 82.4134C117.31 82.4042 117.294 82.3749 117.263 82.3859C117.158 82.1604 117.513 81.9495 117.456 81.7423C117.56 81.8982 117.425 81.8927 117.379 82.0137C117.388 82.2025 117.585 82.1163 117.607 81.8468L117.583 81.8376L117.741 81.713C117.629 81.647 117.636 81.4875 117.525 81.4215C117.829 80.7742 118.214 80.413 118.439 79.6888C118.272 79.6943 118.68 79.2029 118.388 79.2524C118.639 78.8857 118.547 79.4064 118.792 79.2689C118.838 79.1478 118.956 79.0543 118.869 78.9975C118.798 79.0397 118.765 78.8417 118.702 78.9333L118.835 78.6601C118.819 78.6308 118.772 78.6822 118.74 78.6932C119.1 78.1834 118.986 77.6297 119.347 77.1897C119.457 77.186 119.293 77.4005 119.38 77.3877C119.764 76.9568 119.408 76.889 119.737 76.4599L119.579 76.5149C119.737 76.3902 119.855 76.3664 119.853 76.0877C119.726 75.9924 119.649 76.2637 119.539 76.3371C119.609 76.1556 119.819 75.7504 119.892 75.9172C120.017 75.7338 119.929 75.6073 119.928 75.468C119.952 75.4772 119.946 75.7063 120.064 75.6128C120.101 75.303 120.272 74.8592 120.404 74.5164C120.38 74.5072 120.317 74.4596 120.309 74.4797C120.443 74.3459 120.126 74.2469 120.289 73.893Z" fill="white"/>
<path d="M142.839 60.5726L142.755 60.7332C142.734 60.7183 142.692 60.6883 142.627 60.7358L142.839 60.5726Z" fill="white"/>
<path d="M137.84 67.3043C137.825 67.3247 137.79 67.3304 137.77 67.3157C137.784 67.2953 137.805 67.31 137.84 67.3043Z" fill="white"/>
<path d="M136.396 68.7927C136.505 68.6848 136.472 68.8163 136.448 68.8923C136.428 68.8777 136.387 68.8483 136.396 68.7927Z" fill="white"/>
<path d="M146.019 57.0215C145.984 57.0273 145.969 57.0477 145.928 57.0184C145.984 57.0273 145.998 57.0069 146.019 57.0215Z" fill="white"/>
<path d="M153.929 46.5443C153.914 46.5648 153.914 46.5648 153.92 46.5999C153.899 46.5852 153.914 46.5648 153.929 46.5443Z" fill="white"/>
<path d="M153.659 47.2688C153.645 47.2893 153.615 47.3301 153.551 47.3767C153.595 47.3154 153.61 47.295 153.659 47.2688Z" fill="white"/>
<path d="M144.046 59.5499C144.017 59.5907 143.967 59.6169 143.932 59.6226C143.976 59.5614 144.026 59.5352 144.046 59.5499Z" fill="white"/>
<path d="M153.438 47.4868L153.333 47.6324L153.312 47.6175L153.438 47.4868Z" fill="white"/>
<path d="M154.063 46.357C154.018 46.4194 153.959 46.5027 153.929 46.5443C153.953 46.4669 153.998 46.4045 154.063 46.357Z" fill="white"/>
<path d="M149.086 53.3229C148.937 53.4015 149.001 53.3548 149.086 53.3229V53.3229Z" fill="white"/>
<path d="M152.748 47.9696L152.684 48.0162L152.748 47.9696Z" fill="white"/>
<path d="M154.398 45.8079C154.383 45.8283 154.383 45.8283 154.348 45.8341C154.348 45.8341 154.362 45.8137 154.357 45.7786C154.377 45.7932 154.398 45.8079 154.398 45.8079Z" fill="white"/>
<path d="M150.6 51.0021C150.67 50.9906 150.726 50.9995 150.746 51.0142C150.682 51.0608 150.632 51.087 150.6 51.0021Z" fill="white"/>
<path d="M28.5443 86.9957C28.5351 87.0191 28.5117 87.0099 28.4932 87.0567C28.5258 87.0425 28.5351 87.0191 28.5443 86.9957Z" fill="white"/>
<path d="M36.0151 90.1353L35.9123 90.1217C35.9825 90.1495 35.9825 90.1495 36.0151 90.1353Z" fill="white"/>
<path d="M23.8493 85.1413C23.8825 85.1269 23.8825 85.1269 23.8493 85.1413C23.7872 85.0892 23.668 85.0421 23.4773 84.9668L23.8493 85.1413Z" fill="white"/>
<path d="M52.0265 96.4868L51.9328 96.4498C51.9704 96.4916 51.9938 96.5009 52.0265 96.4868Z" fill="white"/>
<path d="M42.5579 92.6907C42.5905 92.6765 42.6465 92.6715 42.6933 92.69C42.6232 92.6623 42.5764 92.6438 42.5579 92.6907Z" fill="white"/>
<path d="M24.3704 82.7733L24.254 82.8625C24.3101 82.8576 24.3519 82.8201 24.3704 82.7733Z" fill="white"/>
<path d="M23.9975 79.7464C24.0024 79.8025 24.0166 79.8351 24.0215 79.8911C24.0166 79.8351 24.0209 79.7557 23.9975 79.7464Z" fill="white"/>
<path d="M24.0156 79.9725C24.0249 79.9491 24.0107 79.9165 24.0107 79.9165C24.0015 79.9399 23.9922 79.9633 24.0156 79.9725Z" fill="white"/>
<path d="M106.562 106.461C106.586 106.332 106.561 106.185 106.527 106.061L106.562 106.461Z" fill="white"/>
<path d="M66.6122 101.974L66.5703 102.012C66.603 101.998 66.6122 101.974 66.6122 101.974Z" fill="white"/>
<path d="M25.0114 83.735C25.1445 83.6772 25.2021 83.8103 25.2304 83.7388C25.1495 83.7344 25.13 83.644 25.0114 83.735Z" fill="white"/>
<path d="M70.9572 99.7724L71.0508 99.8093C71.0132 99.7675 70.9806 99.7816 70.9572 99.7724Z" fill="white"/>
<path d="M105.783 106.072L105.736 106.189C105.76 106.198 105.769 106.175 105.802 106.161C105.788 106.128 105.797 106.105 105.783 106.072Z" fill="white"/>
<path d="M81.7789 107.744C81.7551 107.734 81.7551 107.734 81.7457 107.758L81.7789 107.744Z" fill="white"/>
<path d="M82.5426 108.184C82.4949 108.165 82.414 108.161 82.3663 108.142C82.4523 108.203 82.5094 108.198 82.5426 108.184Z" fill="white"/>
<path d="M106.539 106.039L106.519 105.811C106.515 105.892 106.51 105.973 106.539 106.039Z" fill="white"/>
<path d="M91.256 111.378C91.2326 111.369 91.2092 111.359 91.1858 111.35C91.1999 111.383 91.2233 111.392 91.256 111.378Z" fill="white"/>
<path d="M41.954 92.3982C41.9306 92.3889 41.9072 92.3797 41.8931 92.3471C41.8839 92.3704 41.8746 92.3938 41.954 92.3982Z" fill="white"/>
<path d="M48.4771 92.2103C48.563 92.2718 48.7343 92.2568 48.8341 92.2135C48.7293 92.1997 48.6578 92.1714 48.4771 92.2103Z" fill="white"/>
<path d="M49.5068 92.5331C49.4834 92.5238 49.4834 92.5238 49.46 92.5146C49.4927 92.5004 49.5068 92.5331 49.5068 92.5331Z" fill="white"/>
<path d="M44.3887 90.43C44.4029 90.4627 44.4263 90.4719 44.4639 90.5138C44.4497 90.4812 44.4355 90.4485 44.3887 90.43Z" fill="white"/>
<path d="M70.6657 90.6329C69.4456 90.2333 67.7879 89.8252 66.6053 89.3308C66.2681 89.4169 65.8773 89.29 65.501 89.1961L65.547 88.9402L65.1996 88.9127C65.1085 88.7945 65.4567 88.9594 65.2796 88.7798L65.1042 88.875C65.1178 88.7708 64.3124 88.5075 64.9118 88.5249L63.6627 88.0591C63.4005 87.9555 63.4354 88.216 63.1536 88.0224C63.1102 87.9231 63.2677 88.0127 63.2813 87.9084C62.4409 87.3847 62.0596 88.0015 61.2388 87.5677L61.3197 87.5722C61.1485 87.5869 60.8863 87.4833 60.8531 87.4976C60.8787 87.7817 61.0523 87.4118 61.2584 87.6576C61.1503 87.8616 60.9017 87.6538 60.86 87.8292C60.6973 87.6827 60.5313 87.7542 60.3551 87.712C60.1158 87.4805 59.6492 87.4058 59.4909 87.1788C59.3197 87.1935 59.0924 87.3504 58.7825 87.228C58.6335 86.9773 58.8957 87.0808 58.6045 86.911L58.51 87.0107C58.281 86.8929 58.3142 86.8786 58.3568 86.8406C58.0945 86.737 58.0767 86.9218 57.771 86.7189L58.0085 86.6756C57.7514 86.6289 57.6654 86.5675 57.3078 86.4263C57.3359 86.3552 57.4789 86.4117 57.5649 86.473C57.4398 86.2318 57.2176 86.4455 57.1316 86.3841C57.1367 86.4409 57.3657 86.5588 57.1997 86.6303C57.0422 86.5407 56.7766 86.655 56.7136 86.4657L56.9511 86.4225C56.556 86.3761 56.7042 86.4894 56.3083 86.3056C56.3321 86.315 56.327 86.2582 56.3602 86.2439C56.0324 86.3063 55.7548 86.0322 55.3734 85.8816L55.4543 85.8861C55.2925 85.8771 55.1597 85.9342 55.0882 85.906C55.2747 86.0619 55.2176 86.0667 55.1947 86.1947C54.9835 85.892 54.6719 86.2623 54.2326 85.9792C54.2606 85.908 54.4079 85.884 54.5084 85.9785C54.7357 85.8216 54.8251 85.6651 55.1486 85.6832C54.963 85.6647 54.7297 85.6274 54.8149 85.5514L54.6923 85.7222C54.5969 85.6846 54.5016 85.6469 54.43 85.6187C54.3356 85.7184 54.5697 85.8931 54.2939 85.8937C53.9797 85.8519 54.2257 85.6476 54.1406 85.7236C53.7217 85.6678 53.9133 85.8805 53.5599 85.6587C53.617 85.6538 53.6979 85.6584 53.7123 85.6915C53.4782 85.5168 53.0499 85.4847 53.0388 85.2337C53.1052 85.2051 53.1333 85.134 53.2193 85.1953L53.21 85.219C53.5616 85.1661 52.9528 85.1723 53.1086 84.9872C53.0857 85.1151 52.7136 84.9408 52.5467 84.8749L52.5382 85.036C51.8214 85.2462 52.6744 84.7609 52.098 84.6155C51.7029 84.5691 52.2317 84.6957 51.9703 84.7295C51.7413 84.6116 51.6927 84.4554 51.3309 84.3947C51.2542 84.3096 51.0916 84.1632 51.1333 83.9878C50.8907 83.9742 50.5084 83.6862 50.333 83.7814C50.6438 84.0411 50.7561 83.7566 51.1103 84.1158L50.935 84.2109C50.6489 84.098 50.23 84.0422 50.0674 83.8957C50.1057 83.9383 50.1108 83.9951 50.0776 84.0094C49.6442 83.9204 49.4688 84.0156 49.0729 83.8319C49.0814 83.6708 49.3105 83.7886 49.4867 83.8308C49.2619 83.6324 49.2245 83.7273 48.8286 83.5435C48.8515 83.4155 49.0908 83.6471 49.1853 83.5474L48.7136 83.4159L48.723 83.3922C48.591 83.5867 48.3892 83.2604 48.075 83.2185C47.422 82.988 47.2237 83.2111 46.7912 83.2596C46.7145 83.1745 46.7094 83.1177 46.7613 83.056C46.8908 83.2167 46.895 83.1362 46.9708 83.0839C46.7469 83.0228 46.5689 82.7059 46.7162 82.6819C46.3305 82.6118 46.7979 82.8238 46.5791 82.8196L46.1023 82.6313C46.1125 82.7449 46.2939 82.844 45.9942 82.8352C45.7703 82.7742 45.6749 82.7365 45.4127 82.633C45.4791 82.6044 45.3829 82.4294 45.5974 82.5141C45.4638 82.4339 45.273 82.3586 45.1641 82.4252C45.4365 82.6424 44.6498 82.3317 44.7988 82.5824L44.5264 82.3652C44.5979 82.3934 44.626 82.3223 44.712 82.3836C44.6822 82.18 44.4548 82.3369 44.3263 82.3135C44.2403 82.2522 43.9542 82.1392 43.9585 82.0587C43.8444 82.0684 43.6154 81.9506 43.629 81.8463C43.4766 81.8135 43.5915 81.9411 43.5157 81.9934L43.0389 81.8051C43.0526 81.7009 43.0985 81.445 43.1794 81.4495C42.9751 81.4784 43.0287 81.6915 42.7426 81.5785C42.9512 81.469 42.4319 81.3187 42.7307 81.1901C42.6106 81.0056 42.1721 80.8599 41.8912 80.8037C41.6919 80.8895 42.1253 80.9784 42.0691 81.1207C41.3497 80.9188 41.176 81.2887 40.6941 81.0435L40.8278 81.1237C40.4804 81.0962 40.5136 81.0819 40.3 81.1345C40.437 80.9968 40.0964 80.5334 39.577 80.3831C39.4919 80.4591 39.7976 80.6621 39.6793 80.7523L39.3361 80.6442C39.3217 80.6111 39.3549 80.5968 39.4119 80.592C39.0739 80.5407 38.924 80.1526 38.7444 80.3283L38.5281 79.9689L38.6098 80.1108C38.5247 80.1868 38.1816 80.0787 38.0913 80.0978C37.6963 80.0514 37.6052 79.9332 37.4519 79.7631C37.4953 79.8625 37.5822 80.0612 37.3013 80.005C37.4136 79.7206 36.7427 79.6748 36.8227 79.542C36.7035 79.4949 36.5409 79.3485 36.4702 79.4576L36.5596 79.3011C36.4421 79.5287 36.0369 79.3687 35.7082 79.2937C35.9108 78.99 35.3558 79.2093 35.3106 78.8352C35.1786 79.0297 34.7248 78.7135 34.6022 78.8843C34.3545 78.8139 34.4626 78.6099 34.4192 78.5106L34.2625 78.5583C34.1808 78.4164 33.7278 78.2375 33.4698 78.0534L33.1471 78.1726L33.0892 78.0401C33.0228 78.0687 32.8134 78.0408 32.9045 78.159L32.7615 78.1025C32.6772 78.3159 32.5427 78.0983 32.243 78.0896C32.1808 78.0376 32.2327 77.9759 32.2898 77.9711C32.1467 77.9146 32.2651 77.8243 32.1884 77.7392C32.2651 77.8243 31.5525 77.9539 31.9058 78.1757C31.8922 78.2799 31.6496 78.2663 31.5491 78.1718L31.5286 77.9445L31.3013 78.1014C31.0774 78.0404 31.0289 77.8842 30.862 77.8183C31.0382 77.8605 31.3932 77.5896 30.9309 77.4344C31.1787 77.5048 31.3208 77.424 31.4588 77.4236C31.3634 77.386 31.3251 77.3434 31.5056 77.3051C31.1437 77.2444 31.3396 77.3766 30.9871 77.2922C31.0058 77.2447 31.0152 77.221 31.0101 77.1642C31.0194 77.1405 30.9956 77.1311 31.0049 77.1074C31.0143 77.0837 31.0143 77.0837 30.9905 77.0742C30.9854 77.0174 30.947 76.9749 30.9087 76.9323L30.9334 77.0791C30.9241 77.1028 30.8909 77.1171 30.8909 77.1171C30.9292 77.1597 30.9198 77.1834 30.8917 77.2545C30.8679 77.2451 30.8015 77.2737 30.7351 77.3023C30.6687 77.3308 30.5878 77.3263 30.6065 77.2789C30.6218 77.4494 30.5078 77.4591 30.3698 77.4595C30.2319 77.4598 30.0795 77.427 30.0991 77.517C30.0327 77.5456 29.8326 77.494 29.8939 77.4085C30.065 77.3939 30.0599 77.3371 30.0548 77.2802C30.0497 77.2234 30.0207 77.1572 30.0871 77.1286C29.9731 77.1383 30.088 77.266 29.9407 77.29C29.8692 77.2618 29.8547 77.2286 29.8403 77.1955C29.8164 77.1861 29.859 77.1481 29.8683 77.1244C29.8777 77.1007 29.9203 77.0627 29.9296 77.039L29.9773 77.0578L30.0854 76.8538C29.9952 76.873 29.9015 77.1101 29.8768 76.9633C29.9288 76.9016 29.8709 76.7691 29.9611 76.7499C30.0897 76.7733 30.2744 76.6544 30.294 76.7444C30.2889 76.6876 30.2872 76.4128 30.0931 76.5554L30.116 76.4274C30.0309 76.5034 29.8615 76.7928 29.8598 76.5181L29.893 76.5038L29.7729 76.3193C29.7729 76.3193 29.8061 76.305 29.8155 76.2813C29.8487 76.267 29.858 76.2433 29.858 76.2433C29.801 76.2482 29.7627 76.2057 29.7908 76.1346C29.8478 76.1297 29.8946 76.0111 29.9423 76.03C29.9593 75.7078 29.8691 75.727 29.8307 75.6844C29.8486 75.4997 29.8767 75.4285 29.9772 75.523C30.0231 75.2671 30.0537 74.8407 30.1908 74.703C30.1601 74.362 30.1389 74.7647 30.052 74.566C30.4215 74.3282 30.3354 73.4995 30.389 72.9451C30.0757 73.0406 30.3881 72.8077 30.1446 72.6567C30.2025 72.7892 30.4604 72.206 30.4443 72.6655L30.4758 72.3764C30.6792 72.2101 30.498 72.8785 30.7627 72.6268C30.8035 72.3141 30.5498 72.0494 30.7235 71.6795C30.9006 71.8591 30.7311 71.3811 30.9269 71.5132C30.9703 71.6126 30.9329 71.7074 30.9193 71.8117L30.9712 71.7499C31.1857 71.0673 30.789 71.5135 30.7294 71.1063C30.7932 70.6656 30.9558 70.8121 31.0699 70.8023C31.1218 70.7406 31.149 70.5321 31.115 70.409C31.1644 70.7026 30.88 70.8644 30.7744 70.713C31.0494 70.575 30.937 70.0921 30.8791 69.9596C30.502 70.4958 30.7676 70.3815 30.376 70.8845C30.4194 70.9839 30.6289 71.0118 30.474 71.3343C30.4297 71.0976 30.3692 71.3204 30.3173 71.3821C30.4408 71.3486 30.3046 71.6237 30.3386 71.7468C30.2297 71.8134 30.1087 71.4915 30.0015 71.8329L30.2544 71.9601C30.1744 72.093 30.073 71.8611 30.0654 72.1596C29.9453 71.9751 29.8466 72.1554 29.8678 71.7527C29.5375 72.1703 29.844 72.5106 29.8892 72.8848C29.8747 72.8516 29.8509 72.8422 29.8458 72.7854C29.8892 72.8848 29.8662 73.0127 29.8765 73.1264C29.7828 73.3635 29.799 72.9039 29.69 72.9705L29.6211 73.3544C29.6211 73.3544 29.6211 73.3544 29.5879 73.3687C29.5981 73.4823 29.6177 73.5723 29.5513 73.6009C29.4934 73.4684 29.4074 73.407 29.3307 73.3219L29.4525 73.7811C29.3665 73.7198 29.2406 74.1085 29.2244 73.8006L29.1665 74.4355L28.9622 74.4645C28.9869 74.6112 29.0108 74.6207 29.0525 74.4453C28.9682 74.6587 33.5287 70.439 28.8959 75.2604C28.9989 75.767 28.9096 75.9236 28.9564 76.5724C28.8789 76.35 28.8321 76.4685 28.7666 76.6345C28.7104 76.7767 28.6687 76.9521 28.6431 76.6679C28.5265 77.033 28.7453 77.0372 28.7326 77.2788C28.6296 77.5396 28.4346 77.5448 28.3997 77.2843L28.473 77.5873L28.4398 77.6016L28.5411 77.8335C28.4756 77.9994 28.4236 78.0611 28.3811 78.0991C28.3717 78.1229 28.3385 78.1371 28.3198 78.1846C28.2772 78.2226 28.3249 78.2414 28.3964 78.2696L28.6288 78.1696L28.7344 78.3209C28.7387 78.2404 28.9387 78.292 29.1388 78.3436L29.1056 78.3579L29.3866 78.414C29.063 78.3959 29.5918 78.5225 29.4019 78.5845C29.6165 78.6693 29.6403 78.6787 30.0643 78.7913L30.0303 78.6682C30.3112 78.7244 30.3018 78.7481 30.2738 78.8192C30.255 78.8666 30.227 78.9378 30.3938 79.0037L30.4168 78.8757C30.8425 79.2631 31.3074 79.063 31.6182 79.3228C31.3942 79.2617 31.4096 79.4322 31.4189 79.4085C31.7476 79.4835 32.2482 79.6812 32.6382 79.6708C32.6918 79.8838 32.6969 79.9406 33.0026 80.1436C33.2504 80.214 33.3074 80.2091 33.4164 80.1425C33.6267 80.3078 34.1026 80.3588 34.0796 80.4867C34.1648 80.4107 34.2848 80.5951 34.4415 80.5474L34.4466 80.6042L34.4696 80.4763C34.7957 80.9065 35.2265 80.5833 35.5713 80.9662L35.4904 80.9617L35.676 80.9801C35.6812 81.037 35.5909 81.0561 35.5628 81.1273L36.3734 81.4474L36.2439 81.2866C36.4202 81.3288 36.5862 81.2574 36.7488 81.4038C36.364 81.4711 37.0111 81.5074 37.0264 81.6779L36.8408 81.6594C37.0886 81.7298 37.0886 81.7298 37.1116 81.6019C37.4402 81.6769 37.2418 81.9 37.5747 81.8944L37.3602 81.8097C37.3167 81.7103 37.4972 81.672 37.6403 81.7285C37.6547 81.7616 37.7552 81.8561 37.6267 81.8327C37.8838 81.8794 38.2465 82.0775 38.3606 82.0677C38.4942 82.1479 38.4091 82.224 38.3189 82.2431C38.8902 82.3317 38.5479 82.361 39.1192 82.4496L39.0911 82.5207L39.2954 82.4918L39.5015 82.7376L39.4436 82.6051C39.6198 82.6473 39.7578 82.6469 39.9298 82.7697L39.8208 82.8363C40.3257 82.9534 40.3368 83.2045 40.8459 83.2411C40.8604 83.2742 40.7795 83.2697 40.7463 83.284C41.241 83.2875 41.0145 83.5818 41.5185 83.5616C41.4853 83.5759 41.5143 83.6421 41.4811 83.6564L41.6999 83.6606L41.6437 83.8028L41.871 83.646L41.934 83.8353L42.0337 83.7924C42.1452 84.1379 42.5156 84.0375 42.7267 84.3402L42.7446 84.1554C43.6096 84.0585 44.324 84.971 45.281 85.1297L45.2248 85.2719L45.6479 85.2472C45.8012 85.4173 45.4819 85.3187 45.5254 85.418C45.9442 85.4738 45.7527 85.2611 46.2243 85.3926C46.4253 85.5816 46.1154 85.4592 45.9681 85.4832C46.4253 85.5816 47.0587 85.7221 47.3406 85.9157C47.3499 85.892 47.3831 85.8777 47.3593 85.8682C47.6735 85.9101 48.0123 86.0987 48.3222 86.2211C48.2942 86.2923 48.2226 86.264 48.1179 86.2501C48.2371 86.2971 48.3614 86.401 48.4849 86.3676L48.3189 86.439C48.5479 86.5569 49.0477 86.6173 49.0392 86.7783C49.0341 86.7215 49.0809 86.603 49.2954 86.6877C49.3304 86.9481 49.8812 86.8094 50.1775 87.0361C50.1111 87.0646 49.8633 86.9942 49.9349 87.0224C50.083 87.1358 50.2635 87.0974 50.4346 87.0828L50.3495 87.1588L51.1685 87.3178C51.2035 87.5783 51.9025 87.5529 51.7986 87.6763C52.0608 87.7798 51.5977 87.4873 51.9646 87.6048C52.0225 87.7373 52.2933 87.6798 52.2371 87.822L52.18 87.8269L52.4278 87.8974L52.2286 87.9831C52.4525 88.0441 52.6517 87.9584 52.6985 87.8398C52.8612 87.9863 53.1753 88.0281 53.2239 88.1843L53.143 88.1798C53.7194 88.3252 53.9323 88.9026 54.4551 88.835C54.4695 88.8681 54.4602 88.8918 54.3886 88.8636L54.7224 88.9954L54.6134 89.062L55.2511 89.122L55.223 89.1931C55.5951 89.3675 56.186 89.546 56.6815 89.6869L56.6006 89.6824C57.1719 89.7709 57.0825 89.9275 57.4921 90.007C57.4589 90.0213 57.4589 90.0213 57.435 90.0119L57.7688 90.1437L57.6692 90.1866C57.9876 90.1479 58.3427 90.6444 58.2226 90.4599C58.3937 90.4453 58.6602 90.4683 58.7454 90.3923C59.1362 90.5193 58.8033 90.5248 59.0229 90.6664C59.2852 90.77 59.3797 90.6702 59.7424 90.8683L59.7143 90.9394C59.8905 90.9816 60.0285 90.9813 60.2669 91.0754L60.186 91.0709C60.6236 91.0793 60.6117 91.4583 61.0195 91.2631C61.1677 91.3764 61.4963 91.4514 61.4163 91.5842C61.9305 91.6777 62.3307 91.7809 62.8594 91.9075C62.8467 92.1491 62.9641 91.9214 63.2272 92.1624L63.2502 92.0344C63.9509 92.2837 64.6253 92.8789 65.4163 93.1091L65.3933 93.237L65.5925 93.1513C66.3843 93.5188 67.4239 93.9568 68.1008 94.1967C68.3434 94.2103 68.7095 94.1905 69.0339 94.346L69.0007 94.3603C69.6248 94.5245 70.2727 94.6982 70.8977 94.9998C70.8313 95.0284 70.8841 95.1041 70.8032 95.0995C71.0024 95.0138 71.194 95.2264 71.337 95.2829L71.2076 95.1222C71.4451 95.079 71.6699 95.2774 71.7278 95.4099L72.0701 95.3806C72.0939 95.39 72.1084 95.4231 72.099 95.4468L72.1748 95.3946L72.2761 95.6264C72.357 95.631 72.7572 95.7342 72.9419 95.6153C72.947 95.6721 73.2144 95.8325 72.9905 95.7715L74.0301 96.2095L73.8819 96.0961C73.9049 95.9682 74.2523 95.9958 74.391 96.1328C74.139 96.1429 74.3017 96.2893 74.3596 96.4218C74.5307 96.4072 74.2778 96.2799 74.3774 96.237C74.5818 96.2081 74.9819 96.3113 75.0492 96.4201L74.9351 96.4299C75.1922 96.4766 75.2272 96.737 75.4749 96.8075C75.7269 96.7974 75.8657 96.9344 75.893 96.7259C76.2216 96.8009 75.956 96.9153 76.042 96.9766C76.2225 96.9383 76.6328 97.1552 76.6576 97.3019C76.9462 97.0596 77.4545 97.7263 77.629 97.4938L77.8351 97.7396C77.8632 97.6685 77.967 97.545 78.2003 97.5824C78.3629 97.7288 78.2684 97.8285 78.3119 97.9279L78.5341 97.7142C79.5754 98.4269 81.1377 98.7972 82.2931 99.5002C82.8695 99.6456 83.6077 99.8001 84.242 100.078L84.1611 100.073L84.7767 100.399L84.3467 100.092C84.4991 100.125 84.6132 100.115 84.7562 100.171C85.434 100.549 86.3169 101.034 87.2313 101.231C87.9014 101.14 87.5098 101.643 88.1279 101.613C88.0709 101.618 88.0283 101.656 87.9951 101.67C88.6047 101.801 88.9427 101.852 89.6042 101.922C89.4204 102.178 89.9857 102.072 89.8818 102.196L89.9763 102.096C90.0674 102.214 90.368 102.36 90.2828 102.436L90.6013 102.398L90.5783 102.526C90.912 102.657 91.6885 102.854 91.7618 103.157C92.6711 103.297 93.9874 103.872 95.027 104.31C95.2075 104.272 95.5267 104.37 95.7651 104.464L95.9712 104.71C96.2283 104.757 96.5655 104.671 96.7664 104.86C96.757 104.884 96.757 104.884 96.7238 104.898C96.9716 104.968 97.1819 105.134 97.4765 105.085C97.7387 105.189 97.9967 105.373 97.8452 105.478C97.9626 105.25 98.408 105.727 98.408 105.727C98.408 105.727 99.6289 106.264 101.455 107.013C102.352 107.395 103.425 107.818 104.569 108.27C105.284 108.553 106.047 108.854 106.795 109.122C107.973 109.56 109.141 110.021 110.342 110.468C110.532 109.639 110.722 108.809 110.912 107.98C111.014 107.582 111.092 107.174 111.194 106.776C111.245 106.577 111.296 106.378 111.324 106.169C111.365 105.994 111.411 105.738 111.43 105.69C111.587 104.875 111.724 104.108 111.834 103.411C112.039 101.985 112.136 100.762 112.031 99.9809C111.926 99.8296 111.928 99.4743 111.753 99.5695C111.775 99.3042 112.022 99.2373 111.912 99.1665C111.757 99.489 111.63 98.973 111.371 99.2815L111.407 99.0493C111.321 98.9879 111.447 99.3666 111.29 99.277L111.519 99.3948C111.453 99.5608 111.368 99.6368 111.268 99.6797C111.308 99.8596 111.613 100.062 111.368 100.404L111.382 100.3C111.308 100.627 111.178 100.466 111.126 100.528L111.154 100.457L110.98 100.689C111.112 100.495 111.01 100.126 110.968 100.301C110.794 100.671 111.053 100.225 110.998 100.505C110.956 100.68 110.846 100.609 110.775 100.581L110.701 100.908C110.605 100.87 110.761 100.685 110.61 100.79L110.627 101.235C110.351 101.236 110.658 101.713 110.336 101.833C110.343 101.534 110.221 101.842 110.169 101.767L110.002 102.468C109.95 102.53 109.972 102.265 109.958 102.369C109.855 102.492 109.979 102.596 109.951 102.667C109.851 102.71 109.826 103.193 109.659 103.127C109.424 103.583 109.832 103.388 109.639 103.805C109.516 103.838 109.699 103.445 109.552 103.606L109.479 104.071C109.441 104.028 109.317 103.924 109.382 103.758C109.26 104.066 109.134 104.318 109.007 104.569C108.936 104.678 108.856 104.811 108.809 104.93C108.791 104.977 108.739 105.039 108.72 105.086L108.625 105.186C108.418 105.433 108.266 105.537 108.264 105.893C108.144 105.845 108.215 105.736 108.157 105.604C108.178 105.831 108.116 105.917 108.035 105.912C107.835 105.723 107.7 105.505 107.571 105.482L107.606 105.605C107.491 105.478 107.414 105.392 107.361 105.317C107.275 105.255 107.332 105.251 106.975 105.109C106.426 104.893 105.878 104.676 105.348 104.412L105.439 104.531C105.259 104.569 105.011 104.498 104.802 104.47C104.797 104.414 105.005 104.304 104.677 104.229C104.729 104.305 104.839 104.376 104.797 104.414C103.97 103.786 101.987 103.085 100.508 102.364C98.4203 101.649 96.2543 100.574 94.1905 99.8687C94.5004 99.9911 94.2876 100.181 94.0679 100.04C93.5927 99.3586 92.9338 99.7013 92.388 99.1294C91.1637 98.8104 90.2313 98.0311 88.9943 97.9536L89.0172 97.8256C88.8691 97.7123 88.7933 97.7646 88.6171 97.7224L88.6264 97.6987C88.2399 97.4912 87.6831 97.4358 87.4966 97.2799L87.4166 97.4127C87.1688 97.3423 87.3348 97.2708 87.0445 97.2384L87.0726 97.1673L86.7303 97.1965C86.8478 96.9689 86.039 96.9235 85.8951 96.7296C85.5664 96.6547 84.9236 96.5378 84.4655 96.3021C84.417 96.1459 83.8448 95.9199 83.4821 95.7219C82.7482 95.4869 81.7044 95.1294 80.784 94.7385L80.7423 94.9139L80.4945 94.8435C80.5039 94.8197 80.4894 94.7866 80.5226 94.7723C80.3974 94.5311 79.9462 94.6269 79.8023 94.4331C79.8653 94.6224 79.9598 94.5227 80.1029 94.5792C80.2655 94.7256 80.0424 94.8019 79.7844 94.6178L79.7938 94.5941L79.5656 94.6136C79.5886 94.4857 79.4405 94.3724 79.4634 94.2444C78.658 93.9811 78.0493 93.9874 77.2336 93.6104C77.3613 93.4964 76.6189 93.4225 76.8794 93.2513C76.3651 93.1578 76.8998 93.4786 76.5959 93.5504C76.4528 93.4939 76.2817 93.5086 76.2953 93.4043C76.3856 93.3852 76.2323 93.215 76.3609 93.2384L76.0178 93.1303C76.0033 93.0971 76.0842 93.1017 76.1174 93.0874C75.3937 92.966 74.9815 92.4744 74.32 92.405C74.2349 92.481 74.5491 92.5228 74.4733 92.5751C73.8024 92.5294 74.005 92.2257 73.3766 92.142L73.5427 92.0706C73.3145 92.0901 73.2055 92.1567 72.9569 91.9488C72.9654 91.7878 73.2659 91.9339 73.4132 91.9098C73.1987 91.8251 72.6793 91.6748 72.7755 91.8498C72.5184 91.8031 72.4699 91.6469 72.3456 91.543C72.3362 91.5667 72.5465 91.732 72.3754 91.7466C72.0697 91.5437 71.5452 91.3365 71.14 91.1765C71.1493 91.1528 71.1536 91.0722 71.1774 91.0816C70.9586 91.0774 71.1042 90.7787 70.6657 90.6329Z" fill="white"/>
<path d="M42.937 89.9123L43.0945 90.002C43.1039 89.9782 43.1227 89.9305 43.2037 89.9349L42.937 89.9123Z" fill="white"/>
<path d="M50.7804 92.8724C50.8038 92.8816 50.8364 92.8675 50.8456 92.8441C50.8222 92.8348 50.813 92.8582 50.7804 92.8724Z" fill="white"/>
<path d="M52.7987 93.3428C52.649 93.3107 52.7476 93.4037 52.8086 93.4548C52.8178 93.4314 52.8363 93.3847 52.7987 93.3428Z" fill="white"/>
<path d="M38.3399 88.6446C38.3726 88.6305 38.396 88.6397 38.4144 88.593C38.3726 88.6305 38.3492 88.6212 38.3399 88.6446Z" fill="white"/>
<path d="M26.023 84.1084C26.0464 84.1176 26.0464 84.1176 26.0605 84.1503C26.0698 84.1269 26.0464 84.1176 26.023 84.1084Z" fill="white"/>
<path d="M26.6399 84.5721C26.6633 84.5814 26.7101 84.5998 26.7895 84.6041C26.7193 84.5764 26.696 84.5672 26.6399 84.5721Z" fill="white"/>
<path d="M41.3674 89.7025C41.4142 89.7209 41.4702 89.716 41.5029 89.7019C41.4327 89.6742 41.3766 89.6791 41.3674 89.7025Z" fill="white"/>
<path d="M26.9415 84.6367L27.1084 84.7026L27.1178 84.6788L26.9415 84.6367Z" fill="white"/>
<path d="M25.806 84.0223C25.8775 84.0506 25.9728 84.0882 26.0205 84.1071C25.9584 84.055 25.8869 84.0268 25.806 84.0223Z" fill="white"/>
<path d="M33.7607 87.1912C33.9289 87.1766 33.8494 87.1722 33.7607 87.1912V87.1912Z" fill="white"/>
<path d="M27.7853 84.667L27.8647 84.6713L27.7853 84.667Z" fill="white"/>
<path d="M25.2286 83.7417C25.252 83.7509 25.252 83.7509 25.2846 83.7367C25.2846 83.7367 25.2612 83.7275 25.2471 83.6949C25.2379 83.7183 25.2286 83.7417 25.2286 83.7417Z" fill="white"/>
<path d="M31.2295 86.057C31.1642 86.0853 31.1224 86.1229 31.1131 86.1462C31.1926 86.1506 31.2486 86.1457 31.2295 86.057Z" fill="white"/>
</g>
<defs>
<clipPath id="clip0">
<rect width="162.443" height="162.443" fill="white" transform="translate(0.546875 46.6494) rotate(-16.3665)"/>
</clipPath>
</defs>
</svg>
