<svg xmlns="http://www.w3.org/2000/svg" xmlns:xlink="http://www.w3.org/1999/xlink" width="289" height="289" viewBox="0 0 289 289">
  <defs>
    <clipPath id="clip-path">
      <rect id="Rectangle_183" data-name="Rectangle 183" width="162.443" height="162.443" transform="translate(0.547 46.649) rotate(-16.366)" fill="#fff"/>
    </clipPath>
    <clipPath id="clip-round">
      <rect width="289" height="289"/>
    </clipPath>
  </defs>
  <g id="round" clip-path="url(#clip-round)">
    <circle id="Ellipse_94" data-name="Ellipse 94" cx="144.5" cy="144.5" r="144.5" fill="#09f"/>
    <g id="mail" transform="translate(63.453 28.124)" clip-path="url(#clip-path)">
      <path id="Path_3215" data-name="Path 3215" d="M78.177,56.035c-.021.045-.052.054-.031.125A.107.107,0,0,0,78.177,56.035Z" fill="#fff"/>
      <path id="Path_3216" data-name="Path 3216" d="M109.591,47.989l-.339.139C109.474,48.063,109.569,48.035,109.591,47.989Z" fill="#fff"/>
      <path id="Path_3217" data-name="Path 3217" d="M59.519,61.357c.032-.009.032-.009.021-.046-.286.084-.667.2-1.292.419Z" fill="#fff"/>
      <path id="Path_3218" data-name="Path 3218" d="M155.857,70.063l-.17-.463A2.291,2.291,0,0,0,155.857,70.063Z" fill="#fff"/>
      <path id="Path_3219" data-name="Path 3219" d="M136.684,39.913a2.113,2.113,0,0,1,.519-.231C136.949,39.756,136.727,39.822,136.684,39.913Z" fill="#fff"/>
      <path id="Path_3220" data-name="Path 3220" d="M49.121,62.605l.572-.049C49.64,62.492,49.439,62.512,49.121,62.605Z" fill="#fff"/>
      <path id="Path_3221" data-name="Path 3221" d="M38.227,67.926c.148-.083.328-.175.476-.258C38.481,67.733,38.206,67.853,38.227,67.926Z" fill="#fff"/>
      <path id="Path_3222" data-name="Path 3222" d="M38.939,67.52c-.085.064-.148.083-.233.147A2.19,2.19,0,0,0,38.939,67.52Z" fill="#fff"/>
      <path id="Path_3223" data-name="Path 3223" d="M29.805,79.077a10.162,10.162,0,0,0-.594-1.671Z" fill="#fff"/>
      <path id="Path_3224" data-name="Path 3224" d="M160.583,129.628l.073-.1C160.573,129.592,160.583,129.628,160.583,129.628Z" fill="#fff"/>
      <path id="Path_3225" data-name="Path 3225" d="M28.547,78.547l-.1-.446A2.108,2.108,0,0,0,28.547,78.547Z" fill="#fff"/>
      <path id="Path_3226" data-name="Path 3226" d="M58.9,58.91c.5-.3,1.673-.531,1.609-.63A5.68,5.68,0,0,0,58.9,58.91Z" fill="#fff"/>
      <path id="Path_3227" data-name="Path 3227" d="M151.084,140.627l-.328.176A1.624,1.624,0,0,0,151.084,140.627Z" fill="#fff"/>
      <path id="Path_3228" data-name="Path 3228" d="M28.547,78.548l.086.528c.021-.046,0-.118.021-.164Z" fill="#fff"/>
      <path id="Path_3229" data-name="Path 3229" d="M97.145,153.876l.7-.206A2.173,2.173,0,0,0,97.145,153.876Z" fill="#fff"/>
      <path id="Path_3230" data-name="Path 3230" d="M29.2,77.371l-.35-.958A9.1,9.1,0,0,0,29.2,77.371Z" fill="#fff"/>
      <path id="Path_3231" data-name="Path 3231" d="M60.556,159.476a1,1,0,0,0,.328-.057C60.757,159.456,60.651,159.448,60.556,159.476Z" fill="#fff"/>
      <path id="Path_3232" data-name="Path 3232" d="M134.156,40.7a.808.808,0,0,1-.3.048C133.838,40.789,133.881,40.815,134.156,40.7Z" fill="#fff"/>
      <path id="Path_3233" data-name="Path 3233" d="M151.226,48.29a6.821,6.821,0,0,0,.753,1.389A7.911,7.911,0,0,0,151.226,48.29Z" fill="#fff"/>
      <path id="Path_3234" data-name="Path 3234" d="M139.079,34.775a1.089,1.089,0,0,0,.36-.066A1.555,1.555,0,0,1,139.079,34.775Z" fill="#fff"/>
      <path id="Path_3235" data-name="Path 3235" d="M159.158,67.21Z" fill="#fff"/>
      <path id="Path_3236" data-name="Path 3236" d="M174.253,125.3a3.314,3.314,0,0,0,.01-.553l-.011-.271v-.236c-.011-.272-.043-.5-.064-.688-.043-.38-.1-.8-.139-1.177-.1-.8-.234-1.62-.33-2.417-.106-.832-.213-1.665-.362-2.525s-.287-1.683-.436-2.542-.287-1.683-.436-2.543c-.138-.823-.319-1.674-.489-2.488s-.3-1.6-.457-2.379-.277-1.529-.426-2.271a37.648,37.648,0,0,1-1.4-4.89l.264-.274-.478-1.509c-.053-.652.34,1.157.212.016l-.36-.522c.1-.146-.882-3.943-.012-1.45,0,0-.106-.362-.234-.913s-.318-1.32-.531-2.043l-.8-2.947c-.351-1.311-.477-.685-.807-2.159.01-.317.212.488.308.342-1.073-4.358-2.1-4.8-3.248-8.826l.159.307c-.3-.659-.711-1.951-.774-1.933-.159.636.4.667.605,1.943-.318-.024-.637-1.463-.838-1.325a14.052,14.052,0,0,0-.838-2.267c-.319-1.438-1.094-3.371-1.243-4.466a16.437,16.437,0,0,1-1.379-2.7c-.149-1.1.286.152-.128-1.258l-.222-.17c-.4-1.138-.287-.976-.181-.968-.435-1.247-.583-.928-1.082-2.51l.477.8c-.5-1.11-.637-1.58-1.2-3.143.106.008.329.65.5,1.11-.106-.951-.657-1.417-.795-1.887-.021.163.371,1.265.021.779a13,13,0,0,1-.891-2.212l.477.8a12.306,12.306,0,0,1-1.2-2.672c.063.1.074.018.116.044a34.29,34.29,0,0,1-1.751-4.434l.159.307a13.973,13.973,0,0,1-.753-1.389c.3,1.012.16.778.033.933-.277-1.411-1.1-1.875-1.814-4.062a1.873,1.873,0,0,1,.562,1.092,5.505,5.505,0,0,1,1.442,1.854c-.4-.785-.817-1.724-.626-1.544l-.35-.133c-.212-.487-.361-.876-.5-1.228-.243-.125.149,1.1-.413,0-.6-1.236-.022-.779-.2-.923-.816-1.724-.561-.62-1.166-2.328a2.654,2.654,0,0,1,.286.623c-.4-1.256-1.273-2.925-1.115-3.443a1.058,1.058,0,0,1,.424.622l-.063.019c.774,1.226-.52-1.065-.1-.8-.127.155-.8-1.534-1.061-2.32l-.074.336c-1.569-2.288.4-.04-.7-2.5-.795-1.534.213.605-.328-.3-.191-.533-.308-.931-.478-1.391a10.977,10.977,0,0,0-.414-1.057c-.169-.461-.424-.975-.679-1.607-.117-.4-.318-.967-.488-1.545-.043-.145-.085-.289-.117-.4-.021-.072-.042-.145-.053-.181s-.021-.072-.032-.109l-.01-.036-.011-.036c-.138,0-.212-.016-.233-.089-.762.342-1.9.714-2.965,1.067-.285.084-.529.195-.783.269a.808.808,0,0,0-.275.12.374.374,0,0,0-.18.092,1.8,1.8,0,0,0-.53.313,3.781,3.781,0,0,0,.89-.261c.4-.158.709-.287,1.048-.426a16.671,16.671,0,0,1,2.859-.957l-.868.569c-.466.176-1,.371-1.525.566l-1.525.566a9.524,9.524,0,0,1-1.63.557c.169-.01.275,0,.2.1a24.9,24.9,0,0,1-3.748,1.572c-.286-.152.7-.441,1.387-.682a19.355,19.355,0,0,0-2.784.857c-.149-.153,1.1-.363,1.238-.6l-1.8.686-.01-.036c-.159.4-1.387.447-2.488.927a17.851,17.851,0,0,0-4.351,2.1c-.434.049-.551,0-.413-.114.7-.087.54-.158.741-.3-.879.3-2.076.335-1.61.041-1.4.528.551,0-.275.356l-.985.289-.984.289c.264.079.974-.09,0,.353-.847.288-1.26.409-2.4.745.138-.119-.423-.15.413-.357a3.867,3.867,0,0,0-1.683.612c1.281-.219-1.991.742-1,.724l-1.282.219c.286-.084.286-.2.71-.287-.424-.151-1,.371-1.408.492a8.551,8.551,0,0,1-1.705.3,4.193,4.193,0,0,1-1.557.339c-.561.2.011.154-.158.282l-1.98.542c-.138-.117-.4-.432-.128-.552-.73.332-.137.472-1.291.772.561-.44-1.557.221-.689-.348a15.789,15.789,0,0,0-3.537.882c-.582.367,1.123-.173,1.113.027-2.849.876-2.838,1.5-4.976,1.972l.561-.086a9.027,9.027,0,0,0-1.864.822c.276-.356-1.673-.294-3.822.377-.148.2,1.281-.1,1,.218l-1.429.42c-.106-.008.042-.091.222-.183-1.249.445-2.5.3-2.753.73l-1.419-.015.561.032a15.709,15.709,0,0,1-1.853.74,8.041,8.041,0,0,1-2.848.64c.286.034,1,.1-.137.472-.1-.443-2.478.492-2.5.3-.476.14-1.345.238-1.323.428l.021-.281c-.021.4-1.715.857-3.007,1.276.137-.59-1.429.42-2.129.154-.159.4-2.287.789-2.424,1.144-.985.289-.974-.028-1.26-.062l-.445.248a26.648,26.648,0,0,0-3.579.737l-.963.6-.424-.033c-.138.119-.985.407-.444.366l-.572.168c.064.335-.773.306-1.842.777-.265.039-.233-.089.01-.2-.572.168-.371-.088-.72-.1.434-.049-1.821,1.2-.3.872.138.117-.688.477-1.281.573l-.434-.187L64.1,58.4c-.847.288-1.281.219-1.98.424.688-.241,1.418-1.045-.413-.468a11.621,11.621,0,0,0,1.853-.858c-.381.112-.582.132-.021-.19-1.4.528-.423.321-1.832.813-.011-.272-.424-.268-1.705.069l.974-.09a.261.261,0,0,1-.169.128c.36-.066.466-.058.593.022-.286.084-1.546.847-1.842.777,1.535-.058-2.393,1.135-1.408,1.081a3.137,3.137,0,0,1-1.271.373c1.112-.562-.974-.028-.869-.256-.424.2,1.006-.1.434.187a6.355,6.355,0,0,1-1.673.3l.265-.156-1.133.254c-.148.2,1.133-.136.148.271-.265.038-1.249.445-1.249.328.413-.357,0-.471.836-.8-.72.251-2.933,1.058-1.948,1l-.847.288c.561-.086,2.1-.38.445.223l-.011-.036-1.1.6-.572.05c.053.063-.116.191-.561.322-.148-.035-.561.086-.561-.032-1.249.445-1.111.562-1.249.681-.678.278-.974.325-.709.051a28.469,28.469,0,0,1-3.346,1.061c-1.239.6.3-.048-.4.393-1.26-.062-4.309,1.423-6.363,2.419.731.139-.529.313-.762.813.381-.348-2.075.688-.339-.332a5.708,5.708,0,0,1-.54.276l-.529.313c-.847.17,1.725-1.057.5-.774-1.228.636-1.81,1.474-3.281,2.22.159-.282-.1-.09-.381.112s-.561.44-.466.176a6.487,6.487,0,0,1,1.005-.806l-.275.12a6.436,6.436,0,0,0-1.2.862c-.191.174-.2.255-.212.337.032.108.222.17-.37.737-1.429,1.244-1.292.772-1.44.737a6.047,6.047,0,0,0-1.238,1.306,3.688,3.688,0,0,1,1.048-1.015c.3-.166.445-.131.318.142a3.348,3.348,0,0,0-.667.432,5.3,5.3,0,0,0-.677.749,8.891,8.891,0,0,0-.878,1.358c.995-.96,1.323-1.253,1.64-1.581.159-.164.328-.293.572-.521a4.728,4.728,0,0,1,.455-.33,7.4,7.4,0,0,1,.667-.432c.19-.292-.022-.543,1.27-1.315-.667.667.138.117.381.006-.169.011.021-.163.307-.365a7.793,7.793,0,0,0,.826-.6c.424-.085-.561.793.752.093l.063-.49c.519-.231-.1.381.942-.316-.233.265-.148.319-.19.409s-.212.219-.9.7c1.863-.7,2.562-1.616,3.917-2.407-.148.083-.127.155-.243.229a5.871,5.871,0,0,1,1.217-.672c.974-.325-.656.468-.37.5,0,0,.36-.184.73-.332s.73-.332.73-.332c.032-.009.032-.009.042.027.381-.23.741-.414.932-.352a9.179,9.179,0,0,0-.783.741s.381-.23.73-.45c.381-.23.73-.45.73-.45-.116.191,1.4-.293.276.233,0,0,.582-.25,1.175-.463s1.175-.463,1.175-.463l.3.188c.551-.24.561-.322-.127-.08.826-.243,3.451-1.76,3.2-1.1a44.328,44.328,0,0,1,4.711-1.933c-1.651.839,2.1-.38.276.351a7.89,7.89,0,0,0,2.1-.969c.847-.17.551.231-.275.591l.963-.479-.021.046a3.546,3.546,0,0,0,.413-.239l.423-.2c.985-.171.3.188,1.25-.092l.148-.318.7-.087c-.286-.034.264-.274.985-.525l.011.036.836-.324c-.8.433.8-.2.477.1.731-.215.752-.26,2.075-.688l-.265-.079c1.7-.658.138.234,1.557-.222l-.148-.153c2.118-.308,3.367-1.224,4.945-1.491-.847.288-.561.44-.571.4,1.281-.455,3.388-1.034,4.658-1.643a3.794,3.794,0,0,0,2.107-.108c.985-.289,1.133-.372,1.408-.61.985-.171,2.785-.857,2.88-.649.18-.21.868-.216,1.376-.483l.148.035-.148-.153c1.843-.07,2.837-1.03,4.691-1.181l-.275.12.709-.287c.148.035-.148.2-.159.282l3.42-.926-.71.051a9.53,9.53,0,0,1,1.991-.624c-1.291.654,1.122-.29,1.408-.139l-.709.287c.985-.289.985-.289.868-.451,1.292-.419,1,.1,2.118-.425l-.868.216c-.286-.034.275-.356.847-.524.138,0,.572-.05.138.117,1.006-.335,2.562-.674,2.986-.877.561-.086.434.069.138.234,2.128-.743,1-.253,3.123-1v.118l.73-.332,1.123-.055-.424-.033a19.252,19.252,0,0,1,2-.588l-.307.247c1.991-.624,2.4-.392,4.288-1.142.138,0-.137.119-.285.2,1.715-.739,1.419-.1,3.112-.914-.084.064.128.08.043.145l.794-.351v.236l.582-.485.572.068.286-.2c.974.146,2.128-.507,3.4-.527l-.265-.2a21.783,21.783,0,0,1,5-1.546,47.794,47.794,0,0,0,5.5-1.5v.236l1.408-.728c.837-.089-.423.321-.137.355,1.545-.611.571-.521,2.382-1.171.984-.171-.275.238-.688.477,1.7-.658,4.235-1.558,5.484-1.886.021-.045.074-.1.011-.082,1.132-.49,2.668-.9,3.917-1.347,0,.118-.317.211-.625.34a6.968,6.968,0,0,0,1.472-.511l-.413.357a21.18,21.18,0,0,1,3.081-1.023c-.148-.035-.159-.189.678-.513a.465.465,0,0,0,.275,0l.159-.047.064-.019a1.3,1.3,0,0,0,.3-.166c.116-.073.265-.156.381-.23l.1-.028c.043.027.022.072.064.1l.074.253c-.032.009-.1-.09-.148-.153l-.011-.036-.032.009h0c.032-.009.043.027.053.063s.022.072.032.108a.209.209,0,0,0,.106.126c.053.063.149.153.244.243l-.063.019-.064.019a.512.512,0,0,1,.085.172.151.151,0,0,0,.064.1c.01.036.01.036.021.072a.249.249,0,0,0,.074.135l.286.623c.393.867.807,1.688.807,1.688-.053.644,1.4,3.241,1.114,3.09.5,1.228-.319-1.085.371.441.064.453.647,1.381.446,1.4l-.085-.172L147.049,47l-.456-.612c.446.93.87,1.551,1.039,1.541a22.171,22.171,0,0,1,.881,2.647l-.159-.307c1.1,2.465,1.211,4.357,2.3,6.2.043.145-.021.163-.148-.153l.594,1.554-.265-.315,1.209,2.473-.106-.008c.319.849.743,1.942,1.221,3.1.445,1.165.934,2.357,1.358,3.45l-.159-.307c1.029,2.329.8,2.358,1.539,4.065-.053-.063-.064-.1-.117-.162l.573,1.6-.233-.324a15.526,15.526,0,0,1,.849,2.657A16.64,16.64,0,0,0,157.98,76c.615,1.744.032.462.319,1.556.4,1.256.657,1.417,1.135,3.162l-.106-.008c.266.786.51,1.264.871,2.376l-.159-.307a9.215,9.215,0,0,1,.626,2.015,4.343,4.343,0,0,0,.658,1.653c.159.778.658,2.242.446,2.225q.3.854.573,1.6c.181.5.33,1,.478,1.509.329,1,.627,2.015.987,3.127-.211.455.181.5.32,1.909l.127-.155c.4,1.61.744,3.355,1.073,5.183.288,1.8.617,3.628,1.042,5.428l-.137.119.307.695c.692,3.881,1.437,8.886,1.757,11.973.117.516.266,1.14.4,1.845.074.371.149.742.191,1.122.022.191.043.381.075.607.021.19.053.416.064.57l-.042-.144.042.38c.011.036.021.072.032.108a.314.314,0,0,1-.01.2c-.022.045-.064.136-.085.182a4.275,4.275,0,0,1-.487.339c-1.143.689-2.318,1.388-3.5,2.05.127-.155-.159-.071.1-.263a7.572,7.572,0,0,1-1.9,1.148l.656-.232a4.589,4.589,0,0,1-2.075,1.042l-1.005.806c-.064.018-.191.056-.233.029l-.148.2-.7.088a11.262,11.262,0,0,0-2,1.53c-.138,0-1.165.5-.413,0,0,0-.233.147-.625.341s-.868.451-1.376.718c-1.027.5-2.022.987-2.022.987l.656-.232c.149.152-.984.878-1.672,1.119.762-.577-.053-.3-.445-.223-.508.385.561-.086.286.152a14.54,14.54,0,0,1-2.456,1.389l.37-.266c-.91.542-1.492.439-2.392.9-.773.541-1.451.7-1.143.925-1.2.626-.551.005-.953.162a7.543,7.543,0,0,1-2.509,1.09c-.476.729-3.378,1.306-3.473,1.806l-1.1.244c0,.118-.116.427-.9.814-.825.243-.7-.03-.974-.028l-.381.584c-4.648,1.443-10.471,4.056-15.638,5.378-1.111.444-2.361.889-3.663,1.39-1.313.464-2.668.9-4,1.293l.275-.12-2.657.7,1.948-.415c-.561.2-.974.443-1.546.611-.741.178-1.514.366-2.361.536s-1.715.386-2.616.611-1.8.45-2.721.721c-.931.234-1.831.459-2.71.756-2.223,1.007-1.663-.022-3.823.848.18-.092.222-.183.4-.275-1.2.39-2.107.579-3.018.886-.921.271-1.842.541-3.039.932.19-.527-1.588.348-1.4.057l-.169.246c-.551,0-1.843.187-1.684.023l-.942.08-.117-.162c-.72.133-1.832.342-2.88.532-.53.077-1.027.145-1.461.194a3.989,3.989,0,0,1-.985-.065c-1.747.4-4.045.795-6.459,1.151-2.436.283-4.977.558-7.233.75a17.267,17.267,0,0,1-2.976.441l-1.144-.135c-.53.077-1.038.226-1.567.3a4.643,4.643,0,0,1-1.514.131c-.011-.036.053-.055.116-.074-1.006.1-1.938-.02-2.827.124a4.8,4.8,0,0,1-1.26-.3c-.276-.115-.424-.268-.265-.315-.053.173-.54.041-.89-.21-.085-.053-.18-.143-.265-.2a.789.789,0,0,1-.191-.179l-.159-.189a2.452,2.452,0,0,1-.318-.26,4.675,4.675,0,0,1-.774-.991,11.888,11.888,0,0,1-1.04-2.483c-.2-.569-.4-1.256-.616-1.979s-.467-1.473-.7-2.269c-1.975-6.371-4.64-15.093-7.379-24.3s-5.564-18.945-8.006-27.379S31.3,83,29.827,79.032c-.286-.505-.8-2.005-.816-1.371-.34-1.157-.2-1.747-.436-1.954.3,1.6-.53-.394-.338,1.2l-.287-.976c-.159-.189.456,1.319.191,1.122l.371.205a6.782,6.782,0,0,1,.192,1.593,7.272,7.272,0,0,1,1.114,2.972l-.149-.506c.393,1.455.032.933.064,1.277l-.1-.325.17,1.285c-.149-.977-.786-2.44-.552-1.645.351,1.782-.032-.462.318.849.234.8.011.625-.095.617l.393,1.455c-.148-.035-.255-.986-.233-.324l.637,1.816c-.254.428.679,1.961.574,2.895-.425-1.328-.1.146-.254-.043l.882,3.237c.021.308-.35-.84-.2-.334a5.95,5.95,0,0,0,.425,1.328c-.01.317.648,2.441.394,2.4.446,2.225.562.856.966,2.937-.084.3-.478-1.627-.371-.676l.627,2.133a2.319,2.319,0,0,1-.52-1.182c1.36,5.806,1.469,9.112,3.167,14.308.022.779-.255-.514-.53-.983,1.306,3.74,1.159,5.472,2.1,8.69l.148.035c.883,4.65,2.729,10,4.1,15.134l-.085-.642c.329.649.7,1.8,1.008,2.61-.021.163-.466-.531.032.933-.053-.3-.181-.968-.064-.806.489,2.252,1.455,5.66,2.591,9.411.584,1.871,1.157,3.824,1.763,5.767.287.976.563,1.916.934,2.946A17.585,17.585,0,0,0,49.3,159.56,10.692,10.692,0,0,0,50.8,161.6a9.9,9.9,0,0,0,1.992,1.614,10.018,10.018,0,0,0,2.151.979,15.723,15.723,0,0,0,2.108.481,21.65,21.65,0,0,0,3.866.121c.614-.023,1.186-.073,1.79-.133l1.758-.123c2.33-.174,4.67-.311,6.936-.584s4.553-.473,6.724-.836c-1.324.193-.837-.265.18-.328,2.87.257,4.744-.764,7.625-.825,1.26-.291,2.478-.492,3.7-.692.593-.1,1.218-.2,1.811-.3s1.175-.227,1.768-.322c1.175-.228,2.319-.446,3.484-.709l.868-.216.858-.252c.572-.168,1.133-.372,1.694-.576l.149.153a8.108,8.108,0,0,0,1.588-.467l-.021.046c.879-.18,1.81-.414,2.668-.666a18.838,18.838,0,0,1,2.107-.579v-.236c1.016-.3.561.031,1.578-.385v.118l1.154-.535c-.011.2.73.021,1.556-.222a13.693,13.693,0,0,1,2.171-.6c1.281-.455,3.705-1.363,5.685-1.9a36.5,36.5,0,0,0,4.384-1.17c.752-.26,1.556-.575,2.435-.872.868-.334,1.768-.677,2.732-1.038,1.9-.714,3.9-1.419,5.738-2.2l-.159-.189.953-.4c.01.036.148.035,0,.117.847-.052,2.191-1,3.049-1.131-.561-.031-.688.242-1.249.446-.837.206-.159-.307.952-.634l-.021.046.667-.432c.149.153.847-.052,1,.1,1.577-.738,2.869-1.393,4.16-2.047.657-.35,1.323-.663,2.022-.986.688-.36,1.419-.692,2.234-1.088-.243.346,2.287-1.143,1.789-.487,1.863-1.057-.444-.1.317-.8.551-.24,1.059-.625,1.218-.554-.212.22.519.005.106.244,0,0,.328-.175.635-.3.328-.175.625-.341.625-.341.127-.037-.127.155-.275.238,2.477-1.552,4.69-2.123,6.891-3.556.106-.227-.931.47-.826.243,2.181-1.5,2.15-.906,4.2-2.255l-.36.42a6.771,6.771,0,0,1,2.064-1.314c.3.07-.9.7-1.407,1.081.773-.423,2.741-1.59,2.032-1.421a9.258,9.258,0,0,1,1.842-.9c-.021-.072-.921.389-.424-.032,1.3-.618,3.24-1.776,4.8-2.705.021.073.159.072.053.181.275-.238.561-.44.815-.632a9.3,9.3,0,0,0,.9-.7,3.792,3.792,0,0,0,.9-1.05A3.4,3.4,0,0,0,174.253,125.3Z" fill="#fff"/>
      <path id="Path_3237" data-name="Path 3237" d="M133.255,36.8l.667-.2c-.011-.036,0-.118.3-.284Z" fill="#fff"/>
      <path id="Path_3238" data-name="Path 3238" d="M155.521,58.342c.063.1.085.172.148.272C155.6,58.4,155.563,58.369,155.521,58.342Z" fill="#fff"/>
      <path id="Path_3239" data-name="Path 3239" d="M159.182,66.927c-.287-.626-.116-.045-.052.292C159.2,67.237,159.225,67.191,159.182,66.927Z" fill="#fff"/>
      <path id="Path_3240" data-name="Path 3240" d="M115.269,42.987c.116-.074.18-.092.127-.156C115.247,42.914,115.226,42.959,115.269,42.987Z" fill="#fff"/>
      <path id="Path_3241" data-name="Path 3241" d="M64.5,57.185a.374.374,0,0,1,.2-.02C64.663,57.138,64.6,57.157,64.5,57.185Z" fill="#fff"/>
      <path id="Path_3242" data-name="Path 3242" d="M67.386,56.653a3.943,3.943,0,0,0,.561-.2A2.823,2.823,0,0,0,67.386,56.653Z" fill="#fff"/>
      <path id="Path_3243" data-name="Path 3243" d="M127.438,39.213a2.557,2.557,0,0,0,.519-.231A1.451,1.451,0,0,0,127.438,39.213Z" fill="#fff"/>
      <path id="Path_3244" data-name="Path 3244" d="M68.539,56.236l.709-.169-.011-.036Z" fill="#fff"/>
      <path id="Path_3245" data-name="Path 3245" d="M63.6,57.409l.889-.261A3.77,3.77,0,0,0,63.6,57.409Z" fill="#fff"/>
      <path id="Path_3246" data-name="Path 3246" d="M96.727,48.469l.063-.019C97.341,48.21,97,48.349,96.727,48.469Z" fill="#fff"/>
      <path id="Path_3247" data-name="Path 3247" d="M71.512,54.97l.1-.028.169-.129Z" fill="#fff"/>
      <path id="Path_3248" data-name="Path 3248" d="M60.542,58.269a1.088,1.088,0,0,0,.339-.139,2.084,2.084,0,0,1-.424.085Z" fill="#fff"/>
      <path id="Path_3249" data-name="Path 3249" d="M86,51.069c-.169.129-.243.229-.233.266C86.019,51.26,86.136,51.186,86,51.069Z" fill="#fff"/>
      <path id="Path_3250" data-name="Path 3250" d="M154.722,55.512c.031-.009.073.017.1.008A.11.11,0,0,0,154.722,55.512Z" fill="#fff"/>
      <path id="Path_3251" data-name="Path 3251" d="M148.787,37.653l.128.2C148.84,37.717,148.83,37.681,148.787,37.653Z" fill="#fff"/>
      <path id="Path_3252" data-name="Path 3252" d="M158.406,66.173c-.011-.036-.041-.027,0,0,.043.145.106.362.212.723Z" fill="#fff"/>
      <path id="Path_3253" data-name="Path 3253" d="M134.077,35.382a.562.562,0,0,1-.232.147C133.972,35.492,134.067,35.464,134.077,35.382Z" fill="#fff"/>
      <path id="Path_3254" data-name="Path 3254" d="M158.685,72.412v-.355A.54.54,0,0,0,158.685,72.412Z" fill="#fff"/>
      <path id="Path_3255" data-name="Path 3255" d="M163.1,82.976h0C163.109,82.9,163.12,82.931,163.1,82.976Z" fill="#fff"/>
      <path id="Path_3256" data-name="Path 3256" d="M162.048,78.575c-.063-.1-.085-.173-.149-.272C161.942,78.448,161.985,78.593,162.048,78.575Z" fill="#fff"/>
      <path id="Path_3257" data-name="Path 3257" d="M161.792,78.177c.01.036.063.1.073.133C161.844,78.239,161.823,78.168,161.792,78.177Z" fill="#fff"/>
      <path id="Path_3258" data-name="Path 3258" d="M36.173,114.4a3.96,3.96,0,0,0,.35.84Z" fill="#fff"/>
      <path id="Path_3259" data-name="Path 3259" d="M83.52,50.734l.041-.09C83.509,50.7,83.509,50.7,83.52,50.734Z" fill="#fff"/>
      <path id="Path_3260" data-name="Path 3260" d="M37.362,114.564l.032.227C37.373,114.719,37.383,114.637,37.362,114.564Z" fill="#fff"/>
      <path id="Path_3261" data-name="Path 3261" d="M156.3,66.869c-.212-.252-.319-.967-.435-.893C156.025,66.283,156.1,66.771,156.3,66.869Z" fill="#fff"/>
      <path id="Path_3262" data-name="Path 3262" d="M37.36,114.565l-.043-.264-.042.091C37.286,114.429,37.339,114.492,37.36,114.565Z" fill="#fff"/>
      <path id="Path_3263" data-name="Path 3263" d="M52.008,61.288c.031-.009.062-.018.052-.054Z" fill="#fff"/>
      <path id="Path_3264" data-name="Path 3264" d="M50.253,61.645c.116-.074.212-.1.328-.175A1.6,1.6,0,0,0,50.253,61.645Z" fill="#fff"/>
      <path id="Path_3265" data-name="Path 3265" d="M36.556,115.233l.213.491A2.543,2.543,0,0,0,36.556,115.233Z" fill="#fff"/>
      <path id="Path_3266" data-name="Path 3266" d="M32.391,68.146c.064-.019.127-.037.148-.083A.321.321,0,0,1,32.391,68.146Z" fill="#fff"/>
      <path id="Path_3267" data-name="Path 3267" d="M135.4,35.07a1.251,1.251,0,0,0,.169-.01C135.56,35.024,135.517,35,135.4,35.07Z" fill="#fff"/>
      <path id="Path_3268" data-name="Path 3268" d="M124.529,42.108a1.086,1.086,0,0,0-.613.378A1.276,1.276,0,0,0,124.529,42.108Z" fill="#fff"/>
      <path id="Path_3269" data-name="Path 3269" d="M133.351,39.832c-.075-.018-.138,0-.212-.017A.327.327,0,0,0,133.351,39.832Z" fill="#fff"/>
      <path id="Path_3270" data-name="Path 3270" d="M91.177,54.26c2.5-.891,5.664-2.213,8.174-2.95a6.291,6.291,0,0,1,2.011-1.023l.2.334.625-.34c.317.024-.487.222.031.226l.18-.328c.106.126,1.726-.468.7.148l2.584-.837c.571-.168.222-.419.878-.533.159.071-.2.138-.095.264,1.97-.343,1.969-1.4,3.79-1.781l-.148.083c.254-.192.858-.37.847-.406-.329-.3-.254.31-.858.252-.063-.335.614-.377.508-.62.445-.013.646-.268.985-.407.688-.006,1.5-.4,2.043-.325a2.876,2.876,0,0,1,1.144-.807c.55.113-.021.281.635.167l.042-.209c.519-.113.466-.058.456.023.572-.168.37-.384,1.1-.48l-.328.293a9.139,9.139,0,0,1,1.419-.456c.031.108-.286.2-.487.222.455.141.624-.341.857-.37-.085-.054-.6.06-.4-.2.36-.066.688-.477,1-.335l-.328.293c.688-.359.318-.329,1.186-.545-.032.009-.011.082,0,.118.466-.412,1.228-.4,2.022-.633l-.148.083c.3-.166.445-.366.6-.413-.476.022-.36-.051-.476-.214.688.112.815-.632,1.852-.74.032.108-.19.292-.476.258-.222.419-.211.69-.74,1,.36-.184.762-.342.73-.215l.042-.327.572-.168c.042-.209-.53-.159-.064-.452.572-.286.4.2.456.023.762-.342.222-.419,1.048-.543a.418.418,0,0,1-.276.12c.6-.059,1.345-.473,1.642-.168-.074.1-.042.209-.275.238l-.011-.036c-.529.43.487-.222.392.16-.085-.171.688-.359,1.08-.435l-.191-.18c.984-1,.064.453,1.207,0,.688-.359-.307.012.1-.264a4.414,4.414,0,0,0,1.462-.311c.211.016.688-.006.794.238.413-.239,1.4-.293,1.546-.611-.816.043-.688.477-1.662.449l.19-.292a16.966,16.966,0,0,1,1.832-.577c-.106-.008-.159-.071-.106-.126a7.831,7.831,0,0,1,1.9-.831c.19.18-.328.293-.7.441.593.022.572-.168,1.451-.347.085.171-.572.168-.614.377l.931-.352.011.036c.032-.363.741-.178,1.281-.455,1.366-.4,1.461-.9,2.117-1.368.212.016.3.07.265.2-.392-.042-.3.048-.37.148.465-.176,1.1-.009.889.21.7-.323-.3-.07.117-.309l1.016-.3c-.17-.107-.53-.041-.064-.335a7,7,0,0,1,1.207-.354c-.042.091.233.206-.158.282a1.02,1.02,0,0,0,.772-.306c-.275,0-.063-.1.149-.2s.465-.176.264-.274a1.4,1.4,0,0,0,.286.034,2.383,2.383,0,0,1,.265.079c-.106-.008-.106.11-.286.084.17.225.392-.076.561-.086a1.025,1.025,0,0,1,.276.116.583.583,0,0,1,.19.18c.138,0,.371.205.308.342.159.071.106-.11.169-.128l.212.252c.053.063.085.171.138.234a.429.429,0,0,0,.074.135c-.074.1-.349.338-.444.248a.39.39,0,0,0,.307.106c.074.018.191.062.265.315-.17-.107-.148.083-.127.273s.043.38-.19.174a2.526,2.526,0,0,0,.2.923,10.165,10.165,0,0,0,.414,1.057c.3.306-.127-.67.074-.689.637,1.58,1.2,1.494,1.527,2.733l-.064-.335a3.522,3.522,0,0,0,.636.991c-.307-.106-.274,1.063.214,2.254.159.071-.054-.77.222-.654l.339.8c.022.072-.074-.018-.137-.117.339.686.223,1.466.53,1.572l-.052.879.032-.363c.158.071.487.839.572,1.01a3.188,3.188,0,0,1,.478,1.627c.053-.173.127-.626.381.006-.37.148.383,1.419.192,1.475.106.244.16.778.318.731l-.233.029c.329-.057.679.9,1,1.632-.487-.014.34.8.065,1.277.349.015.583,1.282.9,1.306.233.56-.063.608-.116.78l.2.216a16.307,16.307,0,0,0,.468,2.062l.456.494-.032.245c.085.054.329.532.3.188l.1.325c.286-.084.223.406.6,1,.011.154-.064.136-.159.047.127.316-.074.218-.106.463-.01-.272.9.953.742.057.106-.11.35.369.413.7l-.19.292.392.278a4.23,4.23,0,0,1,.234,1.149c-.149-.388-.795-.709-.423.321a4.66,4.66,0,0,0-.647-1.028c.063.217.1.325-.159.047.371.794.265.2.573,1.01-.233.029-.223.3-.042,1.033l-.032-.58c.042.027.085.054.1.09-.064-.217-.042-.262.032-.363.042.145.625.837.541,1.019.062-.961.795,1.3.794.709.085.054.319.614.213.723-.424-.622-.063.608-.254.546.17.225-.032-.58.19-.292a2.6,2.6,0,0,1,.149.977l-.116-.162.127.67c.159.071-.021-.661.244-.111.011.154.276.7.181.732-.265-.2-.392.076-.6-.412.148.388.668,1.689.689,1.054l.18.5c-.032-.344-.16-1.249.222-.3l-.031.009.424.622v.353c.063-.019.148.035.233.324-.042.091.032.344-.074.336.276.7.35.6.477.685.149.388.17.578-.01.435a13.911,13.911,0,0,1,.574,1.952c.381.713-.011-.154.3.188-.147.79.743,2.531,1.232,3.723.211-.455.159.307.54.43-.2-.216.16,1.249-.318.211l.287.623c-.021.517-.541-1.019-.551-.231.276.7.827,1.053,1.018,1.94-.339-.215.318.613-.021.517a2.24,2.24,0,0,1-.318-.613l.011.154c.51,1.618.445.341.912,1.107.382.948.074.842,0,.942a2.61,2.61,0,0,0,.393.867c-.361-.523-.234-1.149,0-.942-.116.545.5,1.464.7,1.68-.234-1.5-.35-.958-.5-2.406-.149-.153-.382-.006-.562-.856.307.459.116-.074.106-.228-.074.218-.255-.514-.393-.749.032-.245.509.322.275-.473l-.381-.006c-.064-.335.286.034-.032-.58.3.306.243-.229.6.647-.107-1.186-.743-1.589-1.178-2.364.053.063.085.054.149.153a2.7,2.7,0,0,1-.382-.713c-.138-.588.318.378.339.215l-.413-.585c-.011-.036-.011-.036.021-.046-.128-.2-.234-.442-.191-.533.2.216.36.287.508.44l-.562-.856c.159.071-.074-.842.244-.229l-.541-1.373.179-.21c-.159-.307-.19-.3-.074.1-.106-.479-1.155-1.938-.615-1.861a28.074,28.074,0,0,1-1.241-2.7c.583.928-.16-1.249.317-.211-.127-.67-.413-.7-.657-1.181-.075-.489.232-.383.476.1l-.328-.532.031-.009-.307-.46c-.064-.57.18-.21.01-.788l-.254-.043-.022-.426c-.053.173-.212-.134-.36-.522l.031-.009-.212-.488c.3.423-.138-.47.116-.309-.159-.425-.159-.425-.445-1.165l-.085.182c-.488-.956.17-.128-.1-.914l-.137.119c-.16-1.249-.87-1.9-1-2.81.212.487.36.287.3.306a20.886,20.886,0,0,0-1.178-2.6c.138-.354.18-.445-.033-1.286-.233-.56-.286-.623-.466-.766-.107-.6-.626-1.544-.457-1.673-.191-.062-.149-.506-.361-.758l.043-.091-.138.119c-.011-1.1-.806-1.57-.849-2.657l.116.162-.222-.406c.042-.091.159.071.254.043l-.669-1.924.022.426a4.56,4.56,0,0,1-.5-1.11c.509.675-.223-.641-.075-.842l.213.37c-.234-.56-.234-.56-.371-.441-.308-.7.126-.626-.287-1.212l.18.5c-.053.173-.307-.106-.4-.431.011-.082-.032-.344.106-.11-.265-.551-.5-1.464-.668-1.689-.064-.335.1-.264.169-.128-.583-1.164-.17-.578-.753-1.743l.1-.028-.254-.4-.022-.661-.032.245a6.522,6.522,0,0,1-.435-1.129l.212.134a21.3,21.3,0,0,0-.849-2.421c.01-.082.1.09.148.153-.583-.928-.043-.851-.658-1.771.085.054.074-.1.117-.073l-.265-.433.2-.02-.435-.3a1.653,1.653,0,0,0,.011-.2,1.815,1.815,0,0,1,.01-.2l-.19-.18a1.935,1.935,0,0,0-.425-1.211c-.307-.459-.678-.9-1.028-1.387a23.54,23.54,0,0,0,.021.308,6.491,6.491,0,0,0-1.917-.772c-.149-.035-.36-.051-.509-.086s-.318-.024-.466-.059c-.318-.025-.625-.013-.9-.011a8.821,8.821,0,0,0-1.663.213,6.243,6.243,0,0,0-1.387.447l-.031-.226-.689.477c-.466-.059.2-.255.043-.327-.794.351-.254.428-1.165.735-.519,0,.117-.191.318-.329a13.415,13.415,0,0,1-2.795.939c.01.036-.043.091-.011.082a19.629,19.629,0,0,1-2.022.633c-.032-.109.158-.165.307-.247a1.884,1.884,0,0,0-.752.26l.2-.255c-.519.113-1.419.574-1.61.394.085.054.107.244-.317.329-.35-.251-1.133.49-1.885.514.074-.1.572-.286.413-.239a1.764,1.764,0,0,0-.9.461l.053-.173-1.567.657c-.349-.251-1.5.52-1.482.239-.572.168.519,0-.2.255-.233-.089-.646.268-.678.042l.053-.055-.5.185.254-.31c-.434.167-.688.477-.677.631-.445.013-1.016.3-1.26.174l.148-.083c-1.143.454-2.1.027-2.912.659-.074-.017-.085-.054.074-.1l-.73.215.116-.191-1.1.6-.032-.109c-.805.2-2.022.633-3.017,1l.148-.083c-1.059.507-1.1.245-1.864.587a.114.114,0,0,1,.085-.064l-.73.215.126-.155c-.476.376-1.63.2-1.228.282a4.112,4.112,0,0,0-.815.632c-.783.269-.233-.089-.762-.012a8.332,8.332,0,0,1-1.43.538l-.031-.109c-.339.139-.572.286-1.07.471l.148-.083c-.751.5-1.133.019-1.63.675-.371.03-1.016.3-1.048.072-.974.443-1.768.794-2.753,1.2-.254-.279-.212.1-.9.107l.117.162c-1.44.5-3.219.553-4.776,1.127l-.117-.162-.254.31c-1.726.468-3.96,1.084-5.315,1.522a5.409,5.409,0,0,1-1.757.83l.053-.055a23.909,23.909,0,0,1-3.854,1.328c.074-.1-.106-.126.042-.209-.254.31-.784.269-1.069.353l.392.042a1.41,1.41,0,0,1-1.175.227l-.54.394a.241.241,0,0,1-.148-.035l-.063.136-.381-.124c-.138.119-.91.424-1.09.752-.085-.054-.667.078-.244-.125l-2.223.653.371-.03c.117.162-.508.5-.879.533.392-.311-.043-.262-.276-.351-.254.192.3.07.17.225a3.447,3.447,0,0,1-1.355.555l.2-.138c-.487.222-.826.007-1.324.192-.392.311-.784.269-.593.567-.646.268-.318-.142-.54-.077a1.989,1.989,0,0,1-1.387.329c-.211.573-1.811.414-1.821.849l-.6-.058c.032.108-.032.363-.423.556-.445.013-.4-.2-.562-.267l-.137.472c-2.478.374-5.506,1.7-8.206,2.253a34.807,34.807,0,0,1-3.9,1.537l.138-.119-1.376.365,1.027-.145a3.2,3.2,0,0,1-.752.378,27.381,27.381,0,0,0-5.283,1.63c-1.027.851-.9-.128-1.927.605.085-.064.1-.146.18-.21a32.455,32.455,0,0,0-2.89,1.556c0-.471-.784.269-.752.024l-.042.209c-.318-.024-.953.162-.9-.011l-.466.412-.117-.162c-.72.251-2.181.915-2.668.666a45.071,45.071,0,0,1-6.66,2.466,4.369,4.369,0,0,1-1.387.682l-.593-.022c-.476.258-.931.706-1.44.737-.011-.036.021-.045.042-.091A5.38,5.38,0,0,0,30.9,68.7c-.561.2-1.165.264-1.07,0,.032.108-.053.173-.18.21l-.254.075-.413.121a4.5,4.5,0,0,0-.741.3,2.525,2.525,0,0,1-.339.139,5.919,5.919,0,0,0-.529.43,4.257,4.257,0,0,0-1.079,1.613,5.85,5.85,0,0,0-.283,3.264c.128.787.213,1.076.287,1.447s.16.778.244,1.185c.7,3.329,1.722,7.86,2.816,12.644,2.221,9.559,4.908,20.12,6.765,24.091.212.252.5.993.646.674.2.569-.042.916.16,1.014-.075-.842.466.177.5-.657l.149.506c.127.081-.3-.659-.064-.57l-.339-.1a1.948,1.948,0,0,1,.031-.834c-.212-.369-.668-.511-.711-1.48l.074.253c-.191-.768.1-.5.116-.662l.053.181.01-.671c.011.507.435,1.247.318.849-.128-.9-.032.245-.223-.406-.117-.4.074-.336.18-.327l-.181-.733c.138,0,.117.516.191.18l-.371-.912c.307-.248-.393-.985-.16-1.485.234.678.117-.074.244.007l-.414-1.646c.021-.163.223.406.117.162.042-.326-.212-.487-.233-.677.053-.173-.3-1.248-.054-1.241-.1-1.15-.4-.432-.509-1.5.127-.155.244.831.265.315l-.319-1.085a.7.7,0,0,1,.339.568c-.5-3-.12-4.756-.906-7.432.084-.417.18.261.35.486-.669-1.924-.246-2.834-.671-4.516h-.138c-.087-2.41-1-5.166-1.436-7.826l-.042.327a6.531,6.531,0,0,1-.531-1.337c.042-.091.381.241.127-.508-.021.163.011.507-.084.417a40.08,40.08,0,0,0-.819-4.9c-.212-.959-.414-2-.638-2.994-.106-.479-.234-1.149-.2-1.04a.371.371,0,0,1,.074-.218.226.226,0,0,1,.148-.2l.064-.019.212-.1c.286-.084.529-.195.815-.279,1.1-.363,2.234-.735,3.325-1.133,2.234-.735,4.436-1.46,6.511-2.266-.625.223-.487-.25.01-.317,1.536.177,2.255-.9,3.727-.937,2.382-1.053,4.733-1.272,6.839-2.558l.117.162c.371-.03.424-.2.762-.342l.011.036c.868-.216,1.81-.767,2.34-.844l-.032-.226c.5-.185.3.07.794-.233l.032.108.54-.394c.074.371,1.419-.456,1.874-.433a20.916,20.916,0,0,1,2.806-1.138,10.467,10.467,0,0,0,2.245-.463c1.493-.556,3.61-1.335,5.548-1.9l-.106-.244.5-.185c.011.036.085.054.032.108.487.132,1.133-.49,1.567-.421-.318-.142-.36.066-.635.187-.445.013-.127-.316.466-.412l.011.036.339-.257c.117.162.487.132.572.3,1.62-.594,2.657-1.291,4.383-1.759-.1.264,1.207-.472.974.028.963-.479-.276-.233.127-.626.286-.084.54-.276.635-.187-.1.146.318.142.074.253l.688-.241c.074.017-.074.1-.127.155,1.323-.663,2.52-.583,3.716-1.209.053-.173-.519.113-.455-.023,1.186-.662,1.165-.146,2.276-.708l-.2.256a1.729,1.729,0,0,1,1.122-.526c.191.18-.487.339-.741.532.445-.131,1.493-.556,1.09-.634a2.434,2.434,0,0,1,1.027-.145c-.011-.036-.508.032-.254-.161a21.406,21.406,0,0,0,2.658-.7c.011.036.106.126.011.154C90.214,54.151,90.288,54.639,91.177,54.26Z" fill="#fff"/>
      <path id="Path_3271" data-name="Path 3271" d="M136.366,38.948l-.36.066c.011.036.032.109-.148.2Z" fill="#fff"/>
      <path id="Path_3272" data-name="Path 3272" d="M119.953,43.808a.239.239,0,0,0-.1.108C119.932,43.853,119.932,43.853,119.953,43.808Z" fill="#fff"/>
      <path id="Path_3273" data-name="Path 3273" d="M116.081,45.414c.276-.12,0-.118-.138-.117C115.954,45.333,115.965,45.37,116.081,45.414Z" fill="#fff"/>
      <path id="Path_3274" data-name="Path 3274" d="M144.731,36.412a.111.111,0,0,0-.083.063C144.711,36.457,144.711,36.457,144.731,36.412Z" fill="#fff"/>
      <path id="Path_3275" data-name="Path 3275" d="M155.128,63.716a.15.15,0,0,1,0-.116A.332.332,0,0,1,155.128,63.716Z" fill="#fff"/>
      <path id="Path_3276" data-name="Path 3276" d="M154.834,62a2.159,2.159,0,0,0-.159-.309A2.678,2.678,0,0,0,154.834,62Z" fill="#fff"/>
      <path id="Path_3277" data-name="Path 3277" d="M139.3,37.537a.566.566,0,0,0-.233.147A.466.466,0,0,0,139.3,37.537Z" fill="#fff"/>
      <path id="Path_3278" data-name="Path 3278" d="M154.551,61.378l-.118-.4-.032.009Z" fill="#fff"/>
      <path id="Path_3279" data-name="Path 3279" d="M155.31,64.216a2.918,2.918,0,0,1-.149-.509A1.008,1.008,0,0,0,155.31,64.216Z" fill="#fff"/>
      <path id="Path_3280" data-name="Path 3280" d="M148.86,45.412l-.011-.036C148.626,45.086,148.754,45.286,148.86,45.412Z" fill="#fff"/>
      <path id="Path_3281" data-name="Path 3281" d="M153.585,59.734l-.022-.073-.1-.09Z" fill="#fff"/>
      <path id="Path_3282" data-name="Path 3282" d="M155.862,65.977c-.021-.073-.074-.136-.1-.209.021.073.042.146.064.218Z" fill="#fff"/>
      <path id="Path_3283" data-name="Path 3283" d="M150.756,51.531c.1.09.17.108.2.1C150.915,51.484,150.862,51.421,150.756,51.531Z" fill="#fff"/>
      <path id="Path_3284" data-name="Path 3284" d="M153.367,50.338c.021.015.036-.006.076.024A.093.093,0,0,1,153.367,50.338Z" fill="#fff"/>
      <path id="Path_3285" data-name="Path 3285" d="M148.782,57.018l.079-.067C148.817,57.013,148.817,57.013,148.782,57.018Z" fill="#fff"/>
      <path id="Path_3286" data-name="Path 3286" d="M156.315,46.238h0a1.584,1.584,0,0,1,.219-.348Z" fill="#fff"/>
      <path id="Path_3287" data-name="Path 3287" d="M138.749,71.017l.059-.082C138.8,70.991,138.784,71.012,138.749,71.017Z" fill="#fff"/>
      <path id="Path_3288" data-name="Path 3288" d="M144.66,62.707a.191.191,0,0,0-.114.073C144.59,62.718,144.619,62.677,144.66,62.707Z" fill="#fff"/>
      <path id="Path_3289" data-name="Path 3289" d="M154.6,44.53l.146.012A.138.138,0,0,1,154.6,44.53Z" fill="#fff"/>
      <path id="Path_3290" data-name="Path 3290" d="M153.275,41.781c.026.05.032.085.058.135C153.307,41.866,153.26,41.8,153.275,41.781Z" fill="#fff"/>
      <path id="Path_3291" data-name="Path 3291" d="M153.38,41.982a.083.083,0,0,1-.026-.05C153.374,41.947,153.4,41.961,153.38,41.982Z" fill="#fff"/>
      <path id="Path_3292" data-name="Path 3292" d="M98.264,108.9a.943.943,0,0,1-.187-.355Z" fill="#fff"/>
      <path id="Path_3293" data-name="Path 3293" d="M129.446,83.524l.055.009A.076.076,0,0,1,129.446,83.524Z" fill="#fff"/>
      <path id="Path_3294" data-name="Path 3294" d="M154.579,45.685c-.143.023-.12.167-.182.122C154.462,45.759,154.43,45.673,154.579,45.685Z" fill="#fff"/>
      <path id="Path_3295" data-name="Path 3295" d="M124.6,84.019l-.059.082C124.549,84.045,124.584,84.04,124.6,84.019Z" fill="#fff"/>
      <path id="Path_3296" data-name="Path 3296" d="M98.71,108.15l.1.073c-.015.021-.035.006-.07.012C98.736,108.2,98.715,108.185,98.71,108.15Z" fill="#fff"/>
      <path id="Path_3297" data-name="Path 3297" d="M119.806,96.577c.015-.021.015-.021.036-.006Z" fill="#fff"/>
      <path id="Path_3298" data-name="Path 3298" d="M119.4,97.359c.03-.042.1-.089.126-.131C119.488,97.326,119.437,97.353,119.4,97.359Z" fill="#fff"/>
      <path id="Path_3299" data-name="Path 3299" d="M98.058,108.532l-.107-.2A.514.514,0,0,1,98.058,108.532Z" fill="#fff"/>
      <path id="Path_3300" data-name="Path 3300" d="M113.8,104.759l.044-.061A.047.047,0,0,1,113.8,104.759Z" fill="#fff"/>
      <path id="Path_3301" data-name="Path 3301" d="M145.009,62.134a.094.094,0,0,0,.024-.076C145.053,62.072,145.074,62.087,145.009,62.134Z" fill="#fff"/>
      <path id="Path_3302" data-name="Path 3302" d="M139.418,65.5a.424.424,0,0,1-.3.2A.791.791,0,0,1,139.418,65.5Z" fill="#fff"/>
      <path id="Path_3303" data-name="Path 3303" d="M138.729,66.332l.03-.041A.036.036,0,0,0,138.729,66.332Z" fill="#fff"/>
      <path id="Path_3304" data-name="Path 3304" d="M141.9,61.8c.006.035-.009.056-.018.111A.128.128,0,0,1,141.9,61.8Z" fill="#fff"/>
      <path id="Path_3305" data-name="Path 3305" d="M120.289,73.893c.46-.981,1.187-2.23,1.552-3.247a1.781,1.781,0,0,0,.588-.746l-.222-.132.2-.226c-.033-.128-.125.183-.151-.035l.182-.046c-.087-.057.217-.7-.145-.334l.428-1.04c.086-.222.261-.039.291-.328-.048-.088-.079.062-.166.006.128-.831.833-.675,1.018-1.438l-.047.051c.118-.094.2-.315.235-.326.2.192-.19.066-.132.343.221.062.22-.216.378-.132-.009-.189.149-.244.227-.376-.026-.288.209-.614.137-.851.118-.094.378-.132.479-.394-.1-.246-.182-.024-.128-.3l.134.006c.054-.211.023-.2-.033-.2.086-.222.237-.117.274-.427l-.181.116a2.334,2.334,0,0,0,.249-.576c-.071-.028-.118.094-.125.183-.1-.225.2-.225.2-.315.04.039-.014.249.144.194.031-.15.283-.238.179-.394l-.181.115c.212-.266.205-.106.313-.458-.007.02-.047-.018-.079-.007.252-.158.218-.5.343-.818l-.047.051c.094-.1.22-.147.243-.207,0,.209.041.178.152.244-.1-.315.378-.271.438-.711-.071-.028-.181.046-.173.165-.26.038-.435-.006-.623.2.1-.123.22-.286.109-.282l.206.033.085-.222c.135.005.121.255.293.09.165-.215-.143-.194-.033-.2.22-.286.261-.039.314-.389-.039.031-.086.083-.07.112.014-.249.257-.526.074-.689-.063.022-.134-.006-.142.084l.024.009c-.26.178.125-.183-.112-.205.111.066.212-.266.266-.407l.127.1c.607-.3-.293-.09-.043-.526.212-.266-.023.13.166-.006.054-.211-.034-.337.146-.592-.016-.1-.025-.288-.184-.372.141-.154.162-.563.344-.609,0,.348-.283.238-.233.675l.182-.046c.093-.242.313-.528.3-.717.009.049.048.088.08.077.2-.315.385-.361.493-.713-.127-.1-.181.116-.259.248-.01-.258.085-.222.194-.574-.111-.066-.086.222-.22.216l.2-.365-.024-.009c.23.042.109-.282.274-.5.233-.535.526-.515.833-.744-.017-.1-.056-.138-.136-.145.041.178-.022.13-.109.143.093-.172-.035-.477-.145-.4.188-.275.056.137.189,0l.156-.4c.08.077.041.248.222.062a3.286,3.286,0,0,0,.21-.475c-.063.022-.135-.145-.205.037.023-.13.085-.292.2-.315-.006.3.251-.367.347-.121l.006-.3c-.023.061-.094.033-.1.123-.135-.145.125-.183.188-.275.007-.09.1-.332.037-.38.079-.062.133-.273.045-.33.071-.112.1.037.182.024l.156-.4c-.088-.057-.31-.189-.357-.138.15-.1.277.061.37-.181-.213.057,0-.348-.286-.249a1.136,1.136,0,0,1,.232-.744c.19-.066-.014.249.129.3.3-.557.685-.431.8-.873l-.023.13c.2-.226.164-.215.338-.31-.19,0-.328-.5-.117-.9.111,0,.073.306.215.292l.133-.273c-.016-.029-.048-.018-.087.013.172-.235-.028-.567.218-.565l-.137-.354.056.137c.111,0,.243-.277.314-.319a.59.59,0,0,0,.146-.592c.048.088.145.264.278.06-.286-.11.1-.541-.052-.576.039-.1.03-.29.157-.264l-.175-.044c.246.071.378-.271.527-.515-.357-.068.156-.264-.1-.524.23.042.274-.427.48-.394.1-.192-.12-.255-.168-.343l.134-.064c-.057-.138.091-.521.113-.79l.292-.119-.064-.117c.063-.022.172-.165.205-.037l.047-.121c.214.083.133-.134.314-.319,0-.07-.08-.077-.119-.046.046-.121-.1-.106-.112-.205.016.1.559-.248.507.1.087.057.228-.1.219-.216l-.159-.154.261-.039c.094-.172.006-.3.06-.44-.078.132-.505.176-.333-.2-.1.193-.252.227-.338.31.031-.081.023-.13-.119-.046.18-.255.158-.055.314-.319a.263.263,0,0,1-.111-.066c-.024-.009-.016-.029-.04-.039s-.024-.009-.016-.029a.224.224,0,0,1-.056-.137l.1.106a.1.1,0,0,0,.056,0c.008.049.032.059.1.086.008-.02.071-.042.134-.064s.11-.073.063-.092c.119.116.2.053.284-.029s.157-.194.213-.126c.063-.022.149-.174.046-.191-.118.094-.158.055-.2.016s-.071-.1-.134-.075c.078-.062.1.086.213.013a.12.12,0,0,0-.009-.119c.008-.02-.047-.018-.071-.028s-.079-.007-.1-.016l-.015.04-.222-.062c.071-.042.309.049.213-.057-.079-.007-.143-.125-.214-.083-.063.092-.268.128-.212.2-.04-.039-.247-.211-.018-.238l-.111-.066c.111,0,.436.075.229-.1l-.032.011-.064-.187a.1.1,0,0,1-.056,0,.086.086,0,0,1-.055,0c.039-.031.031-.081-.04-.108-.04.031-.159-.015-.174.026-.254-.191-.184-.233-.192-.282-.151-.1-.222-.132-.213-.013a2.4,2.4,0,0,0-.754-.383c-.239-.231.079.007-.017-.169-.411.073-.984-.495-1.437-.808.268-.128-.1-.086-.065-.326.064.117-.539-.092-.181.185l-.238-.161c-.253.018.366.326.01.328-.262-.171-.3-.488-.692-.614.025.218-.231-.181-.253.018.048.088.143.125.23.182l-.079-.007c-.65-.3-.065-.257-.336-.546-.373-.236-.364-.048-.442.015a.659.659,0,0,1-.326-.218c.191.213.491.143.443-.015-.277.079-.572-.29-.636-.407.642.108.389.2,1.014.275.048.088-.061.231.279.339-.151-.174.055-.071.134-.064-.1.053.191.143.263.24.118-.024-.049-.3.276-.148l-.062.231c.151.035.038-.171.269.011-.065-.187.133-.134-.184-.372.522.062.588.458.843.719-.016-.029-.009-.049-.048-.088a1.248,1.248,0,0,0,.238.231c.238.092-.119-.185,0-.209l.333.2.032-.011c.08.077.135.145.2.123a.785.785,0,0,1-.074-.306l.272.359c.007-.09.38.077.157-.125l.516.361.15-.1c.1.106.088.126-.071.042.214.083.622.726.714.414a10.146,10.146,0,0,0,.955.854c-.12-.185,0-.139.166-.075.142.055.3.139.1-.053.349.158.216.292.406.434.262.1.388-.013.213-.2l.183.233.032-.011.112.205a.744.744,0,0,0,.3.07.67.67,0,0,1,.1.016c.055,0,.039.039.016.1l-.221.077.049.158c-.064-.048-.15.1-.236.257l.032-.011-.133.2c.188-.205-.046.191.119.115a3.089,3.089,0,0,1-.257.526l-.072-.1c-.133.2-.109.213-.038.24.048.018.119.046.064.187l-.111-.066c.027.5-.414.651-.412,1,.094-.172.213-.057.189-.066a3.863,3.863,0,0,1-.563.895.507.507,0,0,1,.13.513c-.1.192-.141.224-.259.247-.007.229-.265.546-.154.612-.111,0-.046.191-.18.255l.039.038-.111-.066c.122.464-.392.521-.317.966l.047-.051-.1.123c.039.038.11,0,.182.024l-.265.686-.04-.178c-.078.132-.236.187-.227.376.291-.189-.086.222.034.337l.1-.123c-.1.192-.1.192-.213.127-.148.244.144.264-.068.46l.07-.182c-.048-.088-.19,0-.236.117.016.029.024.148.087.057-.125.183-.2.524-.281.587-.023.13.088.126.159.084-.29.4-.054.211-.344.609l.072.028-.15.1.057.277-.064-.117a.824.824,0,0,0-.179.394l.118-.024c-.226.376-.043.539-.334.867.016.029.063-.022.1-.033-.306.3.058.347-.273.636.032-.011.064.048.1.037l-.134.134.143.055-.261.039.1.156-.1.033c.192.282-.115.442-.018.757l-.151-.1c-.614.458-.37,1.456-.848,2.129l.143.055-.283.238c.033.2.158-.055.206.033-.22.286-.261.038-.456.4.017.238.118-.024.228-.1a3.45,3.45,0,0,0-.53,1.093c-.024-.009-.055,0-.048-.018a3.269,3.269,0,0,0-.334.8c.071.028.1-.033.149-.1-.038.1-.038.24-.14.293l.158-.055c-.054.211-.321.548-.194.643-.039-.038-.158-.084-.228.1.175.183-.274.427-.288.746.063-.022.165-.215.142-.154-.007.16-.149.244-.267.337l.111,0-.392.59c.175.183-.28.587-.122.6-.086.222-.018-.238-.158.055.064.117-.149.244-.006.3l.039-.031-.1.193.189-.066a.354.354,0,0,1-.4.193c.009.189-.155.4-.067.53l.047-.051c-.25.436.054.924-.324,1.2.016.029.04.039.063-.022l-.109.282.119-.024-.353.42.071.028a7.939,7.939,0,0,1-.538,1.183l.047-.051c-.29.4-.115.442-.311.737.032-.011.032-.011.039-.031l-.108.282.094-.033c-.228.167-.074.689-.139.5-.118.093-.267.268-.377.271-.149.313.064.117.033.337-.085.222-.219.216-.3.557l.071.028a2.144,2.144,0,0,0-.242.416l.047-.051c-.267.268.027.5-.376.62-.006.16-.155.4,0,.438-.251.367-.423.671-.657,1.067.19.143-.055.072-.037.38l-.112-.066c-.249.576-.22,1.351-.54,1.969l.111.066-.189.066c-.217.7-.535,1.6-.776,2.156a1.718,1.718,0,0,0-.47.653l.031-.011a7.365,7.365,0,0,0-.7,1.536c.063-.022.087.057.134.006-.189.066-.148.313-.194.435l-.041-.178a.4.4,0,0,0-.107.491L123,77.7a.051.051,0,0,0,.032.059l-.087.013.112.205c-.047.051-.219.356-.425.392.04.038-.005.3.088.126l-.318.9.007-.16c-.111-.066-.307.16-.29.328.165-.145.174.044.238.161-.118.094-.056-.137-.151-.1-.15.1-.321.409-.281.517l.078-.062c-.125.183.05.367-.051.559-.165.145-.148.314-.323.2-.149.244.1.156.1.246a.534.534,0,0,0-.139.572c-.363.022-.177.743-.462.7l.058.277a.3.3,0,0,0-.348.121c.01.189.144.194.192.282h-.3c-.112,1.069-.808,2.237-1,3.368a8.916,8.916,0,0,0-.78,1.529l.047-.051-.139.572L118.9,88a1.73,1.73,0,0,0-.2.3,6.681,6.681,0,0,1-.744,2.145c-.488.345.137.424-.272.776a.362.362,0,0,1,.126-.044A9.388,9.388,0,0,1,117,92.29c.308.049-.125.323.033.337l-.134-.006c.032.128-.045.4.066.4l-.228.167.111.066c-.109.282-.445.871-.262,1.1a12.034,12.034,0,0,0-1.168,2.677,1.188,1.188,0,0,0-.344.539l.057.277c-.125.183-.4.332-.383.57.024.009.024.009.055,0-.1.192-.108.422-.328.568-.086.222-.108.491.066.466-.245-.072-.163.493-.163.493s-.356,1.067-.931,2.63c-.271.775-.621,1.683-.994,2.651-.233.605-.482,1.25-.746,1.866-.4.98-.786,1.968-1.2,2.967l-2.238-1.21c-.365-.187-.723-.394-1.088-.581a5.717,5.717,0,0,1-.539-.3c-.159-.084-.381-.216-.429-.234-.714-.414-1.381-.81-1.977-1.179a16.1,16.1,0,0,1-2.718-2.02c-.049-.158-.319-.378-.137-.424-.215-.152-.42-.045-.4-.155.341.108.03-.29.426-.253l-.2-.123c.007-.09.215.222.246.071l-.054.211a.513.513,0,0,0,.372.028c.111.135.074.445.485.511l-.087-.057c.294.16.253-.018.332-.011l-.071-.027.285.04c-.23-.042-.445-.334-.287-.249.389.126-.11,0,.136.144.158.085.174-.025.2-.086l.293.16c.032-.081-.206-.1-.032-.129l.326.288c.173-.165.342.317.634.2-.23-.181.079-.062.055-.141l.634.337c.08.008-.135-.145-.048-.088.159.015.16.154.231.182.1-.033.476.253.531.112.491.143.088.265.524.41.1-.053-.309-.189-.1-.176l.4.246a.268.268,0,0,0-.176-.253c.31.119.579.2.849.28a2.658,2.658,0,0,1,.4.107c.047.018.126.025.174.044l.134.005a1.1,1.1,0,0,1,.761.224c.039-.1-.088-.127-.152-.244.159.154.262.17.309.119-.017-.238-.1-.455-.035-.546l.072.1a2.618,2.618,0,0,0-.066-.327c.008-.089-.032-.058.085-.361a14.767,14.767,0,0,0,.489-1.41l.032.129a1.633,1.633,0,0,0,.353-.42c-.04-.039-.253.018-.1-.226.024.079.009.189.064.187a27.016,27.016,0,0,1,1.129-3.85c.763-1.7,1.3-3.667,2.059-5.345-.1.262.176.253.206.033-.218-.709.453-.891.361-1.575.523-.933.516-1.978,1.231-2.769l-.111-.066c.006-.16.093-.172.171-.3l-.023-.009c.084-.361.39-.73.389-.939l.15.035c.1-.192-.056-.137.1-.332l-.072-.027.236-.187c-.245-.071.226-.585.169-.792a4.514,4.514,0,0,0,.57-1.124c-.088-.126.1-.611.175-.952a23.457,23.457,0,0,0,.942-2.231l.159.084.1-.193c-.024-.009-.04-.038-.071-.027-.105-.226.25-.436.193-.644.1.156-.031.15-.077.271.009.189.206.1.228-.167l-.024-.009.158-.125c-.112-.066-.1-.225-.216-.291a12.115,12.115,0,0,0,.914-1.733c-.167.006.241-.486-.051-.436.251-.367.159.154.4.016.046-.121.164-.215.077-.271-.071.042-.1-.156-.167-.064l.133-.273c-.016-.029-.063.022-.1.033.36-.51.246-1.063.607-1.5.11,0-.054.211.033.2.384-.431.028-.5.357-.928l-.158.055c.158-.125.276-.148.274-.427-.127-.1-.2.176-.314.249.07-.181.28-.587.353-.42.125-.183.037-.31.036-.449.024.009.018.238.136.145a5.432,5.432,0,0,1,.34-1.1c-.024-.009-.087-.057-.1-.037C120.443,74.346,120.126,74.247,120.289,73.893Z" fill="#fff"/>
      <path id="Path_3306" data-name="Path 3306" d="M142.839,60.573l-.084.161a.1.1,0,0,0-.128,0Z" fill="#fff"/>
      <path id="Path_3307" data-name="Path 3307" d="M137.84,67.3a.054.054,0,0,1-.07.011C137.784,67.3,137.8,67.31,137.84,67.3Z" fill="#fff"/>
      <path id="Path_3308" data-name="Path 3308" d="M136.4,68.793c.109-.108.076.024.052.1A.1.1,0,0,1,136.4,68.793Z" fill="#fff"/>
      <path id="Path_3309" data-name="Path 3309" d="M146.019,57.021c-.035.006-.05.026-.091,0C145.984,57.027,146,57.007,146.019,57.021Z" fill="#fff"/>
      <path id="Path_3310" data-name="Path 3310" d="M153.929,46.544c-.015.021-.015.021-.009.056C153.9,46.585,153.914,46.565,153.929,46.544Z" fill="#fff"/>
      <path id="Path_3311" data-name="Path 3311" d="M153.659,47.269a.432.432,0,0,1-.108.108A.276.276,0,0,1,153.659,47.269Z" fill="#fff"/>
      <path id="Path_3312" data-name="Path 3312" d="M144.046,59.55a.191.191,0,0,1-.114.073C143.976,59.561,144.026,59.535,144.046,59.55Z" fill="#fff"/>
      <path id="Path_3313" data-name="Path 3313" d="M153.438,47.487l-.105.146-.021-.015Z" fill="#fff"/>
      <path id="Path_3314" data-name="Path 3314" d="M154.063,46.357l-.134.187A.358.358,0,0,1,154.063,46.357Z" fill="#fff"/>
      <path id="Path_3315" data-name="Path 3315" d="M149.086,53.323c-.149.079-.085.032,0,0Z" fill="#fff"/>
      <path id="Path_3316" data-name="Path 3316" d="M152.748,47.97l-.064.047Z" fill="#fff"/>
      <path id="Path_3317" data-name="Path 3317" d="M154.4,45.808c-.015.02-.015.02-.05.026a.082.082,0,0,0,.009-.056Z" fill="#fff"/>
      <path id="Path_3318" data-name="Path 3318" d="M150.6,51a.229.229,0,0,1,.146.012C150.682,51.061,150.632,51.087,150.6,51Z" fill="#fff"/>
      <path id="Path_3319" data-name="Path 3319" d="M28.544,87c-.009.023-.033.014-.051.061A.093.093,0,0,0,28.544,87Z" fill="#fff"/>
      <path id="Path_3320" data-name="Path 3320" d="M36.015,90.135l-.1-.014C35.982,90.149,35.982,90.149,36.015,90.135Z" fill="#fff"/>
      <path id="Path_3321" data-name="Path 3321" d="M23.849,85.141h0a1.593,1.593,0,0,0-.372-.174Z" fill="#fff"/>
      <path id="Path_3322" data-name="Path 3322" d="M52.027,96.487l-.094-.037C51.97,96.492,51.994,96.5,52.027,96.487Z" fill="#fff"/>
      <path id="Path_3323" data-name="Path 3323" d="M42.558,92.691a.192.192,0,0,1,.135,0C42.623,92.662,42.576,92.644,42.558,92.691Z" fill="#fff"/>
      <path id="Path_3324" data-name="Path 3324" d="M24.37,82.773l-.116.089A.138.138,0,0,0,24.37,82.773Z" fill="#fff"/>
      <path id="Path_3325" data-name="Path 3325" d="M24,79.746c0,.056.019.089.024.145C24.017,79.835,24.021,79.756,24,79.746Z" fill="#fff"/>
      <path id="Path_3326" data-name="Path 3326" d="M24.016,79.973a.087.087,0,0,0,0-.056C24,79.94,23.992,79.963,24.016,79.973Z" fill="#fff"/>
      <path id="Path_3327" data-name="Path 3327" d="M106.562,106.461a.934.934,0,0,0-.035-.4Z" fill="#fff"/>
      <path id="Path_3328" data-name="Path 3328" d="M66.612,101.974l-.042.038A.077.077,0,0,0,66.612,101.974Z" fill="#fff"/>
      <path id="Path_3329" data-name="Path 3329" d="M25.011,83.735c.133-.058.191.075.219,0C25.149,83.734,25.13,83.644,25.011,83.735Z" fill="#fff"/>
      <path id="Path_3330" data-name="Path 3330" d="M70.957,99.772l.094.037C71.013,99.768,70.981,99.782,70.957,99.772Z" fill="#fff"/>
      <path id="Path_3331" data-name="Path 3331" d="M105.783,106.072l-.047.117c.024.009.033-.014.066-.028C105.788,106.128,105.8,106.105,105.783,106.072Z" fill="#fff"/>
      <path id="Path_3332" data-name="Path 3332" d="M81.779,107.744c-.024-.01-.024-.01-.033.014Z" fill="#fff"/>
      <path id="Path_3333" data-name="Path 3333" d="M82.543,108.184c-.048-.019-.129-.023-.176-.042A.179.179,0,0,0,82.543,108.184Z" fill="#fff"/>
      <path id="Path_3334" data-name="Path 3334" d="M106.539,106.039l-.02-.228A.516.516,0,0,0,106.539,106.039Z" fill="#fff"/>
      <path id="Path_3335" data-name="Path 3335" d="M91.256,111.378l-.07-.028A.047.047,0,0,0,91.256,111.378Z" fill="#fff"/>
      <path id="Path_3336" data-name="Path 3336" d="M41.954,92.4a.092.092,0,0,1-.061-.051C41.884,92.37,41.875,92.394,41.954,92.4Z" fill="#fff"/>
      <path id="Path_3337" data-name="Path 3337" d="M48.477,92.21a.424.424,0,0,0,.357,0A.787.787,0,0,0,48.477,92.21Z" fill="#fff"/>
      <path id="Path_3338" data-name="Path 3338" d="M49.507,92.533l-.047-.018A.035.035,0,0,1,49.507,92.533Z" fill="#fff"/>
      <path id="Path_3339" data-name="Path 3339" d="M44.389,90.43c.014.033.038.042.075.084A.131.131,0,0,0,44.389,90.43Z" fill="#fff"/>
      <path id="Path_3340" data-name="Path 3340" d="M70.666,90.633c-1.22-.4-2.878-.808-4.06-1.3a2.4,2.4,0,0,1-1.1-.135l.046-.256-.347-.028c-.091-.118.257.047.08-.133l-.175.1c.014-.1-.792-.368-.192-.35l-1.249-.466c-.262-.1-.227.157-.509-.037-.043-.1.114-.01.128-.114-.84-.524-1.222.093-2.042-.341l.081,0a3.2,3.2,0,0,1-.467-.075c.026.284.2-.086.405.16-.108.2-.357,0-.4.172-.163-.146-.329-.075-.5-.117-.239-.231-.706-.306-.864-.533-.171.015-.4.172-.708.049-.149-.251.113-.147-.178-.317l-.095.1c-.229-.118-.2-.132-.153-.17-.262-.1-.28.081-.586-.122l.237-.043a3.288,3.288,0,0,1-.7-.249c.028-.071.171-.015.257.047-.125-.241-.347-.027-.433-.089.005.057.234.175.068.246-.158-.09-.423.025-.486-.165l.237-.043c-.4-.046-.247.067-.643-.117.024.009.019-.047.052-.062-.328.062-.605-.212-.987-.362l.081,0c-.162-.009-.295.048-.366.02.187.156.129.161.106.289-.211-.3-.523.068-.962-.215.028-.071.175-.1.276,0,.227-.157.317-.313.64-.3-.186-.018-.419-.056-.334-.132l-.123.171-.262-.1c-.094.1.14.274-.136.275-.314-.042-.068-.246-.153-.17-.419-.056-.227.157-.581-.065.057,0,.138,0,.152.033-.234-.175-.662-.207-.674-.458.066-.029.095-.1.181-.038l-.009.024c.352-.053-.257-.047-.1-.232-.023.128-.4-.046-.562-.112l-.008.161c-.717.21.136-.275-.44-.421-.4-.046.134.08-.128.114-.229-.118-.278-.274-.639-.335-.077-.085-.239-.231-.2-.407-.243-.014-.625-.3-.8-.206.311.26.423-.025.777.334l-.175.1a3.837,3.837,0,0,1-.868-.315c.038.043.043.1.01.114-.433-.089-.609.006-1-.177.009-.161.238-.043.414,0-.225-.2-.262-.1-.658-.287.023-.128.262.1.357,0l-.472-.132.009-.024c-.132.195-.334-.132-.648-.174-.653-.23-.851-.007-1.284.041-.077-.085-.082-.142-.03-.2.13.161.134.08.209.028-.224-.061-.4-.378-.255-.4-.386-.07.082.142-.137.138l-.477-.188c.01.114.192.213-.108.2a4.571,4.571,0,0,1-.582-.2c.066-.029-.03-.2.185-.119-.134-.08-.324-.156-.433-.089.272.217-.514-.093-.365.157l-.272-.217c.071.028.1-.043.186.018-.03-.2-.257-.047-.386-.07-.086-.061-.372-.174-.368-.255-.114.01-.343-.108-.329-.212-.152-.033-.038.095-.113.147l-.477-.188c.014-.1.06-.36.141-.356-.2.029-.151.242-.437.129.209-.109-.311-.26-.012-.388a1.575,1.575,0,0,0-.84-.386c-.2.086.234.175.178.317-.719-.2-.893.168-1.375-.077l.134.08a1.1,1.1,0,0,0-.528.011c.137-.138-.2-.6-.723-.751-.085.076.221.279.1.369l-.343-.108c-.014-.033.019-.047.076-.052-.338-.051-.488-.439-.667-.264l-.216-.359.082.142c-.085.076-.428-.032-.518-.013a.806.806,0,0,1-.639-.335c.043.1.13.3-.151.242.112-.284-.559-.33-.479-.463-.119-.047-.282-.193-.353-.084l.089-.157c-.118.228-.523.068-.851-.007.2-.3-.352-.084-.4-.459-.132.195-.586-.122-.708.049-.248-.07-.14-.274-.183-.374l-.157.048c-.082-.142-.535-.321-.793-.5l-.323.119-.058-.132c-.066.029-.276,0-.185.119l-.143-.056c-.084.213-.219,0-.519-.013-.062-.052-.01-.114.047-.118-.143-.057-.025-.147-.1-.232.077.085-.636.215-.283.437-.014.1-.256.091-.357,0l-.021-.227L31.3,78.1c-.224-.061-.272-.217-.439-.283.176.042.531-.229.069-.384a1.257,1.257,0,0,0,.528-.011c-.1-.038-.134-.08.047-.118-.362-.061-.166.072-.518-.013a.229.229,0,0,0,.023-.128c.009-.024-.014-.033-.005-.057s.009-.024-.014-.033a.256.256,0,0,0-.082-.142l.025.147a.089.089,0,0,1-.042.038c.038.043.029.066,0,.137a.358.358,0,0,0-.157.048c-.066.029-.147.024-.129-.023.015.171-.1.18-.237.181s-.29-.033-.271.057c-.066.029-.267-.023-.205-.108.171-.015.166-.071.161-.128s-.034-.123.032-.152c-.114.01,0,.137-.146.161a.151.151,0,0,1-.1-.094c-.024-.009.019-.047.028-.071s.052-.062.061-.085l.048.019.108-.2c-.09.019-.184.256-.209.11.052-.062-.006-.194.084-.213.129.023.313-.1.333-.006-.005-.057-.007-.332-.2-.189l.023-.128c-.085.076-.254.365-.256.091l.033-.014-.12-.185a.089.089,0,0,0,.043-.038.078.078,0,0,0,.042-.038c-.057,0-.1-.038-.067-.109.057,0,.1-.123.152-.1.017-.322-.073-.3-.112-.346.018-.185.046-.256.146-.161.046-.256.076-.682.214-.82-.031-.341-.052.062-.139-.137.369-.238.283-1.067.337-1.621-.313.1,0-.137-.244-.288.058.132.316-.451.3.009l.031-.289c.2-.166.022.5.287.25.041-.313-.213-.577-.039-.947.177.18.008-.3.2-.166a.533.533,0,0,1-.008.3l.052-.062c.214-.683-.182-.236-.242-.644.064-.441.226-.294.34-.3a.578.578,0,0,0,.045-.393c.049.294-.235.455-.341.3.275-.138.163-.621.1-.753-.377.536-.112.422-.5.925.043.1.253.127.1.45-.044-.237-.1-.014-.157.048.123-.034-.013.242.021.365-.109.067-.23-.255-.337.086l.253.127c-.08.133-.181-.1-.189.2-.12-.185-.219,0-.2-.407-.33.418-.024.758.021,1.132-.014-.033-.038-.043-.043-.1a1.147,1.147,0,0,1,.031.341c-.094.237-.077-.223-.186-.156l-.069.384-.033.014c.01.114.03.2-.037.232a.961.961,0,0,0-.221-.279l.122.459c-.086-.061-.212.327-.228.02l-.058.635-.2.029c.025.147.049.156.09-.019-.084.213,4.476-4.006-.157.815a9.126,9.126,0,0,1,.06,1.312c-.077-.222-.124-.1-.19.062-.056.142-.1.318-.123.033-.117.365.1.369.089.611-.1.261-.3.266-.333.006l.073.3-.033.014.1.232a.643.643,0,0,1-.16.266c-.009.024-.043.038-.061.086-.043.038.005.057.077.085l.232-.1.106.151c0-.08.2-.029.4.023l-.033.014.281.056c-.324-.018.205.108.015.171a4.257,4.257,0,0,0,.662.207l-.034-.123c.281.056.271.08.243.151-.019.047-.047.119.12.185l.023-.128c.426.387.891.187,1.2.447-.224-.061-.209.109-.2.086a5.4,5.4,0,0,0,1.219.262c.054.213.059.27.364.473.248.07.3.065.414,0,.21.165.686.216.663.344.085-.076.205.108.362.061l.005.057.023-.128c.326.43.757.107,1.1.49l-.081,0,.186.018c.005.057-.085.076-.113.147l.811.32-.13-.161c.176.042.342-.029.5.117-.385.067.262.1.278.274l-.186-.019c.248.07.248.07.271-.058.329.075.13.3.463.293l-.215-.085c-.043-.1.137-.138.28-.081.014.033.115.128-.014.1.257.047.62.245.734.235.134.08.049.156-.042.175.571.089.229.118.8.206l-.028.071.2-.029.206.246-.058-.132a1.144,1.144,0,0,1,.486.165l-.109.067c.5.117.516.368,1.025.4.014.033-.066.029-.1.043.495,0,.268.3.772.278-.033.014,0,.08-.037.095l.219,0-.056.142.227-.157.063.189.1-.043c.111.346.482.245.693.548l.018-.185c.865-.1,1.579.816,2.536.974l-.056.142.423-.025c.153.17-.166.072-.123.171.419.056.227-.157.7-.025.2.189-.109.067-.256.091a4.813,4.813,0,0,1,1.372.433c.009-.024.042-.038.019-.048a4.562,4.562,0,0,1,.963.353c-.028.071-.1.043-.2.029.119.047.243.151.367.118l-.166.071c.229.118.729.178.72.339-.005-.057.042-.175.256-.091.035.26.586.122.882.348-.066.028-.314-.042-.243-.014a.675.675,0,0,0,.5.06l-.085.076.819.159c.035.26.734.235.63.358.262.1-.2-.189.166-.072.058.132.329.075.272.217l-.057,0,.248.071-.2.086a.393.393,0,0,0,.47-.143c.163.146.477.188.525.345l-.081,0c.576.145.789.723,1.312.655.014.033.005.057-.067.029l.334.132-.109.067.638.06-.028.071a11.068,11.068,0,0,0,1.458.494l-.081,0c.571.088.482.245.891.325-.033.014-.033.014-.057,0l.334.132-.1.043c.318-.039.674.458.553.273.171-.015.438.008.523-.068.391.127.058.132.278.274.262.1.357,0,.72.2l-.028.071a3.017,3.017,0,0,1,.553.136l-.081,0c.438.008.426.387.833.192.148.113.477.188.4.321.514.093.914.2,1.443.323-.013.242.1.014.368.255l.023-.128c.7.249,1.375.844,2.166,1.075l-.023.128.2-.086c.792.368,1.831.806,2.508,1.045a2.348,2.348,0,0,1,.933.149L69,94.36a10.3,10.3,0,0,1,1.9.64c-.066.029-.014.1-.094.1.2-.086.391.127.534.183l-.129-.161a.531.531,0,0,1,.52.288l.342-.029a.055.055,0,0,1,.029.066l.076-.052.1.232c.081,0,.481.108.666-.011.005.057.272.217.049.156l1.04.438-.148-.113c.023-.128.37-.1.509.037-.252.01-.089.157-.031.289.171-.015-.082-.142.018-.185a.979.979,0,0,1,.672.183l-.114.01c.257.047.292.307.54.378.252-.01.391.127.418-.082.329.075.063.189.149.251.181-.038.591.179.616.325.289-.242.8.424.971.192l.206.246a.308.308,0,0,1,.365-.157c.163.146.068.246.112.346l.222-.214c1.041.713,2.6,1.083,3.759,1.786a12.462,12.462,0,0,1,1.949.578l-.081-.005.616.326-.43-.307a2.384,2.384,0,0,1,.41.079,9.345,9.345,0,0,0,2.475,1.06c.67-.091.279.412.9.382a.394.394,0,0,0-.133.057,12.954,12.954,0,0,0,1.609.252c-.184.256.382.15.278.274l.095-.1c.091.118.392.264.306.34l.319-.038-.023.128c.334.131,1.11.328,1.184.631a16.828,16.828,0,0,1,3.265,1.153,1.626,1.626,0,0,1,.738.154l.206.246c.257.047.594-.039.8.15-.009.024-.009.024-.043.038.248.07.458.236.753.187.262.1.52.288.369.393.117-.228.563.249.563.249s1.221.537,3.047,1.286c.9.382,1.97.805,3.114,1.257.715.283,1.478.584,2.226.852,1.178.438,2.346.9,3.547,1.346l.57-2.488c.1-.4.18-.806.282-1.2a5.229,5.229,0,0,0,.13-.607c.041-.175.087-.431.106-.479.157-.815.294-1.582.4-2.279a14.191,14.191,0,0,0,.2-3.43c-.1-.151-.1-.507-.278-.411.022-.265.269-.332.159-.4-.155.323-.282-.193-.541.115l.036-.232c-.086-.061.04.317-.117.228l.229.118a.462.462,0,0,1-.251.285c.04.18.345.382.1.724l.014-.1c-.074.327-.2.166-.256.228l.028-.071-.174.232c.132-.194.03-.563-.012-.388-.174.37.085-.076.03.2-.042.175-.152.1-.223.076l-.074.327c-.1-.038.06-.223-.091-.118l.017.445c-.276,0,.031.478-.291.6.007-.3-.115.009-.167-.066l-.167.7c-.052.062-.03-.2-.044-.1-.1.123.021.227-.007.3-.1.043-.125.526-.292.46-.235.456.173.261-.02.678-.123.033.06-.36-.087-.2l-.073.465a.282.282,0,0,1-.1-.313c-.122.308-.248.56-.375.811a2.19,2.19,0,0,0-.2.361c-.018.047-.07.109-.089.156l-.1.1c-.207.247-.359.351-.361.707-.12-.048-.049-.157-.107-.289.021.227-.041.313-.122.308-.2-.189-.335-.407-.464-.43l.035.123a3.438,3.438,0,0,1-.245-.288c-.086-.062-.029-.066-.386-.208-.549-.216-1.1-.433-1.627-.7l.091.119a2.177,2.177,0,0,1-.637-.061c-.005-.056.2-.166-.125-.241.052.076.162.147.12.185a37.849,37.849,0,0,0-4.289-2.05c-2.088-.715-4.254-1.79-6.318-2.5.31.122.1.312-.123.171-.475-.681-1.134-.339-1.68-.911-1.224-.319-2.157-1.1-3.394-1.176l.023-.128c-.148-.113-.224-.061-.4-.1l.009-.024c-.387-.207-.943-.263-1.13-.419l-.08.133c-.248-.07-.082-.142-.372-.174l.028-.071-.342.029c.118-.228-.691-.273-.835-.467a6.32,6.32,0,0,1-1.43-.427c-.049-.156-.621-.382-.983-.58-.734-.235-1.778-.592-2.7-.983l-.042.175-.248-.07c.009-.024-.005-.057.028-.071-.125-.241-.576-.145-.72-.339.063.189.158.09.3.146.163.146-.061.223-.318.039l.009-.024-.228.02c.023-.128-.125-.241-.1-.369a16.829,16.829,0,0,1-2.23-.634c.128-.114-.615-.188-.354-.359-.514-.093.02.227-.284.3-.143-.057-.314-.042-.3-.146.09-.019-.063-.189.066-.166l-.343-.108c-.014-.033.066-.029.1-.043-.724-.121-1.136-.613-1.8-.682-.085.076.229.118.153.17-.671-.046-.468-.349-1.1-.433l.166-.071c-.228.02-.337.086-.586-.122.008-.161.309-.015.456-.039-.215-.085-.734-.235-.638-.06-.257-.047-.306-.2-.43-.307-.009.024.2.189.03.2a7.655,7.655,0,0,0-1.235-.57c.009-.024.014-.1.037-.095C70.959,91.077,71.1,90.779,70.666,90.633Z" fill="#fff"/>
      <path id="Path_3341" data-name="Path 3341" d="M42.937,89.912l.158.09a.1.1,0,0,1,.109-.067Z" fill="#fff"/>
      <path id="Path_3342" data-name="Path 3342" d="M50.78,92.872a.054.054,0,0,0,.065-.028C50.822,92.835,50.813,92.858,50.78,92.872Z" fill="#fff"/>
      <path id="Path_3343" data-name="Path 3343" d="M52.8,93.343c-.15-.032-.051.061.01.112A.1.1,0,0,0,52.8,93.343Z" fill="#fff"/>
      <path id="Path_3344" data-name="Path 3344" d="M38.34,88.645c.033-.014.056,0,.074-.052C38.373,88.631,38.349,88.621,38.34,88.645Z" fill="#fff"/>
      <path id="Path_3345" data-name="Path 3345" d="M26.023,84.108c.023.009.023.009.037.042C26.07,84.127,26.046,84.118,26.023,84.108Z" fill="#fff"/>
      <path id="Path_3346" data-name="Path 3346" d="M26.64,84.572a.441.441,0,0,0,.15.032A.272.272,0,0,0,26.64,84.572Z" fill="#fff"/>
      <path id="Path_3347" data-name="Path 3347" d="M41.367,89.7a.193.193,0,0,0,.135,0C41.433,89.674,41.377,89.679,41.367,89.7Z" fill="#fff"/>
      <path id="Path_3348" data-name="Path 3348" d="M26.941,84.637l.167.066.009-.024Z" fill="#fff"/>
      <path id="Path_3349" data-name="Path 3349" d="M25.806,84.022l.215.085A.356.356,0,0,0,25.806,84.022Z" fill="#fff"/>
      <path id="Path_3350" data-name="Path 3350" d="M33.761,87.191c.168-.015.089-.019,0,0Z" fill="#fff"/>
      <path id="Path_3351" data-name="Path 3351" d="M27.785,84.667l.079,0Z" fill="#fff"/>
      <path id="Path_3352" data-name="Path 3352" d="M25.229,83.742c.023.009.023.009.056,0a.078.078,0,0,1-.037-.042Z" fill="#fff"/>
      <path id="Path_3353" data-name="Path 3353" d="M31.229,86.057a.23.23,0,0,0-.116.089C31.193,86.151,31.249,86.146,31.229,86.057Z" fill="#fff"/>
    </g>
    <circle id="Ellipse_95" data-name="Ellipse 95" cx="21.5" cy="21.5" r="21.5" transform="translate(196 40)" fill="#fca8b0"/>
  </g>
</svg>
