<svg xmlns="http://www.w3.org/2000/svg" xmlns:xlink="http://www.w3.org/1999/xlink" width="50" height="50" viewBox="0 0 50 50">
  <defs>
    <clipPath id="clip-twittet">
      <rect width="50" height="50"/>
    </clipPath>
  </defs>
  <g id="twittet" clip-path="url(#clip-twittet)">
    <path id="Icon_Twitter" data-name="Icon Twitter" d="M46.074,4.448a18.747,18.747,0,0,1-5.37,1.5A9.478,9.478,0,0,0,44.818.7,18.447,18.447,0,0,1,38.88,3a9.287,9.287,0,0,0-6.828-3A9.408,9.408,0,0,0,22.7,9.471a9.4,9.4,0,0,0,.241,2.161A26.4,26.4,0,0,1,3.668,1.73,9.557,9.557,0,0,0,6.574,14.378a9.04,9.04,0,0,1-4.249-1.184v.119a9.444,9.444,0,0,0,7.5,9.284,9.329,9.329,0,0,1-2.462.332,8.724,8.724,0,0,1-1.758-.175,9.382,9.382,0,0,0,8.741,6.577A18.61,18.61,0,0,1,2.731,33.388,18.791,18.791,0,0,1,.5,33.251a25.916,25.916,0,0,0,14.312,4.28c17.22,0,26.627-14.436,26.627-26.957,0-.41-.011-.821-.029-1.221A19.169,19.169,0,0,0,46.074,4.448Z" transform="translate(1.5 6)" fill="rgba(21,21,21,0.3)" fill-rule="evenodd"/>
  </g>
</svg>
