<svg width="128" height="68" viewBox="0 0 128 68" fill="none" xmlns="http://www.w3.org/2000/svg">
<path d="M11.6211 0.882812C13.5664 0.882812 15.2539 1.17578 16.6836 1.76172C18.1367 2.32422 19.2617 3.12109 20.0586 4.15234C20.8789 5.18359 21.2891 6.37891 21.2891 7.73828C21.2891 8.93359 20.9961 9.96484 20.4102 10.832C19.8477 11.6992 19.1094 12.3906 18.1953 12.9062C18.9219 13.1641 19.6016 13.5039 20.2344 13.9258C20.8672 14.3242 21.3711 14.8516 21.7461 15.5078C22.1445 16.1641 22.3438 17.0195 22.3438 18.0742C22.3438 19.3867 21.9219 20.6172 21.0781 21.7656C20.2344 22.8906 19.0742 23.8047 17.5977 24.5078C16.1211 25.1875 14.4336 25.5273 12.5352 25.5273C11.457 25.5273 10.25 25.4688 8.91406 25.3516C7.57812 25.2578 6.30078 25.1289 5.08203 24.9648C3.88672 24.8008 2.91406 24.6367 2.16406 24.4727V1.79688C3.59375 1.51562 5.10547 1.29297 6.69922 1.12891C8.29297 0.964844 9.93359 0.882812 11.6211 0.882812ZM11.8672 6.82422C10.6719 6.82422 9.62891 6.91797 8.73828 7.10547V11.1484H12.043C12.8164 11.1484 13.4727 10.9609 14.0117 10.5859C14.5508 10.2109 14.8203 9.66016 14.8203 8.93359C14.8203 8.30078 14.5391 7.79688 13.9766 7.42188C13.4375 7.02344 12.7344 6.82422 11.8672 6.82422ZM8.73828 19.3047C9.23047 19.4688 9.81641 19.5859 10.4961 19.6562C11.1758 19.7031 11.7031 19.7266 12.0781 19.7266C13.0391 19.7266 13.8125 19.5391 14.3984 19.1641C15.0078 18.7891 15.3125 18.2383 15.3125 17.5117C15.3125 16.8086 14.9727 16.3047 14.293 16C13.6133 15.6953 12.793 15.543 11.832 15.543H8.73828V19.3047ZM34.5078 6.54297C36.1953 6.54297 37.6953 6.91797 39.0078 7.66797C40.3203 8.41797 41.3398 9.47266 42.0664 10.832C42.8164 12.168 43.1914 13.7617 43.1914 15.6133V17.6875H30.9922C31.25 18.5547 31.7656 19.1992 32.5391 19.6211C33.3125 20.043 34.2031 20.2539 35.2109 20.2539C36.5703 20.2539 37.7422 20.0664 38.7266 19.6914C39.7344 19.293 40.4844 18.9531 40.9766 18.6719V23.8398C40.3672 24.2148 39.5234 24.5898 38.4453 24.9648C37.3906 25.3398 36.1953 25.5273 34.8594 25.5273C33.5938 25.5273 32.3633 25.3164 31.168 24.8945C29.9961 24.4727 28.9414 23.8633 28.0039 23.0664C27.0664 22.2695 26.3281 21.3086 25.7891 20.1836C25.25 19.0352 24.9805 17.7461 24.9805 16.3164C24.9805 14.5352 25.3906 12.9062 26.2109 11.4297C27.0547 9.95312 28.1914 8.76953 29.6211 7.87891C31.0742 6.98828 32.7031 6.54297 34.5078 6.54297ZM34.332 11.5352C33.5586 11.5352 32.8906 11.7461 32.3281 12.168C31.7656 12.5664 31.3555 13.1875 31.0977 14.0312H37.4609C37.4609 13.1875 37.1328 12.5664 36.4766 12.168C35.8438 11.7461 35.1289 11.5352 34.332 11.5352ZM54.5469 1.79688V7.07031H59.6445C60.7695 7.07031 61.6602 6.89453 62.3164 6.54297C62.9961 6.19141 63.5469 5.62891 63.9688 4.85547C64.3906 4.05859 64.7773 3.03906 65.1289 1.79688H68.3633V7.07031H73.0742V11.8164H68.3633V16.8438C68.3633 17.7109 68.5391 18.4023 68.8906 18.918C69.2656 19.4102 69.7812 19.6562 70.4375 19.6562C71.4688 19.6562 72.418 19.3984 73.2852 18.8828V23.5938C72.9102 24.1094 72.3125 24.5664 71.4922 24.9648C70.6953 25.3398 69.7109 25.5273 68.5391 25.5273C67.4375 25.5273 66.4062 25.2695 65.4453 24.7539C64.5078 24.2383 63.7461 23.5 63.1602 22.5391C62.5977 21.5781 62.3164 20.418 62.3164 19.0586V11.8164H54.5469V16.8438C54.5469 17.7109 54.7227 18.4023 55.0742 18.918C55.4492 19.4102 55.9648 19.6562 56.6211 19.6562C57.6523 19.6562 58.6016 19.3984 59.4688 18.8828V23.5938C59.0938 24.1094 58.4961 24.5664 57.6758 24.9648C56.8789 25.3398 55.8945 25.5273 54.7227 25.5273C53.5977 25.5273 52.5664 25.2695 51.6289 24.7539C50.6914 24.2383 49.9297 23.5 49.3438 22.5391C48.7812 21.5781 48.5 20.418 48.5 19.0586V11.8164H45.4766V8.125C46.625 7.82031 47.75 7.16406 48.8516 6.15625C49.9766 5.125 50.7969 3.67188 51.3125 1.79688H54.5469ZM85.625 6.54297C87.3125 6.54297 88.8125 6.91797 90.125 7.66797C91.4375 8.41797 92.457 9.47266 93.1836 10.832C93.9336 12.168 94.3086 13.7617 94.3086 15.6133V17.6875H82.1094C82.3672 18.5547 82.8828 19.1992 83.6562 19.6211C84.4297 20.043 85.3203 20.2539 86.3281 20.2539C87.6875 20.2539 88.8594 20.0664 89.8438 19.6914C90.8516 19.293 91.6016 18.9531 92.0938 18.6719V23.8398C91.4844 24.2148 90.6406 24.5898 89.5625 24.9648C88.5078 25.3398 87.3125 25.5273 85.9766 25.5273C84.7109 25.5273 83.4805 25.3164 82.2852 24.8945C81.1133 24.4727 80.0586 23.8633 79.1211 23.0664C78.1836 22.2695 77.4453 21.3086 76.9062 20.1836C76.3672 19.0352 76.0977 17.7461 76.0977 16.3164C76.0977 14.5352 76.5078 12.9062 77.3281 11.4297C78.1719 9.95312 79.3086 8.76953 80.7383 7.87891C82.1914 6.98828 83.8203 6.54297 85.625 6.54297ZM85.4492 11.5352C84.6758 11.5352 84.0078 11.7461 83.4453 12.168C82.8828 12.5664 82.4727 13.1875 82.2148 14.0312H88.5781C88.5781 13.1875 88.25 12.5664 87.5938 12.168C86.9609 11.7461 86.2461 11.5352 85.4492 11.5352ZM109.883 13.7148C109.531 13.5273 109.156 13.3867 108.758 13.293C108.383 13.1758 107.938 13.1172 107.422 13.1172C106.602 13.1172 105.875 13.3633 105.242 13.8555C104.609 14.3477 104.094 14.9922 103.695 15.7891V25H97.6484V7.07031H103.695V10.2695C104.258 9.30859 104.879 8.47656 105.559 7.77344C106.262 7.07031 107.176 6.71875 108.301 6.71875C108.91 6.71875 109.438 6.82422 109.883 7.03516V13.7148ZM12.8867 34.918C14.1289 34.918 15.2773 35.0938 16.332 35.4453C17.3867 35.7969 18.3125 36.3125 19.1094 36.9922V43.3555C18.1719 42.6055 17.2812 42.043 16.4375 41.668C15.5938 41.2695 14.4922 41.0703 13.1328 41.0703C12.0781 41.0703 11.0938 41.3398 10.1797 41.8789C9.28906 42.418 8.5625 43.1562 8 44.0938C7.4375 45.0078 7.15625 46.0508 7.15625 47.2227C7.15625 48.3945 7.4375 49.4492 8 50.3867C8.5625 51.3008 9.28906 52.0273 10.1797 52.5664C11.0938 53.1055 12.0781 53.375 13.1328 53.375C14.4922 53.375 15.5938 53.1875 16.4375 52.8125C17.2812 52.4141 18.1719 51.8398 19.1094 51.0898V57.4531C18.3125 58.1328 17.3867 58.6484 16.332 59C15.2773 59.3516 14.1289 59.5273 12.8867 59.5273C11.293 59.5273 9.74609 59.2578 8.24609 58.7188C6.76953 58.1562 5.43359 57.3477 4.23828 56.293C3.06641 55.2383 2.12891 53.9492 1.42578 52.4258C0.746094 50.9023 0.40625 49.168 0.40625 47.2227C0.40625 45.2773 0.746094 43.543 1.42578 42.0195C2.12891 40.4961 3.06641 39.207 4.23828 38.1523C5.43359 37.0977 6.76953 36.3008 8.24609 35.7617C9.74609 35.1992 11.293 34.918 12.8867 34.918ZM29.832 40.543C30.7695 40.543 31.6836 40.7539 32.5742 41.1758C33.4883 41.5742 34.2383 42.0898 34.8242 42.7227V41.0703H40.8711V59H34.8242V56.0117C34.3789 56.9961 33.6992 57.8281 32.7852 58.5078C31.8711 59.1875 30.7695 59.5273 29.4805 59.5273C28.1445 59.5273 26.8906 59.1875 25.7188 58.5078C24.5469 57.8281 23.5859 56.7852 22.8359 55.3789C22.1094 53.9492 21.7461 52.1562 21.7461 50C21.7461 47.9844 22.1094 46.2734 22.8359 44.8672C23.5859 43.4609 24.5703 42.3945 25.7891 41.668C27.0312 40.918 28.3789 40.543 29.832 40.543ZM31.0977 46.4492C30.2305 46.4492 29.5039 46.8008 28.918 47.5039C28.3555 48.207 28.0742 49.0391 28.0742 50C28.0742 50.9609 28.3672 51.7695 28.9531 52.4258C29.5391 53.082 30.3125 53.4102 31.2734 53.4102C31.7891 53.4102 32.3164 53.2812 32.8555 53.0234C33.3945 52.7422 33.8516 52.332 34.2266 51.793C34.625 51.2305 34.8242 50.5156 34.8242 49.6484V47.9258C34.3086 47.5039 33.7227 47.1523 33.0664 46.8711C32.4336 46.5898 31.7773 46.4492 31.0977 46.4492ZM57.1836 40.543C58.5195 40.543 59.7734 40.8828 60.9453 41.5625C62.1406 42.2422 63.1016 43.2852 63.8281 44.6914C64.5547 46.0977 64.918 47.8906 64.918 50.0703C64.918 52.0859 64.543 53.7969 63.793 55.2031C63.0664 56.6094 62.082 57.6875 60.8398 58.4375C59.6211 59.1641 58.2852 59.5273 56.832 59.5273C55.8945 59.5273 54.9688 59.3281 54.0547 58.9297C53.1641 58.5078 52.4258 57.9805 51.8398 57.3477V67.4375H45.793V41.0703H51.8398V44.0586C52.2852 43.0742 52.9648 42.2422 53.8789 41.5625C54.793 40.8828 55.8945 40.543 57.1836 40.543ZM55.3906 46.6602C54.8984 46.6602 54.3711 46.8008 53.8086 47.082C53.2695 47.3398 52.8008 47.75 52.4023 48.3125C52.0273 48.8516 51.8398 49.5547 51.8398 50.4219V52.1445C52.3789 52.5664 52.9648 52.918 53.5977 53.1992C54.2539 53.4805 54.9102 53.6211 55.5664 53.6211C56.457 53.6211 57.1836 53.2695 57.7461 52.5664C58.3086 51.8398 58.5898 51.0078 58.5898 50.0703C58.5898 49.1094 58.2969 48.3008 57.7109 47.6445C57.125 46.9883 56.3516 46.6602 55.3906 46.6602ZM73.2852 31.0156C73.9648 31.0156 74.5859 31.1797 75.1484 31.5078C75.7344 31.8359 76.2031 32.2812 76.5547 32.8438C76.9062 33.3828 77.082 33.9922 77.082 34.6719C77.082 35.3281 76.9062 35.9375 76.5547 36.5C76.2031 37.0625 75.7344 37.5078 75.1484 37.8359C74.5859 38.1641 73.9648 38.3281 73.2852 38.3281C72.2773 38.3281 71.3984 37.9766 70.6484 37.2734C69.8984 36.5469 69.5234 35.6797 69.5234 34.6719C69.5234 33.6406 69.8984 32.7734 70.6484 32.0703C71.3984 31.3672 72.2773 31.0156 73.2852 31.0156ZM76.6953 41.0703V59H70.6484V45.9922H67.7305V41.0703H76.6953ZM89.668 35.7969V41.0703H94.3789V45.8164H89.668V50.8438C89.668 51.7109 89.8438 52.4023 90.1953 52.918C90.5703 53.4102 91.0859 53.6562 91.7422 53.6562C92.7734 53.6562 93.7227 53.3984 94.5898 52.8828V57.5938C94.2148 58.1094 93.6172 58.5664 92.7969 58.9648C92 59.3398 91.0156 59.5273 89.8438 59.5273C88.7188 59.5273 87.6875 59.2695 86.75 58.7539C85.8125 58.2383 85.0508 57.5 84.4648 56.5391C83.9023 55.5781 83.6211 54.418 83.6211 53.0586V45.8164H80.5977V42.125C81.7461 41.8203 82.8711 41.1641 83.9727 40.1562C85.0977 39.125 85.918 37.6719 86.4336 35.7969H89.668ZM105.137 40.543C106.074 40.543 106.988 40.7539 107.879 41.1758C108.793 41.5742 109.543 42.0898 110.129 42.7227V41.0703H116.176V59H110.129V56.0117C109.684 56.9961 109.004 57.8281 108.09 58.5078C107.176 59.1875 106.074 59.5273 104.785 59.5273C103.449 59.5273 102.195 59.1875 101.023 58.5078C99.8516 57.8281 98.8906 56.7852 98.1406 55.3789C97.4141 53.9492 97.0508 52.1562 97.0508 50C97.0508 47.9844 97.4141 46.2734 98.1406 44.8672C98.8906 43.4609 99.875 42.3945 101.094 41.668C102.336 40.918 103.684 40.543 105.137 40.543ZM106.402 46.4492C105.535 46.4492 104.809 46.8008 104.223 47.5039C103.66 48.207 103.379 49.0391 103.379 50C103.379 50.9609 103.672 51.7695 104.258 52.4258C104.844 53.082 105.617 53.4102 106.578 53.4102C107.094 53.4102 107.621 53.2812 108.16 53.0234C108.699 52.7422 109.156 52.332 109.531 51.793C109.93 51.2305 110.129 50.5156 110.129 49.6484V47.9258C109.613 47.5039 109.027 47.1523 108.371 46.8711C107.738 46.5898 107.082 46.4492 106.402 46.4492ZM127.145 33.6875V59H121.098V33.6875H127.145Z" fill="white"/>
</svg>
