<svg width="40" height="40" viewBox="0 0 40 40" fill="none" xmlns="http://www.w3.org/2000/svg">
<path d="M27.1429 5H12.8571C11.2792 5 10 6.34315 10 8V32C10 33.6569 11.2792 35 12.8571 35H27.1429C28.7208 35 30 33.6569 30 32V8C30 6.34315 28.7208 5 27.1429 5Z" stroke="black" stroke-linecap="round" stroke-linejoin="round"/>
<path d="M25.5 17.1458C24.7039 16.4333 23.6525 16 22.5 16C20.0147 16 18 18.0147 18 20.5C18 22.9853 20.0147 25 22.5 25C23.6525 25 24.7039 24.5667 25.5 23.8542" stroke="black" stroke-width="0.8" stroke-linecap="round" stroke-linejoin="round"/>
<path d="M15 17.1458C15.7961 16.4333 16.8475 16 18 16C20.4853 16 22.5 18.0147 22.5 20.5C22.5 22.9853 20.4853 25 18 25C16.8475 25 15.7961 24.5667 15 23.8542" stroke="black" stroke-width="0.8" stroke-linecap="round" stroke-linejoin="round"/>
</svg>
