<svg width="40" height="40" viewBox="0 0 40 40" fill="none" xmlns="http://www.w3.org/2000/svg">
<path d="M9.09834 8.44519L7.56152 8L3.99997 20.2945L5.53678 20.7397C6.38203 20.9846 7.27394 20.4933 7.51879 19.6481L10.19 10.4272C10.4348 9.58196 9.94359 8.69005 9.09834 8.44519Z" stroke="#151515" stroke-miterlimit="10"/>
<path d="M16.9598 17.6L34.2398 17.6C35.4327 17.6 36.3998 18.521 36.3998 19.6571L36.3998 29.9429C36.3998 31.079 35.4327 32 34.2398 32L16.9598 32C15.7669 32 14.7998 31.079 14.7998 29.9429L14.7998 22.0308" stroke="black" stroke-linecap="round" stroke-linejoin="round"/>
<path d="M7.96669 18.1029C8.7351 18.3255 9.28091 19.3165 10.5951 20.5301C11.9093 21.7437 15.974 22.0882 15.974 22.0882C15.974 22.0882 16.7424 22.3108 19.0476 22.9786C21.3528 23.6464 21.0296 21.887 21.0296 21.887C21.0296 21.887 20.7064 20.1276 16.8644 19.0146V19.0146C16.1386 18.8044 16.131 17.8932 16.851 17.6639C16.9766 17.6239 17.0955 17.6 17.1998 17.6" stroke="#151515" stroke-miterlimit="10"/>
<path d="M9.74491 11.964L14.3871 12.4426C17.6462 12.7787 21.0701 14.0704 22.7542 16.882L23.1998 17.6" stroke="#151515" stroke-miterlimit="10"/>
<line x1="36.3999" y1="24.1" x2="14.7999" y2="24.1" stroke="black"/>
</svg>
