<svg width="40" height="40" viewBox="0 0 40 40" fill="none" xmlns="http://www.w3.org/2000/svg">
<path d="M31.0256 23.9312V23.9312C32.132 25.8474 31.4754 28.2977 29.5592 29.4041L22.5717 33.4383C21.4917 34.0618 20.2083 34.2308 19.0037 33.908V33.908C17.7991 33.5853 16.7721 32.7972 16.1485 31.7172L10.9607 22.7316C10.8175 22.4837 10.7787 22.189 10.8529 21.9124L12.4375 15.9983C12.5857 15.4453 12.627 14.8691 12.5592 14.3006L12.2101 11.374C12.0874 9.57458 15.0923 9.32418 15.8476 12.1653L17.3925 17.3453M31.0256 23.9312L27.9897 25.684M31.0256 23.9312V23.9312C31.7442 23.5163 31.9905 22.5974 31.5756 21.8788L31.2151 21.2545C30.7227 20.4016 29.6322 20.1094 28.7794 20.6018L26.637 21.8387" stroke="black" stroke-width="0.8" stroke-linecap="round"/>
<path d="M16.3488 36.3626L13.662 38L5 22.884L7.54598 21.1914C8.51376 20.548 9.82427 20.8621 10.3952 21.8743L17.05 33.6722C17.5798 34.6114 17.2696 35.8015 16.3488 36.3626Z" stroke="black" stroke-width="0.8"/>
<path d="M25.376 17.6514L27.2192 16.5872C28.2372 15.9994 29.539 16.3482 30.1267 17.3662V17.3662C30.7145 18.3842 30.3657 19.6859 29.3477 20.2737L26.637 21.8387" stroke="black" stroke-width="0.8"/>
<path d="M17.3925 17.3453L30.5122 9.7706C31.5302 9.18285 32.8319 9.53165 33.4197 10.5497V10.5497C34.0074 11.5677 33.6586 12.8694 32.6406 13.4571L25.5928 17.5262" stroke="black" stroke-width="0.8" stroke-linecap="round"/>
</svg>
