<svg width="40" height="40" viewBox="0 0 40 40" fill="none" xmlns="http://www.w3.org/2000/svg">
<path d="M22.7768 13.4348C22.5454 13.6708 22.4158 13.9882 22.4158 14.3187C22.4158 14.6493 22.5454 14.9667 22.7768 15.2027L24.7973 17.2232C25.0333 17.4546 25.3507 17.5842 25.6813 17.5842C26.0118 17.5842 26.3292 17.4546 26.5652 17.2232L31.3261 12.4624C31.9611 13.8656 32.1534 15.4291 31.8773 16.9443C31.6012 18.4596 30.8699 19.8548 29.7808 20.9439C28.6916 22.033 27.2965 22.7643 25.7812 23.0404C24.2659 23.3165 22.7025 23.1242 21.2992 22.4892L12.5731 31.2154C12.0707 31.7178 11.3893 32 10.6789 32C9.96838 32 9.287 31.7178 8.78462 31.2154C8.28224 30.713 8 30.0316 8 29.3211C8 28.6107 8.28224 27.9293 8.78462 27.4269L17.5108 18.7008C16.8758 17.2975 16.6835 15.7341 16.9596 14.2188C17.2357 12.7035 17.967 11.3084 19.0561 10.2192C20.1452 9.13014 21.5404 8.39881 23.0557 8.12273C24.5709 7.84664 26.1344 8.0389 27.5376 8.6739L22.7894 13.4221L22.7768 13.4348Z" stroke="black" stroke-linecap="round" stroke-linejoin="round"/>
</svg>
