<svg width="264" height="103" viewBox="0 0 264 103" fill="none" xmlns="http://www.w3.org/2000/svg">
<path d="M83.12 62L89.576 45.2H93.776L100.232 62H95.456L94.568 59.456H88.64L87.728 62H83.12ZM90.032 55.616H93.224L91.64 51.104L90.032 55.616ZM102.264 62V45.2H106.704V57.872H113.424V62H102.264ZM124.555 62V49.328H120.283V45.2H133.267V49.328H128.995V62H124.555ZM135.068 62V49.28H139.268V51.704C139.636 50.728 140.132 50.024 140.756 49.592C141.396 49.144 142.156 48.92 143.036 48.92V53.648C141.692 53.648 140.724 53.936 140.132 54.512C139.556 55.088 139.268 56.04 139.268 57.368V62H135.068ZM144.838 56.744V49.28H149.038V55.88C149.038 56.744 149.214 57.368 149.566 57.752C149.918 58.12 150.366 58.304 150.91 58.304C151.566 58.304 152.094 58.08 152.494 57.632C152.91 57.168 153.118 56.488 153.118 55.592V49.28H157.318V62H153.118V60.416C152.286 61.712 151.03 62.36 149.35 62.36C148.502 62.36 147.734 62.152 147.046 61.736C146.358 61.304 145.814 60.672 145.414 59.84C145.03 59.008 144.838 57.976 144.838 56.744ZM159.491 60.8L160.787 57.416C161.379 57.816 162.067 58.168 162.851 58.472C163.635 58.76 164.323 58.904 164.915 58.904C165.363 58.904 165.667 58.848 165.827 58.736C166.003 58.624 166.091 58.496 166.091 58.352C166.091 58.208 165.995 58.056 165.803 57.896C165.611 57.736 165.163 57.544 164.459 57.32C162.923 56.808 161.795 56.208 161.075 55.52C160.371 54.832 160.019 54.032 160.019 53.12C160.019 52.368 160.235 51.672 160.667 51.032C161.115 50.392 161.723 49.88 162.491 49.496C163.275 49.112 164.163 48.92 165.155 48.92C165.955 48.92 166.771 49.032 167.603 49.256C168.451 49.464 169.227 49.752 169.931 50.12L168.803 53.312C168.211 52.992 167.579 52.736 166.907 52.544C166.235 52.352 165.691 52.256 165.275 52.256C164.891 52.256 164.619 52.312 164.459 52.424C164.299 52.536 164.219 52.656 164.219 52.784C164.219 52.944 164.315 53.104 164.507 53.264C164.715 53.408 165.091 53.56 165.635 53.72C167.443 54.264 168.699 54.888 169.403 55.592C170.123 56.296 170.483 57.144 170.483 58.136C170.483 58.92 170.259 59.632 169.811 60.272C169.379 60.896 168.739 61.4 167.891 61.784C167.059 62.168 166.035 62.36 164.819 62.36C164.211 62.36 163.571 62.288 162.899 62.144C162.243 62 161.619 61.816 161.027 61.592C160.435 61.352 159.923 61.088 159.491 60.8ZM172.925 57.464V52.88H171.365V49.28H172.925V46.592H177.125V49.28H180.125V52.88H177.125V56.96C177.125 57.504 177.261 57.912 177.533 58.184C177.805 58.44 178.237 58.568 178.829 58.568C179.229 58.568 179.661 58.512 180.125 58.4L180.341 62.096C180.021 62.176 179.637 62.24 179.189 62.288C178.757 62.336 178.309 62.36 177.845 62.36C176.165 62.36 174.925 61.944 174.125 61.112C173.325 60.28 172.925 59.064 172.925 57.464Z" fill="#151515"/>
<rect opacity="0.1" x="0.5" y="0.5" width="263" height="102" stroke="#262626"/>
</svg>
