<svg width="36" height="36" viewBox="0 0 36 36" fill="none" xmlns="http://www.w3.org/2000/svg">
<path d="M5.49951 9.50024H3.49951V25.5002H5.49951C6.59951 25.5002 7.49951 24.6002 7.49951 23.5002V11.5002C7.49951 10.4002 6.59951 9.50024 5.49951 9.50024Z" stroke="#151515" stroke-miterlimit="10"/>
<path d="M21.4636 19.8498C22.4915 17.5798 24.7791 15.9998 27.4496 15.9998C31.0674 15.9998 34 18.9098 34 22.4998C34 26.0898 31.0674 28.9998 27.4496 28.9998C24.2147 28.9998 21.524 26.6698 21 23.6198" stroke="#151515" stroke-miterlimit="10"/>
<path d="M29.4206 24.1005C30.1931 23.1733 30.1931 21.8267 29.4206 20.8995C28.4211 19.7002 26.5789 19.7002 25.5794 20.8995C24.8069 21.8267 24.8069 23.1733 25.5794 24.1005C26.5789 25.2998 28.4211 25.2998 29.4206 24.1005Z" stroke="#151515" stroke-linecap="round" stroke-linejoin="round"/>
<path d="M22.5 18.3701C22.01 18.2601 22.01 18.0101 21.64 17.6401C20.64 16.6401 19.28 16.0201 17.87 16.0501C17.32 16.0601 16.81 16.1801 16.5 16.4901C15.5 17.4901 15.5 19.4901 18.5 19.4901C23.5 19.4901 24.5 21.4901 24.5 21.4901C24.5 21.4901 25.5 23.4901 22.5 23.4901C19.5 23.4901 18.5 23.4901 18.5 23.4901C18.5 23.4901 13.5 24.4901 11.5 23.4901C9.5 22.4901 8.5 21.4901 7.5 21.4901" stroke="#151515" stroke-miterlimit="10"/>
<path d="M7.5 13.5001L13.24 12.4601C17.27 11.7301 21.83 12.0901 24.83 14.8801C25.5 15.5001 25.75 16.0001 26 16.5001" stroke="#151515" stroke-miterlimit="10"/>
</svg>
