<svg width="378" height="263" viewBox="0 0 378 263" fill="none" xmlns="http://www.w3.org/2000/svg">
<path opacity="0.3" d="M282.36 83.3852L284.015 81.4171C285.102 81.935 285.981 82.4011 286.602 82.8155C287.222 83.2298 287.636 83.5924 287.947 83.9031C288.567 84.5246 288.671 84.9907 288.774 85.4051C288.878 85.8194 288.981 86.182 289.498 86.7517C289.757 87.0106 290.119 87.3214 290.688 87.6839C290.947 87.8393 291.257 88.0465 291.671 88.2536C291.878 88.3572 292.033 88.4608 292.24 88.5644C292.343 88.6162 292.447 88.668 292.55 88.7198C292.654 88.7716 292.757 88.8234 292.809 88.8752C294.929 88.1501 297.412 89.9628 299.067 91.8791C299.274 92.138 299.481 92.3452 299.636 92.6042C299.843 92.8113 300.05 93.0703 300.205 93.2775C300.361 93.4846 300.516 93.6918 300.671 93.899C300.774 94.0026 300.826 94.1062 300.93 94.1579C300.981 94.2615 301.033 94.3133 301.136 94.4169C301.188 94.5205 301.24 94.5723 301.343 94.6759C301.343 94.6759 301.343 94.6758 301.395 94.7276C301.447 94.7276 301.447 94.7276 301.499 94.7276C301.602 94.7276 301.757 94.6759 301.964 94.5723C301.757 94.7277 301.861 95.142 300.878 95.6081C301.757 95.1938 301.912 95.2456 301.912 95.3492C301.912 95.5045 301.705 95.6599 301.964 95.7117C302.533 95.6599 302.533 95.5045 303.05 95.2974C303.05 95.2974 303.102 95.3492 303.205 95.4009C303.309 95.4527 303.412 95.5563 303.516 95.6081C303.619 95.7117 303.723 95.8153 303.826 95.8671C303.878 95.9707 303.93 96.0224 303.93 96.0224C303.568 96.2296 303.154 96.3332 302.74 96.3332C302.378 96.3332 301.964 96.2814 301.912 96.1778C301.861 96.2296 301.861 96.2814 301.861 96.3332C301.861 96.3332 301.861 96.385 301.809 96.385C301.809 96.385 301.809 96.4368 301.757 96.4368C301.757 96.4368 301.705 96.4886 301.705 96.5404C301.705 96.5404 301.654 96.5922 301.654 96.644C301.602 96.6957 301.55 96.7475 301.55 96.7993C301.343 97.0065 301.085 97.2137 300.826 97.3172C300.723 97.3172 300.723 97.369 300.619 97.369C300.619 97.369 300.567 97.4208 300.619 97.369L300.567 97.4208C300.516 97.4726 300.464 97.5244 300.412 97.5244C300.154 97.6798 299.947 97.8352 299.636 97.9906C299.119 98.3013 298.447 98.6638 297.671 99.0264C296.947 99.3889 296.067 99.8033 295.136 100.166C294.205 100.58 293.119 100.943 291.981 101.305C290.843 101.72 289.602 102.082 288.257 102.445C287.636 102.652 286.86 102.807 286.188 102.963C285.464 103.118 284.791 103.325 284.067 103.481L282.981 103.739L281.895 103.947L279.671 104.413C267.774 106.743 254.015 107.365 241.446 107.417C235.187 107.468 229.29 107.417 224.118 107.365C221.531 107.365 219.152 107.365 217.083 107.365C215.014 107.365 213.152 107.417 211.6 107.468C212.376 107.831 213.462 108.038 214.6 108.194C215.738 108.349 217.083 108.453 218.324 108.556C220.911 108.815 223.394 109.178 224.738 110.317C223.187 110.628 221.842 110.731 220.652 110.783C219.462 110.783 218.376 110.731 217.445 110.68C215.583 110.576 214.135 110.421 212.686 111.094C211.445 109.385 207.979 109.178 203.997 108.97C203.014 108.919 202.031 108.867 201.048 108.815C200.065 108.763 199.031 108.66 198.1 108.504C196.186 108.245 194.479 107.779 193.186 106.951L191.272 108.919L187.807 107.883C185.945 108.09 184.238 108.245 182.738 108.401C181.238 108.608 179.944 108.763 178.806 108.919C176.531 109.229 174.824 109.437 173.634 109.592C172.393 109.747 171.617 109.903 170.996 109.955C170.427 110.058 170.065 110.058 169.755 110.058C169.082 110.11 168.565 110.006 166.496 110.058C165.461 110.11 164.065 110.162 162.047 110.265C160.03 110.421 157.444 110.68 154.082 110.99C150.202 111.456 146.84 112.285 143.892 113.01C142.392 113.373 140.995 113.735 139.702 114.098C138.409 114.512 137.168 114.875 135.926 115.237C133.547 115.962 131.374 116.636 129.254 117.154C127.133 117.723 125.064 118.189 122.84 118.397C124.133 118.138 127.754 118.552 123.874 119.899C123.357 119.173 120.771 120.002 118.029 120.986C115.288 122.022 112.443 123.058 111.253 122.488C110.788 122.644 110.167 122.799 109.443 123.006C108.719 123.213 107.943 123.42 107.115 123.731C105.46 124.249 103.701 124.871 102.201 125.44C99.2014 126.632 97.2876 127.719 99.7187 128.185C98.4773 127.926 95.0634 128.703 92.7358 129.066C90.4081 129.48 89.1667 129.532 92.322 127.875C90.4081 128.496 88.546 129.014 86.8391 129.635C85.1322 130.257 83.5804 130.93 82.2873 131.707C82.2873 131.707 83.5287 131.396 84.7701 131.086C85.3908 130.93 86.0115 130.775 86.477 130.671C86.9426 130.568 87.2529 130.464 87.2529 130.464C85.7011 131.086 84.2011 131.707 82.8045 132.225C82.0804 132.484 81.408 132.743 80.7355 133.002C79.8562 133.313 79.0286 133.623 78.201 133.934C77.7355 134.09 77.2182 134.297 76.7527 134.452C76.2355 134.659 75.7699 134.866 75.2527 135.074C74.2699 135.488 73.3388 135.902 72.4078 136.317C70.5457 137.145 68.787 137.922 67.0801 138.699C65.3732 139.476 63.718 140.253 62.0628 141.03C61.2351 141.444 60.4593 141.807 59.6834 142.169C59.2696 142.376 58.9075 142.583 58.4937 142.739C58.0799 142.946 57.7696 143.153 57.4075 143.412C54.5626 145.225 51.8729 147.089 49.2866 149.161L56.6833 145.95C53.9936 147.556 51.4591 149.057 49.028 150.456C47.7866 151.129 46.6487 151.802 45.459 152.476C45.1486 152.631 44.89 152.787 44.5796 152.942C44.321 153.097 44.0624 153.253 43.8038 153.46C43.2865 153.771 42.7693 154.081 42.252 154.392C38.2175 156.826 34.6484 158.587 31.5449 159.364L41.3727 151.802C37.1312 154.703 33.3036 157.344 29.7863 159.778C28.9069 160.4 27.9759 160.97 27.3034 161.643C26.5793 162.264 25.8551 162.886 25.131 163.507C23.7344 164.751 22.3896 165.942 21.0447 167.133C19.7516 168.324 18.4067 169.515 17.1136 170.707L16.6481 171.173C16.4929 171.328 16.3377 171.483 16.2343 171.639L15.5618 172.571C15.0963 173.193 14.6308 173.814 14.1653 174.436C12.3549 176.922 10.4928 179.459 8.63067 182.153L11.8894 178.372C11.2686 179.304 10.4928 180.547 9.45827 181.997C9.35482 182.153 9.19965 182.36 9.0962 182.567C8.99275 182.774 8.88929 182.93 8.78584 183.137C8.57894 183.499 8.32032 183.914 8.11342 184.328C7.69962 185.157 7.18236 186.037 6.71684 186.969C5.26853 189.87 3.82023 193.184 2.63055 197.069C1.44087 200.901 0.406369 205.304 0.096018 210.276C-0.214333 215.248 0.199467 220.789 1.75122 226.228C2.5271 228.921 3.5616 231.614 4.90646 234.1C6.19958 236.586 7.75134 238.813 9.35482 240.729C10.1824 241.713 11.01 242.594 11.8894 243.474C12.3032 243.889 12.7687 244.303 13.1825 244.717C13.648 245.08 14.0618 245.494 14.5273 245.857C16.3377 247.359 18.1481 248.654 20.0102 249.793C21.8723 250.932 23.7344 251.968 25.7517 252.849C27.6138 253.781 29.6828 254.558 31.5449 255.283C32.5277 255.594 33.5105 255.904 34.4932 256.215C34.9588 256.371 35.4243 256.526 35.8898 256.63C36.3554 256.733 36.8726 256.889 37.3381 256.992C38.2692 257.199 39.2002 257.458 40.0796 257.665C40.9589 257.873 41.8899 258.028 42.7175 258.132C43.5452 258.287 44.3727 258.391 45.0969 258.546C45.8728 258.649 46.6487 258.701 47.3211 258.805C48.0452 258.857 48.6659 258.908 49.2866 258.96C49.597 258.96 49.8556 259.012 50.166 259.012C50.4246 259.012 50.7349 259.012 50.9936 259.012C50.9936 259.012 50.8901 258.96 50.7349 258.908C50.5798 258.857 50.3211 258.701 50.0625 258.546C49.5453 258.235 48.8211 257.873 48.097 257.51C47.7349 257.303 47.3728 257.147 47.0625 256.94C46.7521 256.785 46.4418 256.578 46.1831 256.422C45.6659 256.112 45.3555 255.904 45.3555 255.904C45.3555 255.904 46.2349 256.008 47.528 256.215C48.9246 256.319 50.7349 256.526 52.5453 256.63C54.4074 256.733 56.2695 256.785 57.7178 256.837C59.1661 256.837 60.0972 256.889 60.0972 256.889C59.2696 256.785 56.4764 257.976 53.735 258.908C50.9936 259.892 48.2004 260.825 47.7866 260.359C51.6143 261.084 57.6144 262.016 65.787 262.534C66.8215 262.586 67.856 262.637 68.9422 262.741C70.0284 262.793 71.1664 262.845 72.3043 262.845C74.5802 262.948 77.0113 262.948 79.5459 263C84.6149 263 90.0978 262.896 95.891 262.637C98.7876 262.534 101.788 262.379 104.788 262.223C106.133 262.171 107.529 262.068 108.926 262.016C109.805 261.964 110.736 261.912 111.667 261.861C115.34 261.653 119.116 261.498 122.943 261.291C130.65 260.928 138.719 260.566 146.789 260.255C162.875 259.634 178.962 259.116 192.203 258.908C205.445 258.649 215.893 258.649 220.704 258.857C228.514 259.737 222.152 261.653 222.049 261.912C231.514 261.135 226.135 259.996 234.204 260.048C236.428 260.359 233.739 261.446 232.549 261.705C236.066 261.446 239.377 262.016 239.635 261.239C235.187 260.618 237.049 258.442 235.187 257.044L245.584 257.148L245.118 258.546C247.446 258.546 250.963 254.713 261.308 255.387C278.791 255.801 298.136 254.92 316.447 253.781C316.344 254.195 315.309 254.61 313.861 255.024C312.413 255.438 310.499 255.853 308.585 256.163C309.826 256.112 311.326 255.956 312.878 255.853C314.43 255.749 315.93 255.749 317.068 255.956C314.792 255.387 316.706 255.024 318.723 254.713C320.74 254.454 322.913 254.144 321.154 254.04C327.723 251.709 335.43 250.829 342.982 249.741C344.896 249.482 346.758 249.172 348.62 248.913C350.482 248.602 352.293 248.239 354.051 247.877C355.81 247.514 357.517 247.1 359.12 246.634C360.724 246.116 362.276 245.598 363.724 244.976C363.827 244.199 364.758 240.263 365.948 234.773C367.138 229.232 368.483 222.136 369.517 215.092C370.034 211.622 370.448 207.997 370.81 204.682C371.172 201.316 371.379 198.208 371.534 195.463C371.69 192.718 371.741 190.388 371.741 188.627C371.741 186.814 371.638 185.623 371.483 185.208C374.276 184.276 377.017 183.396 378 183.396C377.483 183.137 375.828 183.344 374.017 183.862C372.155 184.38 370.138 185.157 368.689 185.778L368.741 187.798C365.431 189.145 364.914 189.041 364.448 188.782C364.189 188.678 363.982 188.523 363.362 188.575C362.741 188.575 361.81 188.73 360.103 189.196C359.741 188.471 361.086 187.643 363.155 186.762C364.189 186.296 365.379 185.778 366.672 185.312C367.293 185.053 367.965 184.846 368.638 184.587C369.31 184.328 369.983 184.173 370.603 183.862C370.034 184.069 369.414 184.173 368.793 184.328C368.172 184.483 367.603 184.587 366.983 184.69C365.793 184.949 364.655 185.157 363.62 185.467C362.586 185.778 361.655 185.985 360.879 186.348C360.103 186.71 359.482 187.125 359.069 187.643C356.689 187.953 356.689 187.435 356.586 186.969C356.534 186.71 356.431 186.503 356.017 186.4C355.603 186.244 354.827 186.296 353.379 186.4C351.413 187.073 349.189 188.057 346.861 188.937C344.482 189.714 341.948 190.336 339.465 190.336L339.516 190.025C336.516 190.077 333.93 190.439 331.551 190.905C329.12 191.372 326.896 191.89 324.723 192.511C324.154 192.666 323.637 192.822 323.068 192.925C322.499 193.029 321.93 193.184 321.413 193.288C320.275 193.547 319.137 193.754 317.947 193.909C316.757 194.065 315.568 194.22 314.275 194.324C312.981 194.376 311.637 194.376 310.188 194.272L311.378 193.65C309.361 193.34 306.412 193.702 302.999 193.909C301.292 194.065 299.481 194.168 297.671 194.272C295.809 194.324 293.895 194.272 292.033 194.117C294.154 194.324 296.067 195.411 291.619 195.774C290.533 195.67 289.498 195.67 288.516 195.619C287.533 195.567 286.55 195.567 285.619 195.567C283.757 195.567 281.998 195.619 280.343 195.619C276.981 195.67 273.877 195.67 270.67 195.101L264.515 196.706C262.601 196.706 260.274 196.758 257.687 196.758C255.049 196.81 252.101 196.81 248.894 196.862C242.428 196.965 234.773 197.069 226.445 197.276C209.738 197.638 190.134 198.26 170.53 199.037C150.927 199.814 131.323 200.798 114.616 201.73C112.547 201.834 110.478 201.937 108.512 202.093C107.529 202.144 106.546 202.196 105.564 202.248C105.46 202.248 105.357 202.3 105.253 202.3C104.839 202.352 104.426 202.455 104.012 202.507C103.236 202.61 102.564 202.714 102.046 202.714L102.357 202.455C101.684 202.559 100.857 202.61 99.9773 202.61C99.098 202.559 98.1152 202.559 97.1324 202.196C96.6669 202.041 96.2014 201.73 95.891 201.316C95.5807 200.901 95.4772 200.383 95.4772 199.865C95.5289 198.83 96.2014 197.897 96.9772 197.172C97.9083 196.344 98.9428 195.515 100.029 194.738C100.288 194.531 100.598 194.376 100.908 194.168C101.219 194.013 101.477 193.806 101.788 193.599C102.098 193.443 102.408 193.236 102.719 193.081C102.874 192.977 102.977 192.925 103.339 192.77L103.443 192.718C103.495 192.718 103.495 192.666 103.65 192.615L104.322 192.304C104.788 192.097 105.253 191.941 105.719 191.734C106.65 191.372 107.581 190.957 108.46 190.595C109.391 190.232 110.322 189.921 111.253 189.559C113.115 188.886 114.926 188.212 116.736 187.539C118.598 186.917 120.409 186.348 122.167 185.778C123.047 185.467 123.926 185.208 124.805 184.898C125.685 184.639 126.564 184.38 127.443 184.121C129.202 183.603 130.909 183.085 132.616 182.619C134.323 182.153 135.978 181.738 137.633 181.324C139.288 180.91 140.84 180.443 142.392 180.081C143.944 179.718 145.495 179.356 146.944 179.045C150.461 179.097 154.547 178.89 158.685 178.372C160.754 178.165 162.823 178.009 164.841 177.802C165.823 177.699 166.858 177.647 167.789 177.543C168.772 177.491 169.703 177.44 170.634 177.44C166.548 177.181 167.789 175.989 170.996 175.73C173.789 175.471 175.858 175.316 177.462 175.161C179.065 175.057 180.151 174.954 180.927 174.85C182.479 174.643 182.634 174.487 182.841 174.28C183.255 173.918 183.617 173.296 194.996 172.623C196.652 172.519 198.617 172.416 200.841 172.312C203.117 172.26 205.6 172.209 208.393 172.157C213.98 172.105 220.6 172.157 228.049 172.209C235.497 172.26 243.825 172.312 252.722 172.001C261.618 171.691 271.188 171.121 280.912 169.774C285.774 169.101 290.688 168.272 295.602 167.185C298.033 166.719 300.464 166.045 302.895 165.424C305.274 164.854 307.757 164.129 310.188 163.352C315.102 161.798 320.068 159.882 324.982 157.551C329.844 155.221 334.654 152.372 339.154 149.109C339.775 148.643 340.396 148.177 341.017 147.711C341.637 147.245 342.206 146.727 342.827 146.261C344.017 145.277 345.155 144.241 346.241 143.257C348.413 141.185 350.431 139.062 352.241 136.886C355.862 132.536 358.758 128.082 360.931 123.783C363.103 119.484 364.655 115.341 365.689 111.56C366.724 107.831 367.293 104.465 367.603 101.668C367.603 100.891 367.552 100.166 367.552 99.3889C367.552 99.0264 367.552 98.6121 367.5 98.2495C367.448 97.887 367.448 97.4726 367.396 97.1101C367.241 95.5563 367.138 94.0026 366.931 92.4488C366.724 90.895 366.465 89.2895 366.207 87.7357C365.845 86.182 365.483 84.5764 365.12 83.0227C363.465 76.7558 360.879 70.5408 357.465 64.7918C356.638 63.3417 355.706 61.9433 354.775 60.5449C354.31 59.8716 353.844 59.1465 353.327 58.4732C352.81 57.7999 352.293 57.1266 351.827 56.5051C351.31 55.8318 350.793 55.2103 350.275 54.537C349.758 53.9155 349.189 53.294 348.672 52.6725C348.206 52.1546 347.689 51.6367 347.224 51.067C346.758 50.549 346.292 50.0829 345.827 49.6168C345.361 49.1506 344.896 48.6845 344.43 48.2184C343.965 47.7523 343.499 47.2861 343.034 46.8718C342.103 46.0431 341.12 45.2145 340.189 44.3858C339.258 43.6089 338.275 42.8838 337.344 42.2105C336.413 41.4854 335.43 40.8639 334.499 40.2424L336.258 40.9157C335.792 40.5532 335.223 40.1388 334.551 39.6727C334.241 39.4655 333.93 39.2066 333.568 38.9476C333.206 38.6887 332.844 38.4297 332.482 38.1707C331.706 37.6528 330.878 37.0831 329.999 36.4616C329.12 35.8919 328.189 35.2704 327.154 34.5971C326.637 34.2345 326.171 33.9756 325.654 33.6648C325.137 33.3541 324.671 33.0433 324.102 32.7326C323.068 32.1111 321.982 31.4378 320.844 30.7645C319.706 30.0912 318.516 29.4697 317.275 28.7964C316.654 28.4338 316.033 28.1231 315.413 27.7605C314.792 27.398 314.119 27.0354 313.447 26.7247C310.809 25.4299 308.016 23.9797 305.068 22.6849C304.343 22.3742 303.619 22.0116 302.843 21.7009C302.481 21.5455 302.119 21.3901 301.705 21.1829C301.343 21.0276 300.93 20.8722 300.567 20.7168C299.067 20.0953 297.516 19.4738 295.912 18.8523C289.653 16.4181 283.033 14.191 276.36 12.3265C269.739 10.5138 263.118 8.96002 256.756 7.66522C250.446 6.474 244.394 5.48995 238.963 4.76487C236.221 4.40232 233.635 4.09157 231.256 3.83261C228.876 3.57365 226.6 3.36648 224.583 3.15931C220.549 2.84856 217.29 2.64139 215.066 2.5896L217.393 3.10752C215.48 3.10752 213.824 3.10752 212.376 3.05573C210.928 3.00394 209.738 3.00394 208.652 2.90035C206.531 2.74498 204.979 2.48602 203.531 2.12347C202.083 1.76093 200.738 1.39839 199.031 0.98405C197.324 0.569713 195.152 0.25896 192.152 0C192.927 1.2948 189.979 2.17527 186.255 2.79677C184.393 3.05573 182.324 3.36648 180.41 3.57365C178.496 3.78082 176.737 3.8844 175.496 3.93619L175.703 3.36648C171.927 3.52186 165.823 4.40232 159.099 5.231C155.737 5.69712 152.271 6.21505 148.806 6.68117C147.099 6.94013 145.392 7.09551 143.737 7.30268C142.082 7.50985 140.478 7.71701 138.926 7.87239L139.288 6.47401C136.754 7.04372 133.599 7.50985 130.288 7.97598C126.926 8.4939 123.357 8.96002 119.84 9.32257C118.081 9.52974 116.374 9.78869 114.667 9.99586C113.012 10.203 111.409 10.4102 109.909 10.6174C108.409 10.8245 107.012 10.9799 105.771 11.1871C104.529 11.3425 103.443 11.5496 102.512 11.705C100.391 11.964 98.1669 12.2229 95.7876 12.4819C94.5979 12.6373 93.4082 12.7408 92.1151 12.8962C90.8737 13.0516 89.6323 13.207 88.3391 13.4141C85.7529 13.7767 83.0632 14.1392 80.3217 14.5018C79.6493 14.6054 78.9252 14.7089 78.2527 14.8125C77.5803 14.9161 76.8561 15.0197 76.1837 15.1751C74.7871 15.434 73.3906 15.6412 71.9423 15.9002C70.5457 16.1591 69.0974 16.4181 67.6491 16.677C66.9249 16.8324 66.2008 16.936 65.4766 17.0914C64.7525 17.2467 64.0283 17.4021 63.3042 17.5575C60.4076 18.179 57.5109 18.8523 54.6661 19.5774L52.4936 20.0953C51.7694 20.3025 51.0453 20.5096 50.3729 20.7168C48.9763 21.1311 47.528 21.5455 46.1314 22.0116C44.7348 22.426 43.3382 22.8921 41.9934 23.3582C40.5968 23.8243 39.252 24.2905 37.9588 24.8084C37.9588 24.8084 34.1312 24.912 30.3552 25.0674C28.4414 25.1191 26.5276 25.1709 25.0793 25.2745C23.631 25.3781 22.6999 25.4299 22.6999 25.4299L20.7861 26.4657C20.7861 26.4657 20.2688 29.7286 20.1137 34.6489C19.9068 39.5691 20.0619 46.0949 21.1999 52.6207C22.3378 59.1465 24.5103 65.6723 28.1828 70.6443C31.8553 75.6164 36.9243 79.0347 44.0624 79.3972V80.8474L49.0797 79.1383C52.235 78.5685 54.3557 77.6363 55.7523 77.1183C57.1489 76.6004 57.7178 76.3933 57.7178 77.1183C57.7178 77.1183 57.2006 77.2737 56.4247 77.4291C56.0109 77.5327 55.5454 77.6363 55.0799 77.7917C54.6143 77.947 54.0454 78.0506 53.5281 78.206C51.4591 78.7757 49.3384 79.3972 49.3384 79.3972C55.5454 77.947 51.5108 79.9151 49.3901 81.3653C51.9763 80.7438 54.4592 80.1223 56.5799 79.9669C57.6661 79.1382 55.5454 79.6562 54.5109 79.6562C57.6661 78.2578 61.9076 75.7718 66.0973 75.3056C72.4595 73.8555 67.0284 77.3773 74.4251 75.72C93.9255 71.5248 113.426 68.987 132.978 67.4333C152.53 65.8277 172.186 65.5169 192.203 65.9313C193.083 66.501 191.996 66.501 190.858 66.7081C192.358 66.6564 193.858 66.6564 195.307 66.6046C196.755 66.6046 198.203 66.6564 199.652 66.7081C202.497 66.8117 205.341 66.8635 208.135 67.0189C213.669 67.3814 219.152 67.6404 224.531 67.8994C227.428 68.8316 228.152 69.7639 228.928 70.4372C228.101 69.8157 242.894 71.0587 256.394 74.3216C263.17 75.9271 269.584 77.9988 274.188 79.8115C274.757 80.0187 275.326 80.2777 275.843 80.4848C276.36 80.692 276.877 80.8992 277.343 81.1063C278.274 81.5207 279.05 81.8832 279.722 82.194C281.533 82.8673 282.257 83.3334 282.36 83.3852Z" fill="white"/>
</svg>
