<svg width="145" height="36" viewBox="0 0 145 36" fill="none" xmlns="http://www.w3.org/2000/svg">
<path d="M0.456 35V0.631999H10.968C16.216 0.631999 20.424 2.216 23.592 5.384C26.792 8.552 28.392 12.696 28.392 17.816C28.392 22.968 26.792 27.128 23.592 30.296C20.424 33.432 16.216 35 10.968 35H0.456ZM4.872 4.856V30.776H10.968C14.968 30.776 18.12 29.64 20.424 27.368C22.728 25.064 23.88 21.88 23.88 17.816C23.88 13.784 22.728 10.616 20.424 8.312C18.12 6.008 14.968 4.856 10.968 4.856H4.872ZM30.8284 23.24C30.8284 19.624 31.9644 16.632 34.2364 14.264C36.5404 11.896 39.4364 10.712 42.9244 10.712C46.4124 10.712 49.2924 11.896 51.5644 14.264C53.8684 16.632 55.0204 19.624 55.0204 23.24C55.0204 26.888 53.8684 29.88 51.5644 32.216C49.2924 34.584 46.4124 35.768 42.9244 35.768C39.4364 35.768 36.5404 34.584 34.2364 32.216C31.9644 29.848 30.8284 26.856 30.8284 23.24ZM35.2444 23.24C35.2444 25.768 35.9804 27.816 37.4524 29.384C38.9244 30.952 40.7484 31.736 42.9244 31.736C45.1004 31.736 46.9244 30.952 48.3964 29.384C49.8684 27.816 50.6044 25.768 50.6044 23.24C50.6044 20.744 49.8684 18.712 48.3964 17.144C46.8924 15.544 45.0684 14.744 42.9244 14.744C40.7804 14.744 38.9564 15.544 37.4524 17.144C35.9804 18.712 35.2444 20.744 35.2444 23.24ZM57.6878 23.24C57.6878 19.624 58.8238 16.632 61.0958 14.264C63.3998 11.896 66.2958 10.712 69.7838 10.712C73.2718 10.712 76.1518 11.896 78.4238 14.264C80.7278 16.632 81.8798 19.624 81.8798 23.24C81.8798 26.888 80.7278 29.88 78.4238 32.216C76.1518 34.584 73.2718 35.768 69.7838 35.768C66.2958 35.768 63.3998 34.584 61.0958 32.216C58.8238 29.848 57.6878 26.856 57.6878 23.24ZM62.1038 23.24C62.1038 25.768 62.8398 27.816 64.3118 29.384C65.7838 30.952 67.6078 31.736 69.7838 31.736C71.9598 31.736 73.7838 30.952 75.2558 29.384C76.7278 27.816 77.4638 25.768 77.4638 23.24C77.4638 20.744 76.7278 18.712 75.2558 17.144C73.7518 15.544 71.9278 14.744 69.7838 14.744C67.6398 14.744 65.8158 15.544 64.3118 17.144C62.8398 18.712 62.1038 20.744 62.1038 23.24ZM96.4511 31.736C98.6271 31.736 100.403 30.952 101.779 29.384C103.219 27.816 103.939 25.768 103.939 23.24C103.939 20.776 103.219 18.744 101.779 17.144C100.371 15.544 98.5951 14.744 96.4511 14.744C94.3391 14.744 92.5631 15.544 91.1231 17.144C89.6831 18.744 88.9631 20.776 88.9631 23.24C88.9631 25.736 89.6831 27.768 91.1231 29.336C92.5631 30.936 94.3391 31.736 96.4511 31.736ZM95.7311 35.768C92.6591 35.768 90.0191 34.552 87.8111 32.12C85.6351 29.656 84.5471 26.696 84.5471 23.24C84.5471 19.784 85.6351 16.824 87.8111 14.36C90.0191 11.928 92.6591 10.712 95.7311 10.712C97.4591 10.712 99.0271 11.08 100.435 11.816C101.875 12.552 102.979 13.528 103.747 14.744H103.939L103.747 11.48V0.631999H108.163V35H103.939V31.736H103.747C102.979 32.952 101.875 33.928 100.435 34.664C99.0271 35.4 97.4591 35.768 95.7311 35.768ZM117.963 0.631999V35H113.547V0.631999H117.963ZM133.67 35.768C130.214 35.768 127.366 34.584 125.126 32.216C122.886 29.848 121.766 26.856 121.766 23.24C121.766 19.656 122.854 16.68 125.03 14.312C127.206 11.912 129.99 10.712 133.382 10.712C136.87 10.712 139.638 11.848 141.686 14.12C143.766 16.36 144.806 19.512 144.806 23.576L144.758 24.056H126.278C126.342 26.36 127.11 28.216 128.582 29.624C130.054 31.032 131.814 31.736 133.862 31.736C136.678 31.736 138.886 30.328 140.486 27.512L144.422 29.432C143.366 31.416 141.894 32.968 140.006 34.088C138.15 35.208 136.038 35.768 133.67 35.768ZM126.614 20.408H140.102C139.974 18.776 139.302 17.432 138.086 16.376C136.902 15.288 135.302 14.744 133.286 14.744C131.622 14.744 130.182 15.256 128.966 16.28C127.782 17.304 126.998 18.68 126.614 20.408Z" fill="#151515"/>
</svg>
