<svg width="34" height="68" viewBox="0 0 34 68" fill="none" xmlns="http://www.w3.org/2000/svg">
<path d="M24.9204 0V35.84H33.0804V45.92H24.9204V48.896C24.9204 54.976 23.2884 59.552 20.0244 62.624C16.6964 65.696 12.5044 67.232 7.44843 67.232C6.04043 67.232 4.76043 67.136 3.60843 66.944C2.45643 66.816 1.40043 66.592 0.44043 66.272V56.192C1.27243 56.384 2.20043 56.544 3.22443 56.672C4.18443 56.8 5.11243 56.864 6.00843 56.864C8.37643 56.864 10.2964 56.16 11.7684 54.752C13.1764 53.408 13.8804 51.136 13.8804 47.936V45.92H1.40043V35.84H13.8804V0H24.9204Z" fill="white"/>
</svg>
