<svg width="51" height="42" viewBox="0 0 51 42" fill="none" xmlns="http://www.w3.org/2000/svg">
<path d="M10.78 1.82024C10.78 2.18024 10.6533 2.48691 10.4 2.74024C10.1467 2.99358 9.84 3.12024 9.48 3.12024C9.12 3.12024 8.81333 2.99358 8.56 2.74024C8.30667 2.48691 8.18 2.18024 8.18 1.82024C8.18 1.46024 8.30667 1.15358 8.56 0.900243C8.81333 0.64691 9.12 0.520243 9.48 0.520243C9.84 0.520243 10.1467 0.64691 10.4 0.900243C10.6533 1.15358 10.78 1.46024 10.78 1.82024ZM4.16 6.88024V15.0002H2.32V6.88024H0.48V5.20024H2.32V3.78024C2.32 3.30024 2.4 2.86024 2.56 2.46024C2.73333 2.06024 2.96667 1.72024 3.26 1.44024C3.55333 1.14691 3.9 0.920243 4.3 0.760244C4.71333 0.600244 5.16 0.520243 5.64 0.520243C6.30667 0.520243 6.85333 0.633577 7.28 0.860244L6.78 2.48024C6.46 2.32024 6.1 2.24024 5.7 2.24024C5.24667 2.24024 4.87333 2.40024 4.58 2.72024C4.3 3.02691 4.16 3.44024 4.16 3.96024V5.20024H10.4V15.0002H8.56V6.88024H4.16ZM12.7997 5.20024H14.5597V6.56024H14.6397C14.9197 6.08024 15.3464 5.68024 15.9197 5.36024C16.5064 5.04024 17.113 4.88024 17.7397 4.88024C18.9397 4.88024 19.8597 5.22691 20.4997 5.92024C21.153 6.60024 21.4797 7.57358 21.4797 8.84024V15.0002H19.6397V8.96024C19.5997 7.36024 18.793 6.56024 17.2197 6.56024C16.4864 6.56024 15.873 6.86024 15.3797 7.46024C14.8864 8.04691 14.6397 8.75358 14.6397 9.58024V15.0002H12.7997V5.20024ZM28.0395 15.3202C26.5995 15.3202 25.4129 14.8269 24.4795 13.8402C23.5462 12.8536 23.0795 11.6069 23.0795 10.1002C23.0795 8.60691 23.5329 7.36691 24.4395 6.38024C25.3462 5.38024 26.5062 4.88024 27.9195 4.88024C29.3729 4.88024 30.5262 5.35358 31.3795 6.30024C32.2462 7.23358 32.6795 8.54691 32.6795 10.2402L32.6595 10.4402H24.9595C24.9862 11.4002 25.3062 12.1736 25.9195 12.7602C26.5329 13.3469 27.2662 13.6402 28.1195 13.6402C29.2929 13.6402 30.2129 13.0536 30.8795 11.8802L32.5195 12.6802C32.0795 13.5069 31.4662 14.1536 30.6795 14.6202C29.9062 15.0869 29.0262 15.3202 28.0395 15.3202ZM25.0995 8.92024H30.7195C30.6662 8.24024 30.3862 7.68024 29.8795 7.24024C29.3862 6.78691 28.7195 6.56024 27.8795 6.56024C27.1862 6.56024 26.5862 6.77358 26.0795 7.20024C25.5862 7.62691 25.2595 8.20024 25.0995 8.92024ZM6.64 24.9402L4.3 31.4002H9.06L6.72 24.9402H6.64ZM2.28 37.0002H0.24L5.64 22.6802H7.72L13.12 37.0002H11.08L9.7 33.1202H3.68L2.28 37.0002ZM19.377 35.6402C20.257 35.6402 20.997 35.3069 21.597 34.6402C22.197 33.9869 22.497 33.1402 22.497 32.1002C22.497 31.0736 22.197 30.2269 21.597 29.5602C20.997 28.8936 20.257 28.5602 19.377 28.5602C18.4837 28.5602 17.737 28.8936 17.137 29.5602C16.5504 30.2269 16.257 31.0736 16.257 32.1002C16.257 33.1402 16.5504 33.9936 17.137 34.6602C17.737 35.3136 18.4837 35.6402 19.377 35.6402ZM19.677 37.3202C18.957 37.3202 18.297 37.1669 17.697 36.8602C17.1104 36.5536 16.657 36.1469 16.337 35.6402H16.257L16.337 37.0002V41.3202H14.497V27.2002H16.257V28.5602H16.337C16.657 28.0536 17.1104 27.6469 17.697 27.3402C18.297 27.0336 18.957 26.8802 19.677 26.8802C20.9704 26.8802 22.0637 27.3869 22.957 28.4002C23.877 29.4269 24.337 30.6602 24.337 32.1002C24.337 33.5536 23.877 34.7869 22.957 35.8002C22.0637 36.8136 20.9704 37.3202 19.677 37.3202ZM30.627 35.6402C31.507 35.6402 32.247 35.3069 32.847 34.6402C33.447 33.9869 33.747 33.1402 33.747 32.1002C33.747 31.0736 33.447 30.2269 32.847 29.5602C32.247 28.8936 31.507 28.5602 30.627 28.5602C29.7337 28.5602 28.987 28.8936 28.387 29.5602C27.8004 30.2269 27.507 31.0736 27.507 32.1002C27.507 33.1402 27.8004 33.9936 28.387 34.6602C28.987 35.3136 29.7337 35.6402 30.627 35.6402ZM30.927 37.3202C30.207 37.3202 29.547 37.1669 28.947 36.8602C28.3604 36.5536 27.907 36.1469 27.587 35.6402H27.507L27.587 37.0002V41.3202H25.747V27.2002H27.507V28.5602H27.587C27.907 28.0536 28.3604 27.6469 28.947 27.3402C29.547 27.0336 30.207 26.8802 30.927 26.8802C32.2204 26.8802 33.3137 27.3869 34.207 28.4002C35.127 29.4269 35.587 30.6602 35.587 32.1002C35.587 33.5536 35.127 34.7869 34.207 35.8002C33.3137 36.8136 32.2204 37.3202 30.927 37.3202ZM38.917 22.6802V37.0002H37.077V22.6802H38.917ZM45.4614 37.3202C44.0214 37.3202 42.8347 36.8269 41.9014 35.8402C40.9681 34.8536 40.5014 33.6069 40.5014 32.1002C40.5014 30.6069 40.9547 29.3669 41.8614 28.3802C42.7681 27.3802 43.9281 26.8802 45.3414 26.8802C46.7947 26.8802 47.9481 27.3536 48.8014 28.3002C49.6681 29.2336 50.1014 30.5469 50.1014 32.2402L50.0814 32.4402H42.3814C42.4081 33.4002 42.7281 34.1736 43.3414 34.7602C43.9547 35.3469 44.6881 35.6402 45.5414 35.6402C46.7147 35.6402 47.6347 35.0536 48.3014 33.8802L49.9414 34.6802C49.5014 35.5069 48.8881 36.1536 48.1014 36.6202C47.3281 37.0869 46.4481 37.3202 45.4614 37.3202ZM42.5214 30.9202H48.1414C48.0881 30.2402 47.8081 29.6802 47.3014 29.2402C46.8081 28.7869 46.1414 28.5602 45.3014 28.5602C44.6081 28.5602 44.0081 28.7736 43.5014 29.2002C43.0081 29.6269 42.6814 30.2002 42.5214 30.9202Z" fill="white"/>
</svg>
