<svg width="73" height="12" viewBox="0 0 73 12" fill="none" xmlns="http://www.w3.org/2000/svg">
<path d="M0.65918 3.13745H3.62012V4.24683H3.66699C3.89616 3.86141 4.20085 3.55412 4.58105 3.32495C4.96647 3.09578 5.4248 2.9812 5.95605 2.9812C6.4821 2.9812 6.90658 3.09578 7.22949 3.32495C7.55762 3.55412 7.83626 3.88224 8.06543 4.30933H8.14355C8.45605 3.87183 8.7946 3.5411 9.15918 3.31714C9.52376 3.09318 9.9821 2.9812 10.5342 2.9812C11.1227 2.9812 11.6227 3.1036 12.0342 3.34839C12.4456 3.58797 12.7555 3.93172 12.9639 4.37964C13.1774 4.82756 13.2842 5.35881 13.2842 5.97339V11.3328H10.2607V6.26245C10.2607 5.96037 10.1774 5.73901 10.0107 5.59839C9.84928 5.45256 9.63835 5.37964 9.37793 5.37964C9.1123 5.37964 8.89616 5.45256 8.72949 5.59839C8.56283 5.73901 8.47949 5.96037 8.47949 6.26245V11.3328H5.45605V6.26245C5.45605 5.96037 5.37533 5.73901 5.21387 5.59839C5.05241 5.45256 4.84147 5.37964 4.58105 5.37964C4.31022 5.37964 4.09147 5.45256 3.9248 5.59839C3.76335 5.73901 3.68262 5.96037 3.68262 6.26245V11.3328H0.65918V3.13745ZM23.2529 9.17651V10.9812C22.4717 11.3354 21.7998 11.5125 21.2373 11.5125C20.5133 11.5125 20.0212 11.213 19.7607 10.614C19.1566 10.9578 18.6462 11.1947 18.2295 11.325C17.818 11.45 17.4196 11.5125 17.0342 11.5125C16.5238 11.5125 16.0732 11.4265 15.6826 11.2546C15.2972 11.0776 14.9951 10.8197 14.7764 10.4812C14.5628 10.1427 14.4561 9.73901 14.4561 9.27026C14.4561 8.62443 14.6514 8.11141 15.042 7.7312C15.4326 7.35099 15.9222 7.06453 16.5107 6.87183C17.1045 6.67912 17.9326 6.46818 18.9951 6.23901L19.5576 6.12183V6.02026C19.5576 5.37964 19.1331 5.05933 18.2842 5.05933C17.5498 5.05933 16.4873 5.30412 15.0967 5.7937V3.52808C16.4561 3.16349 17.6175 2.9812 18.5811 2.9812C19.7477 2.9812 20.6357 3.26506 21.2451 3.83276C21.8597 4.40047 22.167 5.31193 22.167 6.56714V8.2937C22.167 8.5437 22.1722 8.74162 22.1826 8.88745C22.1982 9.02808 22.2347 9.14787 22.292 9.24683C22.3545 9.34578 22.4508 9.39526 22.5811 9.39526C22.7425 9.39526 22.9508 9.32235 23.2061 9.17651H23.2529ZM17.4014 8.93433C17.4014 9.16349 17.4613 9.33537 17.5811 9.44995C17.7008 9.56453 17.8649 9.62183 18.0732 9.62183C18.266 9.62183 18.4925 9.57756 18.7529 9.48901C19.0133 9.39526 19.2816 9.27026 19.5576 9.11401V7.58276C18.9482 7.74943 18.5133 7.87964 18.2529 7.97339C17.9925 8.06193 17.7842 8.18172 17.6279 8.33276C17.4769 8.48381 17.4014 8.68433 17.4014 8.93433ZM24.4092 11.3328V3.13745H27.4326V11.3328H24.4092ZM24.3936 2.2937V0.293701H27.4482V2.2937H24.3936ZM32.2764 0.293701V8.4812C32.2764 8.86662 32.3232 9.13745 32.417 9.2937C32.516 9.44995 32.6852 9.52808 32.9248 9.52808C33.0811 9.52808 33.3441 9.49943 33.7139 9.44214V11.3328C32.9014 11.4369 32.3154 11.489 31.9561 11.489C31.3623 11.489 30.8649 11.3822 30.4639 11.1687C30.0628 10.95 29.766 10.6557 29.5732 10.2859C29.3805 9.9161 29.2842 9.50203 29.2842 9.0437V0.293701H32.2764ZM37.8389 11.5125C36.8649 11.5125 35.7347 11.3614 34.4482 11.0593V8.75464C34.943 8.9161 35.516 9.06193 36.167 9.19214C36.8232 9.31714 37.3285 9.37964 37.6826 9.37964C37.9378 9.37964 38.1488 9.34058 38.3154 9.26245C38.4873 9.18433 38.5732 9.06453 38.5732 8.90308C38.5732 8.76766 38.5133 8.65308 38.3936 8.55933C38.279 8.46558 38.1305 8.39006 37.9482 8.33276C37.7712 8.27026 37.5107 8.19474 37.167 8.1062L36.6279 7.95776C36.1904 7.82756 35.8102 7.67651 35.4873 7.50464C35.1644 7.33276 34.8962 7.09318 34.6826 6.78589C34.4743 6.4786 34.3701 6.09058 34.3701 5.62183C34.3701 4.72078 34.6592 4.05672 35.2373 3.62964C35.8206 3.19735 36.6357 2.9812 37.6826 2.9812C38.167 2.9812 38.7035 3.02547 39.292 3.11401C39.8857 3.20256 40.4795 3.33537 41.0732 3.51245V5.77808C40.4639 5.55412 39.8493 5.36401 39.2295 5.20776C38.6097 5.04631 38.1357 4.96558 37.8076 4.96558C37.5941 4.96558 37.4222 5.00203 37.292 5.07495C37.167 5.14266 37.1045 5.23901 37.1045 5.36401C37.1045 5.53068 37.2087 5.66349 37.417 5.76245C37.6253 5.86141 37.9587 5.97339 38.417 6.09839C39.0316 6.27547 39.5394 6.45256 39.9404 6.62964C40.3467 6.80672 40.7008 7.08016 41.0029 7.44995C41.305 7.81453 41.4561 8.2937 41.4561 8.88745C41.4561 9.39266 41.3311 9.84318 41.0811 10.239C40.8363 10.6296 40.443 10.9395 39.9014 11.1687C39.3649 11.3979 38.6774 11.5125 37.8389 11.5125ZM45.6982 0.293701V8.4812C45.6982 8.86662 45.7451 9.13745 45.8389 9.2937C45.9378 9.44995 46.1071 9.52808 46.3467 9.52808C46.5029 9.52808 46.766 9.49943 47.1357 9.44214V11.3328C46.3232 11.4369 45.7373 11.489 45.3779 11.489C44.7842 11.489 44.2868 11.3822 43.8857 11.1687C43.4847 10.95 43.1878 10.6557 42.9951 10.2859C42.8024 9.9161 42.7061 9.50203 42.7061 9.0437V0.293701H45.6982ZM51.9951 11.489C51.0785 11.489 50.279 11.3171 49.5967 10.9734C48.9196 10.6296 48.3962 10.1401 48.0264 9.50464C47.6566 8.86401 47.4717 8.11401 47.4717 7.25464C47.4717 6.39526 47.6566 5.64526 48.0264 5.00464C48.3962 4.35881 48.9222 3.86141 49.6045 3.51245C50.2868 3.15828 51.0837 2.9812 51.9951 2.9812C52.9118 2.9812 53.7113 3.15568 54.3936 3.50464C55.0758 3.8536 55.6019 4.35099 55.9717 4.99683C56.3415 5.63745 56.5264 6.39006 56.5264 7.25464C56.5264 8.11922 56.3415 8.87183 55.9717 9.51245C55.6019 10.1479 55.0758 10.6375 54.3936 10.9812C53.7113 11.3197 52.9118 11.489 51.9951 11.489ZM52.0342 9.27026C52.5342 9.27026 52.917 9.09318 53.1826 8.73901C53.4482 8.37964 53.5811 7.87443 53.5811 7.22339C53.5811 6.57756 53.4482 6.07756 53.1826 5.72339C52.917 5.36922 52.5342 5.19214 52.0342 5.19214C51.529 5.19214 51.141 5.36922 50.8701 5.72339C50.5993 6.07756 50.4639 6.57756 50.4639 7.22339C50.4639 7.87443 50.5967 8.37964 50.8623 8.73901C51.1331 9.09318 51.5238 9.27026 52.0342 9.27026ZM61.0342 4.80151V8.4812C61.0342 8.87183 61.0811 9.14526 61.1748 9.30151C61.2686 9.45256 61.4352 9.52808 61.6748 9.52808C61.8258 9.52808 62.0863 9.49943 62.4561 9.44214V11.3328C61.6436 11.4369 61.0576 11.489 60.6982 11.489C60.1045 11.489 59.6071 11.3822 59.2061 11.1687C58.805 10.95 58.5081 10.6557 58.3154 10.2859C58.1227 9.9161 58.0264 9.50203 58.0264 9.0437V4.80151H56.9482V3.13745H58.0264V1.57495L61.0342 0.934326V3.13745H62.5342V4.80151H61.0342ZM63.9717 0.293701H66.9326V4.37183H67.0264C67.2972 3.96558 67.6514 3.63224 68.0889 3.37183C68.5316 3.11141 69.0472 2.9812 69.6357 2.9812C70.1878 2.9812 70.68 3.10099 71.1123 3.34058C71.5498 3.58016 71.891 3.9187 72.1357 4.3562C72.3805 4.7937 72.5029 5.29631 72.5029 5.86401V11.3328H69.4951V6.62964C69.4951 6.22339 69.3779 5.91349 69.1436 5.69995C68.9092 5.48641 68.6097 5.37964 68.2451 5.37964C67.8805 5.37964 67.5811 5.48641 67.3467 5.69995C67.1123 5.91349 66.9951 6.22339 66.9951 6.62964V11.3328H63.9717V0.293701Z" fill="#151515"/>
</svg>
