<svg width="493" height="437" viewBox="0 0 493 437" fill="none" xmlns="http://www.w3.org/2000/svg">
<path opacity="0.3" d="M277.972 122.273C277.972 122.273 278.873 122.198 279.775 122.048C280.676 121.972 281.577 121.897 281.577 121.897C281.577 122.048 281.577 122.123 281.577 122.273C281.577 122.348 281.502 122.498 281.427 122.573C281.352 122.724 281.127 122.874 280.976 122.949C280.601 123.099 280.075 123.174 279.624 123.174C279.174 123.174 278.723 123.249 278.423 123.324C278.272 123.4 278.197 123.475 278.122 123.55C278.047 123.625 278.122 123.775 278.122 124C278.723 124.226 279.174 124.376 279.474 124.676C279.624 124.827 279.699 124.902 279.85 125.052C279.925 125.202 279.925 125.277 280 125.427C280.075 125.653 279.925 125.953 279.85 126.254C279.699 126.554 279.549 126.854 279.249 127.155C278.348 128.357 276.77 129.558 277.371 130.985C277.071 130.685 275.493 132.788 274.292 131.661C274.742 132.262 274.893 132.713 274.818 133.088C274.742 133.464 274.517 133.764 274.217 134.065C273.916 134.365 273.541 134.666 273.165 134.966C272.79 135.266 272.489 135.642 272.264 136.093C272.339 137.144 273.24 136.318 274.217 136.468C274.217 136.468 274.066 136.693 273.841 137.069C273.616 137.445 273.24 137.97 272.94 138.421C272.264 139.397 271.513 140.449 271.513 140.449C269.485 141.05 268.058 140.073 269.41 138.571C268.208 139.472 266.33 140.824 263.777 142.327C262.5 143.078 261.148 143.829 259.571 144.58C259.195 144.805 258.82 144.955 258.369 145.106L258.069 145.256L257.693 145.406C257.468 145.481 257.167 145.631 256.942 145.706C255.891 146.157 254.914 146.608 253.787 147.058C249.356 148.861 243.873 150.588 237.339 152.241C235.762 152.691 233.959 153.067 232.307 153.442C230.579 153.818 228.702 154.193 226.899 154.644C223.144 155.395 219.238 156.146 215.107 156.897C206.845 158.4 197.983 159.827 188.82 161.479C184.238 162.305 179.582 163.206 175.15 164.183C170.719 165.084 166.363 166.06 162.307 167.037C145.933 170.867 132.79 174.848 125.88 177.327C130.086 178.228 138.348 174.322 142.554 176.576C135.644 180.406 131.438 179.054 128.734 181.908C126.631 179.955 122.425 180.932 117.994 182.058C115.74 182.584 113.412 183.185 111.234 183.485C109.056 183.786 106.953 183.711 105.075 183.11L103.798 186.49C103.798 186.49 102.747 186.415 101.62 186.339C100.494 186.264 99.3669 186.264 99.3669 186.264C91.03 190.095 86.2232 192.573 83.3691 194.076C80.515 195.578 79.6888 196.028 78.8626 196.329C78.0365 196.629 77.3605 196.779 74.8069 197.831C74.1309 198.056 73.4549 198.357 72.4785 198.807C71.5772 199.258 70.5257 199.709 69.2489 200.309C67.9721 200.91 66.6202 201.511 64.9678 202.412C64.1416 202.863 63.2403 203.314 62.339 203.764C61.4378 204.29 60.3862 204.741 59.3347 205.417C58.133 206.168 57.0064 206.919 55.8798 207.67C55.3541 208.045 54.7532 208.421 54.2275 208.797C53.7017 209.172 53.176 209.548 52.6502 209.923C50.5472 211.5 48.6695 212.852 46.942 214.505C45.6652 215.556 44.3884 216.608 43.1867 217.659C42.0601 218.636 41.0837 219.612 40.1073 220.513C38.1545 222.391 36.427 224.194 34.7747 225.921C33.1974 227.724 31.6953 229.451 30.2682 231.103C29.5172 231.93 28.8412 232.756 28.0901 233.507C27.4142 234.333 26.8133 235.159 26.1373 235.985C24.8605 237.638 23.5086 239.14 22.0815 240.717C20.8047 242.294 19.5279 243.872 18.1009 245.449C18.8519 244.473 20.5794 242.895 21.6309 242.37C22.6824 241.844 22.9828 242.445 20.9549 245.674C20.2039 245.599 19.2275 246.651 17.9506 248.303C16.7489 249.955 15.6223 252.284 14.3455 254.612C11.867 259.269 9.98927 264.376 8.03648 265.653C6.60944 269.033 3.90558 276.243 3.00429 281.951C2.77897 283.378 2.62875 284.655 2.55364 285.782C2.47854 286.908 2.55365 287.809 2.70387 288.41C3.0043 289.612 3.60515 289.612 4.73176 287.809C4.43133 288.26 4.1309 289.011 3.83048 289.837C3.53005 290.739 3.22961 291.79 3.00429 292.917C2.70386 294.043 2.55365 295.245 2.32833 296.447C2.17812 297.649 1.95278 298.775 1.80257 299.827C1.65236 300.878 1.57725 301.779 1.42703 302.455C1.27682 303.131 1.20171 303.582 1.0515 303.732C0.751068 304.033 0.375536 302.981 0 299.902C0 300.803 0 301.704 0 302.531C0 303.432 0.0751119 304.258 0.0751119 305.159C0.0751119 306.887 0.300434 308.539 0.450648 310.191C0.826185 313.421 1.50214 316.35 2.55364 318.754C2.55364 318.754 2.25322 316.5 2.02789 314.247C1.95279 313.121 1.87768 311.994 1.80257 311.168C1.80257 310.342 1.72747 309.741 1.72747 309.741C2.62876 315.599 3.98068 320.706 5.40772 325.213C6.90987 329.794 8.56223 333.775 10.3648 337.531C10.8154 338.432 11.2661 339.333 11.7918 340.234C12.3176 341.136 12.8433 341.962 13.3691 342.788C14.4206 344.516 15.4721 346.093 16.5987 347.745C16.8991 348.121 17.1996 348.571 17.5 348.947L18.4764 350.073C19.1524 350.825 19.7532 351.576 20.4292 352.327C21.1051 353.078 21.7811 353.754 22.4571 354.505C23.133 355.256 23.8841 355.932 24.7103 356.608C24.7103 356.608 24.6352 356.458 24.485 356.307C24.3348 356.082 24.1845 355.782 23.9592 355.406C23.5837 354.655 23.0579 353.679 22.5322 352.702C21.4807 350.749 20.4292 348.797 20.4292 348.797C21.4807 350.224 22.6073 351.651 23.5837 353.003C24.1094 353.679 24.6352 354.355 25.0858 355.031C25.6116 355.706 26.1373 356.307 26.7382 356.908C27.7897 358.185 28.7661 359.387 29.7425 360.513C30.1931 361.114 30.6438 361.715 31.1695 362.241C31.6202 362.842 32.0708 363.367 32.5215 363.893C34.324 365.996 35.9013 368.024 37.103 369.827C37.4034 370.277 37.7039 370.728 38.0043 371.179C38.3047 371.629 38.53 372.08 38.8305 372.531C39.3562 373.432 39.8069 374.333 40.1073 375.159C40.1073 375.159 39.2811 374.483 38.0043 373.507C37.3283 372.981 36.7275 372.455 36.0515 371.855C35.3755 371.254 34.6245 370.653 33.8734 369.977C32.4463 368.7 30.9442 367.348 29.8927 366.372C29.3669 365.846 28.9163 365.47 28.6159 365.17C28.3154 364.87 28.1652 364.719 28.1652 364.719C30.2682 367.048 32.3712 369.151 34.3991 371.179C34.9249 371.704 35.4506 372.155 35.9013 372.681C36.427 373.131 36.8777 373.657 37.4785 374.183C38.6051 375.159 39.7318 376.136 40.7833 377.112C41.6094 377.788 42.3605 378.464 43.1116 379.065C43.9378 379.666 44.6888 380.267 45.4399 380.867C47.0172 381.994 48.4442 383.196 50.0215 384.247C51.5987 385.299 53.1008 386.275 54.6781 387.252L55.8047 388.003L57.0064 388.679C57.8326 389.129 58.5837 389.58 59.4099 390.031C62.6395 391.833 66.0944 393.335 69.8498 394.913L64.8927 392.058C69.6995 393.936 79.3133 398.292 91.9313 401.898C98.2403 403.625 105.3 405.277 112.811 406.179C113.712 406.329 114.689 406.404 115.665 406.554C116.642 406.629 117.618 406.704 118.519 406.78C120.472 406.93 122.425 407.155 124.303 407.23C128.133 407.455 131.963 407.455 135.644 407.305C143.079 407.08 150.139 406.329 156.599 405.277C162.983 404.226 168.841 402.949 173.798 401.597C178.83 400.32 183.036 398.893 186.566 397.767C190.021 396.49 192.65 395.438 194.303 394.537L187.318 393.486C187.318 393.486 190.172 392.284 193.026 391.082C195.805 389.88 198.659 388.604 198.659 388.604C197.307 388.904 194.903 398.067 193.476 397.466C199.86 395.964 212.929 392.584 228.401 387.627C243.948 382.745 261.749 376.361 278.948 370.428C287.586 367.423 295.998 364.569 303.959 362.016C311.921 359.462 319.431 357.284 326.116 355.481C339.56 351.951 349.85 350.149 354.657 349.773C358.562 349.773 359.088 350.825 358.562 351.726C358.112 352.702 356.684 353.754 356.684 353.904C357.21 353.754 357.736 353.604 358.187 353.453C358.637 353.303 359.013 353.228 359.388 353.078C360.139 352.852 360.665 352.627 361.116 352.402C362.017 351.951 362.393 351.576 362.768 351.275C363.144 350.975 363.444 350.674 364.195 350.449C364.946 350.224 365.998 349.998 367.951 349.848C370.129 350.073 367.725 351.876 366.599 352.402C368.251 352.101 369.903 351.951 371.105 351.876C372.307 351.801 373.133 351.651 373.208 351.05C369.002 350.524 370.429 347.219 368.401 345.342C368.401 345.342 369.002 345.267 369.978 345.191C370.88 345.116 372.157 345.041 373.433 344.966C374.71 344.891 375.912 344.816 376.888 344.816C377.79 344.816 378.466 344.741 378.466 344.741L378.165 346.769C379.217 346.769 380.569 345.267 382.822 343.915C383.948 343.239 385.375 342.638 387.103 342.262C387.929 342.037 388.905 341.962 389.957 341.887C391.008 341.887 392.06 341.887 393.262 342.037C394.313 342.112 395.29 342.187 396.341 342.262C397.393 342.337 398.369 342.413 399.421 342.488C400.547 342.563 401.223 342.638 401.974 342.713L403.101 342.863C403.476 342.938 403.852 342.938 404.152 343.013C405.579 343.239 406.706 343.539 407.682 343.764C408.659 343.99 409.26 344.29 409.635 344.44C409.635 344.44 409.71 344.516 409.785 344.516C409.785 344.516 409.785 344.516 409.785 344.44L409.86 344.365L410.011 343.99C410.236 343.539 410.536 343.088 410.762 342.563C411.062 342.112 411.287 341.661 411.663 341.211C411.963 340.76 412.114 340.46 412.339 340.084C412.564 339.709 412.865 339.333 413.09 338.958L413.541 338.432L413.766 338.207L413.916 337.981C414.292 337.455 414.742 336.855 415.268 336.329C415.569 336.028 415.644 335.878 415.869 335.728C416.019 335.578 416.245 335.352 416.395 335.202L416.695 334.977L416.845 334.827C416.921 334.752 416.921 334.752 416.996 334.752C417.071 334.676 417.221 334.526 417.296 334.451C417.446 334.376 417.521 334.226 417.672 334.151L417.897 334C417.972 333.925 418.047 333.925 418.122 333.85C418.047 333.925 417.897 334 417.822 334H417.747C418.573 331.522 417.972 333.325 418.197 332.724V332.799V332.949L418.423 333.85L418.573 334.301L418.648 334.526V334.676V334.752C418.498 334.676 418.348 334.526 418.197 334.376C418.047 334.226 417.897 334.076 417.822 333.925C417.672 333.85 417.446 334 417.296 334C417.146 334 416.996 334 416.77 334.076C416.695 334.076 416.545 334.076 416.47 334.076H416.094C415.569 334.076 415.268 334.076 414.517 334.076C414.217 334.076 413.916 334.076 413.616 334L413.165 333.925L412.639 333.85C412.865 333.85 413.991 334 415.418 334C415.719 334 416.019 334 416.395 334H416.695H416.845C416.996 334 417.071 334 417.221 334C417.371 334 417.521 333.925 417.596 333.925H417.672L417.747 334L417.897 334.151C417.972 334.301 418.122 334.376 418.272 334.451C418.348 334.526 418.423 334.526 418.498 334.601C418.573 334.676 418.648 334.752 418.573 334.526V334.676H418.498L418.348 334.601C418.272 334.526 418.197 334.451 418.122 334.376C417.972 334.226 417.822 334 417.672 333.85C417.446 333.925 417.221 333.925 416.996 333.925H416.695C416.62 333.925 416.395 333.925 416.245 334C415.944 334 415.644 334 415.343 334H415.118H414.817C414.592 334 414.442 334 414.217 334C413.841 334 413.466 333.925 413.165 333.925C412.79 333.925 412.339 333.85 412.039 333.85C413.39 334 413.466 334 412.94 333.925C412.639 333.925 412.189 333.85 411.663 333.775C411.062 333.7 410.461 333.55 409.785 333.475C408.433 333.174 406.781 332.799 405.955 332.498C405.729 332.423 405.579 332.348 405.504 332.348C405.354 332.348 405.354 332.273 405.354 332.273C405.354 332.273 405.654 332.348 406.255 332.573C405.654 332.348 404.978 332.198 404.302 331.973L404.077 331.897H404.152C404.227 331.897 404.302 331.973 404.302 331.973C404.453 332.123 404.678 332.273 404.753 332.498C404.978 332.949 404.903 333.55 404.678 334.151L404.528 334.601C404.453 334.752 404.378 334.902 404.302 335.127C404.227 335.277 404.152 335.428 404.002 335.653L403.852 335.878L403.777 336.028C404.002 335.728 403.176 336.704 404.378 335.352L404.227 335.503L402.275 337.831L401.749 338.432L401.523 338.582L401.148 338.958C400.998 339.108 400.923 339.183 400.772 339.333C400.772 339.408 400.622 339.483 400.472 339.558L400.172 339.859C399.721 340.234 399.345 340.685 398.895 341.061C397.993 341.812 397.167 342.638 396.191 343.389C394.463 344.966 392.661 346.619 391.309 348.496C391.684 349.548 393.487 354.655 395.29 362.091C396.191 365.771 397.092 370.202 397.843 374.784C398.219 377.112 398.594 379.516 398.895 381.994C399.195 384.473 399.496 386.951 399.721 389.505C400.622 399.644 400.772 409.859 400.772 417.971C400.772 426.007 400.622 431.865 401.073 433.067C399.871 433.518 398.669 433.893 397.468 434.269C396.341 434.644 395.215 435.02 394.238 435.32C392.285 435.846 390.633 436.222 389.882 436.297C390.708 436.672 393.487 436.297 396.642 435.395C399.871 434.494 403.476 433.067 405.88 431.79L405.73 428.861C407.157 428.185 408.208 427.659 409.109 427.209C410.011 426.833 410.612 426.533 411.137 426.383C412.189 426.082 412.564 426.082 413.015 426.232C413.841 426.383 414.742 426.758 420.451 423.829C421.277 424.73 419.099 426.608 415.493 428.786C411.963 430.889 407.006 433.217 402.425 435.02C404.528 434.344 406.706 433.593 408.734 432.917C410.837 432.241 412.865 431.49 414.667 430.739C416.47 429.988 418.122 429.161 419.474 428.335C420.826 427.509 421.802 426.533 422.403 425.556C426.609 423.904 426.76 424.58 427.06 425.256C427.36 425.857 427.886 426.458 433.069 424.054C434.721 422.852 436.448 421.501 438.251 419.998C439.152 419.247 440.054 418.421 441.03 417.67C441.481 417.295 441.931 416.844 442.457 416.468C442.908 416.018 443.433 415.642 443.884 415.192C444.86 414.365 445.837 413.539 446.813 412.713C447.79 411.887 448.766 410.986 449.818 410.159C450.794 409.333 451.845 408.582 452.897 407.756C453.948 406.93 455 406.179 456.051 405.503L456.202 405.953C456.802 405.503 457.478 405.052 458.079 404.601C458.68 404.151 459.281 403.625 459.807 403.174C460.408 402.724 460.933 402.198 461.459 401.747C461.76 401.522 461.985 401.222 462.285 400.996L462.661 400.621C462.811 400.47 462.886 400.395 463.111 400.245C464.313 398.968 465.515 397.767 466.642 396.49C467.167 395.889 467.768 395.213 468.294 394.612C468.594 394.237 468.669 394.161 468.82 394.011L469.195 393.561C469.646 392.96 470.096 392.284 470.547 391.683L470.848 391.232L470.923 391.082L470.998 391.007L471.899 389.88L471.974 389.805L472.275 389.355C472.65 388.754 473.101 388.153 473.476 387.552C475.054 385.149 476.556 382.595 477.908 380.041C480.611 374.859 483.015 369.376 485.343 362.691C485.944 361.039 486.47 359.237 487.071 357.434C487.596 355.556 488.197 353.604 488.648 351.576C488.873 350.524 489.099 349.473 489.399 348.346C489.549 347.82 489.624 347.219 489.775 346.694C489.85 346.093 490 345.492 490.075 344.891C490.3 343.689 490.451 342.488 490.676 341.286C490.826 340.009 490.976 338.657 491.126 337.38C491.126 337.38 491.277 338.582 491.352 339.709C491.502 340.91 491.502 342.037 491.502 342.037C491.727 341.136 491.802 340.159 491.953 339.108C492.103 338.056 492.178 336.93 492.253 335.728C492.328 334.601 492.328 333.249 492.328 331.897C492.328 330.546 492.253 329.194 492.178 327.691C492.028 326.189 491.878 324.687 491.652 323.11C491.577 322.734 491.502 322.359 491.502 321.908L491.427 321.307L491.277 320.481C491.051 319.355 490.826 318.228 490.526 317.101C490.225 315.975 489.925 314.848 489.624 313.646C489.474 313.046 489.249 312.52 489.099 311.919L488.948 311.543C488.798 311.093 488.573 310.567 488.423 310.116V310.041L487.521 307.563V307.488L487.446 307.337L487.146 306.737C486.996 306.286 486.77 305.91 486.62 305.46C486.245 304.634 485.869 303.732 485.493 302.906C484.667 301.179 483.916 299.526 482.865 297.874C481.888 296.221 480.912 294.569 479.86 292.917C479.335 292.091 478.809 291.34 478.208 290.513C477.607 289.762 477.081 289.011 476.481 288.185C474.152 285.031 471.674 282.402 469.045 279.773C468.369 279.097 467.768 278.571 467.167 277.97L465.214 276.243C464.539 275.642 463.938 275.116 463.262 274.515C462.586 273.915 461.985 273.464 461.384 272.938C462.736 274.065 464.163 275.417 465.139 276.543C466.116 277.67 466.717 278.571 466.792 278.947C466.867 279.322 466.341 279.247 465.064 278.421C463.787 277.595 461.609 275.943 458.605 273.99C455.751 271.737 453.122 270.159 450.493 268.582C449.217 267.831 448.015 267.23 446.813 266.629C446.212 266.329 445.611 266.028 445.011 265.728C444.41 265.427 443.884 265.202 443.283 264.977C442.157 264.451 441.03 264 439.978 263.55C438.852 263.099 437.875 262.799 436.899 262.423C435.923 262.048 434.871 261.747 433.895 261.447C432.918 261.146 432.017 260.921 431.116 260.621C423.755 258.593 417.672 257.541 411.738 255.964C411.738 255.964 410.987 256.039 409.936 256.114C409.41 256.189 408.734 256.264 408.058 256.34C407.682 256.415 407.382 256.415 407.006 256.49C406.631 256.565 406.405 256.565 406.105 256.64C403.777 257.091 401.523 257.541 401.523 257.541C400.096 257.466 398.594 257.391 396.942 257.316C395.29 257.316 393.562 257.241 391.684 257.241C387.929 257.166 383.798 257.316 379.217 257.466C370.204 257.917 359.764 258.893 348.798 260.621C337.757 262.348 326.191 264.827 314.624 267.831C303.058 270.835 291.491 274.365 280.3 278.046C269.109 281.726 258.369 285.556 248.305 289.161C238.24 292.767 228.777 296.221 220.29 299.151C211.803 302.155 204.142 304.634 197.757 306.661C196.105 307.187 194.603 307.638 193.176 308.088C191.749 308.539 190.322 308.915 189.045 309.29C186.416 310.041 184.163 310.642 182.21 311.168L183.337 310.492C177.479 312.069 170.944 313.797 163.959 315.224C160.429 315.975 156.974 316.576 153.594 317.101C150.215 317.627 146.91 318.003 143.83 318.153C140.676 318.378 137.747 318.378 135.043 318.228C134.367 318.153 133.691 318.153 133.09 318.078C132.489 318.003 131.813 317.928 131.212 317.852C130.612 317.852 129.936 317.627 129.335 317.552C128.659 317.402 128.058 317.402 127.382 317.176C126.706 317.026 126.105 316.876 125.429 316.726C124.753 316.576 124.152 316.35 123.476 316.125L122.5 315.824L121.524 315.449C120.848 315.224 120.172 314.998 119.571 314.773C116.942 313.721 114.388 312.52 111.91 311.168C109.431 309.666 107.103 308.164 104.85 306.361C104.549 306.136 104.324 305.91 104.024 305.685L103.948 305.61C103.873 305.61 103.948 305.61 103.948 305.61V305.685C103.948 305.685 103.873 305.61 103.798 305.61L103.573 305.46C103.272 305.234 102.972 305.009 102.747 304.709C101.695 303.657 100.494 302.455 99.9678 301.028C99.442 299.526 99.6673 298.024 100.118 296.672C100.644 295.32 101.245 294.118 101.996 292.917C102.371 292.992 102.672 292.992 102.972 293.067C103.122 293.067 103.273 293.067 103.423 293.067C103.498 293.067 103.573 293.067 103.648 293.067L103.723 293.142L103.798 293.217L104.024 293.067L104.474 292.842L105 292.616C105.676 292.241 106.352 291.865 107.028 291.49C109.882 289.988 113.036 288.26 116.041 287.134C112.436 287.96 112.811 286.007 115.365 284.805C116.566 284.279 117.618 283.829 118.519 283.378C119.496 282.927 120.322 282.552 120.998 282.252C122.425 281.576 123.401 281.125 124.152 280.749C125.504 279.998 125.654 279.773 125.73 279.397C125.805 279.097 125.88 278.721 127.307 277.82C128.058 277.37 129.034 276.844 130.687 276.093C131.513 275.717 132.414 275.342 133.541 274.816C134.667 274.365 135.944 273.84 137.371 273.239C144.206 270.385 156.373 266.103 171.169 262.123C178.605 260.095 186.717 258.142 195.204 256.415C199.41 255.513 203.766 254.687 208.197 253.861C212.854 253.035 217.511 252.209 222.167 251.382C241.32 248.078 263.026 244.097 282.253 237.187C287.06 235.46 291.642 233.657 295.998 231.779C297.049 231.329 298.176 230.803 299.227 230.352C300.279 229.902 301.255 229.451 302.382 228.85C304.485 227.799 306.513 226.747 308.466 225.696C316.127 221.49 322.06 217.509 326.191 214.505C333.777 206.468 342.414 197.756 350.075 187.466C353.905 182.284 357.436 176.726 360.29 170.867C363.219 165.009 365.472 158.925 366.824 152.842L366.749 155.47C367.65 152.316 369.152 147.209 370.354 140.374C370.955 136.994 371.405 133.163 371.706 128.957C371.931 124.751 372.006 120.17 371.631 115.438C371.255 110.706 370.579 105.599 369.453 100.567C368.326 95.5347 366.749 90.4274 364.796 85.3952C360.89 75.4059 355.408 66.0175 349.099 57.8308C342.79 49.6441 335.73 42.5089 328.594 36.5754C324.989 33.5711 321.384 30.8673 317.779 28.4638C314.174 25.9853 310.644 23.8072 307.189 21.8544C300.279 17.9488 293.745 15.0196 288.111 12.8415C287.436 12.5411 286.76 12.3157 286.084 12.0904C285.408 11.8651 284.807 11.6398 284.206 11.4896C283.004 11.114 281.878 10.7385 280.751 10.3629C279.699 10.0625 278.723 9.68698 277.747 9.46166C276.845 9.16123 276.019 9.01101 275.268 8.78569C275.268 8.78569 276.019 9.16123 276.77 9.46166C277.146 9.61187 277.521 9.83719 277.822 9.98741C278.122 10.1376 278.272 10.2127 278.272 10.2127C276.996 9.9123 275.719 9.68698 274.592 9.38655C273.466 9.16123 272.414 8.93591 271.438 8.71059C269.485 8.25994 267.833 7.8093 266.406 7.43376C263.551 6.68269 261.524 5.93161 259.571 5.10543C257.693 4.35436 255.891 3.52818 253.562 2.62689C252.436 2.17625 251.084 1.7256 249.581 1.27496C248.079 0.899422 246.277 0.448779 244.174 0.0732422C245.075 2.02603 240.869 2.85221 235.762 3.52818C234.485 3.67839 233.133 3.82861 231.781 3.90372C230.429 4.05393 229.077 4.20414 227.8 4.27925C226.524 4.35436 225.247 4.50458 224.12 4.50458C223.519 4.50458 222.993 4.57968 222.543 4.57968C222.017 4.57968 221.566 4.65479 221.116 4.65479L221.341 3.82861C216.234 4.20415 207.897 5.33076 198.959 7.50887C190.021 9.61188 180.558 12.3908 172.672 15.0196L172.747 12.9166C171.094 13.5926 169.292 14.4187 167.414 15.2449C165.461 16.0711 163.433 16.8973 161.33 17.7235C159.227 18.6248 157.049 19.6011 154.796 20.5024L153.144 21.1784L151.491 21.9295C150.365 22.4552 149.313 22.981 148.187 23.4316C147.06 23.9574 146.009 24.408 144.957 24.9338C143.906 25.4595 142.854 25.9853 141.878 26.511C140.826 27.0368 139.85 27.5625 138.873 28.0132C137.897 28.5389 136.921 28.9896 136.094 29.5153C132.564 31.5432 129.41 33.2707 127.382 34.7728C126.18 35.5239 124.903 36.275 123.551 37.0261C122.876 37.4016 122.2 37.7771 121.524 38.2278C120.848 38.6784 120.172 39.054 119.496 39.5046C116.792 41.2321 113.938 43.1097 111.084 45.1376C109.657 46.1892 108.23 47.2407 106.727 48.2922C105.3 49.4188 103.873 50.5454 102.371 51.7471C101.62 52.348 100.944 52.9488 100.193 53.5497C99.442 54.1505 98.7661 54.8265 98.015 55.4273C96.588 56.7042 95.1609 57.981 93.7339 59.3329C88.1008 64.7407 82.618 70.6741 77.8862 77.2085C75.4077 80.363 73.3047 83.8179 71.2017 87.1978C70.1502 88.9252 69.2489 90.6527 68.3476 92.3802C67.4463 94.1076 66.5451 95.8351 65.794 97.6377C65.794 97.6377 64.8927 98.539 63.5408 99.966C62.8648 100.642 62.0386 101.468 61.2124 102.369C60.3862 103.271 59.485 104.247 58.6588 105.224C56.9313 107.176 55.1287 109.204 53.927 110.781C52.7253 112.359 51.8991 113.41 51.8991 113.41L51.2983 116.415C51.2983 116.415 52.1245 117.316 53.5515 118.743C54.9785 120.17 57.2317 122.198 59.9356 124.451C65.4184 128.957 73.1545 134.215 81.7918 138.346C86.148 140.374 90.6545 142.176 95.236 143.603C97.4892 144.279 99.7425 144.88 101.996 145.331C104.249 145.781 106.502 146.157 108.68 146.382C113.036 146.908 117.167 146.908 120.848 146.307C122.65 146.007 124.453 145.631 126.105 145.03C126.931 144.73 127.757 144.43 128.509 144.054C128.884 143.904 129.26 143.678 129.635 143.453C130.011 143.228 130.386 143.003 130.762 142.777L132.414 143.904C132.414 143.904 132.865 142.852 133.24 141.876C133.616 140.824 134.066 139.848 134.066 139.848C134.968 138.797 135.494 137.82 135.944 136.919C136.169 136.468 136.32 136.093 136.47 135.717C136.62 135.342 136.77 135.041 136.845 134.741C137.296 133.539 137.521 133.088 138.273 133.764C138.273 133.764 138.047 134.14 137.672 134.741C137.446 135.041 137.296 135.342 136.996 135.717C136.77 136.093 136.545 136.468 136.32 136.844C135.418 138.421 134.442 139.998 134.442 139.998C137.521 135.567 136.62 139.397 136.695 141.651C137.296 140.749 137.897 139.848 138.498 139.022C139.099 138.196 139.7 137.445 140.451 136.919C140.376 136.318 140.075 136.318 139.775 136.618C139.399 136.919 138.948 137.369 138.573 137.67C138.948 136.243 139.324 134.515 139.85 132.713C140.451 130.985 141.352 129.333 142.629 128.131C144.356 126.028 145.032 126.404 145.783 126.779C146.159 126.93 146.534 127.08 147.135 126.854C147.436 126.779 147.736 126.554 148.036 126.254C148.412 125.953 148.863 125.578 149.388 124.977L151.416 122.724L153.594 120.621C154.946 119.118 156.599 117.917 158.026 116.49C158.777 115.814 159.603 115.213 160.354 114.612L161.481 113.636L162.081 113.185L162.682 112.734C164.335 111.608 165.837 110.331 167.564 109.354C168.391 108.829 169.217 108.303 170.043 107.777L172.597 106.35L173.873 105.599L175.15 104.923L177.704 103.571C178.53 103.121 179.431 102.82 180.333 102.369C181.234 101.994 182.06 101.543 182.961 101.243C183.863 100.942 184.764 100.567 185.59 100.191L186.266 99.8909L186.942 99.6656L188.294 99.2149C191.899 97.9381 195.654 97.0368 199.41 96.1355C203.24 95.4596 207.071 94.7085 210.976 94.4081C214.882 93.9574 218.787 93.8823 222.693 93.8823C223.669 93.9574 224.646 93.9574 225.622 93.9574C226.148 93.9574 226.599 93.9574 227.124 94.0325L228.627 94.1827C229.603 94.2579 230.579 94.333 231.556 94.4081C232.532 94.5583 233.509 94.6334 234.485 94.7836C235.086 95.6849 234.26 95.5347 233.283 95.8351C233.884 95.8351 234.485 95.9102 235.011 95.9102H235.912L236.738 95.9853C237.865 96.1355 238.991 96.2857 240.118 96.3609C241.245 96.5111 242.296 96.8115 243.348 96.9617C243.873 97.0368 244.399 97.187 244.925 97.2621C245.451 97.4124 245.976 97.5626 246.502 97.6377C247.554 97.9381 248.605 98.0883 249.581 98.3887C250.558 98.6892 251.609 98.9896 252.586 99.29L253.337 99.5154L254.013 99.7407C254.463 99.8909 254.839 99.966 255.29 100.116L256.566 100.492C257.017 100.642 257.468 100.792 257.843 100.942C259.27 102.595 259.195 103.947 259.345 104.998C259.345 104.773 259.871 104.773 260.772 105.148C261.749 105.449 263.026 106.125 264.603 106.951C266.105 107.777 267.833 108.904 269.485 110.181C271.137 111.457 272.639 112.884 273.916 114.236C275.193 115.588 276.094 116.865 276.77 117.917C277.446 118.968 277.747 119.719 277.972 120.32C278.122 121.822 278.047 122.198 277.972 122.273Z" fill="#D7E0FF"/>
</svg>
