<svg width="48" height="14" viewBox="0 0 48 14" fill="none" xmlns="http://www.w3.org/2000/svg">
<path d="M5.238 10.624C5.706 10.624 6.12 10.516 6.48 10.3C6.876 10.072 7.074 9.718 7.074 9.238C7.074 8.998 7.014 8.8 6.894 8.644C6.762 8.464 6.582 8.32 6.354 8.212C6.138 8.092 5.874 8.002 5.562 7.942C5.262 7.882 4.95 7.828 4.626 7.78C4.122 7.708 3.624 7.588 3.132 7.42C2.652 7.252 2.22 7.012 1.836 6.7C1.464 6.388 1.164 5.992 0.936 5.512C0.708 5.056 0.594 4.498 0.594 3.838C0.594 3.802 0.594 3.766 0.594 3.73C0.63 3.13 0.786 2.602 1.062 2.146C1.338 1.678 1.686 1.294 2.106 0.993999C2.538 0.681999 3.024 0.448 3.564 0.291999C4.104 0.135999 4.662 0.0579993 5.238 0.0579993C6.066 0.0579993 6.852 0.231999 7.596 0.579999C8.352 0.927999 9 1.504 9.54 2.308L7.362 3.766C7.086 3.346 6.768 3.04 6.408 2.848C6.048 2.656 5.658 2.56 5.238 2.56C4.986 2.56 4.746 2.584 4.518 2.632C4.29 2.68 4.086 2.758 3.906 2.866C3.726 2.962 3.582 3.094 3.474 3.262C3.366 3.418 3.306 3.604 3.294 3.82V3.838C3.294 4.102 3.354 4.312 3.474 4.468C3.606 4.624 3.774 4.756 3.978 4.864C4.182 4.96 4.416 5.038 4.68 5.098C4.944 5.146 5.214 5.2 5.49 5.26C6.042 5.368 6.576 5.506 7.092 5.674C7.62 5.842 8.082 6.088 8.478 6.412C8.886 6.724 9.204 7.126 9.432 7.618C9.636 8.05 9.738 8.578 9.738 9.202C9.738 9.298 9.738 9.394 9.738 9.49C9.678 10.09 9.504 10.618 9.216 11.074C8.928 11.53 8.556 11.914 8.1 12.226C7.656 12.538 7.152 12.778 6.588 12.946C6.036 13.102 5.472 13.18 4.896 13.18C4.068 13.18 3.258 12.982 2.466 12.586C1.674 12.178 1.008 11.566 0.468 10.75L2.466 9.22C2.754 9.676 3.15 10.024 3.654 10.264C4.158 10.492 4.656 10.612 5.148 10.624C5.184 10.624 5.214 10.624 5.238 10.624ZM14.0285 13.144C13.9565 13.144 13.8845 13.144 13.8125 13.144C13.2725 13.108 12.8045 12.958 12.4085 12.694C12.0125 12.43 11.7005 12.052 11.4725 11.56C11.2565 11.056 11.1485 10.444 11.1485 9.724V1.606H13.4525L13.6325 3.676H15.2885V5.962H13.6325V9.706C13.6325 10.246 13.7825 10.6 14.0825 10.768C14.2625 10.864 14.4965 10.912 14.7845 10.912C15.0005 10.912 15.2585 10.882 15.5585 10.822V12.874C15.0185 13.054 14.5085 13.144 14.0285 13.144ZM20.5145 3.496C20.8625 3.496 21.3005 3.556 21.8285 3.676V5.692C21.6005 5.632 21.3665 5.602 21.1265 5.602C21.0785 5.602 21.0365 5.602 21.0005 5.602C20.7125 5.614 20.4425 5.668 20.1905 5.764C19.9505 5.86 19.7525 5.998 19.5965 6.178C19.4405 6.358 19.3625 6.58 19.3625 6.844V13H16.8605V6.808C16.8605 6.256 16.9685 5.77 17.1845 5.35C17.4125 4.93 17.7005 4.588 18.0485 4.324C18.3965 4.048 18.7865 3.844 19.2185 3.712C19.6625 3.568 20.0945 3.496 20.5145 3.496ZM22.7278 6.826C22.7278 6.274 22.8358 5.794 23.0518 5.386C23.2678 4.966 23.5498 4.618 23.8978 4.342C24.2458 4.066 24.6418 3.856 25.0858 3.712C25.5418 3.568 26.0038 3.496 26.4718 3.496C26.9398 3.496 27.3958 3.568 27.8398 3.712C28.2838 3.856 28.6798 4.066 29.0278 4.342C29.3758 4.618 29.6578 4.966 29.8738 5.386C30.0898 5.794 30.1978 6.274 30.1978 6.826V9.868C30.1978 10.432 30.0898 10.924 29.8738 11.344C29.6578 11.752 29.3758 12.094 29.0278 12.37C28.6798 12.634 28.2838 12.838 27.8398 12.982C27.3958 13.114 26.9398 13.18 26.4718 13.18C26.0038 13.18 25.5418 13.114 25.0858 12.982C24.6418 12.838 24.2458 12.634 23.8978 12.37C23.5498 12.094 23.2678 11.752 23.0518 11.344C22.8358 10.924 22.7278 10.432 22.7278 9.868V6.826ZM26.4718 5.746C26.1718 5.746 25.8898 5.824 25.6258 5.98C25.3618 6.136 25.2298 6.364 25.2298 6.664V9.922C25.2298 10.222 25.3618 10.468 25.6258 10.66C25.8898 10.84 26.1718 10.93 26.4718 10.93C26.7598 10.93 27.0358 10.84 27.2998 10.66C27.5638 10.468 27.6958 10.222 27.6958 9.922V6.664C27.6958 6.364 27.5638 6.136 27.2998 5.98C27.0358 5.824 26.7598 5.746 26.4718 5.746ZM34.3763 13H31.8743V0.274H34.3763V7.204L37.0763 3.676H39.9923L36.2843 8.176C36.8723 8.956 37.4963 9.766 38.1563 10.606C38.8163 11.446 39.4343 12.244 40.0103 13H37.1123L34.5383 9.598L34.3763 9.742V13ZM43.9976 13.18C43.5296 13.18 43.0676 13.114 42.6116 12.982C42.1676 12.838 41.7656 12.628 41.4056 12.352C41.0576 12.076 40.7756 11.734 40.5596 11.326C40.3436 10.906 40.2356 10.42 40.2356 9.868V6.79C40.2356 6.226 40.3436 5.74 40.5596 5.332C40.7876 4.912 41.0756 4.57 41.4236 4.306C41.7836 4.03 42.1916 3.826 42.6476 3.694C43.1036 3.562 43.5656 3.496 44.0336 3.496C44.4896 3.496 44.9336 3.556 45.3656 3.676C45.7976 3.796 46.1816 3.988 46.5176 4.252C46.8536 4.504 47.1236 4.834 47.3276 5.242C47.5316 5.638 47.6336 6.118 47.6336 6.682V9.418H42.7556V9.832C42.7556 10.192 42.8996 10.468 43.1876 10.66C43.4756 10.84 43.7996 10.93 44.1596 10.93C44.4476 10.93 44.7236 10.876 44.9876 10.768C45.2636 10.648 45.4736 10.468 45.6176 10.228L47.2556 11.416C47.0756 11.752 46.8536 12.034 46.5896 12.262C46.3376 12.478 46.0616 12.658 45.7616 12.802C45.4736 12.934 45.1736 13.03 44.8616 13.09C44.5616 13.15 44.2736 13.18 43.9976 13.18ZM45.2756 6.718C45.2756 6.394 45.1496 6.154 44.8976 5.998C44.6456 5.83 44.3636 5.746 44.0516 5.746C43.7276 5.746 43.4276 5.83 43.1516 5.998C42.8876 6.154 42.7556 6.4 42.7556 6.736V7.564H45.2756V6.718Z" fill="white"/>
</svg>
