<svg xmlns="http://www.w3.org/2000/svg" xmlns:xlink="http://www.w3.org/1999/xlink" width="701" height="232" viewBox="0 0 701 232">
  <defs>
    <clipPath id="clip-text-bg">
      <rect width="701" height="232"/>
    </clipPath>
  </defs>
  <g id="text-bg" clip-path="url(#clip-text-bg)">
    <rect width="701" height="232" fill="#151515"/>
    <path id="banner-text-bg" d="M221.318,65.359l1.3-1.543a17.094,17.094,0,0,1,2.028,1.1,6.771,6.771,0,0,1,1.054.852,2.154,2.154,0,0,1,.648,1.177A2.094,2.094,0,0,0,226.913,68a5.337,5.337,0,0,0,.933.731c.2.122.446.284.77.447.162.081.284.162.446.244l.243.122a.884.884,0,0,1,.2.122c1.662-.568,3.608.852,4.905,2.354a5.416,5.416,0,0,1,.446.568,5.106,5.106,0,0,1,.446.528l.365.487c.081.081.122.162.2.2a.705.705,0,0,0,.161.2.723.723,0,0,0,.162.2l.041.041h.082a.933.933,0,0,0,.364-.122c-.162.122-.081.447-.851.812.689-.325.81-.284.81-.2,0,.122-.162.244.041.284.446-.041.446-.162.851-.325a.507.507,0,0,0,.121.081c.082.041.162.122.244.162a1.074,1.074,0,0,0,.243.2.5.5,0,0,0,.082.122,1.882,1.882,0,0,1-.933.244c-.284,0-.608-.041-.649-.122a.151.151,0,0,0-.04.122,205.14,205.14,0,0,0-.082.081,11.3,11.3,0,0,0-.081.162c-.041.041-.082.081-.082.122a1.823,1.823,0,0,1-.567.406c-.081,0-.081.041-.162.041h0l-.041.041c-.04.041-.081.081-.121.081-.2.122-.364.244-.608.365a17.1,17.1,0,0,1-1.54.812c-.567.284-1.257.609-1.987.893a24.639,24.639,0,0,1-2.473.893c-.892.325-1.865.609-2.919.894-.487.162-1.095.284-1.622.406-.567.121-1.1.284-1.662.406l-.851.2-.851.163-1.743.365c-9.325,1.826-20.11,2.314-29.961,2.355-4.906.04-9.528,0-13.582-.041h-5.514c-1.622,0-3.081.041-4.3.081a8.689,8.689,0,0,0,2.351.569c.892.121,1.946.2,2.919.284,2.028.2,3.974.488,5.027,1.38a20.348,20.348,0,0,1-3.2.365c-.933,0-1.784-.041-2.514-.081a7.46,7.46,0,0,0-3.73.325c-.973-1.34-3.689-1.5-6.811-1.665l-2.311-.121a21.1,21.1,0,0,1-2.311-.244,9.582,9.582,0,0,1-3.852-1.217l-1.5,1.543-2.716-.812c-1.459.162-2.8.284-3.973.406-1.176.162-2.19.284-3.082.406-1.783.243-3.121.406-4.054.528-.973.121-1.581.244-2.068.285a4.872,4.872,0,0,1-.973.081c-.527.041-.933-.041-2.554,0-.811.041-1.905.082-3.487.162-1.581.122-3.608.325-6.243.568a64.588,64.588,0,0,0-7.987,1.583q-1.764.427-3.284.853c-1.013.325-1.986.609-2.96.893-1.865.568-3.568,1.1-5.23,1.5a29.873,29.873,0,0,1-5.027.974c1.013-.2,3.852.121.81,1.177-.405-.569-2.432.081-4.581.852-2.148.812-4.378,1.624-5.311,1.177-.364.122-.851.244-1.419.406s-1.176.325-1.825.568c-1.3.406-2.676.894-3.852,1.34-2.351.934-3.851,1.786-1.946,2.152-.973-.2-3.649.406-5.473.691-1.824.324-2.8.365-.324-.934-1.5.487-2.96.893-4.3,1.38a20.911,20.911,0,0,0-3.568,1.624l1.946-.487c.487-.122.973-.244,1.338-.325s.608-.162.608-.162c-1.216.488-2.392.974-3.487,1.38-.568.2-1.095.406-1.622.609-.689.244-1.338.487-1.987.731-.365.122-.77.285-1.135.406-.405.162-.77.325-1.176.488-.77.325-1.5.649-2.23.974-1.46.649-2.838,1.258-4.176,1.867s-2.635,1.218-3.933,1.827c-.649.325-1.257.609-1.865.893a9.892,9.892,0,0,1-.933.447,5.981,5.981,0,0,0-.851.528,71.742,71.742,0,0,0-6.365,4.506l5.8-2.517c-2.108,1.259-4.095,2.435-6,3.532-.973.528-1.865,1.055-2.8,1.583-.243.121-.446.244-.689.365a5.262,5.262,0,0,0-.608.406l-1.216.731a32.632,32.632,0,0,1-8.392,3.9l7.7-5.927c-3.325,2.274-6.325,4.344-9.082,6.252A15.272,15.272,0,0,0,21.4,126.7l-1.7,1.461c-1.095.975-2.149,1.909-3.2,2.842-1.014.934-2.068,1.867-3.081,2.8l-.365.365a2.576,2.576,0,0,0-.324.365l-.527.731L11.1,136.726c-1.419,1.949-2.879,3.937-4.338,6.049l2.554-2.964c-.487.731-1.095,1.7-1.906,2.841a4.351,4.351,0,0,0-.284.447c-.081.162-.162.285-.243.447-.162.284-.365.609-.527.934-.324.65-.73,1.34-1.095,2.07a50.874,50.874,0,0,0-3.2,7.917A43.85,43.85,0,0,0,.075,164.818a37.482,37.482,0,0,0,1.3,12.5,31.142,31.142,0,0,0,2.473,6.17,29,29,0,0,0,3.487,5.2c.649.771,1.3,1.462,1.987,2.152.324.325.689.65,1.014.974.365.285.689.609,1.054.894a38.939,38.939,0,0,0,8.8,5.48c1.46.731,3.081,1.34,4.541,1.908l2.311.73a11.14,11.14,0,0,0,1.095.325c.365.081.77.2,1.135.284.73.162,1.46.365,2.149.528a20.088,20.088,0,0,0,2.068.366c.649.121,1.3.2,1.865.324.608.081,1.216.121,1.743.2.568.041,1.054.081,1.541.121.243,0,.446.041.689.041h.649a1.7,1.7,0,0,0-.2-.082,3.523,3.523,0,0,1-.527-.284c-.405-.244-.973-.528-1.541-.812-.284-.162-.568-.285-.811-.447-.243-.121-.487-.284-.689-.406-.405-.243-.649-.406-.649-.406s.689.081,1.7.244c1.095.082,2.514.244,3.933.325,1.46.081,2.919.122,4.054.162,1.135,0,1.865.041,1.865.041-.649-.082-2.838.852-4.987,1.583-2.149.771-4.338,1.5-4.662,1.137a114.59,114.59,0,0,0,14.109,1.7c.811.041,1.622.081,2.473.162.851.041,1.743.082,2.635.082,1.784.081,3.689.081,5.676.121,3.973,0,8.271-.082,12.812-.285,2.27-.081,4.622-.2,6.974-.325,1.054-.041,2.148-.121,3.243-.162.689-.041,1.419-.082,2.148-.121,2.879-.163,5.839-.285,8.838-.447,6.041-.285,12.365-.568,18.691-.812,12.608-.487,25.218-.893,35.6-1.056,10.379-.2,18.569-.2,22.34-.04,6.122.69,1.135,2.192,1.054,2.395,7.419-.609,3.2-1.5,9.527-1.461,1.743.244-.364,1.1-1.3,1.3,2.757-.2,5.352.244,5.554-.365-3.486-.487-2.027-2.192-3.486-3.288l8.149.082-.365,1.1c1.825,0,4.581-3,12.69-2.476,13.7.325,28.866-.366,43.219-1.259-.081.324-.892.65-2.027.974a37.956,37.956,0,0,1-4.135.893c.973-.04,2.148-.162,3.365-.243a14.267,14.267,0,0,1,3.284.081c-1.784-.446-.284-.73,1.3-.974,1.581-.2,3.284-.446,1.905-.528,5.149-1.827,11.19-2.517,17.109-3.37,1.5-.2,2.96-.446,4.419-.649,1.459-.244,2.879-.528,4.257-.812s2.717-.609,3.973-.974c1.257-.406,2.474-.812,3.609-1.3.081-.609.81-3.694,1.743-8,.933-4.343,1.987-9.905,2.8-15.426.405-2.72.73-5.561,1.013-8.16.284-2.638.446-5.074.567-7.226s.162-3.978.162-5.358a10.79,10.79,0,0,0-.2-2.68,27.593,27.593,0,0,1,5.108-1.42,6.419,6.419,0,0,0-3.122.365,35.349,35.349,0,0,0-4.176,1.5l.041,1.583c-2.594,1.056-3,.974-3.365.771a1.411,1.411,0,0,0-.851-.162,10.574,10.574,0,0,0-2.554.487c-.284-.568.771-1.217,2.392-1.908.81-.365,1.743-.771,2.757-1.137.487-.2,1.013-.365,1.541-.568s1.054-.325,1.54-.568a14.416,14.416,0,0,1-1.419.365c-.487.121-.933.2-1.419.284-.933.2-1.825.366-2.636.609a16.818,16.818,0,0,0-2.148.691,3.859,3.859,0,0,0-1.419,1.015c-1.865.243-1.865-.163-1.946-.528a.509.509,0,0,0-.446-.446,6.435,6.435,0,0,0-2.068,0c-1.541.528-3.284,1.3-5.109,1.989a19.026,19.026,0,0,1-5.8,1.1l.04-.244a34.946,34.946,0,0,0-6.243.69c-1.905.366-3.649.772-5.352,1.259-.446.121-.851.244-1.3.325s-.892.2-1.3.285c-.892.2-1.784.365-2.717.487s-1.865.244-2.878.325a28.338,28.338,0,0,1-3.2-.041l.933-.488a38.221,38.221,0,0,0-6.568.2c-1.338.122-2.757.2-4.176.285a40.2,40.2,0,0,1-4.419-.121c1.662.162,3.162,1.014-.324,1.3-.851-.082-1.662-.082-2.432-.121s-1.541-.041-2.271-.041c-1.459,0-2.838.041-4.135.041a39.166,39.166,0,0,1-7.582-.406l-4.824,1.258c-1.5,0-3.324.041-5.352.041-2.068.041-4.378.041-6.892.082-5.068.081-11.068.162-17.6.324-13.1.284-28.461.771-43.827,1.38s-30.731,1.38-43.826,2.111c-1.622.082-3.243.162-4.784.285l-2.311.122c-.082,0-.162.041-.244.041-.325.041-.648.121-.973.162a13.41,13.41,0,0,1-1.541.162l.244-.2a12.644,12.644,0,0,1-1.865.121,7.381,7.381,0,0,1-2.23-.325,2.054,2.054,0,0,1-.973-.69,1.869,1.869,0,0,1-.324-1.137,3.283,3.283,0,0,1,1.176-2.111,29.154,29.154,0,0,1,2.392-1.908c.2-.162.446-.284.689-.447a6.575,6.575,0,0,0,.69-.446c.243-.122.486-.285.73-.406A2.535,2.535,0,0,1,81,151.1l.082-.041c.041,0,.041-.041.162-.081l.527-.244c.365-.162.73-.285,1.095-.447.73-.284,1.459-.609,2.148-.893.73-.285,1.459-.528,2.189-.812,1.459-.527,2.879-1.056,4.3-1.583,1.459-.488,2.879-.934,4.257-1.38.69-.244,1.379-.447,2.068-.69l2.068-.609c1.379-.406,2.717-.812,4.055-1.177s2.635-.691,3.932-1.015,2.514-.691,3.73-.974,2.432-.568,3.568-.812a67.687,67.687,0,0,0,9.2-.527c1.622-.162,3.243-.285,4.825-.447.77-.081,1.581-.121,2.311-.2.77-.041,1.5-.081,2.23-.081-3.2-.2-2.23-1.137.284-1.34,2.189-.2,3.811-.324,5.068-.446,1.256-.081,2.108-.162,2.716-.244,1.217-.162,1.338-.285,1.5-.447.325-.284.608-.771,9.527-1.3,1.3-.082,2.838-.162,4.581-.244,1.784-.041,3.73-.081,5.919-.121,4.379-.041,9.568,0,15.407.041s12.365.081,19.339-.163a215.717,215.717,0,0,0,22.1-1.746c3.811-.528,7.663-1.177,11.514-2.029,1.905-.365,3.811-.894,5.716-1.38,1.865-.447,3.811-1.015,5.716-1.624a91.292,91.292,0,0,0,11.6-4.547,72.188,72.188,0,0,0,11.108-6.617l1.46-1.1c.486-.365.932-.771,1.419-1.137.933-.771,1.825-1.583,2.676-2.355a59.789,59.789,0,0,0,4.7-4.994,54.886,54.886,0,0,0,6.811-10.27,51.506,51.506,0,0,0,3.729-9.581,49.374,49.374,0,0,0,1.5-7.754c0-.609-.04-1.177-.04-1.786a6.554,6.554,0,0,0-.041-.893c-.041-.284-.041-.609-.082-.893-.121-1.218-.2-2.436-.365-3.654s-.365-2.476-.567-3.694c-.284-1.218-.568-2.476-.852-3.694a56.319,56.319,0,0,0-6-14.29c-.648-1.137-1.379-2.233-2.108-3.329-.364-.528-.73-1.1-1.135-1.624s-.81-1.055-1.176-1.543c-.405-.528-.81-1.015-1.216-1.543-.405-.487-.851-.974-1.256-1.461-.365-.406-.771-.812-1.135-1.258-.365-.406-.731-.771-1.095-1.137l-1.1-1.1c-.364-.365-.73-.731-1.094-1.055-.73-.65-1.5-1.3-2.23-1.949-.73-.609-1.5-1.177-2.23-1.705-.73-.568-1.5-1.055-2.23-1.543l1.379.528q-.548-.426-1.338-.974c-.243-.162-.487-.365-.771-.568l-.851-.609q-.912-.609-1.946-1.34c-.689-.447-1.419-.934-2.23-1.461-.405-.284-.77-.487-1.176-.731s-.77-.487-1.216-.731c-.81-.487-1.662-1.015-2.554-1.543s-1.825-1.015-2.8-1.543c-.487-.284-.974-.528-1.459-.812s-1.014-.568-1.541-.812c-2.068-1.015-4.257-2.152-6.568-3.166-.568-.244-1.136-.528-1.744-.771-.284-.122-.567-.244-.892-.406-.284-.122-.607-.244-.892-.365q-1.764-.731-3.649-1.461c-4.906-1.908-10.095-3.654-15.325-5.115-5.19-1.421-10.379-2.639-15.366-3.654C196.3,5.074,191.56,4.3,187.3,3.735c-2.149-.284-4.176-.528-6.041-.731s-3.649-.365-5.23-.528c-3.162-.244-5.716-.406-7.46-.447l1.824.406c-1.5,0-2.8,0-3.932-.041s-2.068-.041-2.919-.122a22.776,22.776,0,0,1-4.014-.609C158.4,1.38,157.342,1.1,156,.771A36.809,36.809,0,0,0,150.612,0c.607,1.015-1.7,1.705-4.622,2.192-1.459.2-3.081.447-4.581.609s-2.879.244-3.852.284l.162-.447c-2.96.122-7.744.812-13.014,1.461-2.635.365-5.352.771-8.068,1.137-1.338.2-2.676.325-3.973.487s-2.554.325-3.771.447l.284-1.1c-1.986.447-4.459.812-7.054,1.177-2.635.406-5.433.771-8.189,1.055-1.379.162-2.717.365-4.055.528-1.3.162-2.554.325-3.729.487s-2.271.284-3.243.447c-.974.122-1.825.284-2.554.406-1.662.2-3.406.406-5.271.609-.933.122-1.865.2-2.879.325-.973.122-1.946.244-2.96.406-2.027.284-4.135.568-6.284.853-.527.081-1.095.162-1.622.244s-1.095.162-1.622.284c-1.095.2-2.189.365-3.324.568-1.095.2-2.23.406-3.365.609-.568.122-1.135.2-1.7.325l-1.7.365c-2.27.487-4.541,1.015-6.771,1.583l-1.7.406c-.568.162-1.135.325-1.662.487-1.095.325-2.23.65-3.325,1.015-1.095.325-2.189.69-3.243,1.055-1.095.365-2.149.731-3.162,1.137,0,0-3,.081-5.96.2-1.5.041-3,.081-4.135.162s-1.865.122-1.865.122l-1.5.812a56.674,56.674,0,0,0-.527,6.414,67.846,67.846,0,0,0,.851,14.087c.892,5.115,2.595,10.23,5.473,14.127a15.868,15.868,0,0,0,12.447,6.861v1.137l3.933-1.34a26.757,26.757,0,0,0,5.23-1.583c1.095-.406,1.541-.568,1.541,0,0,0-.405.122-1.014.244-.324.081-.689.162-1.054.284s-.811.2-1.216.325c-1.622.447-3.284.934-3.284.934,4.865-1.137,1.7.406.041,1.543a37.956,37.956,0,0,1,5.635-1.1c.851-.65-.811-.244-1.622-.244,2.473-1.1,5.8-3.045,9.082-3.41,4.987-1.137.73,1.624,6.527.325a348.765,348.765,0,0,1,45.895-6.5,451.771,451.771,0,0,1,46.421-1.177c.69.447-.162.447-1.054.609,1.176-.041,2.351-.041,3.487-.081,1.135,0,2.27.041,3.406.081,2.23.081,4.459.122,6.649.244,4.338.284,8.635.487,12.851.69a7.52,7.52,0,0,1,3.446,1.989c-.648-.487,10.947.487,21.528,3.045a107.485,107.485,0,0,1,13.947,4.3c.446.162.892.365,1.3.528s.81.325,1.176.487c.73.325,1.338.609,1.865.853A12.532,12.532,0,0,1,221.318,65.359Z" transform="translate(417 13)" fill="#fff" opacity="0.3"/>
  </g>
</svg>
